<?xml version="1.0" encoding="UTF-8" standalone="no"?>
<!-- Created with Inkscape (http://www.inkscape.org/) -->

<svg
   width="120"
   height="120"
   viewBox="0 0 31.749999 31.750001"
   version="1.1"
   id="svg8"
   inkscape:version="1.3.2 (091e20e, 2023-11-25, custom)"
   sodipodi:docname="sign__car_repair.svg"
   xml:space="preserve"
   xmlns:inkscape="http://www.inkscape.org/namespaces/inkscape"
   xmlns:sodipodi="http://sodipodi.sourceforge.net/DTD/sodipodi-0.dtd"
   xmlns="http://www.w3.org/2000/svg"
   xmlns:svg="http://www.w3.org/2000/svg"
   xmlns:rdf="http://www.w3.org/1999/02/22-rdf-syntax-ns#"
   xmlns:cc="http://creativecommons.org/ns#"
   xmlns:dc="http://purl.org/dc/elements/1.1/"><defs
     id="defs2" /><sodipodi:namedview
     id="base"
     pagecolor="#ffffff"
     bordercolor="#ff6666"
     borderopacity="1"
     inkscape:pageopacity="0.0"
     inkscape:pageshadow="2"
     inkscape:zoom="4"
     inkscape:cx="40.75"
     inkscape:cy="16.875"
     inkscape:document-units="mm"
     inkscape:current-layer="layer2"
     showgrid="false"
     units="px"
     inkscape:window-width="1920"
     inkscape:window-height="1017"
     inkscape:window-x="-8"
     inkscape:window-y="-8"
     inkscape:window-maximized="1"
     showguides="true"
     inkscape:showpageshadow="2"
     inkscape:pagecheckerboard="0"
     inkscape:deskcolor="#d1d1d1" /><metadata
     id="metadata5"><rdf:RDF><cc:Work
         rdf:about=""><dc:format>image/svg+xml</dc:format><dc:type
           rdf:resource="http://purl.org/dc/dcmitype/StillImage" /></cc:Work></rdf:RDF></metadata><g
     inkscape:label="Layer 1"
     inkscape:groupmode="layer"
     id="layer1"
     transform="translate(0,-265.24998)"
     style="display:inline"><rect
       style="display:none;fill:#ffffff;fill-opacity:1;stroke:none;stroke-width:0.266788"
       id="rect4485"
       width="32.072342"
       height="32.473248"
       x="0"
       y="265.06128" /></g><g
     inkscape:groupmode="layer"
     id="layer3"
     inkscape:label="Layer 3"
     style="display:inline" /><g
     inkscape:groupmode="layer"
     id="layer2"
     inkscape:label="Layer 2"
     style="display:inline"><path
       inkscape:connector-curvature="0"
       d="m -0.6950602,32.718506 m 33.1390622,0 H -0.6950602 V -0.42320067 H 32.444002 Z"
       id="path3067"
       style="display:inline;fill:#ffffff;stroke-width:0.264583" /><rect
       style="display:inline;fill:none;stroke:#000000;stroke-width:0.691645;stroke-linejoin:round;stroke-miterlimit:4;stroke-dasharray:none;stroke-opacity:1"
       id="rect3339"
       width="30.345327"
       height="30.551216"
       x="0.6361891"
       y="0.59939218" /><path
       inkscape:connector-curvature="0"
       d="m 21.352404,4.5702787 c 0.388673,0 0.363802,0.316178 0.363802,0.316178 0,0 -0.02381,2.1209 0,2.1209 0,0.268816 -0.2667,0.268816 -0.2667,0.268816 h -2.241814 v 1.094581 c 0,0 2.119841,0.02434 2.094971,0 0.461962,0 0.413543,0.414867 0.413543,0.414867 0,0 0,1.2665613 0,1.2422193 0,0.461433 -0.43815,0.437092 -0.43815,0.437092 0,0 -0.535252,0.04974 -0.535252,0 -1.705239,0 -1.534848,1.631949 -1.534848,1.631949 v 3.386932 l 0.779198,0.779727 c 0,0 0,10.910358 0,10.886281 0,0.390789 -0.682096,0.390789 -0.682096,0.390789 -0.510645,0 -0.754591,0.317236 -0.72972,0.317236 0,0.363802 -0.705909,0.437092 -0.705909,0.437092 0,0 -0.706966,-0.07329 -0.706966,-0.437092 0.02381,0 -0.219075,-0.317236 -0.731838,-0.317236 0,0 -0.681037,0 -0.681037,-0.390789 0,0.02434 0,-10.886281 0,-10.886281 l 0.779198,-0.779727 v -3.386667 c 0,0 -0.121973,-1.63195 -1.997869,-1.63195 h -3.237971 c 0,0 -0.196321,0 -0.196321,-0.267758 0,0 0,-1.6319503 0,-1.6054923 0,-0.246592 0.220133,-0.221192 0.220133,-0.221192 -0.02381,0.02434 5.212028,0 5.212028,0 v -1.094581 h -5.260711 c 0,0 -0.195262,0 -0.195262,-0.195262 -0.02487,-0.02487 0,-1.436688 0,-1.436688 0,0 0,-0.220133 0.220133,-0.220133 h 2.776008 l 0.852752,-0.853811 c 0,0 6.405827,-0.02302 6.430698,0"
       id="path3069"
       style="display:inline;fill:#000000;stroke-width:0.264583" /></g></svg>
