<?xml version="1.0" encoding="UTF-8" standalone="no"?>
<!-- Created with Inkscape (http://www.inkscape.org/) -->

<svg
   width="120"
   height="120"
   viewBox="0 0 31.749999 31.750001"
   version="1.1"
   id="svg8"
   inkscape:version="1.3.2 (091e20e, 2023-11-25, custom)"
   sodipodi:docname="sign__maxlength15.svg"
   inkscape:export-filename="sign__maxlength15.png"
   inkscape:export-xdpi="96"
   inkscape:export-ydpi="96"
   xmlns:inkscape="http://www.inkscape.org/namespaces/inkscape"
   xmlns:sodipodi="http://sodipodi.sourceforge.net/DTD/sodipodi-0.dtd"
   xmlns="http://www.w3.org/2000/svg"
   xmlns:svg="http://www.w3.org/2000/svg"
   xmlns:rdf="http://www.w3.org/1999/02/22-rdf-syntax-ns#"
   xmlns:cc="http://creativecommons.org/ns#"
   xmlns:dc="http://purl.org/dc/elements/1.1/">
  <defs
     id="defs2" />
  <sodipodi:namedview
     id="base"
     pagecolor="#ffffff"
     bordercolor="#ff6666"
     borderopacity="1"
     inkscape:pageopacity="0.0"
     inkscape:pageshadow="2"
     inkscape:zoom="3.0300319"
     inkscape:cx="101.97912"
     inkscape:cy="58.910271"
     inkscape:document-units="mm"
     inkscape:current-layer="layer6"
     showgrid="false"
     units="px"
     inkscape:window-width="1920"
     inkscape:window-height="1017"
     inkscape:window-x="-8"
     inkscape:window-y="-8"
     inkscape:window-maximized="1"
     showguides="true"
     inkscape:showpageshadow="2"
     inkscape:pagecheckerboard="0"
     inkscape:deskcolor="#d1d1d1" />
  <metadata
     id="metadata5">
    <rdf:RDF>
      <cc:Work
         rdf:about="">
        <dc:format>image/svg+xml</dc:format>
        <dc:type
           rdf:resource="http://purl.org/dc/dcmitype/StillImage" />
      </cc:Work>
    </rdf:RDF>
  </metadata>
  <g
     inkscape:groupmode="layer"
     id="layer2"
     inkscape:label="Layer 4">
    <rect
       style="opacity:1;fill:#ffff00;fill-opacity:1;stroke:none;stroke-width:2.82700014;stroke-linecap:round;stroke-linejoin:round;stroke-miterlimit:4;stroke-dasharray:none;stroke-opacity:1"
       id="rect882"
       width="30.345327"
       height="30.551216"
       x="0.66785318"
       y="0.71575403" />
    <path
       d="m 1.17662,15.97179 c 0,-8.0468794 6.5237756,-14.5712618 14.571867,-14.5712618 8.047486,0 14.571869,6.5243824 14.571869,14.5712618 0,8.048698 -6.524383,14.572474 -14.571869,14.572474 -8.0480914,0 -14.571867,-6.523776 -14.571867,-14.572474"
       id="path3099"
       style="fill:#e41408;stroke-width:0.605848" />
    <path
       d="m 5.062531,15.97179 c 0,-5.901569 4.7837795,-10.6853485 10.685956,-10.6853485 5.902176,0 10.685956,4.7837795 10.685956,10.6853485 0,5.900965 -4.78378,10.685956 -10.685956,10.685956 -5.9021765,0 -10.685956,-4.784386 -10.685956,-10.685956"
       id="path3101"
       style="fill:#ffffff;stroke-width:0.605848" />
    <path
       d="m 24.146153,10.78694 c 0.168417,0 0.168417,0.167821 0.168417,0.167821 v 5.448395 h -2.154397 c -0.141762,0.642199 -0.714296,1.122637 -1.398299,1.122637 -0.690668,0 -1.279552,-0.471957 -1.415261,-1.122637 h -7.362878 c -0.141763,0.642199 -0.713689,1.122637 -1.397691,1.122637 -0.7112664,0 -1.3007579,-0.518001 -1.4128401,-1.19655 H 7.2835635 c 0,0 -0.1484262,0.02787 -0.1484262,-0.150258 -0.015113,0.01511 0,-0.577981 0,-0.577981 0,0 0,-0.119345 0.1187501,-0.119345 0,-0.01466 0.5052788,0 0.5052788,0 v -1.514621 c 0,0 0,-0.669463 0.8172897,-0.669463 0.014426,0.01443 1.4849351,0 1.4849351,0 0,0 0.16418,0.07451 0.223555,-0.11875 -0.01511,-0.01511 0.608878,-2.072002 0.608878,-2.072002 0,0 0.02968,-0.07391 0.148426,-0.08846 0.0297,0 1.64912,0 1.64912,0 0,0 -0.01397,-0.216296 0.16418,-0.231434 h 11.290592"
       id="path3103"
       style="fill:#1c1d20;stroke-width:0.605848" />
    <path
       d="m 11.681426,11.797495 c 0,0.01511 0.876058,0 0.876058,0 0,0 0.133886,0 0.133886,0.13329 v 1.292275 c 0,0 0.02968,0.13329 -0.133886,0.13329 -0.01466,0 -1.262589,0 -1.262589,0 0,0 -0.11875,0 -0.11875,-0.117536 0.01443,-0.0158 0.371383,-1.352859 0.371383,-1.352859 0,0 0,-0.08846 0.133886,-0.08846"
       id="path3105"
       style="fill:#ffffff;stroke-width:0.605848" />
    <path
       d="m 12.149142,20.628947 c 0,0.227197 -0.199329,0.199329 -0.199329,0.199329 H 9.9074968 c 0,0 0.028485,0.513761 0,0.513761 0,0.4144 -0.4568078,0.170843 -0.4568078,0.170843 L 6.9509578,20.029763 C 6.7946546,19.929194 6.809195,19.854683 6.809195,19.854683 c 0,0 -0.013968,-0.07211 0.1417628,-0.170843 L 9.450689,18.1983 c 0,0 0.4568078,-0.242338 0.4568078,0.172676 0.028485,0 0,0.513153 0,0.513153 h 2.0423162 c 0,0 0.199329,-0.02848 0.199329,0.199329 0.01466,-6.07e-4 0.01466,1.545519 0,1.545519"
       id="path3115"
       style="fill:#1c1d20;stroke-width:0.605848" />
    <path
       d="m 19.347227,20.628947 c 0,0.227197 0.199924,0.199329 0.199924,0.199329 h 2.04171 c 0,0 -0.02908,0.513761 0,0.513761 0,0.4144 0.457414,0.170843 0.457414,0.170843 L 24.5454,20.029763 c 0.156921,-0.100569 0.141763,-0.17508 0.141763,-0.17508 0,0 0.01465,-0.07211 -0.141763,-0.170843 L 22.046282,18.1983 c 0,0 -0.457414,-0.242338 -0.457414,0.172676 -0.02908,0 0,0.513153 0,0.513153 h -2.04171 c 0,0 -0.199924,-0.02848 -0.199924,0.199329 -0.01397,-6.07e-4 -0.01397,1.545519 0,1.545519"
       id="path3117"
       style="fill:#1c1d20;stroke-width:0.605848" />
    <path
       d="m 12.907057,18.604808 h 0.473169 v 2.271932 h -0.520424 v -1.490994 h -0.378656 v -0.44954 h 0.284144 c 0.09452,-0.05514 0.141762,-0.126008 0.141762,-0.213251 z"
       id="path3109"
       style="fill:#1c1d20;stroke-width:0.605848" />
    <path
       d="m 17.147391,19.199147 c 0.109041,0 0.242946,0.07089 0.401678,0.212655 0.111469,-0.141167 0.26839,-0.212655 0.471955,-0.212655 0.393801,0.06302 0.59131,0.259908 0.59131,0.591307 v 1.086286 h -0.472562 v -0.850006 c 0,-0.23628 -0.07877,-0.354421 -0.236282,-0.354421 -0.141763,0.01992 -0.213251,0.09088 -0.213251,0.212656 v 0.992378 h -0.495591 v -0.992378 c 0,-0.141168 -0.08724,-0.212656 -0.260515,-0.212656 -0.07089,0.02544 -0.126009,0.0727 -0.164798,0.141167 v 1.063265 h -0.496191 v -1.629732 h 0.401678 c 0.03151,0 0.04726,0.03151 0.04726,0.09391 h 0.02363 c 0.132077,-0.09391 0.265968,-0.141763 0.401678,-0.141763 z"
       id="path3113"
       style="fill:#1c1d20;stroke-width:0.605848" />
    <text
       xml:space="preserve"
       style="font-style:normal;font-variant:normal;font-weight:normal;font-stretch:normal;font-size:3.46097px;font-family:TrafficTypeW01-SpainD;-inkscape-font-specification:'TrafficTypeW01-SpainD, Normal';font-variant-ligatures:normal;font-variant-caps:normal;font-variant-numeric:normal;font-variant-east-asian:normal;fill:#000000;stroke:#ffffff;stroke-width:0"
       x="13.664827"
       y="20.919659"
       id="text1"><tspan
         sodipodi:role="line"
         id="tspan1"
         x="13.664827"
         y="20.919659"
         style="stroke-width:0">5</tspan></text>
  </g>
  <g
     inkscape:label="Layer 1"
     inkscape:groupmode="layer"
     id="layer1"
     transform="translate(0,-265.24998)"
     style="display:none">
    <rect
       style="fill:#ffffff;fill-opacity:1;stroke:none;stroke-width:0.26678821"
       id="rect4485"
       width="32.072342"
       height="32.473248"
       x="0"
       y="265.06128" />
    <rect
       style="opacity:1;fill:#ffffff;fill-opacity:1;stroke:none;stroke-width:2.82700014;stroke-linecap:round;stroke-linejoin:round;stroke-miterlimit:4;stroke-dasharray:none;stroke-opacity:1"
       id="rect17301"
       width="6.5248661"
       height="6.1620426"
       x="11.863675"
       y="278.13794" />
    <rect
       style="opacity:1;fill:#ffffff;fill-opacity:1;stroke:none;stroke-width:2.82700014;stroke-linecap:round;stroke-linejoin:round;stroke-miterlimit:4;stroke-dasharray:none;stroke-opacity:1"
       id="rect17303"
       width="3.9687495"
       height="4.7625022"
       x="14.419791"
       y="279.53748" />
    <rect
       style="opacity:1;fill:#ffffff;fill-opacity:1;stroke:none;stroke-width:2.82700014;stroke-linecap:round;stroke-linejoin:round;stroke-miterlimit:4;stroke-dasharray:none;stroke-opacity:1"
       id="rect17307"
       width="23.283333"
       height="21.034374"
       x="8.6903715"
       y="276.09381" />
  </g>
  <g
     inkscape:groupmode="layer"
     id="layer3"
     inkscape:label="Layer 3"
     style="display:inline">
    <rect
       style="display:inline;fill:none;stroke:#000000;stroke-width:0.69164503;stroke-linejoin:round;stroke-miterlimit:4;stroke-dasharray:none;stroke-opacity:1"
       id="rect3339"
       width="30.345327"
       height="30.551216"
       x="0.66785318"
       y="0.71575415" />
  </g>
  <g
     inkscape:groupmode="layer"
     id="layer6"
     inkscape:label="Layer 2"
     style="display:inline" />
</svg>
