<?xml version="1.0" encoding="UTF-8" standalone="no"?>
<svg
   width="1299.7473"
   height="478"
   id="svg3272"
   version="1.1"
   inkscape:version="1.3.2 (091e20e, 2023-11-25, custom)"
   sodipodi:docname="ES_CAT_ID440.svg"
   xmlns:inkscape="http://www.inkscape.org/namespaces/inkscape"
   xmlns:sodipodi="http://sodipodi.sourceforge.net/DTD/sodipodi-0.dtd"
   xmlns="http://www.w3.org/2000/svg"
   xmlns:svg="http://www.w3.org/2000/svg"
   xmlns:rdf="http://www.w3.org/1999/02/22-rdf-syntax-ns#"
   xmlns:cc="http://creativecommons.org/ns#"
   xmlns:dc="http://purl.org/dc/elements/1.1/">
  <defs
     id="defs3274" />
  <sodipodi:namedview
     id="base"
     pagecolor="#ffffff"
     bordercolor="#666666"
     borderopacity="1.0"
     inkscape:pageopacity="0.0"
     inkscape:pageshadow="2"
     inkscape:zoom="0.70710678"
     inkscape:cx="717.00628"
     inkscape:cy="366.98842"
     inkscape:document-units="px"
     inkscape:current-layer="layer2"
     showgrid="false"
     fit-margin-top="0"
     fit-margin-left="0"
     fit-margin-right="0"
     fit-margin-bottom="0"
     inkscape:window-width="1920"
     inkscape:window-height="1017"
     inkscape:window-x="-8"
     inkscape:window-y="-8"
     inkscape:window-maximized="1"
     inkscape:document-rotation="0"
     inkscape:showpageshadow="false"
     inkscape:pagecheckerboard="true"
     inkscape:deskcolor="#d1d1d1" />
  <metadata
     id="metadata3277">
    <rdf:RDF>
      <cc:Work
         rdf:about="">
        <dc:format>image/svg+xml</dc:format>
        <dc:type
           rdf:resource="http://purl.org/dc/dcmitype/StillImage" />
        <dc:title />
      </cc:Work>
    </rdf:RDF>
  </metadata>
  <g
     inkscape:label="Capa 1"
     inkscape:groupmode="layer"
     id="layer1"
     transform="translate(244.4286,-504.79077)"
     style="display:inline">
    <g
       inkscape:groupmode="layer"
       id="layer12"
       inkscape:label="E-80">
      <rect
         style="fill:#008000;stroke:#ffffff;stroke-width:20;stroke-linecap:round;stroke-linejoin:round;stroke-miterlimit:3.864;stroke-dasharray:none"
         id="rect9789"
         width="1279.7473"
         height="458"
         x="-234.4286"
         y="514.79077"
         ry="74.953316"
         rx="74.953316" />
    </g>
  </g>
  <g
     inkscape:groupmode="layer"
     id="layer2"
     inkscape:label="Capa 2"
     style="display:inline"
     transform="translate(10.000008,9.999977)">
    <path
       style="font-weight:bold;font-size:379.886px;line-height:222.59px;font-family:TrafficTypeW01-SpainD;-inkscape-font-specification:'TrafficTypeW01-SpainD Bold';letter-spacing:0px;word-spacing:0px;fill:#ffffff;stroke-width:0.999996px"
       d="m 383.97632,274.71777 q -15.57533,38.36849 -45.58632,59.26222 -30.01099,20.51384 -70.27891,20.51384 -27.73168,0 -50.52483,-9.49715 -22.79316,-9.87704 -39.50815,-27.35179 -16.33509,-17.47476 -25.45236,-41.78746 -9.11726,-24.3127 -9.11726,-53.94381 0,-28.49145 8.35749,-52.04438 8.35749,-23.93282 25.07247,-41.40757 17.09487,-18.23453 40.64781,-27.73168 23.55293,-9.877036 49.76506,-9.877036 41.02769,0 71.41857,20.893726 30.39087,20.89373 44.82654,58.88233 l -60.78176,21.6535 q -6.07817,-20.51384 -20.89373,-31.91042 -14.43566,-11.39658 -34.94951,-11.39658 -13.67589,0 -24.69259,5.3184 -11.01669,4.93852 -18.99429,14.81556 -7.97761,9.49715 -12.15636,23.17304 -4.17874,13.29601 -4.17874,30.011 0,34.94951 16.3351,53.94381 7.9776,9.49714 19.75407,14.81555 12.15635,5.3184 25.07247,5.3184 20.51384,0 35.3294,-12.15635 15.19544,-12.53624 19.37418,-32.29031 z m 107.50748,8.73738 h -87.37377 v -48.24552 h 87.37377 z m 139.03863,64.58062 H 572.39987 V 182.02559 h -42.92712 v -50.52484 h 22.41328 q 11.77646,0 18.61441,-6.83794 6.83795,-6.83795 6.83795,-18.61442 V 94.651814 h 53.18404 z m 173.2283,-123.46295 q -15.95521,0 -25.07247,10.25692 -9.11727,9.87704 -9.11727,26.97191 0,17.09487 9.11727,26.9719 9.11726,9.87704 25.07247,9.87704 15.57533,0 24.69259,-9.87704 9.49715,-9.87703 9.49715,-26.59202 0,-17.47475 -9.11726,-27.35179 -9.11727,-10.25692 -25.07248,-10.25692 z m 31.53054,-58.88233 q -6.83795,-21.6535 -30.01099,-21.6535 -8.3575,0 -15.57533,3.03909 -7.21783,3.03909 -12.53624,8.73738 -5.3184,5.3184 -8.73738,12.53624 -3.03908,7.21783 -3.41897,15.57532 8.73738,-6.45806 20.51384,-9.87704 12.15636,-3.79886 25.45237,-3.79886 18.23452,0 33.42996,6.83795 15.57533,6.83795 26.59202,18.9943 11.39658,11.77647 17.47476,28.49145 6.45806,16.71498 6.45806,36.08917 0,20.51384 -6.45806,37.60871 -6.45807,16.71499 -18.23453,28.87134 -11.77647,12.15635 -28.11156,18.9943 -15.95522,6.83794 -35.70929,6.83794 -23.93281,0 -42.92711,-9.11726 -18.61442,-9.49715 -31.91043,-26.9719 -12.91612,-17.85465 -19.75407,-43.30701 -6.83795,-25.45236 -6.83795,-57.36278 0,-34.56963 7.59772,-60.02199 7.97761,-25.83224 23.93282,-41.40757 11.77647,-11.77646 29.25122,-18.234526 17.85464,-6.837948 38.36849,-6.837948 20.51384,0 38.36848,6.837948 18.23453,6.458066 29.25122,18.614416 4.93852,5.3184 8.73738,12.15635 3.79886,6.45806 7.97761,16.71498 z m 320.62393,129.16124 v 53.18404 H 974.69956 v -42.92712 q 0,-3.79886 1.13966,-6.07818 1.13966,-2.27931 4.17875,-4.55863 l 75.97723,-57.36278 q 21.2736,-15.95521 31.1506,-30.77077 10.2569,-15.19544 10.2569,-30.01099 0,-14.43567 -10.2569,-23.17304 -9.877,-9.11727 -26.9719,-9.11727 -17.8546,0 -28.1116,10.63681 -9.877,10.63681 -9.877,29.63111 0,2.27931 0,4.17874 0,1.89943 0.7598,4.93852 h -59.64212 q -0.37988,-4.93852 -0.75977,-8.35749 0,-3.79886 0,-6.07818 0,-20.51384 6.83795,-37.22882 6.83795,-16.71499 19.37419,-28.49145 12.91615,-12.15635 30.77075,-18.614416 17.8547,-6.458062 39.888,-6.458062 22.0334,0 39.8881,6.458062 18.2345,6.458066 31.1506,18.234526 12.9161,11.77647 19.7541,28.49145 6.8379,16.71498 6.8379,37.22883 0,24.69259 -9.877,43.68689 -9.4971,18.99429 -31.5305,38.36848 l -39.1283,34.18974 z"
       id="text850"
       transform="scale(0.98997863,1.0101228)"
       aria-label="C-162" />
  </g>
</svg>
