<?xml version="1.0" encoding="UTF-8" standalone="no"?>
<svg
   version="1.2"
   width="280.18329"
   height="225.42574"
   id="svg2"
   sodipodi:docname="ES_CAT_OR25b.svg"
   inkscape:version="1.3.2 (091e20e, 2023-11-25, custom)"
   xmlns:inkscape="http://www.inkscape.org/namespaces/inkscape"
   xmlns:sodipodi="http://sodipodi.sourceforge.net/DTD/sodipodi-0.dtd"
   xmlns="http://www.w3.org/2000/svg"
   xmlns:svg="http://www.w3.org/2000/svg"
   xmlns:rdf="http://www.w3.org/1999/02/22-rdf-syntax-ns#"
   xmlns:cc="http://creativecommons.org/ns#"
   xmlns:dc="http://purl.org/dc/elements/1.1/">
  <sodipodi:namedview
     pagecolor="#ffffff"
     bordercolor="#666666"
     borderopacity="1"
     objecttolerance="10"
     gridtolerance="10"
     guidetolerance="10"
     inkscape:pageopacity="0"
     inkscape:pageshadow="2"
     inkscape:window-width="1920"
     inkscape:window-height="1017"
     id="namedview6959"
     showgrid="false"
     inkscape:showpageshadow="false"
     inkscape:pagecheckerboard="true"
     fit-margin-top="0"
     fit-margin-left="0"
     fit-margin-right="0"
     fit-margin-bottom="0"
     inkscape:zoom="1.4142136"
     inkscape:cx="246.78026"
     inkscape:cy="177.83735"
     inkscape:window-x="-8"
     inkscape:window-y="-8"
     inkscape:window-maximized="1"
     inkscape:current-layer="layer11"
     inkscape:deskcolor="#d1d1d1" />
  <metadata
     id="metadata4176">
    <rdf:RDF>
      <cc:Work
         rdf:about="">
        <dc:format>image/svg+xml</dc:format>
        <dc:type
           rdf:resource="http://purl.org/dc/dcmitype/StillImage" />
        <dc:title />
      </cc:Work>
    </rdf:RDF>
  </metadata>
  <defs
     id="defs4174" />
  <g
     inkscape:groupmode="layer"
     id="layer11"
     inkscape:label="Layer 2"
     style="display:inline"
     transform="translate(-0.34581736,-0.58423565)">
    <g
       id="g4288"
       transform="translate(0.34581736,0.81577574)">
      <path
         d="m 280.61654,206.39556 c -0.32105,11.33972 -0.12913,18.55519 -13.53841,18.54044 L 8.528642,224.65162 C -0.1906312,224.64203 0.099,222.67799 0.099,204.12055 V 29.791 C 0.099,13.391 -1.6190762,0.1 14.784924,0.1 H 261.10522 c 21.43268,0 19.33839,13.047897 19.3397,15.130926 L 280.55866,195.248 Z"
         id="path4058"
         style="fill:#ffffff"
         sodipodi:nodetypes="cssssssscc" />
      <path
         d="m 279.85255,195.248 c 0,12.03902 1.66756,22.4089 -3.94604,27.06682 -2.02925,1.6838 -0.0602,2.62118 -4.41513,2.62118 H 19.789949 C 3.3859491,224.936 0.099,227.56408 0.099,211.17308 V 13.410917 C 0.099,-2.9890832 13.396,0.1 29.8,0.1 h 225.3103 c 16.402,0 24.74125,-0.81407161 24.74125,15.585928 V 195.248 Z"
         id="path4060"
         style="fill:none;stroke:#1c1d20;stroke-width:0.198;stroke-miterlimit:3.864"
         sodipodi:nodetypes="csssssssscc" />
      <path
         d="m 196.17591,97.069017 -7.98894,15.975383 5.32595,-1.0647 v 13.31555 h 5.32282 V 111.9797 l 5.32597,1.0647 -7.9858,-15.975383"
         id="polyline4064"
         style="fill:#1c1d20;stroke-width:1" />
      <path
         d="m 145.51095,147.73461 15.97222,7.98453 -1.06406,-5.32218 h 13.31239 v -5.32722 h -13.31239 l 1.06406,-5.32471 -15.97222,7.98958"
         id="polyline4066"
         style="fill:#1c1d20;stroke-width:1" />
      <path
         d="m 198.83574,187.7508 h -5.32343 v -62.45555 h 5.32343 z"
         id="path4068"
         style="fill:#1c1d20;stroke-width:1"
         sodipodi:nodetypes="ccccc" />
      <path
         d="m 183.418,169.9097 c 3.74538,2.19071 8.10401,3.45013 12.75855,3.45013 13.96739,0 25.29328,-11.32337 25.29328,-25.29456 0,-13.96739 -11.32589,-25.28948 -25.29328,-25.28948 -13.96992,0 -25.29202,11.32209 -25.29202,25.28948 0,4.58626 1.21642,8.88863 3.34768,12.59291 l 8.78559,-5.01871 c -1.28409,-2.2299 -2.01747,-4.81575 -2.01747,-7.5742 0,-8.37968 6.79274,-15.17369 15.17622,-15.17369 8.38094,0 15.17369,6.79401 15.17369,15.17369 0,8.38473 -6.79275,15.17875 -15.17369,15.17875 -2.8046,0 -5.42966,-0.76058 -7.68295,-2.08701 l -5.0756,8.75269"
         id="path4070"
         style="fill:#1c1d20;stroke-width:1" />
      <path
         d="m 272.32356,193.593 c 0,13.766 1.01306,24.937 -12.89694,24.937 H 31.864 c -13.91,0 -25.185,2.93407 -25.185,-10.83193 V 19.159937 C 6.679,5.3809376 17.954,6.51 31.864,6.51 h 215.27756 c 13.909,0 25.182,-2.9500716 25.182,10.829928 z"
         id="path4072"
         style="fill:none;stroke:#1c1d20;stroke-width:5;stroke-miterlimit:3.864"
         sodipodi:nodetypes="sssssssss" />
      <g
         id="g4168" />
      <g
         id="E-80"
         transform="matrix(0.04676273,0,0,0.06166455,214.03401,35.72616)"
         inkscape:label="E-80"
         style="display:inline;stroke-width:18.6223">
        <path
           style="fill:#ffffff;fill-opacity:1;stroke-width:18.6223"
           d="m -877.11397,119.96468 v -229 H 208.88608 v 229 229 H -877.11397 Z"
           id="path2390-0"
           sodipodi:nodetypes="ccccccc"
           inkscape:connector-curvature="0" />
      </g>
      <path
         d="m 142.89536,43.377678 h -9.53321 v 3.757389 h 8.50847 v 4.347392 h -8.50847 v 3.912653 h 10.4648 v 4.564761 H 128.61107 V 39.247656 h 14.28429 z m 19.78062,1.894221 q -1.0558,-0.869478 -2.51528,-1.366323 -1.42843,-0.527898 -2.82581,-0.527898 -1.08684,0 -1.73895,0.465792 -0.65211,0.465792 -0.65211,1.21106 0,0.55895 0.40368,0.900531 0.43474,0.341581 1.36633,0.55895 l 2.36001,0.558951 q 3.38476,0.77632 5.12371,2.515276 1.73896,1.738957 1.73896,4.347392 0,1.459482 -0.62106,2.670541 -0.59,1.211059 -1.7079,2.080537 -1.08685,0.838426 -2.60844,1.304218 -1.52158,0.496845 -3.3537,0.496845 -3.01212,0 -5.68266,-1.180007 -2.67054,-1.211059 -4.4095,-3.353702 l 4.13002,-3.012121 q 0.86948,1.33527 2.51528,2.11159 1.6458,0.77632 3.60213,0.77632 1.18,0 1.89422,-0.527898 0.74526,-0.527897 0.74526,-1.397376 0,-0.683161 -0.55895,-1.1179 -0.52789,-0.43474 -1.7079,-0.77632 l -2.85686,-0.714215 q -1.18,-0.341581 -1.95632,-0.621056 -0.77632,-0.279475 -1.36633,-0.652109 -1.24211,-0.807372 -1.95632,-2.11159 -0.68317,-1.304217 -0.68317,-2.825805 0,-1.397376 0.5279,-2.515276 0.55895,-1.148954 1.52159,-1.956327 0.99369,-0.807372 2.39106,-1.242112 1.39738,-0.434739 3.13634,-0.434739 5.21687,0 9.25373,3.477914 z m 23.25854,-1.676851 h -6.02424 V 59.959873 H 175.1592 V 43.595048 h -5.99319 v -4.347392 h 16.76851 z m 17.91747,-0.21737 h -9.53321 v 3.757389 h 8.50847 v 4.347392 h -8.50847 v 3.912653 h 10.46479 v 4.564761 H 189.5677 V 39.247656 h 14.28429 z m 10.46477,4.471604 h 4.25424 q 0.83842,0 1.45948,-0.621056 0.62105,-0.652109 0.62105,-1.55264 0,-0.900532 -0.62105,-1.521588 -0.62106,-0.652108 -1.45948,-0.652108 h -4.25424 z m 4.87529,-8.601626 q 2.91896,0 4.78213,2.018432 0.80738,0.900531 1.27317,2.080538 0.46579,1.148953 0.46579,2.32896 0,1.956326 -1.0558,3.508966 -1.05579,1.521587 -2.98106,2.422118 l 5.0616,8.353203 h -5.18582 l -4.81318,-7.856358 h -2.42212 v 7.856358 h -4.65792 V 39.247656 Z m 16.64433,8.601626 h 4.25423 q 0.83843,0 1.45948,-0.621056 0.62106,-0.652109 0.62106,-1.55264 0,-0.900532 -0.62106,-1.521588 -0.62105,-0.652108 -1.45948,-0.652108 h -4.25423 z m 4.87529,-8.601626 q 2.91896,0 4.78213,2.018432 0.80737,0.900531 1.27316,2.080538 0.46579,1.148953 0.46579,2.32896 0,1.956326 -1.05579,3.508966 -1.0558,1.521587 -2.98107,2.422118 l 5.06161,8.353203 h -5.18582 l -4.81318,-7.856358 h -2.42212 v 7.856358 h -4.65792 V 39.247656 Z m 16.73748,20.712217 h -4.75108 V 39.247656 h 4.75108 z"
         id="text8415"
         style="font-size:31.0528px;line-height:18.195px;font-family:TrafficTypeW01-SpainD;-inkscape-font-specification:TrafficTypeW01-SpainD;letter-spacing:0px;word-spacing:0px;stroke-width:1px"
         aria-label="ESTERRI" />
      <path
         d="m 135.98809,84.190444 h 2.75966 q 0.8279,0 1.53035,-0.351229 0.70246,-0.351229 1.17913,-0.978424 0.50176,-0.652283 0.77772,-1.530356 0.27597,-0.903161 0.27597,-1.981936 0,-1.078776 -0.27597,-1.981936 -0.27596,-0.903161 -0.77772,-1.530356 -0.47667,-0.652283 -1.17913,-1.003512 -0.70245,-0.351229 -1.53035,-0.351229 h -2.75966 z m 2.75966,-13.22127 q 1.73106,0 3.16106,0.627195 1.43001,0.602107 2.45861,1.70597 1.0286,1.103863 1.58053,2.634219 0.57702,1.530356 0.57702,3.386853 0,1.856497 -0.57702,3.411941 -0.55193,1.530355 -1.58053,2.634219 -1.0286,1.103863 -2.45861,1.731058 -1.43,0.602107 -3.16106,0.602107 h -6.59809 V 70.969174 Z m 12.36827,5.01756 h -2.18264 l -0.32614,-5.01756 h 2.83492 z m 11.21425,-5.895633 h -3.2865 l -2.23282,-3.913697 h 4.1144 z m -1.70597,5.594579 -1.83141,5.845457 h 3.78826 z m 8.10336,12.017056 h -4.06422 l -0.85299,-2.584043 h -6.14651 l -0.77772,2.584043 h -3.96387 l 5.24335,-16.733562 h 4.84194 z m 14.35023,-5.995984 V 70.969174 h 3.76317 v 16.733562 h -4.18966 l -7.09985,-10.612139 v 10.612139 h -3.76317 V 70.969174 h 4.18966 z m 20.14548,-7.400901 h -7.70195 v 3.035624 h 6.87405 v 3.512292 h -6.87405 v 3.161062 h 8.45458 v 3.687907 H 191.68298 V 70.969174 h 11.54039 z m 18.81583,-3.336677 v 10.03512 q 0,3.110887 -2.10737,5.142998 -2.0572,1.981936 -5.01756,1.981936 -1.43001,0 -2.70949,-0.501755 -1.25439,-0.501756 -2.28298,-1.480181 -2.10738,-2.032111 -2.10738,-5.142998 v -10.03512 h 3.83843 v 10.03512 q 0,0.702458 0.25088,1.304565 0.25088,0.602107 0.67737,1.053688 0.45158,0.426492 1.05369,0.67737 0.60211,0.250878 1.30456,0.250878 0.67738,0 1.27948,-0.250878 0.60211,-0.250878 1.0286,-0.67737 0.45158,-0.451581 0.70246,-1.053688 0.25088,-0.602107 0.25088,-1.304565 v -10.03512 z"
         id="text8415-6-1"
         style="font-size:25.0878px;line-height:14.6999px;font-family:TrafficTypeW01-SpainD;-inkscape-font-specification:TrafficTypeW01-SpainD;letter-spacing:0px;word-spacing:0px;stroke-width:1px"
         aria-label="D'ÀNEU &#10;" />
      <path
         d="m 46.031856,143.34032 h -9.533209 v 3.75739 h 8.508467 v 4.34739 h -8.508467 v 3.91265 H 46.96344 v 4.56477 H 31.747568 V 139.2103 h 14.284288 z m 19.780613,1.89422 q -1.055795,-0.86948 -2.515277,-1.36632 -1.428429,-0.5279 -2.825805,-0.5279 -1.086848,0 -1.738956,0.46579 -0.652109,0.4658 -0.652109,1.21106 0,0.55895 0.403686,0.90053 0.434739,0.34158 1.366323,0.55895 l 2.360013,0.55895 q 3.384755,0.77632 5.123712,2.51528 1.738957,1.73896 1.738957,4.34739 0,1.45948 -0.621056,2.67054 -0.590003,1.21106 -1.707904,2.08054 -1.086848,0.83843 -2.608435,1.30422 -1.521587,0.49684 -3.353703,0.49684 -3.012121,0 -5.682662,-1.18 -2.670541,-1.21106 -4.409497,-3.35371 l 4.130022,-3.01212 q 0.869478,1.33527 2.515277,2.11159 1.645798,0.77632 3.602124,0.77632 1.180007,0 1.894221,-0.52789 0.745267,-0.5279 0.745267,-1.39738 0,-0.68316 -0.55895,-1.1179 -0.527898,-0.43474 -1.707904,-0.77632 l -2.856858,-0.71422 q -1.180006,-0.34158 -1.956326,-0.62105 -0.77632,-0.27948 -1.366323,-0.65211 -1.242112,-0.80737 -1.956326,-2.11159 -0.683162,-1.30422 -0.683162,-2.8258 0,-1.39738 0.527898,-2.51528 0.55895,-1.14896 1.521587,-1.95633 0.993689,-0.80737 2.391065,-1.24211 1.397376,-0.43474 3.136333,-0.43474 5.21687,0 9.253734,3.47791 z m 17.141124,3.50897 q 0.993689,0 1.676851,-0.77632 0.714214,-0.77632 0.714214,-1.92528 0,-1.14895 -0.714214,-1.92527 -0.683162,-0.77632 -1.676851,-0.77632 h -3.8816 v 5.40319 z m -0.06211,-9.53321 q 1.614746,0 2.950016,0.5279 1.366323,0.49684 2.32896,1.39737 0.99369,0.90053 1.521587,2.1737 0.55895,1.24211 0.55895,2.73264 0,1.39738 -0.527897,2.67055 -0.496845,1.24211 -1.397376,2.17369 -0.99369,1.02474 -2.266854,1.52159 -1.273165,0.46579 -2.950016,0.46579 h -4.036864 v 7.04899 h -4.87529 V 139.2103 Z m 19.749603,4.44055 q -1.08684,0 -2.04948,0.46579 -0.962638,0.46579 -1.676853,1.33527 -1.211059,1.52159 -1.211059,4.22318 0,1.39738 0.279475,2.42212 0.310528,0.99369 0.931584,1.80106 0.714215,0.86948 1.676853,1.33527 0.96264,0.4658 2.08054,0.4658 1.08684,0 2.04948,-0.4658 0.96264,-0.46579 1.67685,-1.33527 1.21106,-1.58369 1.21106,-4.13002 0,-1.49053 -0.31053,-2.48422 -0.27947,-1.02475 -0.90053,-1.83212 -0.71421,-0.86948 -1.7079,-1.33527 -0.96264,-0.46579 -2.04949,-0.46579 z m 0,-4.75108 q 2.26686,0 4.19213,0.80737 1.92527,0.80738 3.32265,2.36002 2.63949,2.85685 2.63949,7.7632 0,2.32896 -0.74527,4.28528 -0.74527,1.95633 -2.08054,3.38476 -1.33527,1.39737 -3.22949,2.17369 -1.86317,0.77632 -4.09897,0.77632 -2.26685,0 -4.130019,-0.77632 -1.863168,-0.77632 -3.198438,-2.20475 -1.335271,-1.42842 -2.080538,-3.4158 -0.714214,-1.98738 -0.714214,-4.37845 0,-2.39106 0.745267,-4.37844 0.745267,-1.98738 2.080537,-3.38476 1.335271,-1.42843 3.198439,-2.20475 1.863166,-0.80737 4.098966,-0.80737 z m 29.40703,4.65792 h -6.02425 v 16.36483 h -4.75107 v -16.36483 h -5.99319 v -4.34739 h 16.76851 z"
         id="text8415-5"
         style="font-size:31.0528px;line-height:18.195px;font-family:TrafficTypeW01-SpainD;-inkscape-font-specification:TrafficTypeW01-SpainD;letter-spacing:0px;word-spacing:0px;stroke-width:1px"
         aria-label="ESPOT" />
    </g>
  </g>
</svg>
