<?xml version="1.0" encoding="UTF-8" standalone="no"?>
<svg
   version="1.2"
   width="294.24561"
   height="184.08519"
   id="svg2"
   sodipodi:docname="ES_CAT_OR43a.svg"
   inkscape:version="1.3.2 (091e20e, 2023-11-25, custom)"
   xmlns:inkscape="http://www.inkscape.org/namespaces/inkscape"
   xmlns:sodipodi="http://sodipodi.sourceforge.net/DTD/sodipodi-0.dtd"
   xmlns="http://www.w3.org/2000/svg"
   xmlns:svg="http://www.w3.org/2000/svg"
   xmlns:rdf="http://www.w3.org/1999/02/22-rdf-syntax-ns#"
   xmlns:cc="http://creativecommons.org/ns#"
   xmlns:dc="http://purl.org/dc/elements/1.1/">
  <sodipodi:namedview
     pagecolor="#ffffff"
     bordercolor="#666666"
     borderopacity="1"
     objecttolerance="10"
     gridtolerance="10"
     guidetolerance="10"
     inkscape:pageopacity="0"
     inkscape:pageshadow="2"
     inkscape:window-width="1920"
     inkscape:window-height="1017"
     id="namedview6659"
     showgrid="false"
     inkscape:zoom="1"
     inkscape:cx="281"
     inkscape:cy="-174.5"
     inkscape:window-x="-8"
     inkscape:window-y="-8"
     inkscape:window-maximized="1"
     inkscape:current-layer="layer11"
     fit-margin-top="0"
     fit-margin-left="0"
     fit-margin-right="0"
     fit-margin-bottom="0"
     inkscape:document-rotation="0"
     inkscape:showpageshadow="false"
     inkscape:pagecheckerboard="true"
     inkscape:deskcolor="#d1d1d1" />
  <metadata
     id="metadata4010">
    <rdf:RDF>
      <cc:Work
         rdf:about="">
        <dc:format>image/svg+xml</dc:format>
        <dc:type
           rdf:resource="http://purl.org/dc/dcmitype/StillImage" />
        <dc:title />
      </cc:Work>
    </rdf:RDF>
  </metadata>
  <defs
     id="defs4008" />
  <g
     inkscape:groupmode="layer"
     id="layer11"
     inkscape:label="Layer 1"
     style="display:inline"
     transform="translate(-3.649623,3.1800487)">
    <path
       d="m 297.78649,167.75296 c 0.34023,3.78664 -0.062,7.63133 -2.00947,10.56364 -0.32361,0.201 -0.33662,0.51165 -1.994,1.10397 l -3.76478,1.34548 c 6.75792,0.22776 -110.91668,-0.12768 -197.607333,0.0615 -21.662089,0.0473 -43.199414,-0.13864 -59.929292,0.0398 -4.918851,0.0525 -9.30894,0.0456 -13.375464,0.008 -2.857475,-0.0261 -5.713385,0.0277 -7.797074,-0.33358 -7.1943343,-1.24731 -6.8155146,-5.45662 -6.8294367,-8.88412 L 3.95942,43.58345 C 3.8872772,25.822451 0.30006,28.067368 19.51187,28.067368 h 262.91995 c 10.13712,0 13.30972,-0.514541 14.43956,1.430214 1.01172,1.741448 0.87916,5.355066 0.91195,13.745841 0.14946,38.241615 -0.15031,50.816319 -0.0413,89.075477 0.0539,18.9121 0.007,-19.37763 -0.0157,-0.56247 -0.0113,9.43886 0.32673,26.51339 0.0602,35.99653 z"
       id="path3217"
       style="fill:#000080;stroke-width:0.999997"
       sodipodi:nodetypes="ccscsssssssssssscc" />
    <path
       d="m 289.76093,164.09696 c 0,10.76106 1.16348,8.93465 -9.59873,8.89385 L 16.67497,171.99195 C 5.91277,171.95115 8.49073,172.4475 8.49073,161.6855 V 43.435851 c 0,-10.764824 -0.45905,-8.93697 10.30314,-8.895729 l 260.66203,0.998862 c 10.76221,0.04124 10.30503,0.955173 10.30503,11.720937 z"
       id="path3243"
       style="fill:none;stroke:#ffffff;stroke-width:4;stroke-miterlimit:3.864"
       sodipodi:nodetypes="sssssssss" />
    <path
       d="m 149.77141,111.24644 11.77976,12.24534 13.04607,-19.78424 -0.78137,40.70944 -40.69586,-0.77639 20.26885,-12.29038 -20.10715,-20.23658 8.16234,-7.85846"
       id="polyline3245"
       style="fill:#ffffff;stroke-width:0.999998"
       sodipodi:nodetypes="cccccccc" />
    <text
       xml:space="preserve"
       style="font-size:38.6689px;line-height:22.6576px;font-family:'Andale Mono IPA';-inkscape-font-specification:'Andale Mono IPA';letter-spacing:0px;word-spacing:0px;fill:#ffffff;fill-opacity:1;stroke:none;stroke-width:0.999997px;stroke-linecap:butt;stroke-linejoin:miter;stroke-opacity:1"
       x="307.61365"
       y="178.6953"
       id="text4113"
       transform="scale(1.067666,0.9366225)"><tspan
         sodipodi:role="line"
         id="tspan4111"
         x="307.61365"
         y="178.6953"
         style="font-style:normal;font-variant:normal;font-weight:normal;font-stretch:normal;font-size:38.6689px;font-family:'Highway Gothic Wide';-inkscape-font-specification:'Highway Gothic Wide';fill:#ffffff;fill-opacity:1;stroke:none;stroke-width:0.999997px" /></text>
    <path
       style="font-size:39.8218px;line-height:23.333px;font-family:'Highway Gothic Wide';-inkscape-font-specification:'Highway Gothic Wide';letter-spacing:0px;word-spacing:0px;fill:#ffffff;stroke-width:0.999998px"
       d="m 66.630409,72.309565 q 0,8.203291 -6.451132,11.787253 -2.906991,1.592872 -6.291844,1.592872 H 45.285924 V 59.009083 h 8.601509 q 3.424675,0 6.371488,1.712338 6.371488,3.623784 6.371488,11.588144 z m -4.778616,0 q 0,-5.2963 -3.942358,-7.486499 Q 56.077632,63.7877 53.887433,63.7877 h -3.74325 v 17.123374 h 3.74325 q 1.951268,0 3.822893,-1.035367 4.141467,-2.230021 4.141467,-7.566142 z m 25.68503,5.137012 H 75.630105 q 0.159287,2.070734 1.353941,3.185744 1.234476,1.11501 2.508774,1.11501 1.632693,0 3.225565,-1.513228 l 2.946814,2.946813 q -2.508774,2.986635 -6.172379,2.986635 -3.583962,0 -6.092736,-2.906991 -2.468952,-2.946813 -2.468952,-7.207746 0,-4.221111 2.42913,-7.167924 2.42913,-2.946813 5.933449,-2.946813 4.141467,0.03982 6.172379,3.185744 2.030911,3.145922 2.070733,6.928993 z m -4.698972,-3.743249 q -0.07964,-1.55305 -1.115011,-2.548595 -0.995545,-0.995545 -2.309664,-0.955724 -1.473407,-0.03982 -2.548595,1.035367 -1.035367,1.035367 -1.075189,2.468952 z m 24.012579,6.451131 q -0.0398,2.628239 -2.23002,4.300755 -2.1902,1.632694 -5.734342,1.672515 -4.738795,-0.07964 -8.681153,-2.309664 l 2.150377,-4.141467 q 3.384853,1.951268 6.41131,1.99109 1.951268,0 2.668058,-0.477862 0.75662,-0.477861 0.75662,-1.314119 0,-0.87608 -0.7168,-1.31412 -0.71679,-0.438039 -2.906987,-0.836257 -4.380398,-0.756615 -5.933448,-2.309665 -1.513228,-1.592872 -1.473407,-3.384853 -0.03982,-2.548595 1.99109,-4.340576 2.030912,-1.831803 5.495409,-1.831803 3.902533,0 7.486503,2.110556 l -1.95127,3.862714 q -2.46895,-1.393763 -5.415768,-1.55305 -1.752159,0.03982 -2.349486,0.43804 -0.597327,0.358396 -0.597327,0.995545 -0.03982,0.637149 0.557505,0.955723 0.637149,0.318574 2.389308,0.557505 4.141468,0.517684 6.092738,2.269843 1.95127,1.712337 1.99109,4.65915 z m 14.85355,0.477862 -1.39376,5.017547 q -1.19466,0.477861 -2.62824,0.517683 -2.26985,0 -3.58397,-1.712337 -1.27429,-1.752159 -1.27429,-4.300755 v -9.358123 h -3.18575 v -4.460041 h 3.18575 v -5.336122 l 4.85826,-2.429129 v 7.765251 h 4.022 v 4.460041 h -4.022 v 9.119193 q 0.11946,1.831802 1.71233,1.791981 1.11501,0.07964 2.30967,-1.075189 z m 8.92009,-19.751613 q 0,1.035367 -0.7168,1.752159 -0.71679,0.716793 -1.67251,0.716793 -1.03537,0 -1.71234,-0.676971 -0.67697,-0.676971 -0.67697,-1.791981 0,-0.955723 0.67697,-1.632694 0.71679,-0.67697 1.71234,-0.67697 0.95572,0 1.67251,0.67697 0.7168,0.676971 0.7168,1.632694 z m 0,5.336121 V 85.68969 h -4.77862 V 66.216829 Z m 4.1415,0.119466 h 4.49986 v 1.513228 q 1.79199,-1.791981 4.7388,-1.791981 3.14592,0 5.09719,2.190199 1.99109,2.150377 2.03091,5.614874 V 85.68969 h -4.77861 V 74.101546 q 0,-1.55305 -0.95573,-2.548595 -0.9159,-0.995545 -2.50877,-0.995545 -1.43359,0 -2.5486,1.075188 -1.07519,1.035367 -1.07519,2.389308 V 85.68969 h -4.49986 z m 36.03876,19.353395 h -4.49986 v -0.836258 q -2.11056,1.194654 -4.77862,1.194654 -3.42467,0 -5.21665,-1.911447 -1.79198,-1.951268 -1.79198,-4.898081 0,-3.026457 2.11055,-4.698972 2.15038,-1.672516 5.37594,-1.672516 2.1902,0 4.26094,0.597327 -0.0796,-3.026457 -3.30521,-3.225566 -2.38931,-0.03982 -4.69898,1.393763 l -2.23002,-3.54414 q 3.58397,-2.349486 7.00864,-2.349486 3.30521,0 5.53523,2.269842 2.23002,2.269843 2.23002,5.893627 z m -4.49986,-4.738795 v -3.265387 q -2.30967,-0.637149 -4.06183,-0.637149 -1.63269,0 -2.54859,0.716792 -0.9159,0.716793 -0.9159,1.712338 0,1.035367 0.87608,1.791981 0.87608,0.756614 2.46895,0.756614 1.79198,0 4.18129,-1.075189 z m 23.89312,1.553051 q -2.94682,3.663605 -7.20775,3.663605 -4.022,0 -6.65024,-2.867169 -2.62824,-2.906992 -2.62824,-7.327212 0,-4.420219 2.62824,-7.327211 2.62824,-2.906991 6.65024,-2.906991 4.26093,0 7.20775,3.663605 l -2.82735,2.827348 q -1.87162,-1.752159 -4.30075,-1.871624 -2.11056,0 -3.4645,1.592872 -1.31412,1.55305 -1.31412,4.022001 0,2.42913 1.31412,4.022002 1.35394,1.592872 3.4645,1.592872 2.42913,-0.199109 4.022,-2.190199 z m 8.48207,-21.623238 q 0,1.035367 -0.71679,1.752159 -0.71679,0.716793 -1.67252,0.716793 -1.03536,0 -1.71233,-0.676971 -0.67697,-0.676971 -0.67697,-1.791981 0,-0.955723 0.67697,-1.632694 0.71679,-0.67697 1.71233,-0.67697 0.95573,0 1.67252,0.67697 0.71679,0.676971 0.71679,1.632694 z m 0,5.336121 V 85.68969 h -4.77861 V 66.216829 Z m 20.86666,9.756341 q 0,4.221111 -2.50877,7.207746 -2.46895,2.986635 -6.01309,2.986635 -3.58396,0 -6.05292,-2.986635 -2.46895,-2.986635 -2.46895,-7.207746 0,-4.260932 2.46895,-7.247567 2.46896,-2.986635 6.05292,-2.986635 3.54414,0 6.01309,2.986635 2.50877,2.986635 2.50877,7.247567 z m -4.61933,0 q 0,-2.389308 -1.07518,-3.902536 -1.07519,-1.55305 -2.78753,-1.55305 -1.79198,0 -2.86717,1.55305 -1.07519,1.55305 -1.07519,3.902536 0,2.349487 1.07519,3.942359 1.07519,1.55305 2.86717,1.55305 1.71234,0 2.78753,-1.55305 1.07518,-1.592872 1.07518,-3.942359 z m 7.606,-9.636875 h 4.49986 v 1.513228 q 1.79198,-1.791981 4.7388,-1.791981 3.14592,0 5.09719,2.190199 1.99109,2.150377 2.03091,5.614874 V 85.68969 h -4.77862 V 74.101546 q 0,-1.55305 -0.95572,-2.548595 -0.9159,-0.995545 -2.50877,-0.995545 -1.43359,0 -2.5486,1.075188 -1.07519,1.035367 -1.07519,2.389308 V 85.68969 h -4.49986 z m 35.79983,13.818164 q -0.0398,2.628239 -2.23002,4.300755 -2.1902,1.632694 -5.73434,1.672515 -4.7388,-0.07964 -8.68115,-2.309664 l 2.15037,-4.141467 q 3.38486,1.951268 6.41131,1.99109 1.95127,0 2.66806,-0.477862 0.75662,-0.477861 0.75662,-1.314119 0,-0.87608 -0.71679,-1.31412 -0.7168,-0.438039 -2.907,-0.836257 -4.38039,-0.756615 -5.93344,-2.309665 -1.51323,-1.592872 -1.47341,-3.384853 -0.0398,-2.548595 1.99109,-4.340576 2.03091,-1.831803 5.49541,-1.831803 3.90253,0 7.4865,2.110556 l -1.95127,3.862714 q -2.46895,-1.393763 -5.41577,-1.55305 -1.75216,0.03982 -2.34948,0.43804 -0.59733,0.358396 -0.59733,0.995545 -0.0398,0.637149 0.55751,0.955723 0.63714,0.318574 2.3893,0.557505 4.14147,0.517684 6.09274,2.269843 1.95127,1.712337 1.99109,4.65915 z"
       id="text5780"
       transform="scale(1.0010324,0.99896865)"
       aria-label="Destinacions" />
    <path
       id="rect5280"
       style="display:inline;fill:#000080;stroke:#ffffff;stroke-width:1.99999;stroke-linecap:round;stroke-linejoin:round;stroke-miterlimit:2.613"
       d="m 121.50461,-2.1800537 h 72.30058 V 26.131977 h -72.30058 z" />
    <path
       style="font-size:28.1783px;line-height:16.5108px;font-family:'Highway Gothic Wide';-inkscape-font-specification:'Highway Gothic Wide';letter-spacing:0px;word-spacing:0px;fill:#ffffff;stroke-width:0.999997px"
       d="m 145.06308,17.172918 q -2.62058,4.170389 -7.29818,4.170389 -3.69136,0 -5.86108,-2.676939 -2.14156,-2.676939 -2.14156,-7.12911 0,-4.4803499 2.14156,-7.1009319 2.14155,-2.620582 5.86108,-2.620582 4.70578,0 7.29818,4.1703886 l -3.07143,1.5216282 q -1.46527,-2.2542641 -4.22675,-2.338799 -2.14155,0.056357 -3.35322,1.9161245 -1.21166,1.8315895 -1.21166,4.3958146 0,3.043257 1.23984,4.733955 1.26803,1.66252 3.3814,1.66252 2.81783,-0.02818 4.08585,-2.282443 z m 8.84797,-4.114032 h -6.25559 V 9.6774901 h 6.25559 z m 17.24511,2.057016 q 0,2.620582 -2.14155,4.423993 -2.14156,1.803412 -5.3257,1.803412 -4.59307,-0.05636 -7.60814,-3.296862 l 2.53604,-2.536047 q 2.16973,2.282443 5.26934,2.395156 1.74706,0 2.81783,-0.732636 1.09896,-0.732636 1.09896,-1.916124 -0.0564,-1.380737 -1.01442,-2.085195 -0.95806,-0.704457 -2.08519,-0.760814 h -1.15532 V 9.0293891 h 1.0426 q 0.84535,0 1.54981,-0.5353877 0.73263,-0.5353877 0.73263,-1.3243801 0,-0.8735273 -0.92988,-1.4370934 -0.92988,-0.563566 -2.39516,-0.563566 -2.42333,0 -4.2831,1.5779849 l -2.28244,-2.2824424 q 2.70512,-2.6487603 6.76279,-2.6487603 2.84601,0 4.70578,1.49345 1.85977,1.4934499 1.85977,3.8040706 0,2.3951556 -1.57799,3.5222873 2.45151,1.577985 2.42334,4.48035 z m 17.94958,5.889265 h -15.21628 q 0.56356,-7.410893 7.72085,-10.425971 1.85977,-0.7608144 3.04326,-1.465272 1.18349,-0.7326358 1.09895,-1.690698 0,-0.9298839 -0.92988,-1.5498066 -0.92988,-0.6481009 -2.90237,-0.6762792 -2.95872,0.084535 -5.24116,2.3669773 L 173.94582,5.36621 q 3.40957,-3.4941093 7.88992,-3.5504659 3.32504,0 5.29752,1.6625198 1.97248,1.6343414 1.97248,3.9449621 -0.0282,2.0006594 -1.07077,3.184148 -1.0426,1.15531 -3.97314,2.423334 -4.64942,2.226086 -5.55113,4.593063 h 10.59504 z"
       id="text5284"
       transform="scale(0.99551619,1.004504)"
       aria-label="C-32" />
  </g>
</svg>
