<?xml version="1.0" encoding="UTF-8" standalone="no"?>
<svg
   width="1106"
   height="478"
   id="svg3272"
   version="1.1"
   inkscape:version="1.3.2 (091e20e, 2023-11-25, custom)"
   sodipodi:docname="ES_CAT_ID410.svg"
   xmlns:inkscape="http://www.inkscape.org/namespaces/inkscape"
   xmlns:sodipodi="http://sodipodi.sourceforge.net/DTD/sodipodi-0.dtd"
   xmlns="http://www.w3.org/2000/svg"
   xmlns:svg="http://www.w3.org/2000/svg"
   xmlns:rdf="http://www.w3.org/1999/02/22-rdf-syntax-ns#"
   xmlns:cc="http://creativecommons.org/ns#"
   xmlns:dc="http://purl.org/dc/elements/1.1/">
  <defs
     id="defs3274" />
  <sodipodi:namedview
     id="base"
     pagecolor="#ffffff"
     bordercolor="#666666"
     borderopacity="1.0"
     inkscape:pageopacity="0.0"
     inkscape:pageshadow="2"
     inkscape:zoom="1"
     inkscape:cx="536"
     inkscape:cy="366.5"
     inkscape:document-units="px"
     inkscape:current-layer="layer2"
     showgrid="false"
     fit-margin-top="0"
     fit-margin-left="0"
     fit-margin-right="0"
     fit-margin-bottom="0"
     inkscape:window-width="1920"
     inkscape:window-height="1017"
     inkscape:window-x="-8"
     inkscape:window-y="-8"
     inkscape:window-maximized="1"
     inkscape:document-rotation="0"
     inkscape:showpageshadow="false"
     inkscape:pagecheckerboard="true"
     inkscape:deskcolor="#d1d1d1" />
  <metadata
     id="metadata3277">
    <rdf:RDF>
      <cc:Work
         rdf:about="">
        <dc:format>image/svg+xml</dc:format>
        <dc:type
           rdf:resource="http://purl.org/dc/dcmitype/StillImage" />
        <dc:title />
      </cc:Work>
    </rdf:RDF>
  </metadata>
  <g
     inkscape:label="Capa 1"
     inkscape:groupmode="layer"
     id="layer1"
     transform="translate(244.4286,-504.79077)"
     style="display:inline">
    <g
       inkscape:groupmode="layer"
       id="layer12"
       inkscape:label="E-80">
      <rect
         style="fill:#000080;stroke:#ffffff;stroke-width:20;stroke-linecap:round;stroke-linejoin:round;stroke-miterlimit:3.864;stroke-dasharray:none"
         id="rect9789"
         width="1086"
         height="458"
         x="-234.4286"
         y="514.79077"
         ry="74.953316"
         rx="74.953316" />
    </g>
  </g>
  <g
     inkscape:groupmode="layer"
     id="layer2"
     inkscape:label="Capa 2"
     style="display:inline"
     transform="translate(10.000004,9.9999785)">
    <path
       style="font-weight:bold;font-size:379.886px;line-height:222.59px;font-family:'Highway Gothic Wide';-inkscape-font-specification:'Highway Gothic Wide Bold';letter-spacing:0px;word-spacing:0px;fill:#ffffff;stroke-width:0.999996px"
       d="m 357.00441,296.37127 q -35.32939,56.22313 -98.39047,56.22313 -49.76506,0 -79.01628,-36.08917 -28.87134,-36.08917 -28.87134,-96.11115 0,-60.40188 28.87134,-95.73127 28.87133,-35.3294 79.01628,-35.3294 63.44096,0 98.39047,56.22313 l -41.40757,20.51384 q -19.75407,-30.39088 -56.9829,-31.53054 -28.87133,0.75977 -45.20643,25.83225 -16.3351,24.69259 -16.3351,59.26221 0,41.02769 16.71499,63.82085 17.09486,22.41327 45.58631,22.41327 37.9886,-0.37988 55.08347,-30.77076 z M 476.28833,240.90792 H 391.95364 V 195.3216 h 84.33469 z m 232.49008,27.73168 q 0,35.32939 -28.87133,59.6421 -28.87134,24.3127 -71.79845,24.3127 -61.92142,-0.75977 -102.56922,-44.44666 L 539.72915,273.958 q 29.25122,30.77076 71.03868,32.29031 23.55293,0 37.9886,-9.87704 14.81555,-9.87703 14.81555,-25.83224 -0.75977,-18.61442 -13.67589,-28.11157 -12.91613,-9.49715 -28.11157,-10.25692 H 606.2092 v -45.58632 h 14.05578 q 11.39658,0 20.89373,-7.21783 9.87703,-7.21784 9.87703,-17.85464 0,-11.77647 -12.53623,-19.37419 -12.53624,-7.59772 -32.29031,-7.59772 -32.6702,0 -57.74267,21.27362 l -30.77077,-30.77077 q 36.46906,-35.70928 91.17264,-35.70928 38.36848,0 63.44096,20.13396 25.07248,20.13395 25.07248,51.28461 0,32.2903 -21.27362,47.48574 33.05008,21.27362 32.67019,60.40188 z m 241.98747,79.39617 H 745.62745 q 7.59772,-99.91002 104.08876,-140.55782 25.07247,-10.25692 41.02768,-19.75407 15.95521,-9.87704 14.81556,-22.79316 0,-12.53624 -12.53624,-20.89373 -12.53624,-8.73738 -39.12826,-9.11726 -39.88803,1.13966 -70.65879,31.91042 l -36.84894,-29.63111 q 45.9662,-47.105858 106.36807,-47.86563 44.82655,0 71.41857,22.41327 26.59202,22.03339 26.59202,53.18404 -0.37989,26.97191 -14.43567,42.92712 -14.05578,15.57532 -53.56392,32.67019 -62.68119,30.011 -74.83754,61.92142 h 142.83713 z"
       id="text850"
       transform="scale(0.98997863,1.0101228)"
       aria-label="C-32" />
  </g>
</svg>
