<?xml version="1.0" encoding="UTF-8" standalone="no"?>
<svg
   version="1.2"
   width="373.84357"
   height="163.4334"
   id="svg2"
   sodipodi:docname="ES_CAT_OR62.svg"
   inkscape:version="1.3.2 (091e20e, 2023-11-25, custom)"
   xmlns:inkscape="http://www.inkscape.org/namespaces/inkscape"
   xmlns:sodipodi="http://sodipodi.sourceforge.net/DTD/sodipodi-0.dtd"
   xmlns="http://www.w3.org/2000/svg"
   xmlns:svg="http://www.w3.org/2000/svg"
   xmlns:rdf="http://www.w3.org/1999/02/22-rdf-syntax-ns#"
   xmlns:cc="http://creativecommons.org/ns#"
   xmlns:dc="http://purl.org/dc/elements/1.1/">
  <sodipodi:namedview
     pagecolor="#ffffff"
     bordercolor="#666666"
     borderopacity="1"
     objecttolerance="10"
     gridtolerance="10"
     guidetolerance="10"
     inkscape:pageopacity="0"
     inkscape:pageshadow="2"
     inkscape:window-width="1920"
     inkscape:window-height="1017"
     id="namedview5859"
     showgrid="false"
     inkscape:zoom="1.23"
     inkscape:cx="305.69106"
     inkscape:cy="126.42276"
     inkscape:window-x="-8"
     inkscape:window-y="-8"
     inkscape:window-maximized="1"
     inkscape:current-layer="layer10"
     fit-margin-top="0"
     fit-margin-left="0"
     fit-margin-right="0"
     fit-margin-bottom="0"
     inkscape:document-rotation="0"
     inkscape:pagecheckerboard="true"
     inkscape:showpageshadow="false"
     inkscape:deskcolor="#d1d1d1" />
  <metadata
     id="metadata3125">
    <rdf:RDF>
      <cc:Work
         rdf:about="">
        <dc:format>image/svg+xml</dc:format>
        <dc:type
           rdf:resource="http://purl.org/dc/dcmitype/StillImage" />
        <dc:title />
      </cc:Work>
    </rdf:RDF>
  </metadata>
  <defs
     id="defs3123" />
  <g
     id="g3115"
     style="stroke-width:0.639086"
     transform="matrix(1.5527702,0,0,1.5767887,-63.18487,-182.7208)">
    <g
       id="g3117"
       style="stroke-width:0.639086" />
  </g>
  <g
     inkscape:groupmode="layer"
     id="layer11"
     inkscape:label="Layer 3"
     transform="translate(-0.08203254,-47.555805)" />
  <g
     inkscape:groupmode="layer"
     id="layer14"
     inkscape:label="Layer 5"
     style="opacity:0.995444"
     transform="translate(-0.08893708,-60.46645)">
    <path
       id="rect5280-9-1"
       style="display:inline;fill:#ffffff;stroke:#000080;stroke-width:2;stroke-linecap:round;stroke-linejoin:round;stroke-miterlimit:2.613"
       d="m 87.58097,61.46645 h 73.25786 c 2.216,0 4,1.784 4,3.999999 v 30.812032 c 0,2.216 -1.784,3.999999 -4,3.999999 H 87.58097 c -2.215999,0 -3.999999,-1.783999 -3.999999,-3.999999 V 65.466449 c 0,-2.215999 1.784,-3.999999 3.999999,-3.999999 z" />
  </g>
  <g
     inkscape:groupmode="layer"
     id="layer10"
     inkscape:label="Layer 2"
     transform="translate(-0.08203254,-47.555805)"
     style="display:inline">
    <path
       d="m 371.3951,187.06054 c 0,5.86268 0.24113,14.28526 -0.63631,18.04828 -0.88501,3.79551 -2.91418,2.90646 -8.92592,2.91258 l -349.94782,0.35614 c -11.96799002,0.0122 -8.8945853,1.8554 -8.84895,-9.92051 l 0.35614,-91.89972 c 0.045628,-11.773909 7.21005,-9.940924 19.17702,-9.915506 l 335.34707,0.71228 c 11.97197,0.02543 13.47977,-1.85949 13.47977,9.915506 v 79.79095 z"
       id="path3101-1"
       style="fill:#000080;fill-opacity:1;stroke:#ffffff;stroke-width:5;stroke-miterlimit:3.864;stroke-opacity:1"
       sodipodi:nodetypes="csssssssscc"
       inkscape:label="path3101" />
    <path
       style="font-size:38.8325px;line-height:22.7534px;font-family:'Highway Gothic Wide';-inkscape-font-specification:'Highway Gothic Wide';letter-spacing:2.7304px;word-spacing:0px;fill:#ffffff;stroke-width:1px"
       d="m 46.990034,176.46142 q 0,1.98045 -1.08731,3.80558 -1.048478,1.7863 -2.834773,2.75711 -1.980458,1.08731 -3.999748,1.08731 h -13.04772 v -26.01778 h 12.11574 q 2.873605,0 4.504571,0.93198 3.533757,1.98046 3.533757,5.94138 0,3.88325 -2.679442,5.43655 3.456092,1.66979 3.494925,6.05787 z m -5.475383,-11.14493 q 0,-1.16498 -0.660153,-1.82513 -0.62132,-0.66015 -1.747462,-0.73782 h -8.348988 v 5.20356 h 8.348988 q 1.203807,-0.0777 1.786295,-0.77665 0.62132,-0.69899 0.62132,-1.86396 z m 0.854315,10.8731 q 0,-1.51447 -0.893148,-2.52411 -0.854315,-1.00965 -2.368782,-1.04848 h -8.348988 v 6.83452 h 8.348988 q 1.514467,0.0388 2.368782,-0.89315 0.893148,-0.93198 0.893148,-2.36878 z m 27.505506,7.92183 h -4.388073 v -0.81548 q -2.058122,1.16497 -4.6599,1.16497 -3.339595,0 -5.087057,-1.86396 -1.747463,-1.90279 -1.747463,-4.7764 0,-2.95127 2.058123,-4.58223 2.096955,-1.63097 5.242387,-1.63097 2.135788,0 4.155078,0.58249 -0.07767,-2.95127 -3.223098,-3.14543 -2.32995,-0.0388 -4.582235,1.35914 l -2.17462,-3.4561 q 3.494925,-2.29111 6.83452,-2.29111 3.223098,0 5.397718,2.21345 2.17462,2.21345 2.17462,5.74721 z m -4.388073,-4.62107 v -3.18426 q -2.252285,-0.62132 -3.960915,-0.62132 -1.592132,0 -2.48528,0.69898 -0.893147,0.69899 -0.893147,1.6698 0,1.00964 0.854315,1.74746 0.854315,0.73782 2.407615,0.73782 1.747462,0 4.077412,-1.04848 z m 23.350491,-13.51371 -1.436803,4.42691 q -1.08731,-1.24264 -2.79594,-1.20381 -3.26193,-0.0388 -3.300762,3.76675 v 11.14493 h -4.6599 v -18.98909 h 4.6599 v 1.12614 q 1.39797,-1.59213 3.533757,-1.59213 2.291118,0 3.999748,1.3203 z m 20.36037,15.02818 q -2.87361,3.57259 -7.02869,3.57259 -3.922079,0 -6.485024,-2.79594 -2.562945,-2.83477 -2.562945,-7.14518 0,-4.31041 2.562945,-7.14518 2.562945,-2.83477 6.485024,-2.83477 4.15508,0 7.02869,3.57259 l -2.75711,2.7571 q -1.82513,-1.70863 -4.19391,-1.82512 -2.05812,0 -3.378429,1.5533 -1.281473,1.51446 -1.281473,3.92208 0,2.36878 1.281473,3.92208 1.320309,1.5533 3.378429,1.5533 2.36878,-0.19416 3.92208,-2.13579 z m 21.60302,-4.93173 h -11.61091 q 0.15533,2.01929 1.3203,3.1066 1.20381,1.08731 2.44645,1.08731 1.59213,0 3.14543,-1.47563 l 2.87361,2.8736 q -2.44645,2.91244 -6.01904,2.91244 -3.49493,0 -5.94137,-2.83477 -2.40762,-2.87361 -2.40762,-7.02869 0,-4.11624 2.36878,-6.98985 2.36879,-2.8736 5.78605,-2.8736 4.03858,0.0388 6.01903,3.1066 1.98046,3.06777 2.01929,6.75685 z m -4.58223,-3.65025 q -0.0777,-1.51447 -1.08731,-2.48528 -0.97081,-0.97082 -2.25229,-0.93198 -1.4368,-0.0388 -2.48528,1.00964 -1.00964,1.00965 -1.04847,2.40762 z m 15.89465,11.68858 h -4.6599 v -24.11498 l 4.6599,-2.32995 z m 23.11749,-9.47513 q 0,4.11624 -2.44644,7.02868 -2.40762,2.91244 -5.86371,2.91244 -3.49493,0 -5.90254,-2.91244 -2.40762,-2.91244 -2.40762,-7.02868 0,-4.15508 2.40762,-7.06752 2.40761,-2.91243 5.90254,-2.91243 3.45609,0 5.86371,2.91243 2.44644,2.91244 2.44644,7.06752 z m -4.50457,0 q 0,-2.32995 -1.04847,-3.80559 -1.04848,-1.51446 -2.71828,-1.51446 -1.74746,0 -2.79594,1.51446 -1.04848,1.51447 -1.04848,3.80559 0,2.29112 1.04848,3.84442 1.04848,1.51446 2.79594,1.51446 1.6698,0 2.71828,-1.51446 1.04847,-1.5533 1.04847,-3.84442 z m 10.14745,-9.39747 h 4.38807 v 1.47564 q 1.74746,-1.74746 4.62107,-1.74746 3.06776,0 4.97056,2.13578 1.94162,2.09696 1.98045,5.47539 v 11.53325 h -4.6599 v -11.30026 q 0,-1.51447 -0.93198,-2.48528 -0.89314,-0.97081 -2.44644,-0.97081 -1.39797,0 -2.48528,1.04848 -1.04848,1.00964 -1.04848,2.32995 v 11.37792 h -4.38807 z m 37.87384,18.8726 h -4.38808 v -0.81548 q -2.05812,1.16497 -4.6599,1.16497 -3.33959,0 -5.08705,-1.86396 -1.74747,-1.90279 -1.74747,-4.7764 0,-2.95127 2.05813,-4.58223 2.09695,-1.63097 5.24238,-1.63097 2.13579,0 4.15508,0.58249 -0.0777,-2.95127 -3.2231,-3.14543 -2.32995,-0.0388 -4.58223,1.35914 l -2.17462,-3.4561 q 3.49492,-2.29111 6.83452,-2.29111 3.2231,0 5.39772,2.21345 2.17462,2.21345 2.17462,5.74721 z m -4.38808,-4.62107 v -3.18426 q -2.25228,-0.62132 -3.96091,-0.62132 -1.59213,0 -2.48528,0.69898 -0.89315,0.69899 -0.89315,1.6698 0,1.00964 0.85432,1.74746 0.85431,0.73782 2.40761,0.73782 1.74746,0 4.07741,-1.04848 z"
       id="text6487-1"
       aria-label="Barcelona " />
    <path
       id="rect5280-9"
       style="display:inline;fill:#000080;stroke:#ffffff;stroke-width:2;stroke-linecap:round;stroke-linejoin:round;stroke-miterlimit:2.613"
       d="m 89.344589,50.305813 h 69.425581 c 2.216,0 4,1.784 4,4 v 26.687031 c 0,2.216 -1.784,4 -4,4 H 89.344589 c -2.216,0 -4,-1.784 -4,-4 V 54.305813 c 0,-2.216 1.784,-4 4,-4 z" />
    <path
       style="font-size:28.1783px;line-height:16.5108px;font-family:'Highway Gothic Wide';-inkscape-font-specification:'Highway Gothic Wide';letter-spacing:0px;word-spacing:0px;fill:#ffffff;stroke-width:0.999997px"
       d="m 112.08846,76.864441 h -3.66317 l -1.83159,-4.423993 h -8.228068 l -1.859768,4.423993 h -3.691357 l 7.946283,-18.879462 h 3.43775 z m -6.96004,-7.805389 -2.64876,-6.368296 -2.648756,6.368296 z m 18.40045,0.394496 h -5.41023 v 7.410893 h -3.3814 V 57.984979 h 8.67892 q 1.85977,0 3.2405,0.788993 2.90237,1.690698 2.90237,4.987559 0,3.550466 -2.90237,5.100272 -1.38073,0.591745 -3.12779,0.591745 z m 2.64876,-5.692017 q 0,-1.098954 -0.73263,-1.747055 -0.73264,-0.648101 -1.97248,-0.648101 h -5.35388 v 4.705777 h 5.35388 q 1.23984,0 1.97248,-0.619923 0.73263,-0.648101 0.73263,-1.690698 z m 12.34212,5.156629 h -6.25558 v -3.381396 h 6.25558 z m 17.32965,-7.636319 q -5.46659,7.523606 -5.83291,15.5826 h -3.57864 q 0.61992,-8.284421 5.26934,-15.554422 h -11.10225 v -3.32504 h 15.24446 z"
       id="text5284-2"
       transform="scale(0.99551619,1.004504)"
       aria-label="AP-7" />
    <path
       style="font-size:38.8325px;line-height:22.7534px;font-family:'Highway Gothic Wide';-inkscape-font-specification:'Highway Gothic Wide';letter-spacing:2.7304px;word-spacing:0px;fill:#ffffff;stroke-width:1px"
       d="m 45.108487,121.64329 h -7.494673 v 21.43554 h -4.543402 v -21.43554 h -7.494673 v -4.58224 h 19.532748 z m 22.068958,21.43554 h -4.388073 v -0.81549 q -2.058122,1.16498 -4.6599,1.16498 -3.339595,0 -5.087057,-1.86396 -1.747463,-1.90279 -1.747463,-4.7764 0,-2.95127 2.058123,-4.58223 2.096955,-1.63097 5.242387,-1.63097 2.135788,0 4.155078,0.58249 -0.07767,-2.95127 -3.223098,-3.14543 -2.32995,-0.0388 -4.582235,1.35913 l -2.17462,-3.45609 q 3.494925,-2.29112 6.83452,-2.29112 3.223098,0 5.397718,2.21346 2.17462,2.21345 2.17462,5.74721 z m -4.388073,-4.62107 v -3.18427 q -2.252285,-0.62132 -3.960915,-0.62132 -1.592132,0 -2.48528,0.69899 -0.893147,0.69898 -0.893147,1.6698 0,1.00964 0.854315,1.74746 0.854315,0.73782 2.407615,0.73782 1.747462,0 4.077412,-1.04848 z m 23.350491,-13.51371 -1.436803,4.4269 q -1.08731,-1.24264 -2.79594,-1.2038 -3.26193,-0.0388 -3.300763,3.76675 v 11.14493 h -4.6599 v -18.9891 h 4.6599 v 1.12615 q 1.39797,-1.59214 3.533758,-1.59214 2.291118,0 3.999748,1.32031 z m 17.680927,0 -1.43681,4.4269 q -1.08731,-1.24264 -2.795937,-1.2038 -3.26193,-0.0388 -3.300762,3.76675 v 11.14493 h -4.6599 v -18.9891 h 4.6599 v 1.12615 q 1.39797,-1.59214 3.533757,-1.59214 2.291122,0 3.999752,1.32031 z m 20.67101,18.13478 h -4.38807 v -0.81549 q -2.05812,1.16498 -4.6599,1.16498 -3.33959,0 -5.08706,-1.86396 -1.74746,-1.90279 -1.74746,-4.7764 0,-2.95127 2.05812,-4.58223 2.09696,-1.63097 5.24239,-1.63097 2.13579,0 4.15508,0.58249 -0.0777,-2.95127 -3.2231,-3.14543 -2.32995,-0.0388 -4.58223,1.35913 l -2.17462,-3.45609 q 3.49492,-2.29112 6.83452,-2.29112 3.22309,0 5.39771,2.21346 2.17462,2.21345 2.17462,5.74721 z m -4.38807,-4.62107 v -3.18427 q -2.25228,-0.62132 -3.96091,-0.62132 -1.59214,0 -2.48528,0.69899 -0.89315,0.69898 -0.89315,1.6698 0,1.00964 0.85431,1.74746 0.85432,0.73782 2.40762,0.73782 1.74746,0 4.07741,-1.04848 z m 10.8076,-4.7764 q 0,-3.84442 2.01929,-6.87335 2.05812,-3.06777 5.66954,-3.06777 2.09696,0 3.61142,1.16498 v -0.81549 h 4.6599 v 18.9891 q -0.0388,3.76675 -2.56294,6.2132 -2.48528,2.48528 -5.66955,3.18426 l -1.04847,-4.4269 q 4.15507,-1.08731 4.62106,-4.97056 v -0.85432 q -1.4368,1.32031 -3.45609,1.35914 -3.92208,-0.0388 -5.90254,-2.9901 -1.94162,-2.99011 -1.94162,-6.91219 z m 4.23274,-0.0777 q 0,2.29111 1.08731,3.84441 1.12614,1.51447 2.91244,1.51447 2.13578,-0.0777 3.06776,-1.6698 v -7.22284 q -1.08731,-1.6698 -3.14543,-1.7863 -1.86396,0 -2.91244,1.47564 -1.00964,1.47563 -1.00964,3.84442 z m 34.4177,0 q 0,4.11624 -2.44645,7.02868 -2.40761,2.91244 -5.86371,2.91244 -3.49492,0 -5.90254,-2.91244 -2.40761,-2.91244 -2.40761,-7.02868 0,-4.15508 2.40761,-7.06752 2.40762,-2.91244 5.90254,-2.91244 3.4561,0 5.86371,2.91244 2.44645,2.91244 2.44645,7.06752 z m -4.50457,0 q 0,-2.32995 -1.04848,-3.80559 -1.04848,-1.51447 -2.71827,-1.51447 -1.74747,0 -2.79594,1.51447 -1.04848,1.51447 -1.04848,3.80559 0,2.29111 1.04848,3.84441 1.04847,1.51447 2.79594,1.51447 1.66979,0 2.71827,-1.51447 1.04848,-1.5533 1.04848,-3.84441 z m 10.14743,-9.39747 h 4.38808 v 1.47564 q 1.74746,-1.74747 4.62106,-1.74747 3.06777,0 4.97056,2.13579 1.94163,2.09696 1.98046,5.47538 v 11.53326 h -4.6599 v -11.30026 q 0,-1.51447 -0.93198,-2.48528 -0.89315,-0.97081 -2.44645,-0.97081 -1.39797,0 -2.48528,1.04847 -1.04847,1.00965 -1.04847,2.32995 v 11.37793 h -4.38808 z m 37.87386,18.8726 h -4.38807 v -0.81549 q -2.05813,1.16498 -4.6599,1.16498 -3.3396,0 -5.08706,-1.86396 -1.74746,-1.90279 -1.74746,-4.7764 0,-2.95127 2.05812,-4.58223 2.09695,-1.63097 5.24239,-1.63097 2.13578,0 4.15507,0.58249 -0.0777,-2.95127 -3.22309,-3.14543 -2.32995,-0.0388 -4.58224,1.35913 l -2.17462,-3.45609 q 3.49493,-2.29112 6.83452,-2.29112 3.2231,0 5.39772,2.21346 2.17462,2.21345 2.17462,5.74721 z m -4.38807,-4.62107 v -3.18427 q -2.25229,-0.62132 -3.96092,-0.62132 -1.59213,0 -2.48528,0.69899 -0.89315,0.69898 -0.89315,1.6698 0,1.00964 0.85432,1.74746 0.85431,0.73782 2.40761,0.73782 1.74747,0 4.07742,-1.04848 z"
       id="text6487-1-5"
       aria-label="Tarragona" />
    <path
       style="font-size:37.3895px;line-height:21.9079px;font-family:'Highway Gothic Wide';-inkscape-font-specification:'Highway Gothic Wide';letter-spacing:2.62894px;word-spacing:0px;fill:#ffffff;stroke-width:0.999996px"
       d="m 314.95962,140.41682 h -4.41196 v -18.73213 h -3.14072 v -3.77634 q 2.72943,-0.56085 3.96329,-2.54249 h 3.58939 z m 28.61462,-12.63765 q 0,5.87015 -2.8416,9.49694 -2.80421,3.58939 -7.51529,3.58939 -5.15975,0 -8.07613,-4.15024 -2.54249,-3.58939 -2.54249,-8.86131 0,-5.98232 2.84161,-9.42215 2.8416,-3.47722 7.77701,-3.47722 4.6363,0 7.4779,3.552 2.87899,3.51461 2.87899,9.27259 z m -4.44935,0.0748 q 0,-3.96328 -1.57036,-6.20665 -1.53297,-2.24337 -4.33718,-2.24337 -2.8416,0 -4.44935,2.24337 -1.60775,2.24337 -1.60775,6.20665 0,4.00068 1.60775,6.28144 1.60775,2.24337 4.44935,2.24337 3.2155,0 4.71108,-2.80421 1.19646,-2.20598 1.19646,-5.7206 z"
       id="text6487-1-5-2"
       aria-label="10" />
    <path
       style="font-size:37.3895px;line-height:21.9079px;font-family:'Highway Gothic Wide';-inkscape-font-specification:'Highway Gothic Wide';letter-spacing:2.62894px;word-spacing:0px;fill:#ffffff;stroke-width:0.999996px"
       d="m 297.46212,186.59615 h -4.41196 v -18.73214 h -3.14072 v -3.77634 q 2.72944,-0.56085 3.96329,-2.54249 h 3.58939 z m 15.9022,0 h -4.41196 v -18.73214 h -3.14072 v -3.77634 q 2.72943,-0.56085 3.96328,-2.54249 h 3.5894 z m 28.61462,-12.63766 q 0,5.87016 -2.8416,9.49694 -2.80421,3.58939 -7.51529,3.58939 -5.15975,0 -8.07613,-4.15023 -2.54249,-3.5894 -2.54249,-8.86132 0,-5.98232 2.8416,-9.42215 2.84161,-3.47722 7.77702,-3.47722 4.6363,0 7.4779,3.552 2.87899,3.51461 2.87899,9.27259 z m -4.44935,0.0748 q 0,-3.96328 -1.57036,-6.20665 -1.53297,-2.24337 -4.33718,-2.24337 -2.8416,0 -4.44935,2.24337 -1.60775,2.24337 -1.60775,6.20665 0,4.00068 1.60775,6.28144 1.60775,2.24337 4.44935,2.24337 3.2155,0 4.71108,-2.80421 1.19646,-2.20598 1.19646,-5.7206 z"
       id="text6487-1-5-2-0"
       aria-label="110" />
  </g>
  <g
     inkscape:groupmode="layer"
     id="layer3"
     inkscape:label="Layer 1"
     transform="translate(-0.08203254,-47.555805)"
     style="display:inline" />
</svg>
