<?xml version="1.0" encoding="UTF-8" standalone="no"?>
<svg
   version="1.2"
   width="294.2403"
   height="211.08519"
   id="svg2"
   sodipodi:docname="ES_CAT_OR42b.svg"
   inkscape:version="1.3.2 (091e20e, 2023-11-25, custom)"
   xmlns:inkscape="http://www.inkscape.org/namespaces/inkscape"
   xmlns:sodipodi="http://sodipodi.sourceforge.net/DTD/sodipodi-0.dtd"
   xmlns="http://www.w3.org/2000/svg"
   xmlns:svg="http://www.w3.org/2000/svg"
   xmlns:rdf="http://www.w3.org/1999/02/22-rdf-syntax-ns#"
   xmlns:cc="http://creativecommons.org/ns#"
   xmlns:dc="http://purl.org/dc/elements/1.1/">
  <sodipodi:namedview
     pagecolor="#ffffff"
     bordercolor="#666666"
     borderopacity="1"
     objecttolerance="10"
     gridtolerance="10"
     guidetolerance="10"
     inkscape:pageopacity="0"
     inkscape:pageshadow="2"
     inkscape:window-width="1920"
     inkscape:window-height="1017"
     id="namedview6659"
     showgrid="false"
     inkscape:zoom="2"
     inkscape:cx="190.5"
     inkscape:cy="14.75"
     inkscape:window-x="-8"
     inkscape:window-y="-8"
     inkscape:window-maximized="1"
     inkscape:current-layer="layer11"
     fit-margin-top="0"
     fit-margin-left="0"
     fit-margin-right="0"
     fit-margin-bottom="0"
     inkscape:document-rotation="0"
     inkscape:showpageshadow="false"
     inkscape:pagecheckerboard="true"
     inkscape:deskcolor="#d1d1d1" />
  <metadata
     id="metadata4010">
    <rdf:RDF>
      <cc:Work
         rdf:about="">
        <dc:format>image/svg+xml</dc:format>
        <dc:type
           rdf:resource="http://purl.org/dc/dcmitype/StillImage" />
        <dc:title />
      </cc:Work>
    </rdf:RDF>
  </metadata>
  <defs
     id="defs4008" />
  <g
     inkscape:groupmode="layer"
     id="layer11"
     inkscape:label="Layer 1"
     style="display:inline"
     transform="translate(-3.654911,30.180049)">
    <path
       d="m 297.78649,167.75296 c 0.34023,3.78664 -0.062,7.63133 -2.00947,10.56364 -0.32361,0.201 -0.33662,0.51165 -1.994,1.10397 l -3.76478,1.34548 c 6.75792,0.22776 -110.91668,-0.12768 -197.607333,0.0615 -21.662089,0.0473 -43.199414,-0.13864 -59.929292,0.0398 -4.918851,0.0525 -9.30894,0.0456 -13.375464,0.008 -2.857475,-0.0261 -5.713385,0.0277 -7.797074,-0.33358 -7.1943343,-1.24731 -6.817864,-5.45661 -6.8294367,-8.88412 L 3.95942,17.58345 C 3.8994511,-0.17759478 0.30006,2.0673684 19.51187,2.0673684 h 262.91995 c 10.13712,0 13.30972,-0.5145413 14.43956,1.430214 1.01172,1.7414474 0.87916,5.3550654 0.91195,13.7458406 0.14946,38.241615 -0.15031,76.816319 -0.0413,115.075477 0.0539,18.9121 0.007,-19.37763 -0.0157,-0.56247 -0.0113,9.43886 0.32673,26.51339 0.0602,35.99653 z"
       id="path3217"
       style="fill:#ffffff;stroke-width:0.999997;fill-opacity:1"
       sodipodi:nodetypes="ccscsssssssssssscc" />
    <path
       d="m 289.76093,164.09696 c 0,10.76106 1.16348,8.93465 -9.59873,8.89385 L 16.67497,171.99195 C 5.91277,171.95115 8.49073,172.4475 8.49073,161.6855 V 81.435851 c 0,-10.764824 -0.45905,-8.93697 10.30314,-8.895729 l 260.66203,0.998862 c 10.76221,0.04124 10.30503,0.955173 10.30503,11.720937 z"
       id="path3243"
       style="fill:none;stroke:#000000;stroke-width:4;stroke-miterlimit:3.864;stroke-opacity:1"
       sodipodi:nodetypes="sssssssss" />
    <path
       d="m 144.14369,141.44129 6.38366,6.63596 7.06989,-10.72142 -0.42344,22.06115 -22.05379,-0.42074 10.98404,-6.66037 -10.89641,-10.96655 4.42331,-4.25864"
       id="polyline3245"
       style="fill:#000000;stroke-width:0.999997;fill-opacity:1"
       sodipodi:nodetypes="cccccccc" />
    <text
       xml:space="preserve"
       style="font-size:38.6689px;line-height:22.6576px;font-family:'Andale Mono IPA';-inkscape-font-specification:'Andale Mono IPA';letter-spacing:0px;word-spacing:0px;fill:#ffffff;fill-opacity:1;stroke:none;stroke-width:0.999997px;stroke-linecap:butt;stroke-linejoin:miter;stroke-opacity:1"
       x="307.61365"
       y="178.6953"
       id="text4113"
       transform="scale(1.067666,0.9366225)"><tspan
         sodipodi:role="line"
         id="tspan4111"
         x="307.61365"
         y="178.6953"
         style="font-style:normal;font-variant:normal;font-weight:normal;font-stretch:normal;font-size:38.6689px;font-family:'Highway Gothic Wide';-inkscape-font-specification:'Highway Gothic Wide';fill:#ffffff;fill-opacity:1;stroke:none;stroke-width:0.999997px" /></text>
    <path
       d="M 10.85674,55.217002 V 16.59514 c 0,-8.1207908 -1.34082,-6.113885 5.48767,-6.092352 l 264.73496,0.834835 c 6.91376,0.0218 6.5425,-2.0276538 6.5425,6.092352 v 36.502956 c 0,8.120781 1.60729,8.582155 -5.30647,8.560468 L 16.16783,61.658564 c -6.82849,-0.02142 -5.31109,1.679219 -5.31109,-6.441562 h -3.58082 3.58082 m -3.58082,0 c 0,10.452017 0.0992,10.681082 8.89191,10.708662 l 266.14757,0.834835 c 8.79271,0.02758 8.89125,-2.374766 8.89125,-12.827568 V 17.429975 c 0,-10.4606628 -1.33523,-10.3317268 -10.12728,-10.3594523 L 16.34441,6.2356875 C 7.5517,6.2079599 7.27592,6.1344772 7.27592,16.59514 Z"
       id="path5608"
       style="fill:#000000;stroke-width:0.999997;fill-opacity:1"
       sodipodi:nodetypes="cssssssscccsssssssss" />
    <g
       id="g5651"
       transform="matrix(0.53249244,0,0,0.53249352,-5.32698,-14.893022)"
       style="stroke-width:1.87796;fill:#000000">
      <path
         d="M 53.950398,130.92797 H 81.72097 l 2.616542,-67.631163 h -8.05066 L 53.950398,130.92797"
         id="polyline5612"
         style="fill:#000000;stroke-width:1.87796" />
      <path
         d="m 91.185094,130.92797 h 27.561746 l -10.05787,-31.800578 20.323,-22.947344 6.64656,16.099763 V 63.296807 h -28.98301 l 16.30859,6.646548 -19.7277,12.280143 -6.035656,-18.926691 h -8.05066 l 2.015,67.631163"
         id="polyline5614"
         style="fill:#000000;stroke-width:1.87796" />
    </g>
    <path
       style="font-size:28.1783px;line-height:16.5108px;font-family:TrafficTypeW01-SpainD;-inkscape-font-specification:TrafficTypeW01-SpainD;letter-spacing:0px;word-spacing:0px;stroke-width:0.999997px"
       d="m 253.57243,37.318043 q -1.18349,0 -1.85977,0.760814 -0.67628,0.732635 -0.67628,2.000659 0,1.268024 0.67628,2.000659 0.67628,0.732636 1.85977,0.732636 1.15531,0 1.83159,-0.732636 0.70446,-0.732635 0.70446,-1.972481 0,-1.296202 -0.67628,-2.028837 -0.67628,-0.760814 -1.85977,-0.760814 z m 2.3388,-4.367637 q -0.50721,-1.606163 -2.22609,-1.606163 -0.61992,0 -1.15531,0.225426 -0.53539,0.225427 -0.92988,0.648101 -0.3945,0.394496 -0.6481,0.929884 -0.22543,0.535388 -0.25361,1.15531 0.6481,-0.479031 1.52163,-0.732635 0.90171,-0.281784 1.88795,-0.281784 1.35255,0 2.47969,0.50721 1.15531,0.507209 1.97248,1.408915 0.84535,0.873527 1.2962,2.113373 0.47903,1.239845 0.47903,2.676938 0,1.521628 -0.47903,2.789652 -0.47903,1.239845 -1.35256,2.141551 -0.87353,0.901705 -2.08519,1.408915 -1.18349,0.507209 -2.64876,0.507209 -1.77524,0 -3.18415,-0.676279 -1.38074,-0.704458 -2.36698,-2.000659 -0.95806,-1.324381 -1.46527,-3.212327 -0.50721,-1.887946 -0.50721,-4.254923 0,-2.564225 0.56357,-4.452172 0.59174,-1.916124 1.77523,-3.071434 0.87353,-0.873528 2.16973,-1.352559 1.32438,-0.507209 2.84601,-0.507209 1.52163,0 2.84601,0.507209 1.35255,0.479031 2.16972,1.380737 0.36632,0.394496 0.64811,0.901705 0.28178,0.479032 0.59174,1.239846 z m 16.03346,2.057016 h 1.21166 q 1.29621,0 2.00066,-0.479031 0.73264,-0.50721 0.73264,-1.408915 0,-0.873528 -0.6481,-1.352559 -0.61992,-0.507209 -1.77523,-0.507209 -1.4371,0 -2.22609,0.648101 -0.76081,0.648101 -0.78899,1.859768 l -4.31128,-0.479032 q 0.0564,-1.380736 0.47903,-2.366977 0.42267,-1.014419 1.32438,-1.831589 0.95806,-0.817171 2.39515,-1.296202 1.4371,-0.479031 3.07144,-0.479031 1.54981,0 2.81783,0.422674 1.2962,0.422675 2.19791,1.183489 0.92988,0.760814 1.43709,1.831589 0.50721,1.070776 0.50721,2.338799 0,1.268024 -0.56357,2.226086 -0.53538,0.929884 -1.57798,1.465272 1.26802,0.479031 1.83159,1.408915 0.59174,0.929884 0.59174,2.47969 0,2.902365 -1.85977,4.536707 -1.83158,1.634341 -5.12845,1.634341 -6.76279,0 -7.66449,-6.001978 l 4.45217,-0.676279 q 0.33814,2.536047 3.01508,2.536047 1.26802,0 1.97248,-0.535388 0.70445,-0.535387 0.70445,-1.465271 0,-1.944303 -3.01507,-1.944303 h -1.18349 z"
       id="text5284-6"
       transform="scale(0.99551619,1.004504)"
       aria-label="63" />
    <path
       style="font-size:30.6003px;line-height:17.9298px;font-family:TrafficTypeW01-SpainD;-inkscape-font-specification:TrafficTypeW01-SpainD;letter-spacing:0px;word-spacing:0px;stroke-width:0.999997px"
       d="m 34.488748,105.13963 h 3.366033 q 1.009809,0 1.866618,-0.42841 0.856808,-0.4284 1.438214,-1.19341 0.612006,-0.79561 0.948609,-1.86662 0.336604,-1.10161 0.336604,-2.417422 0,-1.315813 -0.336604,-2.417424 -0.336603,-1.10161 -0.948609,-1.866618 Q 40.578207,94.154118 39.721399,93.725714 38.86459,93.29731 37.854781,93.29731 h -3.366033 z m 3.366033,-16.126362 q 2.11142,0 3.855637,0.765007 1.744217,0.734408 2.99883,2.080821 1.254612,1.346413 1.927819,3.213031 0.703807,1.866619 0.703807,4.131041 0,2.264422 -0.703807,4.161642 -0.673207,1.86662 -1.927819,3.21303 -1.254613,1.34641 -2.99883,2.11142 -1.744217,0.73441 -3.855637,0.73441 H 29.806902 V 89.013268 Z m 28.060453,4.06984 h -9.394292 v 3.702636 h 8.384482 v 4.284046 h -8.384482 v 3.85563 h 10.312301 v 4.49825 H 51.839096 V 89.013268 h 14.076138 z m 19.492369,1.866618 q -1.04041,-0.856808 -2.478624,-1.346413 -1.407614,-0.520205 -2.784628,-0.520205 -1.07101,0 -1.713616,0.459004 -0.642607,0.459005 -0.642607,1.193412 0,0.550805 0.397804,0.887409 0.428404,0.336603 1.346413,0.550805 l 2.325623,0.550805 q 3.335433,0.765008 5.04905,2.478625 1.713617,1.713612 1.713617,4.284042 0,1.43821 -0.612006,2.63163 -0.581406,1.19341 -1.683017,2.05022 -1.07101,0.8262 -2.570425,1.28521 -1.499415,0.4896 -3.304833,0.4896 -2.968229,0 -5.599854,-1.16281 -2.631626,-1.19341 -4.345243,-3.30483 l 4.06984,-2.96823 q 0.856808,1.31581 2.478624,2.08082 1.621816,0.76501 3.549635,0.76501 1.162811,0 1.866618,-0.52021 0.734407,-0.5202 0.734407,-1.37701 0,-0.67321 -0.550805,-1.10161 -0.520205,-0.42841 -1.683016,-0.76501 l -2.815228,-0.70381 q -1.162811,-0.3366 -1.927819,-0.612 -0.765007,-0.275404 -1.346413,-0.642608 -1.224012,-0.795608 -1.927819,-2.08082 -0.673207,-1.285213 -0.673207,-2.784628 0,-1.377013 0.520206,-2.478624 0.550805,-1.132211 1.499414,-1.927819 0.97921,-0.795608 2.356223,-1.224012 1.377014,-0.428404 3.090631,-0.428404 5.14085,0 9.118889,3.427234 z M 108.32723,93.29731 h -5.93646 v 16.12636 H 97.708923 V 93.29731 h -5.905858 v -4.284042 h 16.524165 z m 8.26208,16.12636 h -4.68185 V 89.013268 h 4.68185 z m 19.7066,-7.31347 V 89.013268 h 4.59004 v 20.410402 h -5.11025 l -8.65988,-12.943929 v 12.943929 h -4.59005 V 89.013268 h 5.11025 z m 17.65636,-7.344076 -2.23382,7.129866 h 4.62065 z m 9.8839,14.657546 h -4.95725 l -1.04041,-3.15183 h -7.49707 l -0.94861,3.15183 h -4.83485 l 6.39546,-20.410402 h 5.90586 z m 21.08359,-5.90586 q -1.25461,3.09063 -3.67203,4.77365 -2.41742,1.65241 -5.66106,1.65241 -2.23382,0 -4.06984,-0.765 -1.83601,-0.79561 -3.18243,-2.20323 -1.31581,-1.40761 -2.05022,-3.36603 -0.73441,-1.95842 -0.73441,-4.345242 0,-2.295022 0.67321,-4.192241 0.67321,-1.927819 2.01962,-3.335432 1.37701,-1.468815 3.27423,-2.233822 1.89722,-0.795608 4.00864,-0.795608 3.30484,0 5.75286,1.683016 2.44802,1.683017 3.61083,4.743047 l -4.89604,1.744217 q -0.48961,-1.652416 -1.68302,-2.570425 -1.16281,-0.918009 -2.81523,-0.918009 -1.10161,0 -1.98902,0.428404 -0.88741,0.397804 -1.53001,1.193412 -0.64261,0.765007 -0.97921,1.866618 -0.33661,1.07101 -0.33661,2.417424 0,2.815231 1.31582,4.345241 0.6426,0.76501 1.59121,1.19341 0.97921,0.42841 2.01962,0.42841 1.65242,0 2.84583,-0.97921 1.22401,-1.00981 1.56062,-2.60103 z m 8.65987,5.90586 h -4.68185 V 89.013268 h 4.68185 z m 14.77994,-16.034559 q -1.07101,0 -2.01962,0.459004 -0.94861,0.459005 -1.65241,1.315813 -1.19342,1.499415 -1.19342,4.161641 0,1.377011 0.27541,2.386821 0.306,0.97921 0.91801,1.77482 0.7038,0.85681 1.65241,1.31581 0.94861,0.45901 2.05022,0.45901 1.07101,0 2.01962,-0.45901 0.94861,-0.459 1.65242,-1.31581 1.19341,-1.56062 1.19341,-4.06984 0,-1.468815 -0.306,-2.448024 -0.27541,-1.00981 -0.88741,-1.805418 -0.70381,-0.856808 -1.68302,-1.315813 -0.94861,-0.459004 -2.01962,-0.459004 z m 0,-4.681846 q 2.23382,0 4.13104,0.795608 1.89722,0.795608 3.27423,2.325623 2.60103,2.815227 2.60103,7.650074 0,2.29502 -0.73441,4.22284 -0.73441,1.92782 -2.05022,3.33543 -1.31581,1.37702 -3.18243,2.14203 -1.83602,0.765 -4.03924,0.765 -2.23382,0 -4.06984,-0.765 -1.83602,-0.76501 -3.15183,-2.17263 -1.31581,-1.40761 -2.05022,-3.36603 -0.70381,-1.95842 -0.70381,-4.314641 0,-2.356223 0.73441,-4.314642 0.73441,-1.95842 2.05022,-3.335433 1.31581,-1.407614 3.15183,-2.172621 1.83602,-0.795608 4.03924,-0.795608 z M 236.94029,102.1102 V 89.013268 h 4.59004 v 20.410402 h -5.11025 L 227.7602,96.479741 v 12.943929 h -4.59005 V 89.013268 h 5.11025 z m 24.266,-7.160474 q -1.04041,-0.856808 -2.47862,-1.346413 -1.40761,-0.520205 -2.78463,-0.520205 -1.07101,0 -1.71361,0.459004 -0.64261,0.459005 -0.64261,1.193412 0,0.550805 0.3978,0.887409 0.42841,0.336603 1.34642,0.550805 l 2.32562,0.550805 q 3.33543,0.765008 5.04905,2.478625 1.71362,1.713612 1.71362,4.284042 0,1.43821 -0.61201,2.63163 -0.58141,1.19341 -1.68302,2.05022 -1.07101,0.8262 -2.57042,1.28521 -1.49942,0.4896 -3.30483,0.4896 -2.96823,0 -5.59986,-1.16281 -2.63163,-1.19341 -4.34524,-3.30483 l 4.06984,-2.96823 q 0.85681,1.31581 2.47862,2.08082 1.62182,0.76501 3.54964,0.76501 1.16281,0 1.86662,-0.52021 0.7344,-0.5202 0.7344,-1.37701 0,-0.67321 -0.5508,-1.10161 -0.52021,-0.42841 -1.68302,-0.76501 l -2.81523,-0.70381 q -1.16281,-0.3366 -1.92782,-0.612 -0.765,-0.275404 -1.34641,-0.642608 -1.22401,-0.795608 -1.92782,-2.08082 -0.6732,-1.285213 -0.6732,-2.784628 0,-1.377013 0.5202,-2.478624 0.55081,-1.132211 1.49942,-1.927819 0.9792,-0.795608 2.35622,-1.224012 1.37701,-0.428404 3.09063,-0.428404 5.14085,0 9.11889,3.427234 z"
       id="text5780"
       transform="scale(1.0059643,0.99407107)"
       aria-label="DESTINACIONS" />
    <path
       id="rect5280"
       style="display:inline;fill:#ff2121;stroke:#ffffff;stroke-width:1.99999;stroke-linecap:round;stroke-linejoin:round;stroke-miterlimit:2.613"
       d="m 121.50461,-29.180054 h 72.30058 v 28.31203108 h -72.30058 z" />
    <path
       style="font-size:28.1783px;line-height:16.5108px;font-family:TrafficTypeW01-SpainD;-inkscape-font-specification:TrafficTypeW01-SpainD;letter-spacing:0px;word-spacing:0px;fill:#ffffff;stroke-width:0.999997px"
       d="m 147.06374,-11.312181 q -1.15531,2.846008 -3.3814,4.3958146 -2.22608,1.5216282 -5.21298,1.5216282 -2.05702,0 -3.74771,-0.7044575 -1.6907,-0.7326358 -2.93055,-2.0288377 -1.21167,-1.2962018 -1.88794,-3.0996126 -0.67628,-1.803412 -0.67628,-4.001319 0,-2.113373 0.61992,-3.860427 0.61992,-1.775233 1.85977,-3.071435 1.26802,-1.352559 3.01508,-2.057016 1.74705,-0.732636 3.69135,-0.732636 3.04326,0 5.29752,1.549807 2.25427,1.549806 3.32504,4.367636 l -4.50853,1.606163 q -0.45085,-1.521628 -1.5498,-2.366977 -1.07078,-0.845349 -2.59241,-0.845349 -1.01441,0 -1.83159,0.394496 -0.81717,0.366318 -1.40891,1.098954 -0.59174,0.704458 -0.90171,1.718876 -0.30996,0.986241 -0.30996,2.226086 0,2.592404 1.21167,4.001319 0.59174,0.704457 1.46527,1.098954 0.90171,0.3944958 1.85977,0.3944958 1.52163,0 2.62058,-0.9017058 1.12713,-0.929884 1.43709,-2.395155 z m 7.97444,0.648101 h -6.48101 v -3.578645 h 6.48101 z m 10.31329,4.7903107 h -4.31128 V -18.187687 h -3.18415 v -3.747714 h 1.66252 q 0.87353,0 1.38073,-0.507209 0.50721,-0.50721 0.50721,-1.380737 v -0.845349 h 3.94497 z m 18.76676,-14.8499647 h -8.08717 l -0.19725,1.83159 q 0.67628,-0.281783 1.23984,-0.394496 0.59175,-0.112714 1.32438,-0.112714 1.4371,0 2.67694,0.50721 1.23985,0.507209 2.11338,1.408915 0.9017,0.873527 1.40891,2.113372 0.50721,1.211667 0.50721,2.648761 0,1.577984 -0.53539,2.9023646 -0.50721,1.3243801 -1.46527,2.2824424 -0.92988,0.9580622 -2.25426,1.4934499 -1.2962,0.5353877 -2.84601,0.5353877 -1.54981,0 -2.95872,-0.563566 -1.40892,-0.563566 -2.3388,-1.5498065 -0.56357,-0.6199227 -0.98624,-1.3525585 -0.3945,-0.7608141 -0.78899,-1.8879466 l 4.08585,-1.211666 q 0.87353,2.4233334 2.90236,2.4233334 1.12714,0 1.85977,-0.7889924 0.73264,-0.817171 0.73264,-2.085194 0,-1.32438 -0.73264,-2.169729 -0.73263,-0.845349 -1.88794,-0.845349 -1.46528,0 -2.3388,1.380736 l -4.59307,-0.619922 1.23985,-9.890584 h 11.91942 z"
       id="text5284"
       transform="scale(0.99551619,1.004504)"
       aria-label="C-15" />
  </g>
</svg>
