<?xml version="1.0" encoding="UTF-8" standalone="no"?>
<svg
   version="1.2"
   width="347.34406"
   height="229.97447"
   id="svg2"
   sodipodi:docname="ES_CAT_LOC512.svg"
   inkscape:version="1.3.2 (091e20e, 2023-11-25, custom)"
   xmlns:inkscape="http://www.inkscape.org/namespaces/inkscape"
   xmlns:sodipodi="http://sodipodi.sourceforge.net/DTD/sodipodi-0.dtd"
   xmlns="http://www.w3.org/2000/svg"
   xmlns:svg="http://www.w3.org/2000/svg"
   xmlns:rdf="http://www.w3.org/1999/02/22-rdf-syntax-ns#"
   xmlns:cc="http://creativecommons.org/ns#"
   xmlns:dc="http://purl.org/dc/elements/1.1/">
  <sodipodi:namedview
     pagecolor="#ffffff"
     bordercolor="#666666"
     borderopacity="1"
     objecttolerance="10"
     gridtolerance="10"
     guidetolerance="10"
     inkscape:pageopacity="0"
     inkscape:pageshadow="2"
     inkscape:window-width="1920"
     inkscape:window-height="1017"
     id="namedview906"
     showgrid="false"
     inkscape:zoom="2.8284271"
     inkscape:cx="78.842407"
     inkscape:cy="88.211572"
     inkscape:window-x="-8"
     inkscape:window-y="-8"
     inkscape:window-maximized="1"
     inkscape:current-layer="layer3"
     fit-margin-top="0"
     fit-margin-left="0"
     fit-margin-right="0"
     fit-margin-bottom="0"
     inkscape:document-rotation="0"
     inkscape:showpageshadow="false"
     inkscape:pagecheckerboard="true"
     inkscape:deskcolor="#d1d1d1" />
  <metadata
     id="metadata3197">
    <rdf:RDF>
      <cc:Work
         rdf:about="">
        <dc:format>image/svg+xml</dc:format>
        <dc:type
           rdf:resource="http://purl.org/dc/dcmitype/StillImage" />
        <dc:title />
      </cc:Work>
    </rdf:RDF>
  </metadata>
  <defs
     id="defs3195" />
  <path
     d="m 346.83634,210.27486 c 0,17.41595 5.06683,19.7309 -16.81215,19.6993 L 26.459069,229.53568 C 4.5800916,229.50408 -0.04990732,232.51399 4.0368303e-4,215.09812 L 0.43888168,63.312491 C 0.48921168,45.88865 -2.8740323,50.160754 19.004946,50.191952 L 326.51637,50.63043 c 21.87899,0.0312 20.81203,-0.356196 20.75845,17.06684 l -0.43848,142.57759"
     id="path3113"
     style="display:inline;fill:#ffffff;stroke-width:1"
     sodipodi:nodetypes="csssssssc" />
  <path
     d="m 337.83392,207.94286 c 0,18.396 2.96059,14.89693 -15.56241,14.89693 H 27.863113 c -18.525,0 -19.510709,2.18264 -19.510709,-16.21236 V 73.678839 c 0,-18.400001 -0.768202,-16.214365 17.756798,-16.214365 h 293.980018 0.42838 c 18.523,0 17.31632,-2.624113 17.31632,15.775887 z"
     id="path3115"
     style="display:inline;fill:#ffffff;stroke:#000000;stroke-width:7.0629;stroke-miterlimit:3.864"
     sodipodi:nodetypes="sssssscsss" />
  <g
     inkscape:groupmode="layer"
     id="layer1"
     inkscape:label="Layer 4"
     transform="translate(8.3029116e-8,49.707305)"
     style="display:none">
    <path
       style="fill:none;fill-rule:evenodd;stroke:#ff0000;stroke-width:4;stroke-linecap:butt;stroke-linejoin:miter;stroke-miterlimit:4;stroke-dasharray:none;stroke-opacity:1"
       d="M 11.838901,167.93701 361.74421,12.277379"
       id="path1471" />
  </g>
  <g
     inkscape:groupmode="layer"
     id="layer3"
     inkscape:label="Layer 1"
     transform="translate(4.0368303e-4,49.753474)"
     style="display:inline">
    <path
       style="font-size:48px;line-height:28.125px;font-family:TrafficTypeW01-SpainD;-inkscape-font-specification:TrafficTypeW01-SpainD;letter-spacing:1px;word-spacing:0px;stroke:#000000;stroke-width:1px"
       d="m 107.25398,64.838745 q -1.968,4.848 -5.76,7.488 -3.791997,2.592 -8.879997,2.592 -3.504,0 -6.384,-1.2 -2.88,-1.248 -4.992,-3.456 -2.064,-2.208 -3.216,-5.28 -1.152,-3.072 -1.152,-6.816 0,-3.6 1.056,-6.576 1.056,-3.024 3.168,-5.232 2.16,-2.304 5.136,-3.504 2.976,-1.248 6.288,-1.248 5.184,0 9.023997,2.64 3.84,2.64 5.664,7.44 l -7.679997,2.736 q -0.768,-2.592 -2.64,-4.032 -1.824,-1.44 -4.416,-1.44 -1.728,0 -3.12,0.672 -1.392,0.624 -2.4,1.872 -1.008,1.2 -1.536,2.928 -0.528,1.68 -0.528,3.792 0,4.416 2.064,6.816 1.008,1.2 2.496,1.872 1.536,0.672 3.168,0.672 2.592,0 4.464,-1.536 1.92,-1.584 2.448,-4.08 z m 16.74397,-0.528 q -0.672,0.192 -1.2,0.288 -0.48,0.096 -1.248,0.24 -1.104,0.192 -1.824,0.384 -0.72,0.144 -1.152,0.336 -0.384,0.192 -0.528,0.48 -0.144,0.288 -0.144,0.672 0,0.816 0.72,1.344 0.72,0.48 1.872,0.48 1.92,0 2.976,-0.96 0.336,-0.288 0.432,-0.576 0.096,-0.288 0.096,-1.008 z m 7.344,10.272 q -2.352,-0.192 -3.696,-0.624 -1.296,-0.48 -2.16,-1.44 -1.584,1.104 -3.072,1.584 -1.488,0.48 -3.168,0.48 -1.824,0 -3.408,-0.576 -1.536,-0.624 -2.688,-1.632 -1.152,-1.056 -1.824,-2.448 -0.624,-1.392 -0.624,-2.976 0,-5.904 7.584,-7.296 l 4.704,-0.816 q 0.816,-0.144 0.816,-0.576 0,-0.672 -0.912,-1.104 -0.864,-0.432 -2.256,-0.432 -1.536,0 -3.12,0.72 -1.584,0.672 -2.976,1.92 l -3.36,-5.28 q 2.016,-1.776 4.56,-2.736 2.592,-0.96 5.472,-0.96 2.16,0 3.984,0.528 1.824,0.48 3.12,1.392 1.344,0.912 2.112,2.112 0.768,1.2 0.768,2.64 v 10.656 q 0,1.152 1.728,1.152 0.096,0 0.24,0 0.192,0 0.432,-0.048 z m 21.44802,-15.696 q -2.16,-2.256 -5.088,-2.256 -1.008,0 -1.728,0.288 -0.672,0.288 -0.672,0.72 0,0.432 1.344,0.768 l 4.272,1.008 q 6.48,1.44 6.48,7.296 0,1.728 -0.672,3.168 -0.672,1.392 -1.92,2.448 -1.248,1.008 -2.976,1.584 -1.728,0.528 -3.792,0.528 -1.68,0 -3.36,-0.336 -1.632,-0.336 -3.168,-0.912 -1.536,-0.624 -2.88,-1.44 -1.344,-0.864 -2.352,-1.92 l 4.8,-4.464 q 0.528,0.576 1.344,1.104 0.864,0.48 1.824,0.864 0.96,0.384 1.92,0.624 1.008,0.24 1.824,0.24 0.768,0 1.296,-0.336 0.576,-0.336 0.576,-0.864 0,-0.384 -0.432,-0.624 -0.432,-0.288 -1.536,-0.528 l -4.224,-1.008 q -2.736,-0.672 -4.224,-2.4 -1.488,-1.728 -1.488,-4.272 0,-1.68 0.624,-3.12 0.672,-1.44 1.824,-2.448 1.2,-1.056 2.784,-1.632 1.632,-0.576 3.552,-0.576 2.832,0 5.472,0.912 2.64,0.912 4.896,2.64 z m 24.90403,-7.968 v 6.24 h -5.712 v 8.64 q 0,1.92 1.92,1.92 1.776,0 3.168,-0.672 l 1.248,6.24 q -1.248,0.528 -2.976,0.816 -1.728,0.336 -3.552,0.336 -3.408,0 -5.376,-1.584 -1.968,-1.632 -1.968,-4.464 v -11.232 h -3.696 v -6.24 h 3.696 v -7.392 l 7.536,-1.92 v 9.312 z m 17.75194,8.496 q -0.336,-1.392 -1.44,-2.208 -1.056,-0.864 -2.496,-0.864 -1.44,0 -2.544,0.864 -1.056,0.816 -1.392,2.208 z m -7.872,5.424 q 0.384,1.584 1.584,2.496 1.2,0.864 3.024,0.864 1.536,0 2.928,-0.624 1.392,-0.624 2.544,-1.776 l 4.8,4.8 q -0.816,0.864 -2.016,1.584 -1.152,0.72 -2.544,1.296 -1.344,0.528 -2.832,0.816 -1.44,0.288 -2.784,0.288 -2.496,0 -4.704,-0.816 -2.208,-0.864 -3.84,-2.448 -3.504,-3.36 -3.504,-9.072 0,-2.688 0.72,-4.704 0.768,-2.016 2.4,-3.696 1.632,-1.68 3.696,-2.544 2.112,-0.912 4.512,-0.912 2.688,0 5.04,1.2 2.4,1.152 3.936,3.264 1.104,1.392 1.68,3.648 0.624,2.256 0.624,4.704 0,0.384 -0.048,0.768 0,0.336 -0.096,0.864 z m 26.632,-22.752 v 24.336 q 0,0.912 0.336,1.296 0.384,0.336 1.248,0.336 1.248,0 2.4,-0.528 l 0.672,6.576 q -0.864,0.144 -2.16,0.24 -1.248,0.096 -2.496,0.096 -1.824,0 -3.072,-0.336 -1.2,-0.336 -2.16,-1.152 -1.008,-0.816 -1.584,-2.016 -0.528,-1.2 -0.528,-2.544 v -26.304 z m 15.73596,0 v 24.336 q 0,0.912 0.336,1.296 0.384,0.336 1.248,0.336 1.248,0 2.4,-0.528 l 0.672,6.576 q -0.864,0.144 -2.16,0.24 -1.248,0.096 -2.496,0.096 -1.824,0 -3.072,-0.336 -1.2,-0.336 -2.16,-1.152 -1.008,-0.816 -1.584,-2.016 -0.528,-1.2 -0.528,-2.544 v -26.304 z m 20.72796,32.016 h -8.352 l -7.584,-23.376 h 7.536 l 4.224,13.632 4.224,-13.632 h 7.536 z m 22.02398,-32.544 -4.272,7.488 h -5.76 l 2.688,-7.488 z m -3.648,32.544 h -7.2 v -23.184 h 7.2 z"
       id="text1502"
       aria-label=" Castellví &#10;&#10;" />
    <text
       xml:space="preserve"
       style="font-style:normal;font-variant:normal;font-weight:normal;font-stretch:normal;font-size:29.3333px;line-height:17.1875px;font-family:Ccrige;-inkscape-font-specification:Ccrige;letter-spacing:3px;word-spacing:0px;fill:#000000;stroke:#000000;stroke-width:1px;stroke-linecap:butt;stroke-linejoin:miter;stroke-opacity:1"
       x="132.0011"
       y="132.75752"
       id="text1502-7"><tspan
         sodipodi:role="line"
         id="tspan1500-8"
         x="132.0011"
         y="132.75752"
         style="letter-spacing:3px" /></text>
    <text
       xml:space="preserve"
       style="font-size:42.6667px;line-height:25px;font-family:Haettenschweiler;-inkscape-font-specification:Haettenschweiler;letter-spacing:0px;word-spacing:0px;fill:none;stroke:#000000;stroke-width:1px;stroke-linecap:butt;stroke-linejoin:miter;stroke-opacity:1"
       x="20.608053"
       y="111.3272"
       id="text1442"><tspan
         sodipodi:role="line"
         id="tspan1440"
         x="20.608053"
         y="111.3272" /></text>
    <path
       style="font-size:48px;line-height:28.125px;font-family:TrafficTypeW01-SpainD;-inkscape-font-specification:TrafficTypeW01-SpainD;letter-spacing:1px;word-spacing:0px;stroke:#000000;stroke-width:1px"
       d="m 53.816396,136.63319 q 0,0.96 0.336,1.776 0.384,0.816 1.008,1.488 0.672,0.624 1.488,1.008 0.864,0.336 1.824,0.336 0.912,0 1.728,-0.336 0.864,-0.384 1.488,-1.008 0.672,-0.672 1.008,-1.488 0.384,-0.816 0.384,-1.776 v -1.968 q 0,-0.912 -0.384,-1.728 -0.336,-0.864 -1.008,-1.488 -0.624,-0.672 -1.488,-1.008 -0.816,-0.384 -1.776,-0.384 -0.96,0 -1.776,0.384 -0.816,0.336 -1.488,1.008 -0.624,0.624 -1.008,1.488 -0.336,0.816 -0.336,1.728 z m 16.464,-21.312 v 32.016 h -6.576 l -0.48,-1.008 q -1.248,0.816 -2.496,1.152 -1.248,0.336 -2.784,0.336 -5.04,0 -8.496,-4.128 -1.488,-1.824 -2.16,-3.648 -0.672,-1.872 -0.672,-4.272 0,-4.896 2.832,-8.256 1.632,-1.872 3.936,-2.928 2.304,-1.104 4.656,-1.104 1.392,0 2.544,0.336 1.152,0.288 2.496,1.056 v -9.552 z m 19.479974,17.328 q -0.336,-1.392 -1.44,-2.208 -1.056,-0.864 -2.496,-0.864 -1.44,0 -2.544,0.864 -1.056,0.816 -1.392,2.208 z m -7.872,5.424 q 0.384,1.584 1.584,2.496 1.2,0.864 3.024,0.864 1.536,0 2.928,-0.624 1.392,-0.624 2.544,-1.776 l 4.8,4.8 q -0.816,0.864 -2.016,1.584 -1.152,0.72 -2.544,1.296 -1.344,0.528 -2.832,0.816 -1.44,0.288 -2.784,0.288 -2.496,0 -4.704,-0.816 -2.208,-0.864 -3.84,-2.448 -3.504,-3.36 -3.504,-9.072 0,-2.688 0.72,-4.704 0.768,-2.016 2.4,-3.696 1.632,-1.68 3.696,-2.544 2.112,-0.912 4.512,-0.912 2.688,0 5.04,1.2 2.4,1.152 3.936,3.264 1.104,1.392 1.68,3.648 0.624,2.256 0.624,4.704 0,0.384 -0.048,0.768 0,0.336 -0.096,0.864 z m 40.73603,-22.752 v 24.336 q 0,0.912 0.336,1.296 0.384,0.336 1.248,0.336 1.248,0 2.4,-0.528 l 0.672,6.576 q -0.864,0.144 -2.16,0.24 -1.248,0.096 -2.496,0.096 -1.824,0 -3.072,-0.336 -1.2,-0.336 -2.16,-1.152 -1.008,-0.816 -1.584,-2.016 -0.528,-1.2 -0.528,-2.544 v -26.304 z m 20.05597,22.224 q -0.672,0.192 -1.2,0.288 -0.48,0.096 -1.248,0.24 -1.104,0.192 -1.824,0.384 -0.72,0.144 -1.152,0.336 -0.384,0.192 -0.528,0.48 -0.144,0.288 -0.144,0.672 0,0.816 0.72,1.344 0.72,0.48 1.872,0.48 1.92,0 2.976,-0.96 0.336,-0.288 0.432,-0.576 0.096,-0.288 0.096,-1.008 z m 7.344,10.272 q -2.352,-0.192 -3.696,-0.624 -1.296,-0.48 -2.16,-1.44 -1.584,1.104 -3.072,1.584 -1.488,0.48 -3.168,0.48 -1.824,0 -3.408,-0.576 -1.536,-0.624 -2.688,-1.632 -1.152,-1.056 -1.824,-2.448 -0.624,-1.392 -0.624,-2.976 0,-5.904 7.584,-7.296 l 4.704,-0.816 q 0.816,-0.144 0.816,-0.576 0,-0.672 -0.912,-1.104 -0.864,-0.432 -2.256,-0.432 -1.536,0 -3.12,0.72 -1.584,0.672 -2.976,1.92 l -3.36,-5.28 q 2.016,-1.776 4.56,-2.736 2.592,-0.96 5.472,-0.96 2.16,0 3.984,0.528 1.824,0.48 3.12,1.392 1.344,0.912 2.112,2.112 0.768,1.2 0.768,2.64 v 10.656 q 0,1.152 1.728,1.152 0.096,0 0.24,0 0.192,0 0.432,-0.048 z m 47.50405,-32.496 h 8.016 v 32.016 h -7.2 v -20.64 l -8.928,12.624 -8.976,-12.624 v 20.64 h -7.2 v -32.016 h 8.016 l 7.968,11.376 z m 27.83203,22.224 q -0.672,0.192 -1.2,0.288 -0.48,0.096 -1.248,0.24 -1.104,0.192 -1.824,0.384 -0.72,0.144 -1.152,0.336 -0.384,0.192 -0.528,0.48 -0.144,0.288 -0.144,0.672 0,0.816 0.72,1.344 0.72,0.48 1.872,0.48 1.92,0 2.976,-0.96 0.336,-0.288 0.432,-0.576 0.096,-0.288 0.096,-1.008 z m 7.344,10.272 q -2.352,-0.192 -3.696,-0.624 -1.296,-0.48 -2.16,-1.44 -1.584,1.104 -3.072,1.584 -1.488,0.48 -3.168,0.48 -1.824,0 -3.408,-0.576 -1.536,-0.624 -2.688,-1.632 -1.152,-1.056 -1.824,-2.448 -0.624,-1.392 -0.624,-2.976 0,-5.904 7.584,-7.296 l 4.704,-0.816 q 0.816,-0.144 0.816,-0.576 0,-0.672 -0.912,-1.104 -0.864,-0.432 -2.256,-0.432 -1.536,0 -3.12,0.72 -1.584,0.672 -2.976,1.92 l -3.36,-5.28 q 2.016,-1.776 4.56,-2.736 2.592,-0.96 5.472,-0.96 2.16,0 3.984,0.528 1.824,0.48 3.12,1.392 1.344,0.912 2.112,2.112 0.768,1.2 0.768,2.64 v 10.656 q 0,1.152 1.728,1.152 0.096,0 0.24,0 0.192,0 0.432,-0.048 z m 14.34402,-23.856 v 1.584 q 1.392,-1.104 2.784,-1.584 1.44,-0.48 3.12,-0.48 0.384,0 0.672,0.048 0.336,0 0.816,0.048 v 7.44 q -0.528,-0.096 -0.864,-0.144 -0.336,-0.048 -0.768,-0.048 -1.536,0 -2.736,0.48 -1.2,0.48 -1.92,1.296 -0.48,0.528 -0.72,1.2 -0.192,0.624 -0.384,1.824 v 11.712 h -7.344 v -23.376 z m 25.38404,9.696 q -0.384,-1.824 -1.584,-2.832 -1.2,-1.056 -2.88,-1.056 -2.112,0 -3.264,1.536 -1.104,1.488 -1.104,4.32 0,2.88 1.152,4.464 1.2,1.584 3.312,1.584 1.776,0 2.928,-1.008 1.2,-1.056 1.44,-2.88 l 6.288,2.352 q -1.296,3.6 -4.08,5.664 -2.784,2.016 -6.432,2.016 -2.496,0 -4.608,-0.912 -2.064,-0.912 -3.6,-2.544 -1.536,-1.68 -2.4,-3.888 -0.864,-2.256 -0.864,-4.944 0,-2.592 0.816,-4.752 0.864,-2.208 2.304,-3.792 1.488,-1.584 3.504,-2.448 2.064,-0.912 4.464,-0.912 3.696,0 6.432,1.968 2.784,1.92 4.464,5.712 z m 22.312,3.888 q -0.672,0.192 -1.2,0.288 -0.48,0.096 -1.248,0.24 -1.104,0.192 -1.824,0.384 -0.72,0.144 -1.152,0.336 -0.384,0.192 -0.528,0.48 -0.144,0.288 -0.144,0.672 0,0.816 0.72,1.344 0.72,0.48 1.872,0.48 1.92,0 2.976,-0.96 0.336,-0.288 0.432,-0.576 0.096,-0.288 0.096,-1.008 z m 7.344,10.272 q -2.352,-0.192 -3.696,-0.624 -1.296,-0.48 -2.16,-1.44 -1.584,1.104 -3.072,1.584 -1.488,0.48 -3.168,0.48 -1.824,0 -3.408,-0.576 -1.536,-0.624 -2.688,-1.632 -1.152,-1.056 -1.824,-2.448 -0.624,-1.392 -0.624,-2.976 0,-5.904 7.584,-7.296 l 4.704,-0.816 q 0.816,-0.144 0.816,-0.576 0,-0.672 -0.912,-1.104 -0.864,-0.432 -2.256,-0.432 -1.536,0 -3.12,0.72 -1.584,0.672 -2.976,1.92 l -3.36,-5.28 q 2.016,-1.776 4.56,-2.736 2.592,-0.96 5.472,-0.96 2.16,0 3.984,0.528 1.824,0.48 3.12,1.392 1.344,0.912 2.112,2.112 0.768,1.2 0.768,2.64 v 10.656 q 0,1.152 1.728,1.152 0.096,0 0.24,0 0.192,0 0.432,-0.048 z"
       id="text1502-8"
       aria-label="de la Marca &#10;&#10;" />
  </g>
  <g
     inkscape:groupmode="layer"
     id="layer5"
     inkscape:label="Layer 3"
     transform="translate(4.0368303e-4,49.753474)">
    <text
       xml:space="preserve"
       style="font-size:42.6667px;line-height:25px;font-family:'Andale Mono IPA';-inkscape-font-specification:'Andale Mono IPA';letter-spacing:0px;word-spacing:0px;fill:none;stroke:#000000;stroke-width:1px;stroke-linecap:butt;stroke-linejoin:miter;stroke-opacity:1"
       x="133.73573"
       y="169.69092"
       id="text1522"><tspan
         sodipodi:role="line"
         id="tspan1520"
         x="133.73573"
         y="169.69092" /></text>
  </g>
  <path
     d="m 232.11,41.916425 c 0,4.341106 1.26093,5.0346 -7.74849,5.043689 L 80.044311,47.105699 c -9.009437,0.0091 -8.347406,-1.254466 -8.364102,-5.59554 L 71.534624,3.6539009 C 71.517974,-0.68915606 69.942247,0.15478694 78.951681,0.14561894 L 222.02391,3.2938419e-5 C 231.03336,-0.00916706 231.74264,1.9084689 231.80648,6.2508909 L 232.11,26.89094"
     id="path3113-3"
     style="display:inline;fill:#ffffff;stroke-width:1"
     sodipodi:nodetypes="csssssssc" />
  <path
     d="m 226.49664,35.561855 c 0,7.575194 -1.49158,6.15814 -9.11907,6.15814 H 87.696036 c -7.628315,0 -10.683956,0.895288 -10.683956,-6.679494 V 11.518085 c 0,-7.5768401 2.273609,-6.1589641 9.901923,-6.1589641 H 217.37757 c 7.62749,0 9.11907,-0.375167 9.11907,7.2016731 z"
     id="path3115-4"
     style="display:inline;fill:#ffffff;stroke:#000000;stroke-width:4.00001;stroke-miterlimit:3.864;stroke-dasharray:none"
     sodipodi:nodetypes="sssssssss" />
  <path
     d="m 207.31995,13.491071 -6.09381,13.399866 4.11785,-2.058923 -2.05892,8.235695 h 8.23569 l -2.05893,-8.235695 4.11787,2.058923 -6.25975,-13.399866"
     id="polyline3593"
     style="display:inline;fill:#1c1d20;stroke-width:1"
     sodipodi:nodetypes="cccccccc" />
  <path
     d="m 94.079124,13.491071 -6.093804,13.399866 4.11785,-2.058923 -2.058925,8.235695 h 8.235698 l -2.058925,-8.235695 4.117852,2.058923 -6.259746,-13.399866"
     id="polyline3593-0"
     style="display:inline;fill:#1c1d20;stroke-width:1"
     sodipodi:nodetypes="cccccccc" />
  <g
     id="text2260"
     style="font-size:24.0632px;line-height:14.0995px;font-family:TrafficTypeW01-SpainD;-inkscape-font-specification:TrafficTypeW01-SpainD;letter-spacing:0px;word-spacing:0px;stroke-width:1px"
     aria-label="6,5 km">
    <path
       style="font-family:'Caracteres L4';-inkscape-font-specification:'Caracteres L4'"
       d="m 125.0725,32.681271 q -0.83422,0.223242 -1.59794,0.223242 h -0.0705 q -0.22324,0.01175 -0.43474,0.01175 -1.68019,0 -2.73766,-0.728476 -0.92822,-0.61098 -1.5157,-1.926936 -0.55223,-1.257208 -0.55223,-3.31339 v -0.246742 q 0.1175,-2.796407 0.62273,-4.218109 0.65798,-2.678911 1.92694,-4.323857 1.78594,-2.044432 4.4061,-2.07968 0.22324,-0.01175 0.42299,-0.01175 h 0.0705 q 4.21811,0 4.42961,4.018366 h -3.0549 q 0.0823,-1.116212 -0.99872,-1.409953 -1.06921,-0.29374 -2.15018,0.31724 -0.90472,0.657978 -1.43345,1.962184 -0.22324,0.505234 -0.71673,2.103181 2.51442,-2.12668 5.26383,-1.069215 2.29117,0.951718 2.39692,4.159362 -0.0235,1.304206 -0.24674,2.150178 -0.52873,1.586198 -1.40995,2.667162 -1.11622,1.339455 -2.62017,1.715443 z m -0.34074,-8.953203 q -3.20764,-0.223242 -3.67762,3.278141 -0.188,3.301641 2.59666,3.125396 2.05618,-0.364237 2.63191,-2.38517 0.70498,-3.60713 -1.55095,-4.018367 z m 6.89702,7.355256 h 2.92566 l -2.53792,4.617596 h -1.83294 z"
       id="path1" />
    <path
       style="font-size:16.4714px;font-family:'Caracteres L4';-inkscape-font-specification:'Caracteres L4'"
       d="m 144.2647,21.381875 -0.36193,1.817644 -4.75322,-0.008 -0.56298,2.509314 q 0.9812,-0.892737 2.44497,-0.81231 1.34313,0.168896 1.9785,1.037505 1.0938,1.423554 0.28149,3.820271 -0.31366,0.973164 -1.14206,1.801559 -1.23053,1.254658 -2.89536,1.254658 -0.12064,0 -0.24128,-0.008 -1.21445,-0.128683 -2.06697,-0.772097 -1.21444,-0.965121 -1.23053,-2.565613 l 2.17152,-0.01609 q -0.0241,0.603201 0.39409,1.02142 1.02142,0.707756 2.30825,-0.0563 0.83644,-0.72384 0.98121,-1.616577 0.26541,-1.584407 -0.65146,-2.259992 -1.02142,-0.490603 -1.84177,-0.02413 -0.62733,0.378006 -0.89274,1.198358 h -2.00262 l 1.43159,-6.321542 z"
       id="path2" />
    <path
       style="font-family:'Caracteres L4';-inkscape-font-specification:'Caracteres L4'"
       d="m 157.38103,16.396312 -1.66844,8.41272 3.45438,-3.548382 h 3.66588 l -4.82909,4.805591 3.85387,6.756025 -3.37213,-0.01175 -3.1489,-6.215543 -1.11621,6.239043 h -2.76116 l 3.18414,-16.437704 z m 8.03674,4.758592 h 2.70241 l -0.22325,1.962185 q 1.28071,-1.750692 2.57317,-2.009184 0.32899,-0.03525 0.61098,-0.03525 0.82247,0 1.22196,0.28199 1.08096,0.693227 1.12796,2.291174 1.95043,-2.385171 3.0784,-2.443919 0.32899,-0.094 0.61098,-0.094 0.82247,0 1.2572,0.281991 0.81073,0.540482 1.06922,1.409953 0.17624,0.681478 0.17624,1.492201 0,0.59923 -0.10574,1.268957 l -1.36296,7.249509 h -2.8904 l 1.3512,-7.120263 q 0.22325,-1.19846 -0.18799,-1.868188 -0.96347,-0.58748 -2.09143,0.30549 -0.76373,0.728476 -1.19846,2.573164 l -1.02222,6.086298 h -2.8904 l 1.3512,-7.120263 q 0.22325,-1.19846 -0.28199,-1.774191 -0.86947,-0.681478 -1.86818,0.211493 -0.76373,0.728476 -1.19846,2.573164 l -1.12797,6.109797 h -2.72591 l 1.87994,-10.22216 z"
       id="path3" />
  </g>
</svg>
