<?xml version="1.0" encoding="UTF-8" standalone="no"?>
<svg
   width="1490.6661"
   height="478"
   id="svg3272"
   version="1.1"
   inkscape:version="1.3.2 (091e20e, 2023-11-25, custom)"
   sodipodi:docname="ES_CAT_ID420.svg"
   xmlns:inkscape="http://www.inkscape.org/namespaces/inkscape"
   xmlns:sodipodi="http://sodipodi.sourceforge.net/DTD/sodipodi-0.dtd"
   xmlns="http://www.w3.org/2000/svg"
   xmlns:svg="http://www.w3.org/2000/svg"
   xmlns:rdf="http://www.w3.org/1999/02/22-rdf-syntax-ns#"
   xmlns:cc="http://creativecommons.org/ns#"
   xmlns:dc="http://purl.org/dc/elements/1.1/">
  <defs
     id="defs3274" />
  <sodipodi:namedview
     id="base"
     pagecolor="#ffffff"
     bordercolor="#666666"
     borderopacity="1.0"
     inkscape:pageopacity="0.0"
     inkscape:pageshadow="2"
     inkscape:zoom="0.70710678"
     inkscape:cx="758.01847"
     inkscape:cy="366.98842"
     inkscape:document-units="px"
     inkscape:current-layer="layer2"
     showgrid="false"
     fit-margin-top="0"
     fit-margin-left="0"
     fit-margin-right="0"
     fit-margin-bottom="0"
     inkscape:window-width="1920"
     inkscape:window-height="1017"
     inkscape:window-x="-8"
     inkscape:window-y="-8"
     inkscape:window-maximized="1"
     inkscape:document-rotation="0"
     inkscape:showpageshadow="false"
     inkscape:pagecheckerboard="true"
     inkscape:deskcolor="#d1d1d1" />
  <metadata
     id="metadata3277">
    <rdf:RDF>
      <cc:Work
         rdf:about="">
        <dc:format>image/svg+xml</dc:format>
        <dc:type
           rdf:resource="http://purl.org/dc/dcmitype/StillImage" />
        <dc:title />
      </cc:Work>
    </rdf:RDF>
  </metadata>
  <g
     inkscape:label="Capa 1"
     inkscape:groupmode="layer"
     id="layer1"
     transform="translate(244.4286,-504.79077)"
     style="display:inline">
    <g
       inkscape:groupmode="layer"
       id="layer12"
       inkscape:label="E-80">
      <rect
         style="fill:#ff0000;stroke:#ffffff;stroke-width:20;stroke-linecap:round;stroke-linejoin:round;stroke-miterlimit:3.864;stroke-dasharray:none"
         id="rect9789"
         width="1470.6661"
         height="458"
         x="-234.4286"
         y="514.79077"
         ry="74.953316"
         rx="74.953316" />
    </g>
  </g>
  <g
     inkscape:groupmode="layer"
     id="layer2"
     inkscape:label="Capa 2"
     style="display:inline"
     transform="translate(10.000008,9.999977)">
    <path
       style="font-weight:bold;font-size:379.886px;line-height:222.59px;font-family:TrafficTypeW01-SpainD;-inkscape-font-specification:'TrafficTypeW01-SpainD Bold';letter-spacing:0px;word-spacing:0px;fill:#ffffff;stroke-width:0.999996px"
       d="M 333.45148,257.24302 V 94.651814 h 56.9829 V 348.03577 H 326.99342 L 219.48569,187.34399 v 160.69178 h -56.9829 V 94.651814 h 63.44096 z m 188.42316,26.21213 h -87.37378 v -48.24552 h 87.37378 z m 237.80898,11.39658 v 53.18404 H 578.47801 v -42.92712 q 0,-3.79886 1.13965,-6.07818 1.13966,-2.27931 4.17875,-4.55863 l 75.9772,-57.36278 q 21.27361,-15.95521 31.15065,-30.77077 10.25692,-15.19544 10.25692,-30.01099 0,-14.43567 -10.25692,-23.17304 -9.87704,-9.11727 -26.97191,-9.11727 -17.85464,0 -28.11156,10.63681 -9.87704,10.63681 -9.87704,29.63111 0,2.27931 0,4.17874 0,1.89943 0.75978,4.93852 h -59.6421 q -0.37989,-4.93852 -0.75978,-8.35749 0,-3.79886 0,-6.07818 0,-20.51384 6.83795,-37.22882 6.83795,-16.71499 19.37419,-28.49145 12.91612,-12.15635 30.77076,-18.614416 17.85464,-6.458062 39.88803,-6.458062 22.03339,0 39.88803,6.458062 18.23453,6.458066 31.15065,18.234526 12.91612,11.77647 19.75407,28.49145 6.83795,16.71498 6.83795,37.22883 0,24.69259 -9.87704,43.68689 -9.49715,18.99429 -31.53053,38.36848 l -39.12826,34.18974 z m 167.15,-70.27891 q -15.95521,0 -25.07248,10.25692 -9.11726,9.87704 -9.11726,26.97191 0,17.09487 9.11726,26.9719 9.11727,9.87704 25.07248,9.87704 15.57532,0 24.69259,-9.87704 9.49715,-9.87703 9.49715,-26.59202 0,-17.47475 -9.11727,-27.35179 -9.11726,-10.25692 -25.07247,-10.25692 z m 31.53053,-58.88233 q -6.83794,-21.6535 -30.01099,-21.6535 -8.35749,0 -15.57532,3.03909 -7.21784,3.03909 -12.53624,8.73738 -5.31841,5.3184 -8.73738,12.53624 -3.03909,7.21783 -3.41897,15.57532 8.73737,-6.45806 20.51384,-9.87704 12.15635,-3.79886 25.45236,-3.79886 18.23453,0 33.42997,6.83795 15.57532,6.83795 26.59202,18.9943 11.39656,11.77647 17.47476,28.49145 6.4581,16.71498 6.4581,36.08917 0,20.51384 -6.4581,37.60871 -6.4581,16.71499 -18.23454,28.87134 -11.77646,12.15635 -28.11156,18.9943 -15.95521,6.83794 -35.70928,6.83794 -23.93282,0 -42.92712,-9.11726 -18.61441,-9.49715 -31.91042,-26.9719 -12.91612,-17.85465 -19.75407,-43.30701 -6.83795,-25.45236 -6.83795,-57.36278 0,-34.56963 7.59772,-60.02199 7.97761,-25.83224 23.93282,-41.40757 11.77646,-11.77646 29.25122,-18.234526 17.85464,-6.837948 38.36848,-6.837948 20.51385,0 38.36849,6.837948 18.23452,6.458066 29.25122,18.614416 4.93852,5.3184 8.73739,12.15635 3.7988,6.45806 7.9776,16.71498 z m 241.98745,-19.37418 q -14.0558,0 -25.8322,7.21783 -11.3966,7.21784 -16.715,19.37419 -3.419,7.9776 -4.9385,18.23452 -1.1397,10.25693 -1.1397,30.011 0,20.13395 1.1397,30.39088 1.5195,10.25692 4.9385,18.23452 4.9385,12.15635 16.715,19.37419 11.7764,7.21783 25.8322,7.21783 12.9161,0 23.9328,-5.69829 11.0167,-6.07817 17.0949,-16.33509 2.2793,-3.79886 3.7989,-8.3575 1.5195,-4.55863 2.2793,-10.6368 1.1396,-6.07818 1.5195,-14.05579 0.3799,-7.9776 0.3799,-18.61441 0,-12.91612 -0.7598,-22.03339 -0.3799,-9.11726 -1.5195,-15.95521 -1.1397,-6.83795 -3.419,-11.39658 -1.8994,-4.93851 -5.3184,-9.11726 -6.4581,-8.35749 -16.715,-12.91612 -9.877,-4.93852 -21.2736,-4.93852 z m 0,-56.9829 q 26.9719,0 49.3852,11.39658 22.4133,11.39658 36.469,32.29031 11.3966,17.47475 17.0949,39.50814 5.6983,22.03339 5.6983,50.52484 0,29.6311 -7.5977,53.94381 -7.5977,23.93281 -22.0334,41.02768 -14.0558,17.09487 -34.1897,26.21214 -20.134,9.11726 -44.8266,9.11726 -25.0725,0 -45.2064,-9.11726 -19.7541,-9.49715 -33.8099,-26.59202 -14.0558,-17.09487 -21.6535,-41.40757 -7.5977,-24.69259 -7.5977,-55.08347 0,-30.011 7.5977,-54.3237 7.5977,-24.69259 21.6535,-41.78746 14.0558,-17.09487 33.8099,-26.21213 20.1339,-9.49715 45.2064,-9.49715 z"
       id="text850"
       transform="scale(0.98997863,1.0101228)"
       aria-label="N-260" />
  </g>
</svg>
