<?xml version="1.0" encoding="UTF-8" standalone="no"?>
<svg
   version="1.2"
   width="373.85117"
   height="121.57835"
   id="svg2"
   sodipodi:docname="ES_CAT_OR60.svg"
   inkscape:version="1.3.2 (091e20e, 2023-11-25, custom)"
   xmlns:inkscape="http://www.inkscape.org/namespaces/inkscape"
   xmlns:sodipodi="http://sodipodi.sourceforge.net/DTD/sodipodi-0.dtd"
   xmlns="http://www.w3.org/2000/svg"
   xmlns:svg="http://www.w3.org/2000/svg"
   xmlns:rdf="http://www.w3.org/1999/02/22-rdf-syntax-ns#"
   xmlns:cc="http://creativecommons.org/ns#"
   xmlns:dc="http://purl.org/dc/elements/1.1/">
  <sodipodi:namedview
     pagecolor="#ffffff"
     bordercolor="#666666"
     borderopacity="1"
     objecttolerance="10"
     gridtolerance="10"
     guidetolerance="10"
     inkscape:pageopacity="0"
     inkscape:pageshadow="2"
     inkscape:window-width="1920"
     inkscape:window-height="1017"
     id="namedview5859"
     showgrid="false"
     inkscape:zoom="1.5115134"
     inkscape:cx="212.36993"
     inkscape:cy="104.2002"
     inkscape:window-x="-8"
     inkscape:window-y="-8"
     inkscape:window-maximized="1"
     inkscape:current-layer="g3182"
     fit-margin-top="0"
     fit-margin-left="0"
     fit-margin-right="0"
     fit-margin-bottom="0"
     inkscape:document-rotation="0"
     inkscape:pagecheckerboard="true"
     inkscape:showpageshadow="2"
     inkscape:deskcolor="#d1d1d1" />
  <metadata
     id="metadata3125">
    <rdf:RDF>
      <cc:Work
         rdf:about="">
        <dc:format>image/svg+xml</dc:format>
        <dc:type
           rdf:resource="http://purl.org/dc/dcmitype/StillImage" />
        <dc:title />
      </cc:Work>
    </rdf:RDF>
  </metadata>
  <defs
     id="defs3123" />
  <g
     id="g3182"
     transform="translate(-5.201316,-74.102468)">
    <path
       d="m 376.16586,171.75218 c 0,5.86268 0.24113,14.28526 -0.63631,18.04828 -0.88501,3.79551 -2.91418,2.90646 -8.92592,2.91258 L 17.011951,193.06918 C 5.0439572,193.08137 8.0994571,194.9245 8.163,183.14867 l 0.3561402,-66.00022 c 0.063532,-11.77383 7.2100448,-9.94095 19.1770188,-9.91551 l 334.990931,0.71228 c 11.97197,0.0255 13.47977,-1.85949 13.47977,9.91551 v 53.89145 z"
       id="path3101"
       style="fill:#ffffff;fill-opacity:1;stroke:#000000;stroke-width:5;stroke-miterlimit:3.864;stroke-opacity:1"
       sodipodi:nodetypes="csssssssscc" />
    <g
       id="g3115">
      <g
         id="g3117" />
    </g>
    <path
       d="m 50.025631,158.43896 q -1.749335,4.30933 -5.120004,6.656 -3.370669,2.304 -7.893339,2.304 -3.114669,0 -5.674671,-1.06666 -2.560002,-1.10934 -4.437337,-3.07201 -1.834668,-1.96266 -2.858669,-4.69333 -1.024,-2.73067 -1.024,-6.05867 0,-3.20001 0.938667,-5.84534 0.938667,-2.688 2.816002,-4.65067 1.920001,-2.048 4.565337,-3.11467 2.645335,-1.10934 5.589337,-1.10934 4.608004,0 8.02134,2.34667 3.413335,2.34667 5.03467,6.61334 l -6.826672,2.432 q -0.682667,-2.304 -2.346668,-3.584 -1.621335,-1.28 -3.925336,-1.28 -1.536002,0 -2.773336,0.59733 -1.237334,0.55467 -2.133335,1.664 -0.896,1.06667 -1.365334,2.60267 -0.469334,1.49334 -0.469334,3.37067 0,3.92534 1.834668,6.05867 0.896001,1.06667 2.218669,1.664 1.365334,0.59734 2.816002,0.59734 2.304001,0 3.968003,-1.36534 1.706668,-1.408 2.176001,-3.62666 z m 15.615961,-12.20268 -3.114669,9.94134 h 6.442671 z m 13.781343,20.43735 H 72.51093 l -1.450668,-4.39467 H 60.606921 l -1.322667,4.39467 h -6.741339 l 8.91734,-28.45869 h 8.234673 z M 103.8283,156.47629 v -18.26135 h 6.40001 v 28.45869 h -7.12534 L 91.028291,148.62562 v 18.04801 h -6.400005 v -28.45869 h 7.125339 z m 26.58132,-0.46933 v 10.66667 h -6.52801 v -10.66667 l -8.832,-17.79202 h 6.99733 l 5.37601,9.94134 4.82134,-9.94134 h 6.99733 z m 33.28004,-12.11735 h -13.09868 v 5.16267 h 11.69068 v 5.97334 h -11.69068 v 5.37601 h 14.37868 v 6.272 h -20.90668 v -28.45869 h 19.62668 z m 14.37865,16.81068 h 12.24535 v 5.97334 h -18.64535 v -28.45869 h 6.4 z m 24.19199,0 h 12.24534 v 5.97334 H 195.8603 v -28.45869 h 6.4 z m 37.41868,-16.81068 H 226.5803 v 5.16267 h 11.69068 v 5.97334 H 226.5803 v 5.37601 h 14.37868 v 6.272 H 220.0523 v -28.45869 h 19.62668 z m 27.17865,2.60267 q -1.45067,-1.19467 -3.456,-1.87733 -1.96267,-0.72534 -3.88267,-0.72534 -1.49334,0 -2.38934,0.64 -0.896,0.64 -0.896,1.664 0,0.76801 0.55467,1.23734 0.59733,0.46933 1.87733,0.768 l 3.24267,0.768 q 4.65067,1.06667 7.04001,3.456 2.38933,2.38934 2.38933,5.97334 0,2.00534 -0.85333,3.66934 -0.81067,1.664 -2.34667,2.85867 -1.49334,1.152 -3.584,1.792 -2.09067,0.68266 -4.60801,0.68266 -4.13867,0 -7.808,-1.62133 -3.66934,-1.664 -6.05867,-4.608 l 5.67467,-4.13867 q 1.19466,1.83466 3.456,2.90133 2.26133,1.06667 4.94934,1.06667 1.62133,0 2.60266,-0.72534 1.02401,-0.72533 1.02401,-1.92 0,-0.93866 -0.76801,-1.536 -0.72533,-0.59733 -2.34666,-1.06667 l -3.92534,-0.98133 q -1.62133,-0.46933 -2.688,-0.85333 -1.06667,-0.384 -1.87734,-0.896 -1.70666,-1.10934 -2.688,-2.90134 -0.93867,-1.792 -0.93867,-3.88267 0,-1.92 0.72534,-3.456 0.768,-1.57867 2.09067,-2.688 1.36533,-1.10934 3.28533,-1.70667 1.92,-0.59734 4.30934,-0.59734 7.168,0 12.71467,4.77868 z"
       id="text6487"
       style="font-size:42.6667px;line-height:25px;font-family:TrafficTypeW01-SpainD;-inkscape-font-specification:TrafficTypeW01-SpainD;letter-spacing:0px;word-spacing:0px;stroke-width:1px"
       aria-label="CANYELLES" />
    <path
       id="rect5280"
       style="display:inline;fill:#ff2121;stroke:#ffffff;stroke-width:1.99999;stroke-linecap:round;stroke-linejoin:round;stroke-miterlimit:2.613"
       d="M 76.605377,75.102463 H 148.90596 V 103.41449 H 76.605377 Z" />
    <path
       style="font-size:28.1783px;line-height:16.5108px;font-family:TrafficTypeW01-SpainD;-inkscape-font-specification:TrafficTypeW01-SpainD;letter-spacing:0px;word-spacing:0px;fill:#ffffff;stroke-width:0.999997px"
       d="m 101.96229,92.50275 q -1.15531,2.846008 -3.381393,4.395815 -2.226086,1.521628 -5.212986,1.521628 -2.057016,0 -3.747714,-0.704457 -1.690698,-0.732636 -2.930543,-2.028838 -1.211667,-1.296202 -1.887946,-3.099613 -0.67628,-1.803411 -0.67628,-4.001319 0,-2.113372 0.619923,-3.860427 0.619923,-1.775233 1.859768,-3.071435 1.268023,-1.352558 3.015078,-2.057016 1.747055,-0.732636 3.691357,-0.732636 3.043257,0 5.297521,1.549807 2.254265,1.549807 3.325035,4.367637 l -4.508524,1.606163 q -0.450852,-1.521628 -1.549806,-2.366978 -1.070776,-0.845349 -2.592404,-0.845349 -1.014419,0 -1.831589,0.394497 -0.817171,0.366318 -1.408915,1.098953 -0.591745,0.704458 -0.901706,1.718877 -0.309961,0.98624 -0.309961,2.226086 0,2.592403 1.211667,4.001318 0.591744,0.704458 1.465271,1.098954 0.901706,0.394496 1.859768,0.394496 1.521628,0 2.620582,-0.901705 1.127132,-0.929884 1.437093,-2.395156 z m 7.97444,0.648101 h -6.48101 v -3.578644 h 6.48101 z m 10.31329,4.790311 h -4.31128 V 85.627245 h -3.18415 v -3.747714 h 1.66252 q 0.87353,0 1.38074,-0.50721 0.50721,-0.507209 0.50721,-1.380737 v -0.845349 h 3.94496 z m 18.76676,-14.849964 h -8.08717 l -0.19725,1.831589 q 0.67628,-0.281783 1.23985,-0.394496 0.59174,-0.112713 1.32438,-0.112713 1.43709,0 2.67694,0.507209 1.23984,0.50721 2.11337,1.408915 0.9017,0.873527 1.40891,2.113373 0.50721,1.211667 0.50721,2.64876 0,1.577985 -0.53539,2.902365 -0.5072,1.32438 -1.46527,2.282442 -0.92988,0.958063 -2.25426,1.49345 -1.2962,0.535388 -2.84601,0.535388 -1.54981,0 -2.95872,-0.563566 -1.40892,-0.563566 -2.3388,-1.549807 -0.56357,-0.619922 -0.98624,-1.352558 -0.3945,-0.760814 -0.78899,-1.887946 l 4.08585,-1.211667 q 0.87353,2.423334 2.90237,2.423334 1.12713,0 1.85976,-0.788993 0.73264,-0.81717 0.73264,-2.085194 0,-1.32438 -0.73264,-2.169729 -0.73263,-0.845349 -1.88794,-0.845349 -1.46527,0 -2.3388,1.380737 l -4.59306,-0.619923 1.23984,-9.890584 h 11.91942 z"
       id="text5284"
       transform="scale(0.99551619,1.004504)"
       aria-label="C-15" />
    <path
       d="m 348.1082,138.78692 v 5.248 l -9.25867,23.21069 h -6.95467 l 8.87467,-22.35735 h -12.58667 v -6.10134 z"
       id="text6487-6"
       style="font-size:42.6667px;line-height:25px;font-family:TrafficTypeW01-SpainD;-inkscape-font-specification:TrafficTypeW01-SpainD;letter-spacing:0px;word-spacing:0px;stroke-width:1px"
       aria-label="7" />
  </g>
  <g
     inkscape:groupmode="layer"
     id="layer3"
     inkscape:label="Layer 1" />
</svg>
