<?xml version="1.0" encoding="UTF-8" standalone="no"?>
<svg
   width="349.33954"
   height="99.865845"
   viewBox="0 0 92.429417 26.422839"
   version="1.1"
   id="svg4433"
   inkscape:version="1.3.2 (091e20e, 2023-11-25, custom)"
   sodipodi:docname="ES_CAT_OR59.svg"
   xmlns:inkscape="http://www.inkscape.org/namespaces/inkscape"
   xmlns:sodipodi="http://sodipodi.sourceforge.net/DTD/sodipodi-0.dtd"
   xmlns="http://www.w3.org/2000/svg"
   xmlns:svg="http://www.w3.org/2000/svg"
   xmlns:rdf="http://www.w3.org/1999/02/22-rdf-syntax-ns#"
   xmlns:cc="http://creativecommons.org/ns#"
   xmlns:dc="http://purl.org/dc/elements/1.1/">
  <defs
     id="defs4427">
    <rect
       x="38.364582"
       y="48.097469"
       width="28.915178"
       height="15.591518"
       id="rect5326" />
    <rect
       x="70.681549"
       y="45.357143"
       width="16.441963"
       height="13.134672"
       id="rect5320" />
    <rect
       x="72.949402"
       y="12.85119"
       width="1.5119047"
       height="19.182291"
       id="rect5314" />
  </defs>
  <sodipodi:namedview
     id="base"
     pagecolor="#ffffff"
     bordercolor="#666666"
     borderopacity="1.0"
     inkscape:pageopacity="0.0"
     inkscape:pageshadow="2"
     inkscape:zoom="1.75"
     inkscape:cx="156"
     inkscape:cy="60.285714"
     inkscape:document-units="px"
     inkscape:current-layer="layer5"
     inkscape:document-rotation="0"
     showgrid="true"
     inkscape:pagecheckerboard="true"
     inkscape:showpageshadow="false"
     units="px"
     inkscape:window-width="1920"
     inkscape:window-height="1017"
     inkscape:window-x="-8"
     inkscape:window-y="-8"
     inkscape:window-maximized="1"
     gridtolerance="1"
     objecttolerance="1"
     guidetolerance="1"
     fit-margin-top="0"
     fit-margin-left="0"
     fit-margin-right="0"
     fit-margin-bottom="0"
     inkscape:deskcolor="#d1d1d1">
    <inkscape:grid
       type="xygrid"
       id="grid4018"
       originx="-2.8448113"
       originy="-22.242994"
       spacingy="1"
       spacingx="1"
       units="px"
       visible="true" />
  </sodipodi:namedview>
  <metadata
     id="metadata4430">
    <rdf:RDF>
      <cc:Work
         rdf:about="">
        <dc:format>image/svg+xml</dc:format>
        <dc:type
           rdf:resource="http://purl.org/dc/dcmitype/StillImage" />
        <dc:title />
      </cc:Work>
    </rdf:RDF>
  </metadata>
  <g
     inkscape:label="Capa 1"
     inkscape:groupmode="layer"
     id="layer1"
     transform="translate(-2.8448155,-22.242992)">
    <path
       id="rect5257"
       style="fill:#ffffff;stroke:#000000;stroke-width:2;stroke-linecap:round;stroke-linejoin:round;stroke-miterlimit:2.613;stroke-dasharray:none;stroke-opacity:1"
       d="M 3.8448147,23.242991 74.284844,23.716274 79.639583,23.8125 90.200673,35.698191 79.626156,47.477472 4.0343347,47.665831 Z"
       sodipodi:nodetypes="ccccccc" />
    <path
       style="fill:#000000;stroke:none;stroke-width:2;stroke-linecap:round;stroke-linejoin:round;stroke-miterlimit:2.613;stroke-dasharray:none;stroke-opacity:1"
       d="M 79.610076,48.255431 77.630466,47.982185 85.753579,35.716374 77.22569,24.353541 79.42688,23.853476 91.281249,35.71875 Z"
       id="path5278"
       sodipodi:nodetypes="ccccccc" />
    <text
       xml:space="preserve"
       style="font-size:11.2889px;line-height:6.61458px;font-family:'Highway Gothic Wide';-inkscape-font-specification:'Highway Gothic Wide';letter-spacing:0px;word-spacing:0px;fill:none;stroke:#000000;stroke-width:0.264583px;stroke-linecap:butt;stroke-linejoin:miter;stroke-opacity:1"
       x="10.110864"
       y="40.91592"
       id="text5292"><tspan
         sodipodi:role="line"
         id="tspan5290"
         x="10.110864"
         y="40.91592"
         style="stroke-width:0.264583px" /></text>
    <path
       style="font-size:11.1943px;line-height:4.59139px;font-family:'Caracteres L4';-inkscape-font-specification:'Caracteres L4';letter-spacing:0.629677px;word-spacing:0px;stroke-width:0.264583px"
       d="m 31.156411,31.484408 -0.262366,1.246241 -2.634596,0.0055 -0.317026,1.809235 h 2.590868 l -0.235036,1.235308 -2.601801,0.0055 -0.431811,2.208251 h 2.782177 l -0.245968,1.279036 h -4.197863 l 1.481277,-7.789003 z m 3.094828,0.174911 -1.443015,7.597694 h -1.289968 l 1.459413,-7.597694 z m 0.662473,5.875914 h 1.197046 q -0.114785,0.464608 0.136649,0.716042 0.295163,0.218639 0.776168,0.07652 0.481005,-0.142116 0.442743,-0.628587 0.0055,-0.317026 -0.448209,-0.56846 -0.584859,-0.256901 -1.076796,-0.67778 -0.508335,-0.409947 -0.366219,-1.295434 0.103853,-0.557529 0.579392,-0.945612 0.349822,-0.295163 0.880021,-0.360754 0.2569,-0.0164 0.459141,-0.0164 0.33889,0 0.513801,0.04919 0.442743,0.09292 0.726973,0.399015 0.31156,0.360754 0.31156,0.956544 0,0.125718 -0.0164,0.267833 H 37.76148 q 0.153047,-0.535665 -0.158513,-0.721508 -0.56846,-0.153047 -0.803497,0.169445 -0.322492,0.464607 0.103853,0.737906 1.262639,0.644984 1.486743,0.96201 0.273299,0.322492 0.267833,0.852691 -0.02186,0.426345 -0.163979,0.743371 -0.202241,0.36622 -0.535665,0.666848 -0.415413,0.327958 -0.847225,0.39355 -0.224104,0.02733 -0.426345,0.02733 -0.36622,0 -0.694178,-0.05466 -0.431811,-0.142115 -0.770701,-0.513801 -0.300628,-0.31156 -0.317026,-0.93468 z M 47.892099,31.49534 q 0.945612,0 1.344628,0.67778 0.191309,0.409948 0.191309,0.901885 0,0.388083 -0.120251,0.830827 -0.278765,0.858156 -1.235309,1.235308 1.038534,0.300628 1.054932,1.508607 0.01093,0.852691 -0.459142,1.5578 -0.612188,1.07133 -2.033339,1.07133 -0.103854,0 -0.218639,-0.0055 h -2.754847 l 1.448481,-7.778071 z m -1.92402,3.126533 h 1.011204 q 0.951078,-0.114785 1.01667,-1.120523 -0.01093,-0.726974 -0.890953,-0.748837 h -0.798031 z m -0.655916,3.339706 h 1.311832 q 1.000272,-0.174911 1.065863,-1.284502 0.09839,-0.890953 -0.748837,-0.885487 h -1.213445 z m 7.746366,-4.181465 q 0.90735,0 1.295434,0.442744 0.415413,0.393549 0.448209,1.24624 0.0055,0.114785 0.0055,0.224105 -0.01093,0.65045 -0.147581,1.235308 h -2.847769 q -0.207706,1.005738 0.229571,1.333696 0.289696,0.185843 0.62312,-0.02186 0.371686,-0.28423 0.508335,-0.841759 h 1.393822 q -0.245969,1.005738 -1.054932,1.579665 -0.524733,0.31156 -1.109591,0.31156 -0.491937,0 -1.033068,-0.218639 -0.912816,-0.557529 -0.912816,-1.798303 0,-0.109319 0.0055,-0.224105 0.169445,-1.667119 0.863622,-2.497946 0.606723,-0.726974 1.732712,-0.770702 z m -1.060398,2.115329 h 1.552335 q 0.07652,-0.732439 -0.09839,-1.011203 -0.442743,-0.486471 -1.076795,0.06559 -0.31156,0.360754 -0.377152,0.945612 z m 7.604249,3.427161 h -1.240774 l 0.114785,-0.705109 q -0.300628,0.590324 -0.765235,0.737905 -0.240503,0.06559 -0.590324,0.08746 -0.524733,-0.07106 -0.70511,-0.349822 -0.497403,-0.497403 -0.579393,-1.443015 -0.0164,-0.218639 -0.0164,-0.431812 0,-0.67778 0.229571,-1.399287 0.273298,-0.787099 0.694178,-1.224377 0.617654,-0.710575 1.158785,-0.721507 0.98934,-0.09292 1.284502,0.819895 l 0.513801,-2.842303 h 1.295434 z m -1.262638,-4.482092 q -0.661382,0.03826 -1.257172,1.956816 -0.0328,1.546868 0.573926,1.617926 1.033068,-0.163979 1.197047,-1.874827 0.267832,-1.634324 -0.513801,-1.699915 z m 7.434807,-0.03826 q 0.202241,0.464607 0.202241,1.115057 0,0.300628 -0.04373,0.639518 -0.180376,1.251707 -0.776167,1.924021 -0.672314,0.765235 -1.492209,0.847224 -0.169445,0.01093 -0.278764,0.01093 -0.147581,0 -0.31156,-0.0164 -0.67778,-0.04919 -1.207979,-0.841758 -0.289696,-0.481005 -0.289696,-1.268105 0,-0.22957 0.02733,-0.486471 0.131183,-1.421151 0.967476,-2.246512 0.573926,-0.552063 1.098659,-0.612188 0.229571,-0.03826 0.44821,-0.03826 h 0.04919 q 1.060398,0 1.606994,0.972942 z m -2.268376,3.59114 q 0.437278,0.0164 0.721508,-0.404481 0.267832,-0.42088 0.437277,-1.213445 0.174911,-0.901884 -0.02733,-1.535937 -0.174911,-0.508334 -0.557528,-0.442743 -0.475539,-0.06559 -0.841759,0.557529 -0.273298,0.519267 -0.377152,1.180649 -0.09292,0.792565 -0.01093,1.213444 0.142115,0.748838 0.655916,0.644984 z m 6.144837,-6.734071 -1.443015,7.597694 h -1.289969 l 1.459414,-7.597694 z m 3.389992,0 -1.443016,7.597694 h -1.289968 l 1.459413,-7.597694 z m 0.66247,5.875914 h 1.197047 q -0.114785,0.464608 0.136649,0.716042 0.295162,0.218639 0.776167,0.07652 0.481005,-0.142116 0.442744,-0.628587 0.0055,-0.317026 -0.44821,-0.56846 -0.584858,-0.256901 -1.076795,-0.67778 -0.508335,-0.409947 -0.36622,-1.295434 0.103853,-0.557529 0.579393,-0.945612 0.349821,-0.295163 0.88002,-0.360754 0.256901,-0.0164 0.459141,-0.0164 0.33889,0 0.513801,0.04919 0.442744,0.09292 0.726974,0.399015 0.31156,0.360754 0.31156,0.956544 0,0.125718 -0.0164,0.267833 h -1.268104 q 0.153047,-0.535665 -0.158513,-0.721508 -0.568461,-0.153047 -0.803497,0.169445 -0.322492,0.464607 0.103853,0.737906 1.262638,0.644984 1.486743,0.96201 0.273298,0.322492 0.267832,0.852691 -0.02186,0.426345 -0.163979,0.743371 -0.20224,0.36622 -0.535664,0.666848 -0.415414,0.327958 -0.847225,0.39355 -0.224105,0.02733 -0.426346,0.02733 -0.366219,0 -0.694177,-0.05466 -0.431812,-0.142115 -0.770702,-0.513801 -0.300628,-0.31156 -0.317026,-0.93468 z"
       id="text5288-1"
       aria-label="Els Bedolls " />
    <text
       xml:space="preserve"
       id="text5312"
       style="font-size:11.2889px;line-height:6.61458px;font-family:'Highway Gothic Wide';-inkscape-font-specification:'Highway Gothic Wide';letter-spacing:0px;word-spacing:0px;white-space:pre;shape-inside:url(#rect5314);fill:none;stroke:#000000;stroke-width:0.264583px;stroke-linecap:butt;stroke-linejoin:miter;stroke-opacity:1" />
    <text
       xml:space="preserve"
       id="text5318"
       style="font-size:11.2889px;line-height:6.61458px;font-family:'Highway Gothic Wide';-inkscape-font-specification:'Highway Gothic Wide';letter-spacing:0px;word-spacing:0px;white-space:pre;shape-inside:url(#rect5320);fill:none;stroke:#000000;stroke-width:0.264583px;stroke-linecap:butt;stroke-linejoin:miter;stroke-opacity:1" />
    <text
       xml:space="preserve"
       id="text5324"
       style="font-size:11.2889px;line-height:6.61458px;font-family:'Highway Gothic Wide';-inkscape-font-specification:'Highway Gothic Wide';letter-spacing:0px;word-spacing:0px;white-space:pre;shape-inside:url(#rect5326);fill:none;stroke:#000000;stroke-width:0.264583px;stroke-linecap:butt;stroke-linejoin:miter;stroke-opacity:1" />
    <path
       id="rect4071"
       style="stroke:#000000;stroke-width:0.264583;stroke-linecap:round;stroke-miterlimit:2.613"
       d="m 9.1281319,39.158325 h 9.7565111 v 0.363802 H 9.1281319 Z" />
    <path
       style="fill:none;fill-opacity:1;stroke:#000000;stroke-width:0.264583;stroke-linecap:round;stroke-linejoin:miter;stroke-miterlimit:2.613;stroke-dasharray:none"
       d="m 13.493758,33.139058 0.529166,0.463019 0.496094,-0.496092 0.03307,-0.03307 v 0"
       id="path4073" />
    <path
       id="rect4075"
       style="fill:none;stroke:#000000;stroke-width:0.264583;stroke-linecap:round;stroke-miterlimit:2.613"
       d="M 7.9705801,29.86484 H 19.810684 V 41.68695 H 7.9705801 Z" />
  </g>
  <g
     inkscape:groupmode="layer"
     id="layer5"
     inkscape:label="Capa 3"
     style="display:inline"
     transform="translate(-2.8448155,-22.242992)" />
  <g
     inkscape:groupmode="layer"
     id="layer8"
     inkscape:label="Capa 4"
     transform="translate(-2.8448155,-22.242992)"
     style="display:inline">
    <path
       style="opacity:1;fill:#000000;fill-opacity:1;stroke:#000000;stroke-width:1.99999;stroke-linecap:round;stroke-linejoin:bevel;stroke-miterlimit:2.613;stroke-dasharray:none"
       d="M 79.374999,23.8125 H 93.92708 l 0.347266,23.540953 -15.610415,0.139255 0.711068,-1.190625 7.276039,-10.652958 z"
       id="path4050"
       sodipodi:nodetypes="ccccccc" />
  </g>
  <g
     inkscape:groupmode="layer"
     id="layer9"
     inkscape:label="Capa 5"
     style="display:inline;opacity:1">
    <path
       style="fill:#000000;fill-opacity:1;stroke:#000000;stroke-width:0.264583;stroke-linecap:round;stroke-linejoin:bevel;stroke-miterlimit:2.613;stroke-dasharray:none"
       d="m 6.5142869,16.749972 2.6468183,0.01376 2.0509848,-2.272055 1.818442,2.292175 2.744172,0.01427 -4.596595,-5.439037 z"
       id="path4069"
       sodipodi:nodetypes="ccccccc" />
  </g>
</svg>
