<?xml version="1.0" encoding="UTF-8" standalone="no"?>
<svg
   version="1.2"
   width="339.88995"
   height="180.26718"
   id="svg2"
   sodipodi:docname="ES_CAT_LOC500.svg"
   inkscape:version="1.3.2 (091e20e, 2023-11-25, custom)"
   xmlns:inkscape="http://www.inkscape.org/namespaces/inkscape"
   xmlns:sodipodi="http://sodipodi.sourceforge.net/DTD/sodipodi-0.dtd"
   xmlns="http://www.w3.org/2000/svg"
   xmlns:svg="http://www.w3.org/2000/svg"
   xmlns:rdf="http://www.w3.org/1999/02/22-rdf-syntax-ns#"
   xmlns:cc="http://creativecommons.org/ns#"
   xmlns:dc="http://purl.org/dc/elements/1.1/">
  <sodipodi:namedview
     pagecolor="#ffffff"
     bordercolor="#666666"
     borderopacity="1"
     objecttolerance="10"
     gridtolerance="10"
     guidetolerance="10"
     inkscape:pageopacity="0"
     inkscape:pageshadow="2"
     inkscape:window-width="1920"
     inkscape:window-height="1017"
     id="namedview906"
     showgrid="false"
     inkscape:zoom="2.280617"
     inkscape:cx="250.37084"
     inkscape:cy="108.96174"
     inkscape:window-x="-8"
     inkscape:window-y="-8"
     inkscape:window-maximized="1"
     inkscape:current-layer="layer3"
     fit-margin-top="0"
     fit-margin-left="0"
     fit-margin-right="0"
     fit-margin-bottom="0"
     inkscape:document-rotation="0"
     inkscape:showpageshadow="false"
     inkscape:pagecheckerboard="true"
     inkscape:deskcolor="#d1d1d1" />
  <metadata
     id="metadata3197">
    <rdf:RDF>
      <cc:Work
         rdf:about="">
        <dc:format>image/svg+xml</dc:format>
        <dc:type
           rdf:resource="http://purl.org/dc/dcmitype/StillImage" />
        <dc:title />
      </cc:Work>
    </rdf:RDF>
  </metadata>
  <defs
     id="defs3195" />
  <path
     d="m 339.38222,160.56755 c 0,17.41595 5.06683,19.7317 -16.81215,19.6993 L 26.459069,179.82837 C 4.5800927,179.79597 -0.04990732,182.80668 4.0368294e-4,165.39081 L 0.43888168,13.605187 C 0.48921168,-3.8186551 -2.8740313,0.45267493 19.004946,0.48464693 l 300.057304,0.438478 c 21.87898,0.03197 20.81203,-0.356196 20.75845,17.06684007 l -0.43848,142.577585"
     id="path3113"
     style="display:inline;fill:#ffffff;stroke-width:1"
     sodipodi:nodetypes="csssssssc" />
  <path
     d="m 331.69523,158.23555 c 0,18.396 2.96059,14.89693 -15.56241,14.89693 H 27.863113 c -18.5250001,0 -19.5107091,2.18264 -19.5107091,-16.21236 V 23.971534 c 0,-18.400001 -0.768202,-16.214365 17.7567981,-16.214365 h 287.841328 0.42838 c 18.523,0 17.31632,-2.624113 17.31632,15.775887 z"
     id="path3115"
     style="display:inline;fill:#ffffff;stroke:#ff0000;stroke-width:7.0629;stroke-miterlimit:3.864"
     sodipodi:nodetypes="sssssscsss" />
  <g
     inkscape:groupmode="layer"
     id="layer3"
     inkscape:label="Layer 1"
     transform="translate(4.0368294e-4,0.04616893)">
    <g
       id="text1502"
       style="font-size:48px;line-height:28.125px;font-family:Ccrige;-inkscape-font-specification:Ccrige;letter-spacing:1px;word-spacing:0px;stroke:#000000;stroke-width:1px"
       aria-label="L'AMETLLA &#10;&#10;  DE MAR">
      <path
         style="font-family:TrafficTypeW01-SpainD;-inkscape-font-specification:TrafficTypeW01-SpainD"
         d="m 50.003579,67.382745 h 13.776 v 6.72 h -20.976 v -32.016 h 7.2 z m 22.743973,-15.696 h -4.176 l -0.624,-9.6 h 5.424 z m 19.192015,-0.576 -3.504,11.184 h 7.248 z m 15.504003,22.992 h -7.776003 l -1.632,-4.944 h -11.76 l -1.488,4.944 h -7.584 l 10.032,-32.016 h 9.264 z m 31.14401,-32.016 h 8.016 v 32.016 h -7.2 v -20.64 l -8.928,12.624 -8.976,-12.624 v 20.64 h -7.2 v -32.016 h 8.016 l 7.968,11.376 z m 40.40803,6.384 h -14.736 v 5.808 h 13.152 v 6.72 h -13.152 v 6.048 h 16.176 v 7.056 h -23.52 v -32.016 h 22.08 z m 32.19997,0.336 h -9.312 v 25.296 h -7.344 v -25.296 h -9.264 v -6.72 h 25.92 z m 13.81599,18.576 h 13.776 v 6.72 h -20.976 v -32.016 h 7.2 z m 28.21598,0 h 13.776 v 6.72 h -20.976 v -32.016 h 7.2 z m 33.736,-16.272 -3.504,11.184 h 7.248 z m 15.504,22.992 h -7.776 l -1.632,-4.944 h -11.76 l -1.488,4.944 h -7.584 l 10.032,-32.016 h 9.264 z"
         id="path1" />
      <path
         style="font-family:TrafficTypeW01-SpainD;-inkscape-font-specification:TrafficTypeW01-SpainD"
         d="m 78.355648,129.58475 h 5.28 q 1.584,0 2.928,-0.672 1.344,-0.672 2.256,-1.872 0.96,-1.248 1.488,-2.928 0.528,-1.728 0.528,-3.792 0,-2.064 -0.528,-3.792 -0.528,-1.728 -1.488,-2.928 -0.912,-1.248 -2.256,-1.92 -1.344,-0.672 -2.928,-0.672 h -5.28 z m 5.28,-25.296 q 3.312,0 6.048,1.2 2.736,1.152 4.704,3.264 1.968,2.112 3.024,5.04 1.104,2.928 1.104,6.48 0,3.552 -1.104,6.528 -1.056,2.928 -3.024,5.04 -1.968,2.112 -4.704,3.312 -2.736,1.152 -6.048,1.152 h -12.624 v -32.016 z m 45.015972,6.384 h -14.736 v 5.808 h 13.152 v 6.72 h -13.152 v 6.048 h 16.176 v 7.056 h -23.52 v -32.016 h 22.08 z m 48.368,-6.384 h 8.016 v 32.016 h -7.2 v -20.64 l -8.928,12.624 -8.976,-12.624 v 20.64 h -7.2 v -32.016 h 8.016 l 7.968,11.376 z m 29.60803,9.024 -3.504,11.184 h 7.248 z m 15.504,22.992 h -7.776 l -1.632,-4.944 h -11.76 l -1.488,4.944 h -7.584 l 10.032,-32.016 h 9.264 z m 14.05601,-18.72 h 6.576 q 1.296,0 2.256,-0.96 0.96,-1.008 0.96,-2.4 0,-1.392 -0.96,-2.352 -0.96,-1.008 -2.256,-1.008 h -6.576 z m 7.536,-13.296 q 4.512,0 7.392,3.12 1.248,1.392 1.968,3.216 0.72,1.776 0.72,3.6 0,3.024 -1.632,5.424 -1.632,2.352 -4.608,3.744 l 7.824,12.912 h -8.016 l -7.44,-12.144 h -3.744 v 12.144 h -7.2 v -32.016 z"
         id="path2" />
    </g>
    <text
       xml:space="preserve"
       style="font-style:normal;font-variant:normal;font-weight:normal;font-stretch:normal;font-size:29.3333px;line-height:17.1875px;font-family:Ccrige;-inkscape-font-specification:Ccrige;letter-spacing:3px;word-spacing:0px;fill:#000000;stroke:#000000;stroke-width:1px;stroke-linecap:butt;stroke-linejoin:miter;stroke-opacity:1"
       x="132.0011"
       y="132.75752"
       id="text1502-7"><tspan
         sodipodi:role="line"
         id="tspan1500-8"
         x="132.0011"
         y="132.75752"
         style="letter-spacing:3px" /></text>
  </g>
  <g
     inkscape:groupmode="layer"
     id="layer5"
     inkscape:label="Layer 3"
     transform="translate(4.0368294e-4,0.04616893)">
    <text
       xml:space="preserve"
       style="font-size:42.6667px;line-height:25px;font-family:'Andale Mono IPA';-inkscape-font-specification:'Andale Mono IPA';letter-spacing:0px;word-spacing:0px;fill:none;stroke:#000000;stroke-width:1px;stroke-linecap:butt;stroke-linejoin:miter;stroke-opacity:1"
       x="133.73573"
       y="169.69092"
       id="text1522"><tspan
         sodipodi:role="line"
         id="tspan1520"
         x="133.73573"
         y="169.69092" /></text>
  </g>
</svg>
