<?xml version="1.0" encoding="UTF-8" standalone="no"?>
<svg
   version="1.2"
   width="373.9325"
   height="226.489"
   id="svg2"
   sodipodi:docname="ES_CAT_OR61.svg"
   inkscape:version="1.3.2 (091e20e, 2023-11-25, custom)"
   xmlns:inkscape="http://www.inkscape.org/namespaces/inkscape"
   xmlns:sodipodi="http://sodipodi.sourceforge.net/DTD/sodipodi-0.dtd"
   xmlns="http://www.w3.org/2000/svg"
   xmlns:svg="http://www.w3.org/2000/svg"
   xmlns:rdf="http://www.w3.org/1999/02/22-rdf-syntax-ns#"
   xmlns:cc="http://creativecommons.org/ns#"
   xmlns:dc="http://purl.org/dc/elements/1.1/">
  <sodipodi:namedview
     pagecolor="#ffffff"
     bordercolor="#666666"
     borderopacity="1"
     objecttolerance="10"
     gridtolerance="10"
     guidetolerance="10"
     inkscape:pageopacity="0"
     inkscape:pageshadow="2"
     inkscape:window-width="1920"
     inkscape:window-height="1017"
     id="namedview5859"
     showgrid="false"
     inkscape:zoom="1"
     inkscape:cx="135"
     inkscape:cy="28.5"
     inkscape:window-x="-8"
     inkscape:window-y="-8"
     inkscape:window-maximized="1"
     inkscape:current-layer="layer3"
     fit-margin-top="0"
     fit-margin-left="0"
     fit-margin-right="0"
     fit-margin-bottom="0"
     inkscape:document-rotation="0"
     inkscape:pagecheckerboard="true"
     inkscape:showpageshadow="false"
     inkscape:deskcolor="#d1d1d1" />
  <metadata
     id="metadata3125">
    <rdf:RDF>
      <cc:Work
         rdf:about="">
        <dc:format>image/svg+xml</dc:format>
        <dc:type
           rdf:resource="http://purl.org/dc/dcmitype/StillImage" />
        <dc:title />
      </cc:Work>
    </rdf:RDF>
  </metadata>
  <defs
     id="defs3123" />
  <g
     id="g3115"
     style="stroke-width:0.639086"
     transform="matrix(1.5527702,0,0,1.5767887,-63.095933,-122.25435)">
    <g
       id="g3117"
       style="stroke-width:0.639086" />
  </g>
  <path
     id="rect5280"
     style="display:inline;fill:#ff2121;stroke:#ffffff;stroke-width:4;stroke-linecap:round;stroke-linejoin:round;stroke-miterlimit:2.613"
     d="m 61.178609,2 h 90.145941 c 1.87222,0 3.37945,1.6649207 3.37945,3.733006 v 34.877986 c 0,2.068085 -1.50723,3.733006 -3.37945,3.733006 H 61.178609 c -1.872217,0 -3.379453,-1.664921 -3.379453,-3.733006 V 5.733006 C 57.799156,3.6649207 59.306392,2 61.178609,2 Z" />
  <path
     style="font-size:31.3966px;line-height:18.3965px;font-family:TrafficTypeW01-SpainD;-inkscape-font-specification:TrafficTypeW01-SpainD;letter-spacing:0px;word-spacing:0px;fill:#ffffff;stroke-width:0.999999px"
     d="m 92.227473,27.30611 q -1.28726,3.171057 -3.767592,4.89787 -2.480331,1.695416 -5.808371,1.695416 -2.291952,0 -4.175748,-0.784915 -1.883796,-0.816311 -3.265246,-2.260555 -1.350054,-1.444244 -2.103573,-3.453626 -0.753518,-2.009383 -0.753518,-4.458317 0,-2.354746 0.690725,-4.301335 0.690725,-1.977986 2.072176,-3.422229 1.412847,-1.507037 3.359436,-2.291952 1.946589,-0.816312 4.112955,-0.816312 3.390833,0 5.902561,1.726813 2.511728,1.726813 3.704799,4.866473 l -5.023456,1.789607 q -0.502346,-1.695417 -1.726814,-2.637315 -1.19307,-0.941898 -2.888487,-0.941898 -1.130277,0 -2.040779,0.439553 -0.910501,0.408155 -1.56983,1.224467 -0.659329,0.784915 -1.004691,1.915193 -0.345363,1.098881 -0.345363,2.480331 0,2.888487 1.350054,4.458317 0.659329,0.784915 1.632623,1.224468 1.004692,0.439552 2.072176,0.439552 1.695416,0 2.919884,-1.004691 1.255864,-1.036088 1.601227,-2.668711 z m 8.885217,0.722122 h -7.221218 v -3.987368 h 7.221218 z m 13.56336,-9.638757 -5.43161,7.346805 h 5.43161 z m 7.441,11.836519 h -2.51173 v 3.13966 h -4.92927 v -3.13966 H 103.49886 V 25.73628 l 10.23529,-13.312159 h 5.87117 V 25.73628 h 2.51173 z m 15.47851,-11.836519 -5.43161,7.346805 h 5.43161 z m 7.44099,11.836519 h -2.51173 v 3.13966 h -4.92926 v -3.13966 H 126.41837 V 25.73628 l 10.23529,-13.312159 h 5.87116 V 25.73628 h 2.51173 z"
     id="text5284"
     transform="scale(0.99228971,1.0077702)"
     aria-label="C-44" />
  <g
     inkscape:groupmode="layer"
     id="layer11"
     inkscape:label="Layer 3"
     transform="translate(0.00690455,12.910645)">
    <path
       d="m 370.96454,189.64971 c 0,5.86268 0.24113,14.28526 -0.63631,18.04828 -0.88501,3.79551 -2.91418,2.90646 -8.92592,2.91258 l -349.591675,0.35614 c -11.96799381,0.0122 -8.928734,1.85522 -8.848951,-9.92051 l 0.3561402,-52.56519 c 0.079769,-11.77373 7.2100448,-9.94096 19.1770188,-9.91551 l 334.990927,0.71228 c 11.97197,0.0255 13.47977,-1.85949 13.47977,9.91551 v 40.45642 z"
       id="path3101"
       style="fill:#ffffff;fill-opacity:1;stroke:#000000;stroke-width:5;stroke-miterlimit:3.864;stroke-opacity:1"
       sodipodi:nodetypes="csssssssscc" />
    <path
       d="m 65.70431,162.08582 h -8.27734 v 22.48535 h -6.528004 v -22.48535 h -8.234673 v -5.97334 H 65.70431 Z m 11.520005,22.48535 H 70.69631 v -28.45869 h 6.528005 z m 21.888023,-28.45869 h 6.570672 l -7.680006,28.45869 h -7.978673 l -7.680006,-28.45869 h 6.528005 l 5.120004,18.30401 z m 18.218692,28.45869 h -6.528 v -28.45869 h 6.528 z m 27.47737,-20.18135 q -1.45067,-1.19467 -3.45601,-1.87734 -1.96267,-0.72533 -3.88267,-0.72533 -1.49333,0 -2.38933,0.64 -0.896,0.64 -0.896,1.664 0,0.768 0.55466,1.23734 0.59734,0.46933 1.87734,0.768 l 3.24267,0.768 q 4.65067,1.06666 7.04,3.456 2.38934,2.38933 2.38934,5.97334 0,2.00533 -0.85334,3.66933 -0.81066,1.664 -2.34666,2.85867 -1.49334,1.152 -3.58401,1.792 -2.09066,0.68267 -4.608,0.68267 -4.13867,0 -7.80801,-1.62133 -3.66933,-1.664 -6.05867,-4.60801 l 5.67467,-4.13867 q 1.19467,1.83467 3.45601,2.90134 2.26133,1.06667 4.94933,1.06667 1.62134,0 2.60267,-0.72534 1.024,-0.72533 1.024,-1.92 0,-0.93867 -0.768,-1.536 -0.72533,-0.59733 -2.34667,-1.06667 l -3.92533,-0.98133 q -1.62134,-0.46934 -2.688,-0.85334 -1.06667,-0.384 -1.87734,-0.896 -1.70667,-1.10933 -2.688,-2.90133 -0.93867,-1.792 -0.93867,-3.88267 0,-1.92 0.72534,-3.456 0.768,-1.57867 2.09066,-2.68801 1.36534,-1.10933 3.28534,-1.70666 1.92,-0.59734 4.30934,-0.59734 7.168,0 12.71467,4.77867 z m 30.71999,0 q -1.45067,-1.19467 -3.456,-1.87734 -1.96267,-0.72533 -3.88267,-0.72533 -1.49334,0 -2.38934,0.64 -0.896,0.64 -0.896,1.664 0,0.768 0.55467,1.23734 0.59733,0.46933 1.87733,0.768 l 3.24267,0.768 q 4.65067,1.06666 7.04001,3.456 2.38933,2.38933 2.38933,5.97334 0,2.00533 -0.85333,3.66933 -0.81067,1.664 -2.34667,2.85867 -1.49333,1.152 -3.584,1.792 -2.09067,0.68267 -4.60801,0.68267 -4.13867,0 -7.808,-1.62133 -3.66934,-1.664 -6.05867,-4.60801 l 5.67467,-4.13867 q 1.19467,1.83467 3.456,2.90134 2.26134,1.06667 4.94934,1.06667 1.62133,0 2.60267,-0.72534 1.024,-0.72533 1.024,-1.92 0,-0.93867 -0.768,-1.536 -0.72534,-0.59733 -2.34667,-1.06667 l -3.92534,-0.98133 q -1.62133,-0.46934 -2.688,-0.85334 -1.06667,-0.384 -1.87734,-0.896 -1.70666,-1.10933 -2.688,-2.90133 -0.93866,-1.792 -0.93866,-3.88267 0,-1.92 0.72533,-3.456 0.768,-1.57867 2.09067,-2.68801 1.36533,-1.10933 3.28533,-1.70666 1.92,-0.59734 4.30934,-0.59734 7.16801,0 12.71468,4.77867 z m 21.03469,-0.256 -3.11467,9.94134 h 6.44267 z m 13.78134,20.43735 h -6.912 l -1.45067,-4.39467 h -10.45334 l -1.32267,4.39467 h -6.74134 l 8.91734,-28.45869 h 8.23468 z"
       id="text6487"
       style="font-size:42.6667px;line-height:25px;font-family:TrafficTypeW01-SpainD;-inkscape-font-specification:TrafficTypeW01-SpainD;letter-spacing:0px;word-spacing:0px;stroke-width:1px"
       aria-label="TIVISSA" />
    <path
       d="m 273.20967,167.7778 h 1.83467 q 1.96267,0 3.02934,-0.72534 1.10933,-0.768 1.10933,-2.13333 0,-1.32267 -0.98133,-2.048 -0.93867,-0.768 -2.68801,-0.768 -2.176,0 -3.37066,0.98133 -1.15201,0.98133 -1.19467,2.816 l -6.52801,-0.72533 q 0.0853,-2.09067 0.72534,-3.584 0.64,-1.53601 2.00533,-2.77334 1.45067,-1.23733 3.62667,-1.96267 2.176,-0.72533 4.65067,-0.72533 2.34667,0 4.26667,0.64 1.96267,0.64 3.328,1.792 1.408,1.152 2.176,2.77333 0.76801,1.62134 0.76801,3.54134 0,1.92 -0.85334,3.37067 -0.81067,1.408 -2.38933,2.21867 1.92,0.72533 2.77333,2.13333 0.896,1.408 0.896,3.75467 0,4.39467 -2.816,6.86934 -2.77333,2.47467 -7.76534,2.47467 -10.24001,0 -11.60534,-9.08801 l 6.74134,-1.024 q 0.512,3.84001 4.56533,3.84001 1.92001,0 2.98667,-0.81067 1.06667,-0.81067 1.06667,-2.21867 0,-2.944 -4.56534,-2.944 h -1.792 z m 43.00803,11.392 v 5.97334 h -20.35202 v -4.82133 q 0,-0.42667 0.128,-0.68267 0.128,-0.256 0.46933,-0.512 l 8.53334,-6.44267 q 2.38934,-1.792 3.49867,-3.45601 1.152,-1.70666 1.152,-3.37067 0,-1.62133 -1.152,-2.60266 -1.10933,-1.024 -3.02933,-1.024 -2.00534,0 -3.15734,1.19466 -1.10933,1.19467 -1.10933,3.32801 0,0.256 0,0.46933 0,0.21333 0.0853,0.55467 h -6.69867 q -0.0427,-0.55467 -0.0853,-0.93867 0,-0.42667 0,-0.68267 0,-2.304 0.768,-4.18133 0.768,-1.87734 2.176,-3.20001 1.45067,-1.36533 3.456,-2.09067 2.00534,-0.72533 4.48,-0.72533 2.47467,0 4.48001,0.72533 2.048,0.72534 3.49867,2.04801 1.45066,1.32266 2.21867,3.2 0.768,1.87733 0.768,4.18134 0,2.77333 -1.10934,4.90667 -1.06667,2.13333 -3.54133,4.30933 l -4.39467,3.84 z"
       id="text6487-6"
       style="font-size:42.6667px;line-height:25px;font-family:TrafficTypeW01-SpainD;-inkscape-font-specification:TrafficTypeW01-SpainD;letter-spacing:0px;word-spacing:0px;stroke-width:1px"
       aria-label="32" />
  </g>
  <g
     inkscape:groupmode="layer"
     id="layer10"
     inkscape:label="Layer 2"
     transform="translate(0.00690455,12.910645)">
    <path
       d="m 371.3951,111.06054 c 0,5.86268 0.24113,14.28526 -0.63631,18.04828 -0.88501,3.79551 -2.91418,2.90646 -8.92592,2.91258 l -349.94782,0.35614 c -11.96799,0.0122 -8.9042053,1.85536 -8.84895,-9.92051 L 3.39224,46.557314 c 0.055246,-11.773872 7.21005,-9.940928 19.17702,-9.91551 l 335.34707,0.71228 c 11.97197,0.02543 13.47977,-1.85949 13.47977,9.91551 v 63.790946 z"
       id="path3101-1"
       style="fill:#000080;fill-opacity:1;stroke:#ffffff;stroke-width:5;stroke-miterlimit:3.864;stroke-opacity:1"
       sodipodi:nodetypes="csssssssscc"
       inkscape:label="path3101" />
    <path
       style="font-size:48.9335px;line-height:28.6719px;font-family:'Highway Gothic Wide';-inkscape-font-specification:'Highway Gothic Wide';letter-spacing:3.44063px;word-spacing:0px;fill:#ffffff;stroke-width:1px"
       d="M 67.435788,97.990196 H 61.074434 L 57.893756,90.307637 H 43.605175 l -3.229611,7.682559 H 33.965276 L 47.764522,65.204752 h 5.969887 z M 55.349214,84.435617 50.749466,73.376647 46.149717,84.435617 Z m 35.394238,0.685069 H 81.34822 v 12.86951 H 75.4762 V 65.204752 h 15.071518 q 3.22961,0 5.627352,1.370138 5.04015,2.93601 5.04015,8.661229 0,6.165621 -5.04015,8.856964 -2.397742,1.027603 -5.431618,1.027603 z M 95.3432,75.236119 q 0,-1.908406 -1.272271,-3.033876 -1.272271,-1.125471 -3.425344,-1.125471 H 81.34822 v 8.171894 h 9.297365 q 2.153073,0 3.425344,-1.076537 1.272271,-1.12547 1.272271,-2.93601 z m 24.87354,8.954831 H 109.3535 v -5.87202 h 10.86324 z m 33.53471,-13.260978 q -9.49309,13.065244 -10.12923,27.060224 h -6.21455 q 1.07653,-14.386448 9.15056,-27.011291 h -19.2798 v -5.774153 h 26.47302 z"
       id="text6487-1"
       aria-label="AP-7 " />
    <path
       style="font-size:48.9335px;line-height:28.6719px;font-family:'Highway Gothic Wide';-inkscape-font-specification:'Highway Gothic Wide';letter-spacing:3.44063px;word-spacing:0px;fill:#ffffff;stroke-width:1px"
       d="m 289.31845,99.070953 h -26.42409 q 0.97867,-12.86951 13.40778,-18.105394 3.22961,-1.321204 5.28481,-2.544542 2.05521,-1.272271 1.90841,-2.93601 0,-1.614805 -1.61481,-2.691342 -1.6148,-1.125471 -5.04015,-1.174404 -5.13801,0.1468 -9.10163,4.110414 l -4.74655,-3.816813 q 5.92096,-6.067754 13.70138,-6.165621 5.77416,0 9.1995,2.887076 3.42535,2.838143 3.42535,6.85069 -0.0489,3.474279 -1.85948,5.529485 -1.81054,2.006274 -6.89962,4.208281 -8.07403,3.865747 -9.6399,7.976161 h 18.399 z m 34.56234,-9.542032 q 0,4.404015 -3.52321,7.291091 -3.47428,2.838143 -9.00376,2.838143 -5.87202,0 -9.88457,-3.327478 -4.01255,-3.376411 -4.01255,-9.444165 0.0979,-8.074027 6.36136,-14.533249 6.31242,-6.459222 15.46298,-6.606022 v 5.529485 q -10.2271,1.614806 -14.38645,9.444165 3.03388,-1.076536 6.70389,-1.076536 5.33376,0 8.80803,2.789209 3.47428,2.789209 3.47428,7.095357 z m -5.82308,0.04893 q 0,-1.908407 -1.90841,-3.033877 -1.90841,-1.174404 -4.99122,-1.174404 -3.32748,0 -5.13801,1.027603 -1.76161,0.97867 -1.71268,2.78921 -0.1468,1.908406 1.81054,3.229611 1.95734,1.272271 5.04015,1.272271 3.08281,0 4.99122,-1.125471 1.90841,-1.174404 1.90841,-2.984943 z"
       id="text6487-1-3"
       inkscape:transform-center-x="283.83767"
       inkscape:transform-center-y="-13.786411"
       aria-label="26 " />
  </g>
  <g
     inkscape:groupmode="layer"
     id="layer3"
     inkscape:label="Layer 1"
     transform="translate(0.00690455,12.910645)" />
</svg>
