<?xml version="1.0" encoding="UTF-8" standalone="no"?>
<svg
   version="1.2"
   width="211.91081"
   height="108.86641"
   id="svg2"
   sodipodi:docname="ES_CAT_OR30.svg"
   inkscape:version="1.3.2 (091e20e, 2023-11-25, custom)"
   xmlns:inkscape="http://www.inkscape.org/namespaces/inkscape"
   xmlns:sodipodi="http://sodipodi.sourceforge.net/DTD/sodipodi-0.dtd"
   xmlns="http://www.w3.org/2000/svg"
   xmlns:svg="http://www.w3.org/2000/svg"
   xmlns:rdf="http://www.w3.org/1999/02/22-rdf-syntax-ns#"
   xmlns:cc="http://creativecommons.org/ns#"
   xmlns:dc="http://purl.org/dc/elements/1.1/">
  <sodipodi:namedview
     pagecolor="#ffffff"
     bordercolor="#666666"
     borderopacity="1"
     objecttolerance="10"
     gridtolerance="10"
     guidetolerance="10"
     inkscape:pageopacity="0"
     inkscape:pageshadow="2"
     inkscape:window-width="1920"
     inkscape:window-height="1017"
     id="namedview3513"
     showgrid="false"
     inkscape:zoom="2.15"
     inkscape:cx="139.53488"
     inkscape:cy="4.4186047"
     inkscape:window-x="-8"
     inkscape:window-y="-8"
     inkscape:window-maximized="1"
     inkscape:current-layer="svg2"
     fit-margin-top="0"
     fit-margin-left="0"
     fit-margin-right="0"
     fit-margin-bottom="0"
     inkscape:showpageshadow="false"
     inkscape:pagecheckerboard="true"
     showborder="true"
     inkscape:document-rotation="0"
     inkscape:deskcolor="#d1d1d1" />
  <metadata
     id="metadata3303">
    <rdf:RDF>
      <cc:Work
         rdf:about="">
        <dc:format>image/svg+xml</dc:format>
        <dc:type
           rdf:resource="http://purl.org/dc/dcmitype/StillImage" />
        <dc:title />
      </cc:Work>
    </rdf:RDF>
  </metadata>
  <defs
     id="defs3301" />
  <path
     d="m 209.90961,101.36642 c 0.0167,5.98549 -0.96406,4.18981 -12.41492,4.2469 L 14.641654,106.525 C 3.1907971,106.58209 1.9842596,108.43338 2.0008129,102.44737 L 2.2287328,20.026965 c 0.016558,-5.987567 -0.9753782,-5.688837 10.4756022,-5.70986 l 186.214875,-0.34188 c 11.45098,-0.02102 10.74577,-0.278229 10.76248,5.70986 z"
     id="path3243"
     style="fill:#ffffff;stroke:#1c1d20;stroke-width:4;stroke-miterlimit:3.864;stroke-dasharray:none"
     sodipodi:nodetypes="sssssssss" />
  <path
     d="m 158.69642,82.043311 0.0133,6.070474 8.2552,-1.877265 -10.26179,10.306273 -10.30831,-10.261283 8.2669,1.841138 -0.18707,-10.190253 4.048,-0.0088"
     id="polyline3245"
     style="opacity:1;fill:#1c1d20;stroke-width:0.999999"
     sodipodi:nodetypes="cccccccc" />
  <path
     d="m 45.185208,52.826482 v 8.319987 h -2.495996 l -0.277333,-0.597332 q -0.895998,0.511999 -1.663997,0.725332 -0.746665,0.234666 -1.685331,0.234666 -1.407997,0 -2.751995,-0.575999 -1.322665,-0.575999 -2.26133,-1.599997 -1.81333,-1.983997 -1.81333,-5.183992 0,-3.498661 2.090663,-5.546658 0.895998,-0.895999 2.154663,-1.386665 1.279998,-0.511999 2.581329,-0.511999 1.813331,0 3.327995,0.917332 1.535998,0.895999 2.51733,2.559996 l -2.815996,1.450664 q -0.426666,-0.959998 -1.237331,-1.471997 -0.810666,-0.533333 -1.877331,-0.533333 -0.767999,0 -1.386664,0.277333 -0.618666,0.256 -1.066665,0.746666 -0.448,0.490666 -0.703999,1.194664 -0.234666,0.682666 -0.234666,1.514665 v 1.493331 q 0,0.810665 0.149333,1.386664 0.149333,0.554666 0.511999,1.045332 0.490666,0.661332 1.173331,1.023998 0.703999,0.362666 1.514665,0.362666 0.639999,0 1.194664,-0.191999 0.554666,-0.213333 0.981332,-0.597333 0.426666,-0.383999 0.703999,-0.895998 0.277333,-0.533333 0.362666,-1.173332 h -3.391994 v -2.986662 z m 8.039985,0 h 2.922662 q 0.575999,0 1.002665,-0.426666 0.426666,-0.447999 0.426666,-1.066665 0,-0.618665 -0.426666,-1.045331 -0.426666,-0.448 -1.002665,-0.448 h -2.922662 z m 3.349328,-5.909324 q 2.00533,0 3.285328,1.386665 0.554666,0.618665 0.874665,1.429331 0.32,0.789332 0.32,1.599997 0,1.343998 -0.725332,2.410663 -0.725333,1.045332 -2.047997,1.663998 l 3.477328,5.738657 H 58.195852 L 54.88919,55.749144 h -1.663997 v 5.397325 H 50.025198 V 46.917158 Z m 14.247995,4.010661 -1.557331,4.970658 h 3.221328 z m 6.890656,10.21865 h -3.455995 l -0.725332,-2.19733 h -5.226658 l -0.661333,2.19733 h -3.370661 l 4.45866,-14.229311 h 4.117326 z m 13.202652,-5.098658 v -9.130653 h 3.199995 v 14.229311 h -3.562661 l -6.037323,-9.023986 v 9.023986 H 81.31584 V 46.917158 h 3.562661 z M 105.39846,49.96782 q -0.74667,0 -1.408,0.32 -0.66133,0.319999 -1.152,0.917331 -0.832,1.045332 -0.832,2.901329 0,0.959999 0.192,1.663998 0.21333,0.682665 0.64,1.237331 0.49067,0.597332 1.152,0.917332 0.66133,0.319999 1.42933,0.319999 0.74667,0 1.408,-0.319999 0.66133,-0.32 1.152,-0.917332 0.83199,-1.087998 0.83199,-2.837329 0,-1.023998 -0.21333,-1.706664 -0.192,-0.703999 -0.61866,-1.258665 -0.49067,-0.597332 -1.17334,-0.917331 -0.66133,-0.32 -1.40799,-0.32 z m 0,-3.263995 q 1.55733,0 2.87999,0.554666 1.32267,0.554666 2.28267,1.621331 1.81333,1.962663 1.81333,5.333325 0,1.599997 -0.512,2.943995 -0.512,1.343998 -1.42933,2.32533 -0.91734,0.959998 -2.21867,1.493331 -1.28,0.533332 -2.81599,0.533332 -1.55733,0 -2.83733,-0.533332 -1.28,-0.533333 -2.19733,-1.514665 -0.917334,-0.981331 -1.429333,-2.346663 -0.490666,-1.365331 -0.490666,-3.007995 0,-1.642664 0.511999,-3.007995 0.511999,-1.365331 1.42933,-2.32533 0.91733,-0.981331 2.19733,-1.514664 1.28,-0.554666 2.816,-0.554666 z m 14.52532,11.455982 h 6.12266 v 2.986662 h -9.32265 V 46.917158 h 3.19999 z m 13.09597,0 h 6.12266 v 2.986662 h -9.32265 V 46.917158 h 3.19999 z m 19.7093,-8.40532 h -6.54933 v 2.581329 h 5.84533 v 2.986662 h -5.84533 v 2.687996 h 7.18932 v 3.135995 H 142.91573 V 46.917158 h 9.81332 z m 8.1893,3.071995 h 2.92266 q 0.576,0 1.00267,-0.426666 0.42666,-0.447999 0.42666,-1.066665 0,-0.618665 -0.42666,-1.045331 -0.42667,-0.448 -1.00267,-0.448 h -2.92266 z m 3.34933,-5.909324 q 2.00533,0 3.28533,1.386665 0.55466,0.618665 0.87466,1.429331 0.32,0.789332 0.32,1.599997 0,1.343998 -0.72533,2.410663 -0.72533,1.045332 -2.048,1.663998 l 3.47733,5.738657 h -3.56266 l -3.30666,-5.397325 h -1.664 v 5.397325 h -3.19999 V 46.917158 Z m 18.83465,4.13866 q -0.72533,-0.597332 -1.728,-0.938665 -0.98133,-0.362666 -1.94133,-0.362666 -0.74666,0 -1.19466,0.32 -0.448,0.319999 -0.448,0.831998 0,0.384 0.27733,0.618666 0.29867,0.234666 0.93867,0.383999 l 1.62133,0.384 q 2.32533,0.533332 3.51999,1.727997 1.19467,1.194665 1.19467,2.986662 0,1.002665 -0.42667,1.834664 -0.40533,0.831998 -1.17333,1.429331 -0.74667,0.575999 -1.792,0.895998 -1.04533,0.341333 -2.304,0.341333 -2.06933,0 -3.90399,-0.810665 -1.83466,-0.831999 -3.02933,-2.303997 l 2.83733,-2.06933 q 0.59733,0.917332 1.728,1.450665 1.13066,0.533332 2.47466,0.533332 0.81067,0 1.30133,-0.362666 0.512,-0.362666 0.512,-0.959998 0,-0.469333 -0.384,-0.767999 -0.36266,-0.298666 -1.17333,-0.533333 l -1.96266,-0.490665 q -0.81067,-0.234667 -1.344,-0.426666 -0.53333,-0.192 -0.93867,-0.448 -0.85333,-0.554666 -1.34399,-1.450664 -0.46934,-0.895999 -0.46934,-1.94133 0,-0.959999 0.36267,-1.727998 0.384,-0.789332 1.04533,-1.343998 0.68267,-0.554665 1.64267,-0.853332 0.95999,-0.298666 2.15466,-0.298666 3.58399,0 6.35732,2.38933 z"
     id="text4113"
     style="font-size:21.3333px;line-height:12.5px;font-family:TrafficTypeW01-SpainD;-inkscape-font-specification:TrafficTypeW01-SpainD;letter-spacing:1px;word-spacing:0px;stroke-width:0.999998px"
     transform="scale(1.0049051,0.99511884)"
     aria-label="GRANOLLERS" />
  <g
     inkscape:groupmode="layer"
     id="layer6"
     inkscape:label="Layer 1"
     transform="translate(-2.3296274,-40.488405)" />
  <g
     inkscape:groupmode="layer"
     id="layer8"
     inkscape:label="Layer 2"
     transform="translate(0.90016926,37.687211)">
    <g
       id="E-80"
       transform="matrix(0.02620088,0,0,0.02620088,113.7066,-34.33039)"
       inkscape:label="E-80"
       style="display:inline;stroke:#000000;stroke-width:38.1666">
      <path
         style="fill:#ffffff;fill-opacity:1;stroke:#000000;stroke-width:38.1666"
         d="m -877.11397,119.96468 v -229 H 208.88608 v 229 229 H -877.11397 Z"
         id="path2390-0"
         sodipodi:nodetypes="ccccccc"
         inkscape:connector-curvature="0" />
      <path
         id="rect852"
         style="fill:#ff0000;stroke-linecap:round;stroke-linejoin:round"
         d="m -877.11395,-109.03532 h 1086 v 458 h -1086 z" />
    </g>
    <path
       style="font-weight:bold;font-size:8.65421px;line-height:5.07083px;font-family:Ccrige;-inkscape-font-specification:'Ccrige Bold';letter-spacing:0px;word-spacing:0px;fill:#ffffff;stroke-width:0.999993px"
       d="m 101.30142,-30.288698 -0.002,0.01515 q -0.20554,0.962781 -1.17049,1.163991 -1.282983,0.07789 -1.598862,-1.170482 -0.149285,-0.718299 0.0022,-1.436599 0.199047,-1.003888 1.205099,-1.192117 1.278659,-0.04111 1.557759,1.207262 l 1.3176,-0.558196 q -0.48031,-1.319767 -1.8044,-1.789258 -2.544339,-0.577669 -3.585007,1.813057 -0.424057,1.235388 -0.01515,2.47294 0.475981,1.339239 1.813057,1.815221 2.555155,0.588486 3.608805,-1.810894 l 0.004,-0.02163 -1.33275,-0.508435 z m 1.99047,0.748589 h 2.12028 v -1.135865 h -2.12028 v 1.135865 z m 5.40454,1.60752 0.002,-6.135835 h -1.25703 v 0.26828 q -0.0822,0.52358 -0.60795,0.59065 l -0.55604,0.0022 v 1.274332 l 1.05365,-0.0022 v 4.002572 h 1.3652 z m 1.67891,0 h 1.50367 l 2.01643,-5.058386 v -1.08394 h -4.33143 v 1.337076 h 2.7131 l -1.90177,4.80525 z"
       id="text850"
       transform="scale(0.99016793,1.0099297)"
       aria-label="C-17" />
  </g>
  <g
     id="g4256"
     transform="translate(-7.799706,-39.120885)" />
  <text
     xml:space="preserve"
     style="font-size:42.6667px;line-height:25px;font-family:Haettenschweiler;-inkscape-font-specification:Haettenschweiler;letter-spacing:0px;word-spacing:0px;fill:none;stroke:#000000;stroke-width:1px;stroke-linecap:butt;stroke-linejoin:miter;stroke-opacity:1"
     x="81.159714"
     y="30.918333"
     id="text7143"><tspan
       sodipodi:role="line"
       id="tspan7141"
       x="81.159714"
       y="30.918333" /></text>
  <path
     d="m 96.142078,22.908945 h 3.285328 L 95.587412,37.138256 H 91.598085 L 87.758091,22.908945 h 3.263995 l 2.559996,9.151986 z m 10.109332,14.229311 h -3.264 V 22.908945 h 3.264 z m 17.57597,-4.117327 q -0.87466,2.154664 -2.55999,3.327995 -1.68533,1.151998 -3.94666,1.151998 -1.55733,0 -2.83733,-0.533332 -1.28,-0.554666 -2.21866,-1.535998 -0.91734,-0.981332 -1.42934,-2.346663 -0.512,-1.365331 -0.512,-3.029328 0,-1.599998 0.46934,-2.922662 0.46933,-1.343998 1.408,-2.32533 0.95999,-1.023998 2.28266,-1.557331 1.32266,-0.554666 2.79466,-0.554666 2.304,0 4.01066,1.173332 1.70666,1.173331 2.51733,3.306661 l -3.41333,1.215998 q -0.34133,-1.151998 -1.17333,-1.791997 -0.81066,-0.639999 -1.96266,-0.639999 -0.768,0 -1.38667,0.298666 -0.61866,0.277333 -1.06666,0.831999 -0.448,0.533332 -0.68267,1.301331 -0.23466,0.746666 -0.23466,1.685331 0,1.962663 0.91733,3.029328 0.448,0.533333 1.10933,0.831999 0.68266,0.298666 1.408,0.298666 1.152,0 1.98399,-0.682665 0.85334,-0.703999 1.088,-1.813331 z"
     id="text4113-4"
     style="font-size:21.3333px;line-height:12.5px;font-family:TrafficTypeW01-SpainD;-inkscape-font-specification:TrafficTypeW01-SpainD;letter-spacing:1px;word-spacing:0px;stroke-width:0.999998px"
     transform="scale(1.0049051,0.99511884)"
     aria-label="VIC" />
  <path
     d="m 58.67937,83.425069 0.0133,6.070474 8.2552,-1.877265 -10.26179,10.306273 -10.30831,-10.261283 8.2669,1.841138 -0.18707,-10.190253 4.048,-0.0088"
     id="polyline3245-8"
     style="opacity:1;fill:#1c1d20;stroke-width:0.999999"
     sodipodi:nodetypes="cccccccc" />
</svg>
