<?xml version="1.0" encoding="UTF-8" standalone="no"?>
<svg
   version="1.2"
   width="294.2403"
   height="211.08519"
   id="svg2"
   sodipodi:docname="ES_CAT_OR42a.svg"
   inkscape:version="1.3.2 (091e20e, 2023-11-25, custom)"
   xmlns:inkscape="http://www.inkscape.org/namespaces/inkscape"
   xmlns:sodipodi="http://sodipodi.sourceforge.net/DTD/sodipodi-0.dtd"
   xmlns="http://www.w3.org/2000/svg"
   xmlns:svg="http://www.w3.org/2000/svg"
   xmlns:rdf="http://www.w3.org/1999/02/22-rdf-syntax-ns#"
   xmlns:cc="http://creativecommons.org/ns#"
   xmlns:dc="http://purl.org/dc/elements/1.1/">
  <sodipodi:namedview
     pagecolor="#ffffff"
     bordercolor="#666666"
     borderopacity="1"
     objecttolerance="10"
     gridtolerance="10"
     guidetolerance="10"
     inkscape:pageopacity="0"
     inkscape:pageshadow="2"
     inkscape:window-width="1920"
     inkscape:window-height="1017"
     id="namedview6659"
     showgrid="false"
     inkscape:zoom="2"
     inkscape:cx="190.5"
     inkscape:cy="14.25"
     inkscape:window-x="-8"
     inkscape:window-y="-8"
     inkscape:window-maximized="1"
     inkscape:current-layer="layer11"
     fit-margin-top="0"
     fit-margin-left="0"
     fit-margin-right="0"
     fit-margin-bottom="0"
     inkscape:document-rotation="0"
     inkscape:showpageshadow="false"
     inkscape:pagecheckerboard="true"
     inkscape:deskcolor="#d1d1d1" />
  <metadata
     id="metadata4010">
    <rdf:RDF>
      <cc:Work
         rdf:about="">
        <dc:format>image/svg+xml</dc:format>
        <dc:type
           rdf:resource="http://purl.org/dc/dcmitype/StillImage" />
      </cc:Work>
    </rdf:RDF>
  </metadata>
  <defs
     id="defs4008" />
  <g
     inkscape:groupmode="layer"
     id="layer11"
     inkscape:label="Layer 1"
     style="display:inline"
     transform="translate(-3.654911,30.180049)">
    <path
       d="m 297.78649,167.75296 c 0.34023,3.78664 -0.062,7.63133 -2.00947,10.56364 -0.32361,0.201 -0.33662,0.51165 -1.994,1.10397 l -3.76478,1.34548 c 6.75792,0.22776 -110.91668,-0.12768 -197.607333,0.0615 -21.662089,0.0473 -43.199414,-0.13864 -59.929292,0.0398 -4.918851,0.0525 -9.30894,0.0456 -13.375464,0.008 -2.857475,-0.0261 -5.713385,0.0277 -7.797074,-0.33358 -7.1943343,-1.24731 -6.817864,-5.45661 -6.8294367,-8.88412 L 3.95942,17.58345 C 3.8994511,-0.17759478 0.30006,2.0673684 19.51187,2.0673684 h 262.91995 c 10.13712,0 13.30972,-0.5145413 14.43956,1.430214 1.01172,1.7414474 0.87916,5.3550654 0.91195,13.7458406 0.14946,38.241615 -0.15031,76.816319 -0.0413,115.075477 0.0539,18.9121 0.007,-19.37763 -0.0157,-0.56247 -0.0113,9.43886 0.32673,26.51339 0.0602,35.99653 z"
       id="path3217"
       style="fill:#ffffff;stroke-width:0.999997;fill-opacity:1"
       sodipodi:nodetypes="ccscsssssssssssscc" />
    <path
       d="m 289.76093,164.09696 c 0,10.76106 1.16348,8.93465 -9.59873,8.89385 L 16.67497,171.99195 C 5.91277,171.95115 8.49073,172.4475 8.49073,161.6855 V 81.435851 c 0,-10.764824 -0.45905,-8.93697 10.30314,-8.895729 l 260.66203,0.998862 c 10.76221,0.04124 10.30503,0.955173 10.30503,11.720937 z"
       id="path3243"
       style="fill:none;stroke:#000000;stroke-width:4;stroke-miterlimit:3.864;stroke-opacity:1"
       sodipodi:nodetypes="sssssssss" />
    <path
       d="m 143.18116,141.89141 6.38366,6.63596 7.0699,-10.72142 -0.42345,22.06115 -22.05379,-0.42074 10.98405,-6.66037 -10.89641,-10.96655 4.42332,-4.25865"
       id="polyline3245"
       style="fill:#000000;fill-opacity:1;stroke-width:0.999997"
       sodipodi:nodetypes="cccccccc" />
    <text
       xml:space="preserve"
       style="font-size:38.6689px;line-height:22.6576px;font-family:'Andale Mono IPA';-inkscape-font-specification:'Andale Mono IPA';letter-spacing:0px;word-spacing:0px;fill:#ffffff;fill-opacity:1;stroke:none;stroke-width:0.999997px;stroke-linecap:butt;stroke-linejoin:miter;stroke-opacity:1"
       x="307.61365"
       y="178.6953"
       id="text4113"
       transform="scale(1.067666,0.9366225)"><tspan
         sodipodi:role="line"
         id="tspan4111"
         x="307.61365"
         y="178.6953"
         style="font-style:normal;font-variant:normal;font-weight:normal;font-stretch:normal;font-size:38.6689px;font-family:'Highway Gothic Wide';-inkscape-font-specification:'Highway Gothic Wide';fill:#ffffff;fill-opacity:1;stroke:none;stroke-width:0.999997px" /></text>
    <path
       d="M 10.85674,55.217002 V 16.59514 c 0,-8.1207908 -1.34082,-6.113885 5.48767,-6.092352 l 264.73496,0.834835 c 6.91376,0.0218 6.5425,-2.0276538 6.5425,6.092352 v 36.502956 c 0,8.120781 1.60729,8.582155 -5.30647,8.560468 L 16.16783,61.658564 c -6.82849,-0.02142 -5.31109,1.679219 -5.31109,-6.441562 h -3.58082 3.58082 m -3.58082,0 c 0,10.452017 0.0992,10.681082 8.89191,10.708662 l 266.14757,0.834835 c 8.79271,0.02758 8.89125,-2.374766 8.89125,-12.827568 V 17.429975 c 0,-10.4606628 -1.33523,-10.3317268 -10.12728,-10.3594523 L 16.34441,6.2356875 C 7.5517,6.2079599 7.27592,6.1344772 7.27592,16.59514 Z"
       id="path5608"
       style="fill:#000000;stroke-width:0.999997;fill-opacity:1"
       sodipodi:nodetypes="cssssssscccsssssssss" />
    <g
       id="g5651"
       transform="matrix(0.53249244,0,0,0.53249352,-5.32698,-14.893022)"
       style="stroke-width:1.87796;fill:#000000">
      <path
         d="M 53.950398,130.92797 H 81.72097 l 2.616542,-67.631163 h -8.05066 L 53.950398,130.92797"
         id="polyline5612"
         style="fill:#000000;stroke-width:1.87796" />
      <path
         d="m 91.185094,130.92797 h 27.561746 l -10.05787,-31.800578 20.323,-22.947344 6.64656,16.099763 V 63.296807 h -28.98301 l 16.30859,6.646548 -19.7277,12.280143 -6.035656,-18.926691 h -8.05066 l 2.015,67.631163"
         id="polyline5614"
         style="fill:#000000;stroke-width:1.87796" />
    </g>
    <path
       style="font-size:28.1783px;line-height:16.5108px;font-family:TrafficTypeW01-SpainD;-inkscape-font-specification:TrafficTypeW01-SpainD;letter-spacing:0px;word-spacing:0px;stroke-width:0.999997px"
       d="m 82.80675,37.318043 q -1.183489,0 -1.859768,0.760814 -0.676279,0.732635 -0.676279,2.000659 0,1.268024 0.676279,2.000659 0.676279,0.732636 1.859768,0.732636 1.15531,0 1.83159,-0.732636 0.704457,-0.732635 0.704457,-1.972481 0,-1.296202 -0.676279,-2.028837 -0.676279,-0.760814 -1.859768,-0.760814 z m 2.338799,-4.367637 q -0.507209,-1.606163 -2.226086,-1.606163 -0.619922,0 -1.15531,0.225426 -0.535388,0.225427 -0.929884,0.648101 -0.394496,0.394496 -0.648101,0.929884 -0.225426,0.535388 -0.253605,1.15531 0.648101,-0.479031 1.521629,-0.732635 0.901705,-0.281784 1.887946,-0.281784 1.352558,0 2.47969,0.50721 1.155311,0.507209 1.972481,1.408915 0.845349,0.873527 1.296202,2.113373 0.479031,1.239845 0.479031,2.676938 0,1.521628 -0.479031,2.789652 -0.479031,1.239845 -1.352558,2.141551 -0.873528,0.901705 -2.085195,1.408915 -1.183488,0.507209 -2.64876,0.507209 -1.775233,0 -3.184148,-0.676279 -1.380737,-0.704458 -2.366977,-2.000659 -0.958062,-1.324381 -1.465272,-3.212327 -0.507209,-1.887946 -0.507209,-4.254923 0,-2.564225 0.563566,-4.452172 0.591744,-1.916124 1.775233,-3.071434 0.873527,-0.873528 2.169729,-1.352559 1.32438,-0.507209 2.846008,-0.507209 1.521629,0 2.846009,0.507209 1.352558,0.479031 2.169729,1.380737 0.366318,0.394496 0.648101,0.901705 0.281783,0.479032 0.591744,1.239846 z m 16.033461,2.057016 h 1.21167 q 1.2962,0 2.00066,-0.479031 0.73263,-0.50721 0.73263,-1.408915 0,-0.873528 -0.6481,-1.352559 -0.61992,-0.507209 -1.77523,-0.507209 -1.4371,0 -2.22609,0.648101 -0.760813,0.648101 -0.788991,1.859768 l -4.31128,-0.479032 q 0.05636,-1.380736 0.479031,-2.366977 0.422675,-1.014419 1.32438,-1.831589 0.958063,-0.817171 2.395156,-1.296202 1.437094,-0.479031 3.071434,-0.479031 1.54981,0 2.81783,0.422674 1.2962,0.422675 2.19791,1.183489 0.92988,0.760814 1.43709,1.831589 0.50721,1.070776 0.50721,2.338799 0,1.268024 -0.56356,2.226086 -0.53539,0.929884 -1.57799,1.465272 1.26802,0.479031 1.83159,1.408915 0.59174,0.929884 0.59174,2.47969 0,2.902365 -1.85976,4.536707 -1.83159,1.634341 -5.12845,1.634341 -6.762797,0 -7.664502,-6.001978 l 4.452171,-0.676279 q 0.338141,2.536047 3.015081,2.536047 1.26802,0 1.97248,-0.535388 0.70446,-0.535387 0.70446,-1.465271 0,-1.944303 -3.01508,-1.944303 h -1.18349 z"
       id="text5284-6"
       transform="scale(0.99551619,1.004504)"
       aria-label="63" />
    <path
       style="font-size:32.7298px;line-height:19.1776px;font-family:TrafficTypeW01-SpainD;-inkscape-font-specification:TrafficTypeW01-SpainD;letter-spacing:0px;word-spacing:0px;stroke-width:1px"
       d="m 28.882777,109.17564 h 3.600278 q 1.080084,0 1.996518,-0.45822 0.916435,-0.45821 1.538301,-1.27646 0.654596,-0.85097 1.014624,-1.99652 0.360028,-1.17827 0.360028,-2.58565 0,-1.40738 -0.360028,-2.58566 -0.360028,-1.178268 -1.014624,-1.996513 -0.621866,-0.850975 -1.538301,-1.309193 -0.916434,-0.458217 -1.996518,-0.458217 h -3.600278 z m 3.600278,-17.248605 q 2.258357,0 4.123955,0.818245 1.865599,0.785515 3.207521,2.225627 1.341922,1.440111 2.061977,3.436629 0.752786,1.996514 0.752786,4.418524 0,2.422 -0.752786,4.45125 -0.720055,1.99652 -2.061977,3.43663 -1.341922,1.44011 -3.207521,2.25836 -1.865598,0.78551 -4.123955,0.78551 H 23.875118 V 91.927035 Z M 62.49626,96.280099 H 52.448211 v 3.960301 h 8.967965 v 4.58218 h -8.967965 v 4.12395 h 11.029943 v 4.81128 H 47.440551 V 91.927035 H 62.49626 Z m 20.848861,1.996518 q -1.112814,-0.916435 -2.651114,-1.440112 -1.505571,-0.556406 -2.978412,-0.556406 -1.145543,0 -1.832869,0.490947 -0.687326,0.490947 -0.687326,1.276462 0,0.589136 0.425487,0.949164 0.458218,0.360028 1.440112,0.589137 l 2.487465,0.589141 q 3.567548,0.81824 5.400417,2.65111 1.832869,1.83287 1.832869,4.58217 0,1.5383 -0.654596,2.81476 -0.621867,1.27647 -1.800139,2.1929 -1.145543,0.88371 -2.749304,1.37465 -1.60376,0.52368 -3.534818,0.52368 -3.174791,0 -5.989554,-1.24373 -2.814763,-1.27647 -4.647632,-3.53482 l 4.353064,-3.17479 q 0.916434,1.40738 2.651114,2.22562 1.734679,0.81825 3.796657,0.81825 1.243732,0 1.996518,-0.55641 0.785515,-0.5564 0.785515,-1.47284 0,-0.72005 -0.589137,-1.17827 -0.556406,-0.45822 -1.800139,-0.81825 l -3.011141,-0.75278 q -1.243733,-0.36003 -2.061978,-0.6546 -0.818245,-0.29457 -1.440111,-0.68732 -1.309192,-0.85098 -2.061978,-2.22563 -0.720055,-1.374652 -0.720055,-2.978412 0,-1.472841 0.556406,-2.651114 0.589137,-1.211003 1.603761,-2.061978 1.047353,-0.850974 2.520194,-1.309192 1.472841,-0.458217 3.30571,-0.458217 5.498607,0 9.753481,3.665738 z m 24.514629,-1.76741 h -6.34958 V 113.75781 H 96.502509 V 96.509207 h -6.316852 v -4.582172 h 17.674093 z m 8.83704,17.248603 h -5.00766 V 91.927035 h 5.00766 z m 21.078,-7.82242 V 91.927035 h 4.90947 v 21.830775 h -5.46588 l -9.26254,-13.844703 v 13.844703 h -4.90947 V 91.927035 h 5.46588 z m 18.88508,-7.855152 -2.38927,7.626042 h 4.9422 z m 10.57173,15.677572 h -5.30223 l -1.11281,-3.37117 h -8.0188 l -1.01463,3.37117 h -5.1713 l 6.84052,-21.830775 h 6.31686 z m 22.55081,-6.31685 q -1.34192,3.30571 -3.92757,5.10585 -2.58566,1.76741 -6.05502,1.76741 -2.38927,0 -4.35306,-0.81825 -1.96379,-0.85097 -3.4039,-2.35654 -1.40738,-1.50557 -2.1929,-3.60028 -0.78551,-2.09471 -0.78551,-4.64763 0,-2.45474 0.72005,-4.483984 0.72006,-2.061978 2.16017,-3.567549 1.47284,-1.57103 3.50209,-2.389275 2.02925,-0.850975 4.2876,-0.850975 3.53482,0 6.15321,1.800139 2.61838,1.800139 3.86211,5.073119 l -5.23677,1.865595 q -0.52367,-1.767405 -1.80013,-2.749299 -1.24374,-0.981894 -3.01115,-0.981894 -1.17827,0 -2.12743,0.458217 -0.94917,0.425487 -1.63649,1.276462 -0.68733,0.818245 -1.04736,1.996514 -0.36002,1.14555 -0.36002,2.58566 0,3.01114 1.40738,4.64763 0.68732,0.81825 1.70195,1.27646 1.04735,0.45822 2.16016,0.45822 1.76741,0 3.04387,-1.04735 1.3092,-1.08009 1.66922,-2.78204 z m 9.26252,6.31685 h -5.00766 V 91.927035 h 5.00766 z m 15.80849,-17.150413 q -1.14554,0 -2.16016,0.490947 -1.01463,0.490947 -1.76741,1.407381 -1.27646,1.603765 -1.27646,4.451255 0,1.47284 0.29456,2.55292 0.3273,1.04736 0.9819,1.89833 0.75278,0.91644 1.76741,1.40738 1.01462,0.49095 2.19289,0.49095 1.14555,0 2.16017,-0.49095 1.01462,-0.49094 1.76741,-1.40738 1.27646,-1.66922 1.27646,-4.35306 0,-1.57103 -0.3273,-2.61839 -0.29456,-1.08008 -0.94916,-1.931055 -0.75279,-0.916434 -1.80014,-1.407381 -1.01462,-0.490947 -2.16017,-0.490947 z m 0,-5.00766 q 2.38928,0 4.41853,0.850975 2.02924,0.850975 3.50209,2.487465 2.78203,3.011142 2.78203,8.182453 0,2.45473 -0.78552,4.51671 -0.78551,2.06198 -2.19289,3.56755 -1.40738,1.47284 -3.4039,2.29108 -1.96379,0.81825 -4.32034,0.81825 -2.38927,0 -4.35306,-0.81825 -1.96379,-0.81824 -3.37117,-2.32381 -1.40738,-1.50557 -2.1929,-3.60028 -0.75278,-2.09471 -0.75278,-4.6149 0,-2.5202 0.78551,-4.614904 0.78552,-2.094707 2.1929,-3.567548 1.40738,-1.505571 3.37117,-2.323816 1.96379,-0.850975 4.32033,-0.850975 z m 30.56967,14.335653 V 91.927035 h 4.90947 v 21.830775 h -5.46587 l -9.26254,-13.844703 v 13.844703 h -4.90947 V 91.927035 h 5.46588 z m 25.9547,-7.658773 q -1.11281,-0.916435 -2.65111,-1.440112 -1.50558,-0.556406 -2.97842,-0.556406 -1.14554,0 -1.83287,0.490947 -0.68732,0.490947 -0.68732,1.276462 0,0.589136 0.42549,0.949164 0.45821,0.360028 1.44011,0.589137 l 2.48746,0.589141 q 3.56755,0.81824 5.40042,2.65111 1.83287,1.83287 1.83287,4.58217 0,1.5383 -0.6546,2.81476 -0.62186,1.27647 -1.80014,2.1929 -1.14554,0.88371 -2.7493,1.37465 -1.60376,0.52368 -3.53482,0.52368 -3.17479,0 -5.98955,-1.24373 -2.81476,-1.27647 -4.64763,-3.53482 l 4.35306,-3.17479 q 0.91643,1.40738 2.65111,2.22562 1.73468,0.81825 3.79666,0.81825 1.24373,0 1.99652,-0.55641 0.78551,-0.5564 0.78551,-1.47284 0,-0.72005 -0.58913,-1.17827 -0.55641,-0.45822 -1.80014,-0.81825 l -3.01114,-0.75278 q -1.24374,-0.36003 -2.06198,-0.6546 -0.81825,-0.29457 -1.44011,-0.68732 -1.30919,-0.85098 -2.06198,-2.22563 -0.72006,-1.374652 -0.72006,-2.978412 0,-1.472841 0.55641,-2.651114 0.58914,-1.211003 1.60376,-2.061978 1.04736,-0.850974 2.5202,-1.309192 1.47284,-0.458217 3.30571,-0.458217 5.4986,0 9.75348,3.665738 z"
       id="text5780"
       transform="scale(1.0045891,0.99543188)"
       aria-label="DESTINACIONS" />
    <path
       id="rect5280"
       style="display:inline;fill:#ff2121;stroke:#ffffff;stroke-width:1.99999;stroke-linecap:round;stroke-linejoin:round;stroke-miterlimit:2.613"
       d="m 121.50461,-29.180054 h 72.30058 v 28.31203108 h -72.30058 z" />
    <path
       style="font-size:28.1783px;line-height:16.5108px;font-family:TrafficTypeW01-SpainD;-inkscape-font-specification:TrafficTypeW01-SpainD;letter-spacing:0px;word-spacing:0px;fill:#ffffff;stroke-width:0.999997px"
       d="m 147.06374,-11.312181 q -1.15531,2.846008 -3.3814,4.3958146 -2.22608,1.5216282 -5.21298,1.5216282 -2.05702,0 -3.74771,-0.7044575 -1.6907,-0.7326358 -2.93055,-2.0288377 -1.21167,-1.2962018 -1.88794,-3.0996126 -0.67628,-1.803412 -0.67628,-4.001319 0,-2.113373 0.61992,-3.860427 0.61992,-1.775233 1.85977,-3.071435 1.26802,-1.352559 3.01508,-2.057016 1.74705,-0.732636 3.69135,-0.732636 3.04326,0 5.29752,1.549807 2.25427,1.549806 3.32504,4.367636 l -4.50853,1.606163 q -0.45085,-1.521628 -1.5498,-2.366977 -1.07078,-0.845349 -2.59241,-0.845349 -1.01441,0 -1.83159,0.394496 -0.81717,0.366318 -1.40891,1.098954 -0.59174,0.704458 -0.90171,1.718876 -0.30996,0.986241 -0.30996,2.226086 0,2.592404 1.21167,4.001319 0.59174,0.704457 1.46527,1.098954 0.90171,0.3944958 1.85977,0.3944958 1.52163,0 2.62058,-0.9017058 1.12713,-0.929884 1.43709,-2.395155 z m 7.97444,0.648101 h -6.48101 v -3.578645 h 6.48101 z m 10.31329,4.7903107 h -4.31128 V -18.187687 h -3.18415 v -3.747714 h 1.66252 q 0.87353,0 1.38073,-0.507209 0.50721,-0.50721 0.50721,-1.380737 v -0.845349 h 3.94497 z m 18.76676,-14.8499647 h -8.08717 l -0.19725,1.83159 q 0.67628,-0.281783 1.23984,-0.394496 0.59175,-0.112714 1.32438,-0.112714 1.4371,0 2.67694,0.50721 1.23985,0.507209 2.11338,1.408915 0.9017,0.873527 1.40891,2.113372 0.50721,1.211667 0.50721,2.648761 0,1.577984 -0.53539,2.9023646 -0.50721,1.3243801 -1.46527,2.2824424 -0.92988,0.9580622 -2.25426,1.4934499 -1.2962,0.5353877 -2.84601,0.5353877 -1.54981,0 -2.95872,-0.563566 -1.40892,-0.563566 -2.3388,-1.5498065 -0.56357,-0.6199227 -0.98624,-1.3525585 -0.3945,-0.7608141 -0.78899,-1.8879466 l 4.08585,-1.211666 q 0.87353,2.4233334 2.90236,2.4233334 1.12714,0 1.85977,-0.7889924 0.73264,-0.817171 0.73264,-2.085194 0,-1.32438 -0.73264,-2.169729 -0.73263,-0.845349 -1.88794,-0.845349 -1.46528,0 -2.3388,1.380736 l -4.59307,-0.619922 1.23985,-9.890584 h 11.91942 z"
       id="text5284"
       transform="scale(0.99551619,1.004504)"
       aria-label="C-15" />
    <path
       style="font-size:28.1783px;line-height:16.5108px;font-family:'Caracteres L4';-inkscape-font-specification:'Caracteres L4';letter-spacing:0px;word-spacing:0px;stroke-width:0.999997px"
       d="m 212.60542,27.510151 q 1.08695,0.178866 2.43533,1.210786 0.66043,0.674188 1.08695,1.513483 0.3715,1.073197 0.3715,1.774903 0,0.192625 -0.0275,0.343974 -0.0826,1.320857 -0.45405,2.050081 -0.56411,1.224545 -1.82994,2.751787 -2.53164,3.329663 -7.76004,6.72812 h 8.15905 l -0.56411,3.192073 h -12.1629 l 0.5366,-3.343421 q 7.53989,-4.843146 10.0853,-9.521184 0.4678,-0.976885 0.41276,-1.692349 -0.055,-0.853054 -0.7705,-1.444689 -0.48156,-0.564116 -1.52724,-0.605393 -1.40341,-0.08255 -2.02256,0.880572 -0.35773,0.550358 -0.49532,1.03192 l -3.60484,-0.01376 q 0.0413,-1.265822 0.59163,-2.105117 0.44029,-0.839295 1.15575,-1.430929 1.32086,-1.100715 2.87562,-1.334617 1.0044,-0.178866 1.82994,-0.178866 0.60539,0 1.67859,0.192625 z m 9.16345,15.602633 q 0.7705,0.619153 1.74738,0.564117 0.61915,0 1.16951,-0.330215 1.3071,-0.715464 1.85746,-1.80242 1.27958,-2.600439 1.78866,-5.145842 0.35773,-1.678591 0.35773,-2.8481 0,-2.71051 -2.46285,-2.71051 -2.66923,0 -4.44413,4.581725 -0.86682,3.150797 -0.86682,5.077048 0,1.912492 0.85306,2.614197 z m 4.52669,-15.64391 h 0.0413 q 3.48102,0 4.9945,2.572921 0.7705,1.664832 0.7705,3.921297 0,1.582278 -0.37149,3.439734 -1.3759,6.4667 -4.54045,8.503022 -1.52724,1.155751 -3.86626,1.155751 -0.27518,0 -0.56412,-0.01376 -3.67363,-0.206384 -5.06329,-4.086404 -0.31645,-1.252063 -0.31645,-2.669233 0,-3.219591 1.67859,-7.264719 1.22454,-2.985689 3.27462,-4.402859 1.66484,-1.114474 3.96258,-1.155751 z m 11.18601,15.64391 q 0.7705,0.619153 1.74739,0.564117 0.61915,0 1.16951,-0.330215 1.3071,-0.715464 1.85745,-1.80242 1.27958,-2.600439 1.78867,-5.145842 0.35773,-1.678591 0.35773,-2.8481 0,-2.71051 -2.46285,-2.71051 -2.66924,0 -4.44414,4.581725 -0.86681,3.150797 -0.86681,5.077048 0,1.912492 0.85305,2.614197 z m 4.52669,-15.64391 h 0.0413 q 3.48101,0 4.99449,2.572921 0.7705,1.664832 0.7705,3.921297 0,1.582278 -0.37149,3.439734 -1.37589,6.4667 -4.54045,8.503022 -1.52724,1.155751 -3.86626,1.155751 -0.27518,0 -0.56411,-0.01376 -3.67364,-0.206384 -5.06329,-4.086404 -0.31646,-1.252063 -0.31646,-2.669233 0,-3.219591 1.67859,-7.264719 1.22455,-2.985689 3.27463,-4.402859 1.66483,-1.114474 3.96257,-1.155751 z m 16.99229,5.930102 h 3.16455 l -0.26142,2.297742 q 1.49973,-2.050082 3.01321,-2.352778 0.38525,-0.04128 0.71547,-0.04128 0.96312,0 1.43093,0.330215 1.26582,0.811777 1.32085,2.682992 2.28399,-2.793064 3.60484,-2.861859 0.38525,-0.110071 0.71547,-0.110071 0.96312,0 1.47221,0.330214 0.94936,0.632911 1.25206,1.651073 0.20638,0.798018 0.20638,1.747385 0,0.701705 -0.12383,1.485965 l -1.59603,8.489263 h -3.3847 l 1.58227,-8.337915 q 0.26142,-1.403412 -0.22014,-2.187671 -1.12823,-0.687947 -2.44909,0.357732 -0.89433,0.853054 -1.40341,3.013207 l -1.19703,7.127129 h -3.3847 l 1.58228,-8.337915 q 0.26142,-1.403411 -0.33021,-2.077599 -1.01816,-0.798019 -2.18767,0.247661 -0.89433,0.853054 -1.40342,3.013207 l -1.32085,7.154646 h -3.19208 l 2.20143,-11.970274 z"
       id="text5284-6-5"
       transform="scale(0.99551619,1.004504)"
       aria-label="200 m" />
  </g>
</svg>
