<?xml version="1.0" encoding="UTF-8" standalone="no"?>
<svg
   version="1.2"
   width="465.25"
   height="225.71875"
   id="svg2"
   sodipodi:docname="ES_CAT_OR21a.svg"
   inkscape:version="1.3.2 (091e20e, 2023-11-25, custom)"
   xmlns:inkscape="http://www.inkscape.org/namespaces/inkscape"
   xmlns:sodipodi="http://sodipodi.sourceforge.net/DTD/sodipodi-0.dtd"
   xmlns="http://www.w3.org/2000/svg"
   xmlns:svg="http://www.w3.org/2000/svg"
   xmlns:rdf="http://www.w3.org/1999/02/22-rdf-syntax-ns#"
   xmlns:cc="http://creativecommons.org/ns#"
   xmlns:dc="http://purl.org/dc/elements/1.1/">
  <sodipodi:namedview
     pagecolor="#ffffff"
     bordercolor="#666666"
     borderopacity="1"
     objecttolerance="10"
     gridtolerance="10"
     guidetolerance="10"
     inkscape:pageopacity="0"
     inkscape:pageshadow="2"
     inkscape:window-width="1920"
     inkscape:window-height="1017"
     id="namedview4065"
     showgrid="true"
     inkscape:zoom="1.3249068"
     inkscape:cx="235.48825"
     inkscape:cy="112.83812"
     inkscape:window-x="-8"
     inkscape:window-y="-8"
     inkscape:window-maximized="1"
     inkscape:current-layer="g3222"
     inkscape:showpageshadow="2"
     inkscape:pagecheckerboard="0"
     inkscape:deskcolor="#d1d1d1">
    <inkscape:grid
       type="xygrid"
       id="grid4685"
       originx="0"
       originy="0"
       spacingy="1"
       spacingx="1"
       units="px"
       visible="true" />
  </sodipodi:namedview>
  <metadata
     id="metadata3181">
    <rdf:RDF>
      <cc:Work
         rdf:about="">
        <dc:format>image/svg+xml</dc:format>
        <dc:type
           rdf:resource="http://purl.org/dc/dcmitype/StillImage" />
        <dc:title />
      </cc:Work>
    </rdf:RDF>
  </metadata>
  <defs
     id="defs3179" />
  <g
     id="g3222">
    <path
       d="m 0.11625,199.807 c 0,14.121 -2.523695,25.793 11.595305,25.793 h 420.859145 8.16983 5.15989 4.60859 c 14.11999,0 14.08682,2.51738 14.18025,-11.60331 L 465.97923,19.039148 C 466.07267,4.917457 467.63895,0.129 453.51895,0.129 H 17.731426 C 3.6124256,0.129 1.5158622,-0.2423156 1.4062223,13.879259 L 0,195"
       id="path3105"
       style="fill:#19408b;fill-rule:evenodd"
       sodipodi:nodetypes="cscccssssssc" />
    <path
       d="M 10.419771,51.707 V 25.919 c 0,-9.824 -3.3777505,-18.052 6.44725,-18.052 H 449.64903 c 9.945,0 7.73222,-2.0917782 7.73222,7.732222 V 63.31675 c 0,9.825 3.50375,6.44025 -6.44225,6.44025 H 15.147058 c -9.8240005,0 -4.727287,-8.225 -4.727287,-18.05 H 5.2677713 10.419771 m -5.1519997,0 c 0,12.648 -2.7707138,23.212 9.8792867,23.212 H 450.939 c 12.649,0 11.59825,1.04575 11.59825,-11.60225 V 15.599222 C 462.53725,2.9472218 462.29803,2.705 449.64903,2.705 H 16.867021 C 4.2170205,2.705 5.2677713,13.267 5.2677713,25.919 Z"
       id="path3111"
       style="fill:#ffffff;fill-rule:evenodd"
       sodipodi:nodetypes="cssssssscccsssssssss" />
    <path
       d="m 22.453956,59.445 h 16.945 l 1.597,-41.263 h -4.913 l -13.629,41.263"
       id="polyline3121"
       style="fill:#ffffff;fill-rule:evenodd" />
    <path
       d="m 45.172956,59.445 h 16.817 l -6.135,-19.401 12.4,-14.002 4.055,9.824 V 18.182 h -17.685 l 9.952,4.052 -12.038,7.493 -3.684,-11.545 h -4.912 l 1.23,41.263"
       id="polyline3123"
       style="fill:#ffffff;fill-rule:evenodd" />
    <path
       d="M 7.85425,210 V 94.688185 c 0,-9.824 -1.7847874,-9.455185 8.157213,-9.455185 H 448.35906 c 9.945,0 9.02219,-3.37975 9.02219,6.44525 v 117.15856 c 0,9.824 2.64377,9.02719 -7.30223,9.02719 H 15 C 5.058,217.863 7.85425,219.824 7.85425,210 h -5.162 5.162 m -5.162,0 c 0,12.654 -0.7671854,11.69458 11.877759,11.73203 L 450.07902,223.022 c 12.64894,0.0375 12.45823,-1.53119 12.45823,-14.18519 V 91.67825 c 0,-12.652 -1.52919,-11.60425 -14.17819,-11.60425 H 16.011463 C 3.3664626,80.074 2.69225,82.036185 2.69225,94.688185 Z"
       id="path3125"
       style="fill:#ffffff;fill-rule:evenodd"
       sodipodi:nodetypes="cssssssccccsssssssss" />
    <path
       d="m 28.166,126.372 37.95,7.612 -14.613,9.699 26.768,23.826 -9.085,9.088 -23.831,-26.894 -9.574,14.738 -7.615,-38.069"
       id="polyline3127"
       style="fill:#ffffff;fill-rule:evenodd" />
    <path
       d="m 88.942858,49.354 c 0.04,-0.493 0.081,-0.928 0.124,-1.309 0.037,-0.38 0.088,-0.74 0.135,-1.08 0.055,-0.339 0.126,-0.662 0.217,-0.971 0.093,-0.308 0.202,-0.635 0.328,-0.984 0.432,-1.275 1.044,-2.44 1.846,-3.499 0.8,-1.057 1.757,-1.946 2.868,-2.664 0.388,-0.288 0.823,-0.544 1.309,-0.771 0.48,-0.226 0.979,-0.451 1.493,-0.677 l 0.799,-0.37 0.741,-0.216 0.71,-0.278 c 0.594002,-0.267 1.058002,-0.569 1.388002,-0.909 0.327,-0.338 0.49,-0.693 0.49,-1.062 0,-0.616 -0.374,-1.119 -1.123,-1.51 -0.750002,-0.391 -1.723002,-0.585 -2.911002,-0.585 -0.534,0 -1.028,0.036 -1.48,0.108 -0.451,0.073 -0.896,0.19 -1.325,0.354 -0.431,0.165 -0.864,0.38 -1.296,0.647 -0.43,0.267 -0.902,0.596 -1.416,0.986 l -2.896,-3.02 c 0.35,-0.248 0.658,-0.467 0.924,-0.662 0.267,-0.196 0.514,-0.366 0.739,-0.51 0.225,-0.142 0.443,-0.271 0.648,-0.384 0.204,-0.113 0.419,-0.221 0.647,-0.323 1.642,-0.882 3.5,-1.325 5.575,-1.325 1.315,0 2.522,0.175 3.622002,0.523 1.098,0.35 1.994,0.852 2.696,1.509 0.534,0.515 0.943,1.1 1.232,1.757 0.287,0.659 0.43,1.429 0.43,2.311 0,1.521 -0.478,2.815 -1.431,3.883 -0.957,1.069 -2.44,1.941 -4.456002,2.619 -0.574,0.226 -1.058,0.421 -1.445,0.586 -0.393,0.163 -0.728,0.322 -1.004,0.477 -0.274,0.154 -0.534,0.324 -0.771,0.508 -0.235,0.186 -0.487,0.412 -0.753,0.678 -0.33,0.33 -0.605,0.647 -0.834,0.956 -0.226,0.307 -0.45,0.667 -0.676,1.079 h 11.584002 v 4.128 z"
       id="path3173"
       style="fill:#ffffff" />
    <path
       d="m 129.68486,43.407 c 0,0.945 -0.194,1.803 -0.585,2.572 -0.39,0.77 -0.939,1.432 -1.646,1.987 -0.71,0.554 -1.563,0.986 -2.56,1.293 -0.997,0.308 -2.101,0.463 -3.311,0.463 -1.293,0 -2.519,-0.201 -3.669,-0.6 -1.149,-0.401 -2.056,-0.951 -2.711,-1.649 -0.72,-0.718 -1.273,-1.649 -1.664,-2.789 -0.39,-1.141 -0.586,-2.388 -0.586,-3.744 0,-2.075 0.479,-4.016 1.433,-5.823 0.955,-1.809 2.287,-3.317 3.993,-4.53 2.176,-1.5 4.691,-2.249 7.545,-2.249 h 0.556 v 4.128 h -0.492 c -3.882,0 -6.634,1.716 -8.257,5.146 0.657,-0.186 1.31,-0.328 1.957,-0.433 0.645,-0.101 1.277,-0.152 1.896,-0.152 0.942,0 1.882,0.113 2.818,0.338 0.935,0.226 1.701,0.504 2.294,0.831 0.925,0.537 1.654,1.264 2.189,2.188 0.536,0.928 0.8,1.935 0.8,3.023 z m -4.067,-0.061 c 0,-0.657 -0.328,-1.187 -0.985,-1.587 -0.656,-0.4 -1.603,-0.601 -2.833,-0.601 -0.598,0 -1.156,0.037 -1.681,0.108 -0.523,0.071 -0.929,0.18 -1.214,0.323 -0.477,0.185 -0.834,0.432 -1.08,0.741 -0.247,0.307 -0.371,0.646 -0.371,1.017 0,0.698 0.392,1.248 1.171,1.646 0.782,0.402 1.809,0.602 3.082,0.602 1.211,0 2.166,-0.2 2.868,-0.602 0.695,-0.4 1.043,-0.95 1.043,-1.647 z"
       id="path3175"
       style="fill:#ffffff" />
    <path
       style="font-size:42.6667px;line-height:25px;font-family:'Caracteres L4';-inkscape-font-specification:'Caracteres L4';letter-spacing:0px;word-spacing:0px;fill:#ffffff;stroke-width:1px"
       d="m 351.59626,22.854685 -0.9375,4.708337 -12.31251,-0.02083 -1.45833,6.500004 q 2.54166,-2.312501 6.33333,-2.104168 3.47917,0.4375 5.12501,2.687502 2.83333,3.687503 0.72916,9.895841 -0.8125,2.520835 -2.95833,4.66667 -3.1875,3.250002 -7.50001,3.250002 -0.3125,0 -0.625,-0.02083 -3.14583,-0.333334 -5.35417,-2.000001 -3.14583,-2.500002 -3.1875,-6.645839 l 5.625,-0.04167 q -0.0625,1.562501 1.02084,2.645835 2.64583,1.833335 5.97917,-0.145834 2.16667,-1.875001 2.54167,-4.187503 0.6875,-4.104169 -1.6875,-5.854171 -2.64584,-1.270834 -4.77084,-0.0625 -1.625,0.979168 -2.3125,3.104169 h -5.18751 l 3.70834,-16.375012 z m 7.66667,23.645851 q 1.16667,0.937501 2.64584,0.854167 0.9375,0 1.77083,-0.5 1.97917,-1.083334 2.8125,-2.729169 1.93751,-3.937503 2.70834,-7.791672 0.54167,-2.541669 0.54167,-4.312503 0,-4.10417 -3.72917,-4.10417 -4.04167,0 -6.72917,6.937505 -1.31251,4.770837 -1.31251,7.687506 0,2.895835 1.29167,3.958336 z m 6.85417,-23.687518 h 0.0625 q 5.27084,0 7.56251,3.895837 1.16667,2.520835 1.16667,5.937504 0,2.395835 -0.5625,5.208337 -2.08334,9.791674 -6.87501,12.87501 -2.3125,1.750001 -5.85417,1.750001 -0.41667,0 -0.85417,-0.02083 -5.5625,-0.3125 -7.66667,-6.187505 -0.47917,-1.895835 -0.47917,-4.04167 0,-4.875003 2.54167,-11.000008 1.85417,-4.520836 4.95834,-6.666671 2.52083,-1.687502 6,-1.750002 z m 16.93752,23.687518 q 1.16667,0.937501 2.64583,0.854167 0.93751,0 1.77084,-0.5 1.97917,-1.083334 2.8125,-2.729169 1.9375,-3.937503 2.70834,-7.791672 0.54166,-2.541669 0.54166,-4.312503 0,-4.10417 -3.72917,-4.10417 -4.04167,0 -6.72917,6.937505 -1.3125,4.770837 -1.3125,7.687506 0,2.895835 1.29167,3.958336 z m 6.85417,-23.687518 h 0.0625 q 5.27084,0 7.56251,3.895837 1.16666,2.520835 1.16666,5.937504 0,2.395835 -0.5625,5.208337 -2.08333,9.791674 -6.875,12.87501 -2.3125,1.750001 -5.85417,1.750001 -0.41667,0 -0.85417,-0.02083 -5.5625,-0.3125 -7.66667,-6.187505 -0.47917,-1.895835 -0.47917,-4.04167 0,-4.875003 2.54167,-11.000008 1.85417,-4.520836 4.95834,-6.666671 2.52083,-1.687502 6,-1.750002 z m 25.72918,8.979174 h 4.79167 l -0.39583,3.479169 q 2.27083,-3.104169 4.5625,-3.562503 0.58334,-0.0625 1.08334,-0.0625 1.45833,0 2.16667,0.500001 1.91666,1.229167 2,4.062503 3.45833,-4.22917 5.45833,-4.333337 0.58334,-0.166667 1.08334,-0.166667 1.45833,0 2.22917,0.500001 1.4375,0.958334 1.89583,2.500002 0.3125,1.208334 0.3125,2.645835 0,1.062501 -0.1875,2.250002 l -2.41667,12.854176 h -5.125 l 2.39583,-12.62501 q 0.39584,-2.125001 -0.33333,-3.312502 -1.70833,-1.041668 -3.70834,0.541667 -1.35416,1.291668 -2.125,4.562503 l -1.8125,10.791675 h -5.125 l 2.39583,-12.625009 q 0.39584,-2.125002 -0.5,-3.145836 -1.54166,-1.208334 -3.3125,0.375 -1.35417,1.291668 -2.125,4.562504 l -2,10.833341 h -4.83334 l 3.33334,-18.125013 z"
       id="text4675"
       aria-label="500 m" />
    <g
       id="text4679"
       style="font-size:42.6667px;line-height:25px;font-family:Haettenschweiler;-inkscape-font-specification:Haettenschweiler;letter-spacing:0px;word-spacing:0px;fill:none;stroke:#000000;stroke-width:1px"
       aria-label="Destinació 1&#10;&#10;Destinació 2">
      <path
         style="font-family:'Highway Gothic Wide';-inkscape-font-specification:'Highway Gothic Wide';fill:#ffffff;stroke:none"
         d="m 227.09169,124.98099 q 0,8.78934 -6.912,12.62934 -3.11467,1.70667 -6.74134,1.70667 h -9.21601 v -28.58669 h 9.21601 q 3.66933,0 6.82667,1.83467 6.82667,3.88267 6.82667,12.41601 z m -5.12,0 q 0,-5.67467 -4.22401,-8.02134 -1.96266,-1.10933 -4.30933,-1.10933 h -4.01067 V 134.197 h 4.01067 q 2.09067,0 4.096,-1.10934 4.43734,-2.38933 4.43734,-8.10667 z m 27.51999,5.504 h -12.75735 q 0.17067,2.21867 1.45067,3.41334 1.32267,1.19467 2.688,1.19467 1.74934,0 3.45601,-1.62134 l 3.15733,3.15734 q -2.688,3.2 -6.61334,3.2 -3.84,0 -6.528,-3.11467 -2.64534,-3.15733 -2.64534,-7.72267 0,-4.52267 2.60267,-7.68001 2.60267,-3.15733 6.35734,-3.15733 4.43734,0.0427 6.61334,3.41333 2.176,3.37067 2.21867,7.42401 z m -5.03467,-4.01066 q -0.0853,-1.66401 -1.19467,-2.73067 -1.06667,-1.06667 -2.47467,-1.024 -1.57867,-0.0427 -2.73067,1.10933 -1.10933,1.10933 -1.152,2.64534 z m 25.72805,6.912 q -0.0427,2.816 -2.38933,4.608 -2.34667,1.74934 -6.14401,1.79201 -5.07733,-0.0853 -9.30134,-2.47467 l 2.30401,-4.43734 q 3.62666,2.09067 6.86933,2.13333 2.09067,0 2.85867,-0.512 0.81067,-0.512 0.81067,-1.408 0,-0.93866 -0.768,-1.408 -0.768,-0.46933 -3.11467,-0.896 -4.69334,-0.81067 -6.35734,-2.47467 -1.62133,-1.70666 -1.57867,-3.62667 -0.0427,-2.73066 2.13334,-4.65067 2.176,-1.96266 5.888,-1.96266 4.18134,0 8.02134,2.26133 l -2.09067,4.13867 q -2.64533,-1.49333 -5.80267,-1.664 -1.87733,0.0427 -2.51733,0.46933 -0.64,0.384 -0.64,1.06667 -0.0427,0.68267 0.59733,1.024 0.68267,0.34133 2.56,0.59733 4.43734,0.55467 6.52801,2.43201 2.09067,1.83466 2.13333,4.992 z m 15.91469,0.512 -1.49333,5.376 q -1.28,0.51201 -2.816,0.55467 -2.43201,0 -3.84001,-1.83467 -1.36533,-1.87733 -1.36533,-4.608 v -10.02667 h -3.41334 v -4.77867 h 3.41334 v -5.71734 l 5.20534,-2.60267 v 8.32001 h 4.30933 v 4.77867 h -4.30933 v 9.77067 q 0.128,1.96267 1.83466,1.92 1.19467,0.0853 2.47467,-1.152 z m 9.55736,-21.16268 q 0,1.10933 -0.768,1.87733 -0.768,0.768 -1.792,0.768 -1.10933,0 -1.83467,-0.72533 -0.72533,-0.72533 -0.72533,-1.92 0,-1.024 0.72533,-1.74934 0.768,-0.72533 1.83467,-0.72533 1.024,0 1.792,0.72533 0.768,0.72534 0.768,1.74934 z m 0,5.71734 V 139.317 h -5.12 v -20.86401 z m 4.43737,0.128 h 4.82133 v 1.62133 q 1.92,-1.92 5.07734,-1.92 3.37067,0 5.46134,2.34667 2.13333,2.304 2.176,6.016 V 139.317 h -5.12 v -12.41601 q 0,-1.664 -1.02401,-2.73067 -0.98133,-1.06666 -2.688,-1.06666 -1.536,0 -2.73067,1.152 -1.152,1.10933 -1.152,2.56 V 139.317 h -4.82133 z m 38.6134,20.73601 h -4.82134 v -0.896 q -2.26133,1.28 -5.12,1.28 -3.66934,0 -5.58934,-2.048 -1.92,-2.09067 -1.92,-5.248 0,-3.24267 2.26133,-5.03467 2.30401,-1.79201 5.76001,-1.79201 2.34667,0 4.56534,0.64 -0.0853,-3.24266 -3.54134,-3.456 -2.56,-0.0427 -5.03467,1.49334 l -2.38934,-3.79734 q 3.84001,-2.51733 7.50934,-2.51733 3.54134,0 5.93067,2.432 2.38934,2.432 2.38934,6.31467 z m -4.82134,-5.07734 v -3.49867 q -2.47467,-0.68266 -4.352,-0.68266 -1.74934,0 -2.73067,0.768 -0.98133,0.768 -0.98133,1.83467 0,1.10933 0.93866,1.92 0.93867,0.81067 2.64534,0.81067 1.92,0 4.48,-1.15201 z m 25.60006,1.66401 q -3.15733,3.92533 -7.72267,3.92533 -4.30934,0 -7.12534,-3.072 -2.816,-3.11467 -2.816,-7.85067 0,-4.73601 2.816,-7.85068 2.816,-3.11466 7.12534,-3.11466 4.56534,0 7.72267,3.92533 l -3.02933,3.02934 q -2.00534,-1.87734 -4.60801,-2.00534 -2.26133,0 -3.712,1.70667 -1.408,1.664 -1.408,4.30934 0,2.60267 1.408,4.30933 1.45067,1.70667 3.712,1.70667 2.60267,-0.21333 4.30934,-2.34667 z m 9.08804,-23.16802 q 0,1.10933 -0.768,1.87733 -0.768,0.768 -1.792,0.768 -1.10934,0 -1.83467,-0.72533 -0.72534,-0.72533 -0.72534,-1.92 0,-1.024 0.72534,-1.74934 0.768,-0.72533 1.83467,-0.72533 1.024,0 1.792,0.72533 0.768,0.72534 0.768,1.74934 z m 0,5.71734 V 139.317 h -5.12001 v -20.86401 z m 22.35739,10.45334 q 0,4.52267 -2.688,7.72267 -2.64534,3.2 -6.44267,3.2 -3.84001,0 -6.48534,-3.2 -2.64534,-3.2 -2.64534,-7.72267 0,-4.56534 2.64534,-7.76534 2.64533,-3.2 6.48534,-3.2 3.79733,0 6.44267,3.2 2.688,3.2 2.688,7.76534 z m -4.94934,0 q 0,-2.56 -1.152,-4.18134 -1.152,-1.664 -2.98667,-1.664 -1.92,0 -3.072,1.664 -1.152,1.664 -1.152,4.18134 0,2.51733 1.152,4.224 1.152,1.664 3.072,1.664 1.83467,0 2.98667,-1.664 1.152,-1.70667 1.152,-4.224 z m -8.448,-11.90401 2.944,-5.84534 h 5.54667 l -5.20534,5.84534 z m 37.5467,22.31468 h -5.03467 v -21.37601 h -3.584 v -4.30934 q 3.11467,-0.64 4.52267,-2.90134 h 4.096 z"
         id="path1" />
      <path
         style="font-family:'Highway Gothic Wide';-inkscape-font-specification:'Highway Gothic Wide';fill:#ffffff;stroke:none"
         d="m 227.09169,179.90348 q 0,8.78934 -6.912,12.62934 -3.11467,1.70667 -6.74134,1.70667 h -9.21601 V 165.6528 h 9.21601 q 3.66933,0 6.82667,1.83467 6.82667,3.88267 6.82667,12.41601 z m -5.12,0 q 0,-5.67467 -4.22401,-8.02134 -1.96266,-1.10933 -4.30933,-1.10933 h -4.01067 v 18.34668 h 4.01067 q 2.09067,0 4.096,-1.10934 4.43734,-2.38933 4.43734,-8.10667 z m 27.51999,5.504 h -12.75735 q 0.17067,2.21867 1.45067,3.41334 1.32267,1.19467 2.688,1.19467 1.74934,0 3.45601,-1.62134 l 3.15733,3.15734 q -2.688,3.2 -6.61334,3.2 -3.84,0 -6.528,-3.11467 -2.64534,-3.15733 -2.64534,-7.72267 0,-4.52267 2.60267,-7.68001 2.60267,-3.15733 6.35734,-3.15733 4.43734,0.0427 6.61334,3.41333 2.176,3.37067 2.21867,7.42401 z m -5.03467,-4.01067 q -0.0853,-1.664 -1.19467,-2.73066 -1.06667,-1.06667 -2.47467,-1.02401 -1.57867,-0.0427 -2.73067,1.10934 -1.10933,1.10933 -1.152,2.64533 z m 25.72805,6.91201 q -0.0427,2.816 -2.38933,4.608 -2.34667,1.74934 -6.14401,1.792 -5.07733,-0.0853 -9.30134,-2.47466 l 2.30401,-4.43734 q 3.62666,2.09067 6.86933,2.13333 2.09067,0 2.85867,-0.512 0.81067,-0.512 0.81067,-1.408 0,-0.93867 -0.768,-1.408 -0.768,-0.46933 -3.11467,-0.896 -4.69334,-0.81067 -6.35734,-2.47467 -1.62133,-1.70667 -1.57867,-3.62667 -0.0427,-2.73067 2.13334,-4.65067 2.176,-1.96267 5.888,-1.96267 4.18134,0 8.02134,2.26134 l -2.09067,4.13867 q -2.64533,-1.49334 -5.80267,-1.664 -1.87733,0.0427 -2.51733,0.46933 -0.64,0.384 -0.64,1.06667 -0.0427,0.68267 0.59733,1.024 0.68267,0.34133 2.56,0.59733 4.43734,0.55467 6.52801,2.43201 2.09067,1.83466 2.13333,4.992 z m 15.91469,0.512 -1.49333,5.376 q -1.28,0.512 -2.816,0.55467 -2.43201,0 -3.84001,-1.83467 -1.36533,-1.87733 -1.36533,-4.608 v -10.02668 h -3.41334 v -4.77867 h 3.41334 v -5.71733 l 5.20534,-2.60267 v 8.32 h 4.30933 v 4.77867 h -4.30933 v 9.77068 q 0.128,1.96267 1.83466,1.92 1.19467,0.0853 2.47467,-1.152 z m 9.55736,-21.16268 q 0,1.10933 -0.768,1.87733 -0.768,0.768 -1.792,0.768 -1.10933,0 -1.83467,-0.72533 -0.72533,-0.72534 -0.72533,-1.92 0,-1.024 0.72533,-1.74934 0.768,-0.72533 1.83467,-0.72533 1.024,0 1.792,0.72533 0.768,0.72534 0.768,1.74934 z m 0,5.71733 v 20.86402 h -5.12 v -20.86402 z m 4.43737,0.128 h 4.82133 v 1.62134 q 1.92,-1.92 5.07734,-1.92 3.37067,0 5.46134,2.34667 2.13333,2.304 2.176,6.016 v 12.67201 h -5.12 v -12.41601 q 0,-1.664 -1.02401,-2.73067 -0.98133,-1.06667 -2.688,-1.06667 -1.536,0 -2.73067,1.15201 -1.152,1.10933 -1.152,2.56 v 12.50134 h -4.82133 z m 38.6134,20.73602 h -4.82134 v -0.896 q -2.26133,1.28 -5.12,1.28 -3.66934,0 -5.58934,-2.048 -1.92,-2.09067 -1.92,-5.24801 0,-3.24266 2.26133,-5.03467 2.30401,-1.792 5.76001,-1.792 2.34667,0 4.56534,0.64 -0.0853,-3.24267 -3.54134,-3.456 -2.56,-0.0427 -5.03467,1.49334 l -2.38934,-3.79734 q 3.84001,-2.51734 7.50934,-2.51734 3.54134,0 5.93067,2.43201 2.38934,2.432 2.38934,6.31467 z m -4.82134,-5.07734 v -3.49867 q -2.47467,-0.68266 -4.352,-0.68266 -1.74934,0 -2.73067,0.768 -0.98133,0.768 -0.98133,1.83467 0,1.10933 0.93866,1.92 0.93867,0.81066 2.64534,0.81066 1.92,0 4.48,-1.152 z m 25.60006,1.664 q -3.15733,3.92534 -7.72267,3.92534 -4.30934,0 -7.12534,-3.072 -2.816,-3.11467 -2.816,-7.85067 0,-4.73601 2.816,-7.85068 2.816,-3.11467 7.12534,-3.11467 4.56534,0 7.72267,3.92534 l -3.02933,3.02934 q -2.00534,-1.87734 -4.60801,-2.00534 -2.26133,0 -3.712,1.70667 -1.408,1.664 -1.408,4.30934 0,2.60266 1.408,4.30933 1.45067,1.70667 3.712,1.70667 2.60267,-0.21333 4.30934,-2.34667 z m 9.08804,-23.16801 q 0,1.10933 -0.768,1.87733 -0.768,0.768 -1.792,0.768 -1.10934,0 -1.83467,-0.72533 -0.72534,-0.72534 -0.72534,-1.92 0,-1.024 0.72534,-1.74934 0.768,-0.72533 1.83467,-0.72533 1.024,0 1.792,0.72533 0.768,0.72534 0.768,1.74934 z m 0,5.71733 v 20.86402 h -5.12001 v -20.86402 z m 22.35739,10.45335 q 0,4.52267 -2.688,7.72267 -2.64534,3.2 -6.44267,3.2 -3.84001,0 -6.48534,-3.2 -2.64534,-3.2 -2.64534,-7.72267 0,-4.56534 2.64534,-7.76534 2.64533,-3.20001 6.48534,-3.20001 3.79733,0 6.44267,3.20001 2.688,3.2 2.688,7.76534 z m -4.94934,0 q 0,-2.56001 -1.152,-4.18134 -1.152,-1.664 -2.98667,-1.664 -1.92,0 -3.072,1.664 -1.152,1.664 -1.152,4.18134 0,2.51733 1.152,4.224 1.152,1.664 3.072,1.664 1.83467,0 2.98667,-1.664 1.152,-1.70667 1.152,-4.224 z m -8.448,-11.90401 2.944,-5.84534 h 5.54667 l -5.20534,5.84534 z m 50.73071,22.31468 h -23.04002 q 0.85334,-11.22134 11.69068,-15.78668 2.816,-1.152 4.608,-2.21867 1.792,-1.10933 1.664,-2.56 0,-1.408 -1.408,-2.34667 -1.408,-0.98133 -4.39467,-1.024 -4.48,0.128 -7.93601,3.584 l -4.13866,-3.328 q 5.16267,-5.29067 11.94667,-5.376 5.03467,0 8.02134,2.51733 2.98667,2.47467 2.98667,5.97334 -0.0427,3.02934 -1.62134,4.82134 -1.57866,1.74933 -6.016,3.66933 -7.04001,3.37067 -8.40534,6.95468 h 16.04268 z"
         id="path2" />
    </g>
  </g>
</svg>
