<?xml version="1.0" encoding="UTF-8" standalone="no"?>
<svg
   version="1.2"
   width="474.43301"
   height="154.78897"
   id="svg2"
   sodipodi:docname="ES_CAT_LOC520.svg"
   inkscape:version="1.3.2 (091e20e, 2023-11-25, custom)"
   xmlns:inkscape="http://www.inkscape.org/namespaces/inkscape"
   xmlns:sodipodi="http://sodipodi.sourceforge.net/DTD/sodipodi-0.dtd"
   xmlns="http://www.w3.org/2000/svg"
   xmlns:svg="http://www.w3.org/2000/svg"
   xmlns:rdf="http://www.w3.org/1999/02/22-rdf-syntax-ns#"
   xmlns:cc="http://creativecommons.org/ns#"
   xmlns:dc="http://purl.org/dc/elements/1.1/">
  <sodipodi:namedview
     pagecolor="#ffffff"
     bordercolor="#666666"
     borderopacity="1"
     objecttolerance="10"
     gridtolerance="10"
     guidetolerance="10"
     inkscape:pageopacity="0"
     inkscape:pageshadow="2"
     inkscape:window-width="1920"
     inkscape:window-height="1017"
     id="namedview906"
     showgrid="false"
     inkscape:zoom="2.280617"
     inkscape:cx="257.82497"
     inkscape:cy="109.40022"
     inkscape:window-x="-8"
     inkscape:window-y="-8"
     inkscape:window-maximized="1"
     inkscape:current-layer="layer3"
     fit-margin-top="0"
     fit-margin-left="0"
     fit-margin-right="0"
     fit-margin-bottom="0"
     inkscape:document-rotation="0"
     inkscape:showpageshadow="false"
     inkscape:pagecheckerboard="true"
     inkscape:deskcolor="#d1d1d1" />
  <metadata
     id="metadata3197">
    <rdf:RDF>
      <cc:Work
         rdf:about="">
        <dc:format>image/svg+xml</dc:format>
        <dc:type
           rdf:resource="http://purl.org/dc/dcmitype/StillImage" />
        <dc:title />
      </cc:Work>
    </rdf:RDF>
  </metadata>
  <defs
     id="defs3195" />
  <g
     inkscape:groupmode="layer"
     id="layer8"
     inkscape:label="Layer 4"
     transform="translate(167.22381,43.18159)">
    <path
       d="m 307.20919,80.06918 c 0,17.41595 4.18988,31.07672 -17.68911,31.09972 l -417.13089,0.43848 c -21.87899,0.023 -40.23278,2.53896 -40.05148,-14.876042 l 1.31544,-126.35391 c 0.18139,-17.422971 16.85704,-13.559018 38.73604,-13.559018 h 395.207 c 21.879,0 39.613,-2.987145 39.613,14.435974 V 80.06918"
       id="path3113"
       style="display:inline;fill:#a1522c;fill-opacity:1;stroke-width:1"
       sodipodi:nodetypes="csssssssc" />
    <path
       d="m 299.08371,82.56043 c -0.0952,18.39575 -14.57852,17.08932 -33.10152,17.08932 H -127.5222 c -18.525,0 -30.8355,4.37487 -30.91113,-14.019975 l -0.43848,-106.639912 c -0.0757,-18.399844 7.56292,-13.544474 26.08788,-13.583497 L 283.5213,-35.47059 c 18.52296,-0.03902 16.09612,14.915246 16.00089,33.315 z"
       id="path3115"
       style="display:inline;fill:#a1522c;fill-opacity:1;stroke:#ffffff;stroke-width:7.0629;stroke-miterlimit:3.864"
       sodipodi:nodetypes="sssssssss" />
  </g>
  <g
     inkscape:groupmode="layer"
     id="layer3"
     inkscape:label="Layer 1"
     style="display:inline">
    <text
       xml:space="preserve"
       style="font-style:normal;font-variant:normal;font-weight:normal;font-stretch:normal;font-size:26.5011px;line-height:15.528px;font-family:Ccrige;-inkscape-font-specification:Ccrige;letter-spacing:0.552106px;word-spacing:0px;fill:#ffffff;stroke:none;stroke-width:1px;stroke-linecap:butt;stroke-linejoin:miter;stroke-opacity:1"
       x="165.89876"
       y="61.705864"
       id="text1502"><tspan
         sodipodi:role="line"
         id="tspan1500"
         x="165.89876"
         y="61.705864"
         style="stroke-width:1px"> </tspan></text>
    <path
       style="font-size:57.1103px;line-height:33.4633px;font-family:Ccrige;-inkscape-font-specification:Ccrige;letter-spacing:2.29461px;word-spacing:0px;fill:#ffffff;stroke-width:1px"
       d="m 76.922895,78.294332 -0.01428,0.09994 q -1.356369,6.35352 -7.724168,7.681335 -8.466601,0.513992 -10.551127,-7.724168 -0.985153,-4.740155 0.01428,-9.48031 1.313537,-6.624794 7.952609,-7.866943 8.438047,-0.271274 10.279854,7.966886 l 8.695043,-3.683614 Q 82.405483,56.578141 73.667608,53.479907 56.87718,49.667795 50.009667,65.444514 q -2.798405,8.152496 -0.09994,16.319268 3.141066,8.837819 11.964607,11.978885 16.861816,3.8835 23.814995,-11.95033 l 0.02856,-0.142775 -8.794986,-3.35523 z M 96.25061,90.801487 q 10.2513,7.938331 20.48832,-0.02855 3.45517,-3.412341 4.19761,-8.195328 0.38549,-2.812682 0.0857,-5.639642 -0.61393,-4.611657 -3.58367,-8.195328 -0.78527,-0.913765 -1.69903,-1.699031 -10.97946,-7.70989 -20.602541,1.641921 l -0.05711,0.07139 q -2.912626,3.597949 -3.412341,8.209605 -0.442605,2.798405 0.171331,5.568254 0.713879,4.868653 4.340383,8.209606 l 0.07139,0.05711 z m 15.83383,-13.863525 q 0.54255,2.812682 -0.0571,5.611087 -0.97088,3.141066 -4.11194,4.097664 -5.31126,0.94232 -7.21018,-4.097664 -0.65677,-2.784127 -0.15705,-5.611087 0.85665,-3.969166 4.82582,-4.840098 5.35409,-0.356939 6.71046,4.840098 z m 15.87254,9.266146 q -0.0286,6.167912 5.81097,8.12394 4.65449,0.842377 9.20903,-0.41405 l -0.81382,-8.466602 q -1.72758,0.913765 -3.66933,0.742434 -0.0143,0 -0.0286,0 -1.24215,-0.256996 -1.22787,-1.5277 l 0.0143,-30.939504 -9.33754,-0.01428 v 32.452927 l 0.0428,0.04283 z m 20.84123,0 q -0.0286,6.167912 5.81097,8.12394 4.65449,0.842377 9.20904,-0.41405 l -0.81383,-8.466602 q -1.72758,0.913765 -3.66933,0.742434 -0.0143,0 -0.0286,0 -1.24215,-0.256996 -1.22787,-1.5277 l 0.0143,-30.939504 -9.33753,-0.01428 v 32.452927 l 0.0428,0.04283 z m 50.26322,-15.762442 q -6.13935,10.965177 2.31297,20.274155 7.36723,6.410631 16.03372,1.898918 l 0.47116,1.256426 8.43804,-0.02856 -0.0143,-37.978348 h -9.16621 l -0.0285,9.737306 q -4.92576,-2.812682 -10.33697,-1.113651 -4.85437,1.684754 -7.70989,5.953749 z m 18.03258,6.382075 q 0.11422,2.255857 0,4.525992 -0.81382,4.254717 -5.08282,4.997151 -5.31125,0.09994 -6.38207,-5.082817 -0.15705,-2.227302 0.0857,-4.426048 0.84238,-3.926333 4.76871,-4.76871 5.28271,-0.371217 6.61052,4.754432 z m 15.0159,7.310119 q 2.58424,8.580822 11.35067,10.408351 9.02343,1.213594 15.87666,-4.782987 l -5.95375,-5.996581 q -2.91262,2.569963 -6.79612,2.784127 -4.38322,0.11422 -5.91092,-3.997721 h 19.06056 q 0.71388,-4.340383 -0.72815,-8.480879 -4.35466,-10.922345 -16.048,-9.680196 l -0.12849,0.02855 q -7.99545,1.699031 -10.60824,9.423199 l -0.0286,0.08567 q -1.41348,5.097094 -0.0857,10.208466 z m 8.63793,-8.352382 q 0.81382,-2.926902 3.755,-3.755002 4.61166,-0.642491 6.1108,3.755002 h -9.8658 z m 25.58139,10.42263 q -0.0286,6.167912 5.81097,8.12394 4.65449,0.842377 9.20904,-0.41405 l -0.81382,-8.466602 q -1.72759,0.913765 -3.66934,0.742434 -0.0143,0 -0.0286,0 -1.24214,-0.256996 -1.22787,-1.5277 l 0.0143,-30.939504 -9.33753,-0.01428 v 32.452927 l 0.0428,0.04283 z m 44.13813,7.667057 h 22.45863 q 5.42547,-0.870932 8.35238,-5.539699 4.5831,-9.59453 -3.99772,-15.876662 3.66933,-3.055401 4.01199,-7.809834 -0.39977,-9.837249 -10.13707,-11.279284 l -20.70249,-0.04283 v 0.07139 l 0.0143,40.476923 z m 9.38037,-24.857257 0.0143,-7.210175 h 8.45232 q 0.51399,-0.02856 0.98515,0.171331 1.38493,0.613936 1.98458,1.99886 1.02799,3.269565 -1.99886,4.897208 -0.47116,0.128499 -0.97087,0.157054 l -8.4666,-0.01428 z m 0.0285,16.290713 v -8.495157 h 8.9806 q 0.81382,-0.08567 1.58481,0.228441 2.27013,0.956598 2.72701,3.369508 0.22845,3.954888 -3.59794,4.911485 l -9.69448,-0.01428 z m 39.67344,8.566544 V 78.294332 q 0.22844,-2.270135 1.85608,-3.869223 3.34095,-2.227302 7.23873,-1.213594 l 0.0286,-9.894359 q -5.0971,-0.41405 -9.22332,2.612796 l -0.24272,-1.970305 -9.1662,0.02856 v 29.882963 h 9.50887 z m 15.95823,-9.209035 q 0.48544,2.627074 2.02742,4.797265 7.21017,8.352381 16.76187,2.812682 l 0.72816,1.556256 h 8.05255 V 64.288031 l -9.43748,-0.01428 v 16.276435 q 0.0571,0.870932 -0.24272,1.713309 -0.72815,1.970306 -2.71273,2.698462 -3.86923,0.913765 -5.49687,-2.727017 -0.37122,-0.985153 -0.35694,-2.041693 l -0.0143,-15.919496 -9.2947,0.01428 -0.0143,20.374099 z m 37.57447,1.299259 q 5.81097,10.865234 17.68991,7.65278 6.25358,-2.541408 8.50944,-8.909206 l -7.99544,-2.926903 q -0.37122,3.597949 -3.78356,4.811542 -4.79727,0.970875 -6.63907,-3.569393 -1.14221,-4.126219 0.1856,-8.195328 1.31354,-2.898348 4.48316,-3.226732 4.81155,0.114221 5.58253,4.868653 l 0.0143,0.07139 8.024,-2.998291 -0.0571,-0.142775 q -2.56996,-6.753293 -9.46603,-8.937762 -10.77957,-2.498576 -16.26216,7.12451 -2.99829,7.124509 -0.28555,14.377517 z"
       id="text1502-7"
       transform="scale(0.99231582,1.0077437)"
       aria-label="Coll del Bruc" />
  </g>
  <g
     inkscape:groupmode="layer"
     id="layer5"
     inkscape:label="Layer 3"
     style="display:inline">
    <text
       xml:space="preserve"
       style="font-size:42.6667px;line-height:25px;font-family:'Andale Mono IPA';-inkscape-font-specification:'Andale Mono IPA';letter-spacing:0px;word-spacing:0px;fill:none;stroke:#000000;stroke-width:1px;stroke-linecap:butt;stroke-linejoin:miter;stroke-opacity:1"
       x="133.73573"
       y="169.69092"
       id="text1522"><tspan
         sodipodi:role="line"
         id="tspan1520"
         x="133.73573"
         y="169.69092" /></text>
  </g>
</svg>
