<?xml version="1.0" encoding="UTF-8" standalone="no"?>
<svg
   version="1.2"
   width="373.85117"
   height="121.57835"
   id="svg2"
   sodipodi:docname="ES_CAT_OR44b.svg"
   inkscape:version="1.3.2 (091e20e, 2023-11-25, custom)"
   xmlns:inkscape="http://www.inkscape.org/namespaces/inkscape"
   xmlns:sodipodi="http://sodipodi.sourceforge.net/DTD/sodipodi-0.dtd"
   xmlns="http://www.w3.org/2000/svg"
   xmlns:svg="http://www.w3.org/2000/svg"
   xmlns:rdf="http://www.w3.org/1999/02/22-rdf-syntax-ns#"
   xmlns:cc="http://creativecommons.org/ns#"
   xmlns:dc="http://purl.org/dc/elements/1.1/">
  <sodipodi:namedview
     pagecolor="#ffffff"
     bordercolor="#666666"
     borderopacity="1"
     objecttolerance="10"
     gridtolerance="10"
     guidetolerance="10"
     inkscape:pageopacity="0"
     inkscape:pageshadow="2"
     inkscape:window-width="1920"
     inkscape:window-height="1017"
     id="namedview5859"
     showgrid="false"
     inkscape:zoom="1.5115134"
     inkscape:cx="187.22956"
     inkscape:cy="104.2002"
     inkscape:window-x="-8"
     inkscape:window-y="-8"
     inkscape:window-maximized="1"
     inkscape:current-layer="svg2"
     fit-margin-top="0"
     fit-margin-left="0"
     fit-margin-right="0"
     fit-margin-bottom="0"
     inkscape:document-rotation="0"
     inkscape:pagecheckerboard="true"
     inkscape:showpageshadow="2"
     inkscape:deskcolor="#d1d1d1" />
  <metadata
     id="metadata3125">
    <rdf:RDF>
      <cc:Work
         rdf:about="">
        <dc:format>image/svg+xml</dc:format>
        <dc:type
           rdf:resource="http://purl.org/dc/dcmitype/StillImage" />
        <dc:title />
      </cc:Work>
    </rdf:RDF>
  </metadata>
  <defs
     id="defs3123" />
  <g
     id="g3182"
     transform="translate(-5.201316,-74.102468)">
    <path
       d="m 376.16586,171.75218 c 0,5.86268 0.24113,14.28526 -0.63631,18.04828 -0.88501,3.79551 -2.91418,2.90646 -8.92592,2.91258 L 17.011951,193.06918 C 5.0439572,193.08137 8.0994571,194.9245 8.163,183.14867 l 0.3561402,-66.00022 c 0.063532,-11.77383 7.2100448,-9.94095 19.1770188,-9.91551 l 334.990931,0.71228 c 11.97197,0.0255 13.47977,-1.85949 13.47977,9.91551 v 53.89145 z"
       id="path3101"
       style="fill:#ffffff;fill-opacity:1;stroke:#000000;stroke-width:5;stroke-miterlimit:3.864;stroke-opacity:1"
       sodipodi:nodetypes="csssssssscc" />
    <g
       id="g3115">
      <g
         id="g3117" />
    </g>
    <path
       d="m 31.67895,160.70029 h 4.693337 q 1.408001,0 2.602669,-0.59733 1.194667,-0.59734 2.005335,-1.664 0.853334,-1.10934 1.322667,-2.60267 0.469334,-1.536 0.469334,-3.37067 0,-1.83467 -0.469334,-3.37067 -0.469333,-1.536 -1.322667,-2.60267 -0.810668,-1.10933 -2.005335,-1.70667 -1.194668,-0.59733 -2.602669,-0.59733 H 31.67895 Z m 4.693337,-22.48535 q 2.944002,0 5.376004,1.06667 2.432002,1.024 4.181337,2.90133 1.749334,1.87734 2.688002,4.48001 0.981334,2.60267 0.981334,5.76 0,3.15734 -0.981334,5.80267 -0.938668,2.60267 -2.688002,4.48001 -1.749335,1.87733 -4.181337,2.944 -2.432002,1.024 -5.376004,1.024 H 25.150945 v -28.45869 z m 39.125333,5.67467 H 62.398944 v 5.16267 h 11.690675 v 5.97334 H 62.398944 v 5.37601 h 14.378677 v 6.272 H 55.870939 V 138.21494 H 75.49762 Z m 27.17866,2.60267 q -1.45067,-1.19467 -3.456005,-1.87733 -1.962669,-0.72534 -3.88267,-0.72534 -1.493334,0 -2.389335,0.64 -0.896001,0.64 -0.896001,1.664 0,0.76801 0.554667,1.23734 0.597334,0.46933 1.877335,0.768 l 3.242669,0.768 q 4.65067,1.06667 7.04001,3.456 2.38933,2.38934 2.38933,5.97334 0,2.00534 -0.85333,3.66934 -0.81067,1.664 -2.34667,2.85867 -1.49334,1.152 -3.584,1.792 -2.090673,0.68266 -4.608008,0.68266 -4.13867,0 -7.808006,-1.62133 -3.669336,-1.664 -6.058671,-4.608 l 5.674671,-4.13867 q 1.194667,1.83466 3.456002,2.90133 2.261335,1.06667 4.949337,1.06667 1.621335,0 2.602669,-0.72534 1.024001,-0.72533 1.024001,-1.92 0,-0.93866 -0.768001,-1.536 -0.725334,-0.59733 -2.346668,-1.06667 l -3.925336,-0.98133 q -1.621335,-0.46933 -2.688002,-0.85333 -1.066668,-0.384 -1.877335,-0.896 -1.706668,-1.10934 -2.688002,-2.90134 -0.938668,-1.792 -0.938668,-3.88267 0,-1.92 0.725334,-3.456 0.768001,-1.57867 2.090669,-2.688 1.365334,-1.10934 3.285335,-1.70667 1.920002,-0.59734 4.309337,-0.59734 7.168002,0 12.714672,4.77868 z m 31.95736,-2.304 h -8.27734 v 22.48535 h -6.52801 v -22.48535 h -8.23467 v -5.97334 h 23.04002 z m 11.52,22.48535 h -6.528 v -28.45869 h 6.528 z M 173.631,156.47629 v -18.26135 h 6.40001 v 28.45869 h -7.12534 l -12.07468,-18.04801 v 18.04801 h -6.4 v -28.45869 h 7.12534 z m 24.61869,-10.24001 -3.11467,9.94134 h 6.44267 z m 13.78134,20.43735 h -6.912 l -1.45067,-4.39467 h -10.45334 l -1.32267,4.39467 h -6.74134 l 8.91734,-28.45869 h 8.23467 z m 29.39733,-8.23467 q -1.74934,4.30933 -5.12001,6.656 -3.37067,2.304 -7.89334,2.304 -3.11467,0 -5.67467,-1.06666 -2.56,-1.10934 -4.43733,-3.07201 -1.83467,-1.96266 -2.85867,-4.69333 -1.024,-2.73067 -1.024,-6.05867 0,-3.20001 0.93866,-5.84534 0.93867,-2.688 2.81601,-4.65067 1.92,-2.048 4.56533,-3.11467 2.64534,-1.10934 5.58934,-1.10934 4.608,0 8.02134,2.34667 3.41333,2.34667 5.03467,6.61334 l -6.82667,2.432 q -0.68267,-2.304 -2.34667,-3.584 -1.62134,-1.28 -3.92534,-1.28 -1.536,0 -2.77333,0.59733 -1.23734,0.55467 -2.13334,1.664 -0.896,1.06667 -1.36533,2.60267 -0.46934,1.49334 -0.46934,3.37067 0,3.92534 1.83467,6.05867 0.896,1.06667 2.21867,1.664 1.36534,0.59734 2.816,0.59734 2.304,0 3.96801,-1.36534 1.70666,-1.408 2.176,-3.62666 z m 12.07466,8.23467 h -6.52801 v -28.45869 h 6.52801 z m 27.22135,-36.60803 -3.79734,6.65601 h -5.58933 l 2.38933,-6.65601 z m -6.61334,14.25068 q -1.49333,0 -2.816,0.64 -1.32267,0.64 -2.304,1.83467 -1.664,2.09067 -1.664,5.80267 0,1.92 0.384,3.328 0.42666,1.36534 1.28,2.47467 0.98133,1.19467 2.304,1.83467 1.32267,0.64 2.85867,0.64 1.49333,0 2.816,-0.64 1.32267,-0.64 2.304,-1.83467 1.664,-2.176 1.664,-5.67467 0,-2.048 -0.42666,-3.41334 -0.384,-1.408 -1.23734,-2.51733 -0.98133,-1.19467 -2.34667,-1.83467 -1.32266,-0.64 -2.816,-0.64 z m 0,-6.52801 q 3.11467,0 5.76001,1.10934 2.64533,1.10933 4.56533,3.24267 3.62667,3.92533 3.62667,10.66667 0,3.20001 -1.024,5.88801 -1.024,2.688 -2.85867,4.65067 -1.83467,1.92 -4.43733,2.98667 -2.56001,1.06666 -5.63201,1.06666 -3.11467,0 -5.67467,-1.06666 -2.56,-1.06667 -4.39467,-3.02934 -1.83467,-1.96267 -2.85867,-4.69334 -0.98133,-2.73066 -0.98133,-6.016 0,-3.28534 1.024,-6.01601 1.024,-2.73066 2.85867,-4.65067 1.83466,-1.96266 4.39467,-3.02933 2.56,-1.10934 5.632,-1.10934 z"
       id="text6487"
       style="font-size:42.6667px;line-height:25px;font-family:TrafficTypeW01-SpainD;-inkscape-font-specification:TrafficTypeW01-SpainD;letter-spacing:0px;word-spacing:0px;stroke-width:1px"
       aria-label="DESTINACIÓ" />
    <path
       id="rect5280"
       style="display:inline;fill:#ff2121;stroke:#ffffff;stroke-width:1.99999;stroke-linecap:round;stroke-linejoin:round;stroke-miterlimit:2.613"
       d="m 164.92816,75.102463 h 72.30058 v 28.312027 h -72.30058 z" />
    <path
       style="font-size:28.1783px;line-height:16.5108px;font-family:TrafficTypeW01-SpainD;-inkscape-font-specification:TrafficTypeW01-SpainD;letter-spacing:0px;word-spacing:0px;fill:#ffffff;stroke-width:0.999997px"
       d="m 190.68288,92.50275 q -1.15531,2.846008 -3.38139,4.395815 -2.22609,1.521628 -5.21299,1.521628 -2.05702,0 -3.74771,-0.704457 -1.6907,-0.732636 -2.93055,-2.028838 -1.21166,-1.296202 -1.88794,-3.099613 -0.67628,-1.803411 -0.67628,-4.001319 0,-2.113372 0.61992,-3.860427 0.61992,-1.775233 1.85977,-3.071435 1.26802,-1.352558 3.01508,-2.057016 1.74705,-0.732636 3.69135,-0.732636 3.04326,0 5.29752,1.549807 2.25427,1.549807 3.32504,4.367637 l -4.50852,1.606163 q -0.45086,-1.521628 -1.54981,-2.366978 -1.07078,-0.845349 -2.59241,-0.845349 -1.01441,0 -1.83158,0.394497 -0.81718,0.366318 -1.40892,1.098953 -0.59174,0.704458 -0.90171,1.718877 -0.30996,0.98624 -0.30996,2.226086 0,2.592403 1.21167,4.001318 0.59174,0.704458 1.46527,1.098954 0.90171,0.394496 1.85977,0.394496 1.52163,0 2.62058,-0.901705 1.12713,-0.929884 1.4371,-2.395156 z m 7.97444,0.648101 h -6.48101 v -3.578644 h 6.48101 z m 10.31329,4.790311 h -4.31128 V 85.627245 h -3.18415 v -3.747714 h 1.66252 q 0.87353,0 1.38074,-0.50721 0.5072,-0.507209 0.5072,-1.380737 v -0.845349 h 3.94497 z m 18.76676,-14.849964 h -8.08717 l -0.19725,1.831589 q 0.67628,-0.281783 1.23985,-0.394496 0.59174,-0.112713 1.32438,-0.112713 1.43709,0 2.67693,0.507209 1.23985,0.50721 2.11338,1.408915 0.9017,0.873527 1.40891,2.113373 0.50721,1.211667 0.50721,2.64876 0,1.577985 -0.53539,2.902365 -0.50721,1.32438 -1.46527,2.282442 -0.92988,0.958063 -2.25426,1.49345 -1.2962,0.535388 -2.84601,0.535388 -1.54981,0 -2.95872,-0.563566 -1.40892,-0.563566 -2.3388,-1.549807 -0.56357,-0.619922 -0.98624,-1.352558 -0.3945,-0.760814 -0.78899,-1.887946 l 4.08585,-1.211667 q 0.87353,2.423334 2.90236,2.423334 1.12714,0 1.85977,-0.788993 0.73264,-0.81717 0.73264,-2.085194 0,-1.32438 -0.73264,-2.169729 -0.73263,-0.845349 -1.88794,-0.845349 -1.46528,0 -2.3388,1.380737 l -4.59307,-0.619923 1.23985,-9.890584 h 11.91942 z"
       id="text5284"
       transform="scale(0.99551619,1.004504)"
       aria-label="C-15" />
  </g>
  <g
     inkscape:groupmode="layer"
     id="layer3"
     inkscape:label="Layer 1">
    <path
       d="m 357.85604,46.13039 -45.429,9.308 18.066,11.492 -32.848,28.457 10.946,10.95 28.468,-32.84 11.493,18.062 9.304,-45.429"
       id="polyline3085"
       style="display:inline;fill:#1c1d20" />
  </g>
</svg>
