<?xml version="1.0" encoding="UTF-8" standalone="no"?>
<svg
   version="1.2"
   width="392"
   height="298"
   id="svg2"
   sodipodi:docname="ES_CAT_radar (2).svg"
   inkscape:version="1.3.2 (091e20e, 2023-11-25, custom)"
   xmlns:inkscape="http://www.inkscape.org/namespaces/inkscape"
   xmlns:sodipodi="http://sodipodi.sourceforge.net/DTD/sodipodi-0.dtd"
   xmlns="http://www.w3.org/2000/svg"
   xmlns:svg="http://www.w3.org/2000/svg"
   xmlns:rdf="http://www.w3.org/1999/02/22-rdf-syntax-ns#"
   xmlns:cc="http://creativecommons.org/ns#"
   xmlns:dc="http://purl.org/dc/elements/1.1/">
  <sodipodi:namedview
     pagecolor="#ffffff"
     bordercolor="#666666"
     borderopacity="1"
     objecttolerance="10"
     gridtolerance="10"
     guidetolerance="10"
     inkscape:pageopacity="0"
     inkscape:pageshadow="2"
     inkscape:window-width="1920"
     inkscape:window-height="1017"
     id="namedview5859"
     showgrid="false"
     inkscape:zoom="1.1476306"
     inkscape:cx="191.69932"
     inkscape:cy="71.015884"
     inkscape:window-x="-8"
     inkscape:window-y="-8"
     inkscape:window-maximized="1"
     inkscape:current-layer="layer3"
     fit-margin-top="0"
     fit-margin-left="0"
     fit-margin-right="0"
     fit-margin-bottom="0"
     inkscape:document-rotation="0"
     inkscape:pagecheckerboard="true"
     inkscape:showpageshadow="false"
     inkscape:deskcolor="#d1d1d1" />
  <metadata
     id="metadata3125">
    <rdf:RDF>
      <cc:Work
         rdf:about="">
        <dc:format>image/svg+xml</dc:format>
        <dc:type
           rdf:resource="http://purl.org/dc/dcmitype/StillImage" />
      </cc:Work>
    </rdf:RDF>
  </metadata>
  <defs
     id="defs3123" />
  <g
     id="g3115"
     style="stroke-width:0.639086"
     transform="matrix(1.5527702,0,0,1.5767887,-53.187223,-62.220796)">
    <g
       id="g3117"
       style="stroke-width:0.639086" />
  </g>
  <g
     inkscape:groupmode="layer"
     id="layer11"
     inkscape:label="Layer 3"
     transform="translate(9.915614,72.9442)" />
  <g
     inkscape:groupmode="layer"
     id="layer14"
     inkscape:label="Layer 5"
     style="opacity:0.995444"
     transform="translate(9.9087094,60.03355)" />
  <g
     inkscape:groupmode="layer"
     id="layer15"
     inkscape:label="Layer 6"
     transform="translate(9.9976465,120.5)">
    <path
       d="m 371.31205,139.50474 c 0,7.54007 0.24538,18.37248 -0.64752,23.21214 -0.90061,4.88146 -2.96557,3.76241 -9.08324,3.74592 L 6.8797351,165.50661 c -12.1788959,-0.0328 -8.9418396,2.3862 -9.004916,-12.7589 L -3.1769775,-99.796007 c -0.063066,-15.142523 7.33713,-12.785163 19.5150205,-12.752473 l 341.257677,0.91608 c 12.18298,0.0327 13.71735,-2.39152 13.71735,12.752463 V 139.50474 Z"
       id="path3101-1-9"
       style="display:inline;fill:#000000;fill-opacity:1;stroke:#ffffff;stroke-width:5;stroke-miterlimit:3.864;stroke-opacity:1"
       sodipodi:nodetypes="csssssssscc"
       inkscape:label="path3101" />
  </g>
  <g
     inkscape:groupmode="layer"
     id="layer10"
     inkscape:label="Layer 2"
     transform="translate(9.915614,72.9442)"
     style="display:inline">
    <path
       d="m 365.3951,187.06054 c 0,5.86268 0.24113,14.28526 -0.63631,18.04828 -0.88501,3.79551 -2.91418,2.90636 -8.92592,2.91258 l -343.94782,0.35614 c -11.96798982,0.0124 -8.8658439,1.85548 -8.84895,-9.92051 L 3.39224,-49.792979 c 0.016891,-11.773985 7.210051,-9.941387 19.17702,-9.915506 l 329.34707,0.71228 c 11.97197,0.02589 13.47977,-1.85949 13.47977,9.915506 V 187.06054 Z"
       id="path3101-1"
       style="fill:#ffffff;fill-opacity:1;stroke:#000000;stroke-width:5;stroke-miterlimit:3.864;stroke-opacity:1"
       sodipodi:nodetypes="csssssssscc"
       inkscape:label="path3101" />
    <path
       style="font-size:46.1173px;line-height:27.0218px;font-family:'Highway Gothic Wide';-inkscape-font-specification:'Highway Gothic Wide';letter-spacing:3.24261px;word-spacing:0px;fill:#ffffff;stroke-width:1px"
       d="m 54.86317,151.89175 h -8.900639 v 25.45675 h -5.395724 v -25.45675 h -8.900638 v -5.44184 H 54.86317 Z m 26.208991,25.45675 h -5.211255 v -0.96847 q -2.444216,1.38352 -5.534075,1.38352 -3.966088,0 -6.041366,-2.21363 -2.075279,-2.25975 -2.075279,-5.67243 0,-3.50491 2.444217,-5.44184 2.490334,-1.93692 6.225835,-1.93692 2.536452,0 4.934551,0.69175 -0.09223,-3.50491 -3.827736,-3.7355 -2.767038,-0.0461 -5.441841,1.61411 l -2.582569,-4.10444 q 4.150557,-2.72092 8.116645,-2.72092 3.827736,0 6.410304,2.62869 2.582569,2.62868 2.582569,6.82536 z m -5.211255,-5.48796 v -3.78162 q -2.674803,-0.73788 -4.703964,-0.73788 -1.890809,0 -2.951507,0.83011 -1.060698,0.83011 -1.060698,1.98305 0,1.19905 1.014581,2.07528 1.01458,0.87622 2.859272,0.87622 2.075279,0 4.842316,-1.24516 z m 27.730934,-16.04882 -1.70634,5.25737 q -1.29128,-1.47575 -3.320443,-1.42964 -3.873853,-0.0461 -3.919971,4.47338 v 13.23567 h -5.534075 v -22.55136 h 5.534075 v 1.3374 q 1.660223,-1.89081 4.196674,-1.89081 2.72092,0 4.75008,1.56799 z m 20.99778,0 -1.70634,5.25737 q -1.29128,-1.47575 -3.32044,-1.42964 -3.87386,-0.0461 -3.91997,4.47338 v 13.23567 h -5.53408 v -22.55136 h 5.53408 v 1.3374 q 1.66022,-1.89081 4.19667,-1.89081 2.72092,0 4.75008,1.56799 z m 24.54881,21.53678 h -5.21125 v -0.96847 q -2.44422,1.38352 -5.53408,1.38352 -3.96608,0 -6.04136,-2.21363 -2.07528,-2.25975 -2.07528,-5.67243 0,-3.50491 2.44422,-5.44184 2.49033,-1.93692 6.22583,-1.93692 2.53645,0 4.93455,0.69175 -0.0922,-3.50491 -3.82773,-3.7355 -2.76704,-0.0461 -5.44185,1.61411 l -2.58256,-4.10444 q 4.15055,-2.72092 8.11664,-2.72092 3.82774,0 6.41031,2.62869 2.58256,2.62868 2.58256,6.82536 z m -5.21125,-5.48796 v -3.78162 q -2.6748,-0.73788 -4.70397,-0.73788 -1.8908,0 -2.9515,0.83011 -1.0607,0.83011 -1.0607,1.98305 0,1.19905 1.01458,2.07528 1.01458,0.87622 2.85927,0.87622 2.07528,0 4.84232,-1.24516 z m 12.83505,-5.67243 q 0,-4.56561 2.3981,-8.16276 2.44422,-3.64327 6.73313,-3.64327 2.49033,0 4.28891,1.38352 v -0.96846 h 5.53407 v 22.55136 q -0.0461,4.47337 -3.04374,7.37876 -2.95151,2.95151 -6.73313,3.78162 l -1.24516,-5.25737 q 4.93455,-1.29128 5.48796,-5.90301 v -1.01459 q -1.70634,1.56799 -4.10444,1.61411 -4.65785,-0.0461 -7.00983,-3.55103 -2.30587,-3.55103 -2.30587,-8.20888 z m 5.02679,-0.0922 q 0,2.72093 1.29128,4.56562 1.3374,1.79857 3.4588,1.79857 2.53645,-0.0922 3.64327,-1.98304 v -8.57782 q -1.29129,-1.98304 -3.73551,-2.1214 -2.21363,0 -3.45879,1.75246 -1.19905,1.75246 -1.19905,4.56561 z m 40.87429,0 q 0,4.88844 -2.90539,8.34724 -2.85927,3.45879 -6.96371,3.45879 -4.15056,0 -7.00983,-3.45879 -2.85927,-3.4588 -2.85927,-8.34724 0,-4.93455 2.85927,-8.39334 2.85927,-3.4588 7.00983,-3.4588 4.10444,0 6.96371,3.4588 2.90539,3.45879 2.90539,8.39334 z m -5.3496,0 q 0,-2.76703 -1.24517,-4.51949 -1.24517,-1.79858 -3.22821,-1.79858 -2.07528,0 -3.32045,1.79858 -1.24516,1.79857 -1.24516,4.51949 0,2.72093 1.24516,4.56562 1.24517,1.79857 3.32045,1.79857 1.98304,0 3.22821,-1.79857 1.24517,-1.84469 1.24517,-4.56562 z m 12.05105,-11.16038 h 5.21125 v 1.75246 q 2.07528,-2.07528 5.48796,-2.07528 3.64327,0 5.90301,2.53645 2.30587,2.49033 2.35199,6.50254 v 13.69684 h -5.53408 v -13.42014 q 0,-1.79857 -1.10682,-2.95151 -1.06069,-1.15293 -2.90538,-1.15293 -1.66023,0 -2.95151,1.24517 -1.24517,1.19905 -1.24517,2.76704 v 13.51237 h -5.21125 z m 44.9788,22.41301 h -5.21126 v -0.96847 q -2.44421,1.38352 -5.53407,1.38352 -3.96609,0 -6.04137,-2.21363 -2.07528,-2.25975 -2.07528,-5.67243 0,-3.50491 2.44422,-5.44184 2.49033,-1.93692 6.22583,-1.93692 2.53646,0 4.93456,0.69175 -0.0922,-3.50491 -3.82774,-3.7355 -2.76704,-0.0461 -5.44184,1.61411 l -2.58257,-4.10444 q 4.15056,-2.72092 8.11664,-2.72092 3.82774,0 6.41031,2.62869 2.58257,2.62868 2.58257,6.82536 z m -5.21126,-5.48796 v -3.78162 q -2.6748,-0.73788 -4.70396,-0.73788 -1.89081,0 -2.95151,0.83011 -1.0607,0.83011 -1.0607,1.98305 0,1.19905 1.01458,2.07528 1.01458,0.87622 2.85928,0.87622 2.07528,0 4.84231,-1.24516 z"
       id="text6487-1"
       aria-label="Tarragona " />
    <path
       style="font-size:38.1344px;line-height:22.3443px;font-family:'Caracteres L4';-inkscape-font-specification:'Caracteres L4';letter-spacing:2.68131px;word-spacing:0px;fill:#ffffff;stroke-width:1px"
       d="m 38.079745,94.191316 q 2.290299,0.01862 4.17095,1.489625 1.899272,1.471005 2.755807,3.798544 0.446887,1.266185 0.61447,3.277175 -0.353786,9.86877 -3.798544,14.03971 -3.314415,4.00337 -7.019857,4.00337 H 24.263474 L 29.141996,94.191316 Z M 29.868188,116.1819 h 4.18957 q 2.048234,-0.20482 3.333036,-1.48962 1.284801,-1.2848 2.029614,-3.64958 1.303422,-2.90477 1.471005,-7.76467 0.130342,-3.779925 -2.94201,-4.357155 h -4.878522 z m 23.163654,-13.61144 h 4.487495 l -3.59372,18.26652 h -4.561976 z m 1.359283,-7.019861 h 4.319912 l -0.726192,4.18957 h -4.319912 z m 10.148055,6.815031 h 4.282672 l -0.353786,2.58823 q 1.377903,-2.08548 2.737186,-2.56961 0.61447,-0.16758 1.154459,-0.16758 0.446888,0 1.15446,0.14896 l -1.117219,4.82266 q -1.508245,-0.52136 -2.625464,0.31655 -1.415144,0.81929 -2.457881,4.04061 l -1.694449,9.25429 h -4.319912 z m 21.618168,-0.24206 q 3.090972,0 4.413014,1.50824 1.415144,1.34067 1.526866,4.24544 0.01862,0.39102 0.01862,0.76343 -0.03724,2.21582 -0.502749,4.20819 h -9.701182 q -0.707572,3.42614 0.782053,4.54335 0.986876,0.6331 2.122715,-0.0745 1.266182,-0.96825 1.73169,-2.86752 h 4.748179 q -0.837914,3.42613 -3.59372,5.38127 -1.78755,1.06135 -3.779923,1.06135 -1.675829,0 -3.519239,-0.74481 -3.109593,-1.89927 -3.109593,-6.12608 0,-0.37241 0.01862,-0.76343 0.577229,-5.6792 2.942009,-8.50949 2.066855,-2.4765 5.902639,-2.62546 z m -3.612341,7.20606 h 5.288169 q 0.260684,-2.49512 -0.335166,-3.44476 -1.508245,-1.65721 -3.668201,0.22345 -1.061358,1.22894 -1.284802,3.22131 z m 22.120913,-6.964 q 2.90477,0.11172 4.37578,1.61997 2.02961,1.84341 2.02961,5.02748 0,0.42827 -0.0372,0.89378 h -4.20819 q 0.33516,-4.46888 -1.91789,-4.15233 -3.05373,-0.20482 -4.17095,5.58609 -0.782057,6.70332 1.95513,6.38677 2.3834,-0.11172 3.29579,-2.97925 h 4.35716 q -1.24756,4.18957 -5.56748,6.03298 -1.43376,0.24207 -2.51374,0.24207 -1.26618,0 -2.01099,-0.33517 -3.891647,-1.17308 -4.09647,-6.94538 0.167582,-5.58609 2.886148,-8.5281 2.569602,-2.64408 5.623332,-2.84891 z m 18.73202,0 q 2.90477,0.11172 4.37577,1.61997 2.02962,1.84341 2.02962,5.02748 0,0.42827 -0.0372,0.89378 h -4.20819 q 0.33516,-4.46888 -1.9179,-4.15233 -3.05373,-0.20482 -4.17095,5.58609 -0.78205,6.70332 1.95514,6.38677 2.3834,-0.11172 3.29579,-2.97925 h 4.35716 q -1.24757,4.18957 -5.56748,6.03298 -1.43376,0.24207 -2.51374,0.24207 -1.26618,0 -2.01099,-0.33517 -3.89165,-1.17308 -4.09647,-6.94538 0.16758,-5.58609 2.88615,-8.5281 2.5696,-2.64408 5.62333,-2.84891 z m 13.89074,0.20483 h 4.48749 l -3.59372,18.26652 h -4.56198 z m 1.35928,-7.019861 h 4.31991 l -0.72619,4.18957 h -4.31991 z m 21.48783,10.054971 q 0.68895,1.58272 0.68895,3.79854 0,1.02412 -0.14896,2.17858 -0.61447,4.26405 -2.64409,6.55435 -2.29029,2.60684 -5.08334,2.88615 -0.57723,0.0372 -0.94964,0.0372 -0.50274,0 -1.06135,-0.0559 -2.30892,-0.16759 -4.11509,-2.86753 -0.98688,-1.63859 -0.98688,-4.31991 0,-0.78206 0.0931,-1.65721 0.44689,-4.84128 3.2958,-7.65295 1.95513,-1.88065 3.74268,-2.08548 0.78205,-0.13034 1.52687,-0.13034 h 0.16758 q 3.61234,0 5.47437,3.31442 z m -7.72743,12.23354 q 1.48963,0.0559 2.45788,-1.3779 0.9124,-1.43376 1.48963,-4.13371 0.59585,-3.07235 -0.0931,-5.23231 -0.59585,-1.73169 -1.89928,-1.50824 -1.61996,-0.22345 -2.86752,1.89927 -0.93102,1.76893 -1.28481,4.02199 -0.31654,2.69994 -0.0372,4.13371 0.48413,2.55098 2.23444,2.19719 z"
       id="text6487-1-5"
       aria-label="Direccio" />
    <text
       xml:space="preserve"
       style="font-style:normal;font-variant:normal;font-weight:normal;font-stretch:normal;font-size:37.3895px;line-height:21.9079px;font-family:TrafficTypeW01-SpainD;-inkscape-font-specification:TrafficTypeW01-SpainD;letter-spacing:0px;word-spacing:0px;display:inline;fill:#000000;stroke:none;stroke-width:0.999996px;stroke-linecap:butt;stroke-linejoin:miter;stroke-opacity:1"
       x="304.56534"
       y="140.41682"
       id="text6487-1-5-2"><tspan
         sodipodi:role="line"
         id="tspan6485-7-9-0"
         x="304.56534"
         y="140.41682"
         style="font-style:normal;font-variant:normal;font-weight:normal;font-stretch:normal;font-family:'Highway Gothic Wide';-inkscape-font-specification:'Highway Gothic Wide';letter-spacing:2.62894px;fill:#ffffff;fill-opacity:1;stroke-width:0.999996px" /></text>
    <text
       xml:space="preserve"
       style="font-style:normal;font-variant:normal;font-weight:normal;font-stretch:normal;font-size:37.3895px;line-height:21.9079px;font-family:TrafficTypeW01-SpainD;-inkscape-font-specification:TrafficTypeW01-SpainD;letter-spacing:0px;word-spacing:0px;display:inline;fill:#000000;stroke:none;stroke-width:0.999996px;stroke-linecap:butt;stroke-linejoin:miter;stroke-opacity:1"
       x="287.06784"
       y="186.59615"
       id="text6487-1-5-2-0"><tspan
         sodipodi:role="line"
         id="tspan6485-7-9-0-3"
         x="287.06784"
         y="186.59615"
         style="font-style:normal;font-variant:normal;font-weight:normal;font-stretch:normal;font-family:'Highway Gothic Wide';-inkscape-font-specification:'Highway Gothic Wide';letter-spacing:2.62894px;fill:#ffffff;fill-opacity:1;stroke-width:0.999996px" /></text>
    <path
       style="font-size:38.1344px;line-height:22.3443px;font-family:Arial;-inkscape-font-specification:Arial;letter-spacing:2.68131px;word-spacing:0px;fill:#ffffff;stroke-width:1px"
       d="m 153.9696,98.034254 2.4765,-5.213687 h 4.3944 l -4.09647,5.213687 z"
       id="text6487-1-5-22"
       aria-label="´" />
  </g>
  <g
     inkscape:groupmode="layer"
     id="layer3"
     inkscape:label="Layer 1"
     transform="translate(9.915614,72.9442)"
     style="display:inline" />
  <g
     inkscape:groupmode="layer"
     id="layer18"
     inkscape:label="Layer 8"
     transform="translate(3.5,-127)">
    <path
       style="fill:none;fill-opacity:1;stroke:#000000;stroke-width:4;stroke-linecap:round;stroke-linejoin:bevel;stroke-miterlimit:2.613;stroke-dasharray:none;stroke-opacity:1"
       d="m 80.5,236 c 29.95067,39.98422 40.68414,81.03607 -1,125"
       id="path6895"
       sodipodi:nodetypes="cc" />
    <path
       style="fill:none;fill-opacity:1;stroke:#000000;stroke-width:4;stroke-linecap:round;stroke-linejoin:bevel;stroke-miterlimit:2.613;stroke-dasharray:none;stroke-opacity:1"
       d="m 59.602327,268.48616 c 13.269277,14.0691 18.300928,36.8735 -0.625158,64.65032"
       id="path6895-0"
       sodipodi:nodetypes="cc" />
    <path
       style="fill:none;fill-opacity:1;stroke:#000000;stroke-width:4;stroke-linecap:round;stroke-linejoin:bevel;stroke-miterlimit:2.613;stroke-dasharray:none;stroke-opacity:1"
       d="m 70.097924,251.99309 c 19.79587,36.78255 26.817677,52.44263 -2.124529,95.38742"
       id="path6895-0-2"
       sodipodi:nodetypes="cc" />
  </g>
  <g
     inkscape:groupmode="layer"
     id="layer17"
     inkscape:label="Layer 7"
     transform="translate(3.5,-127)">
    <path
       d="m 169.55894,260.10903 c 4.03145,0 4.5239,3.70059 4.5239,3.70059 0,0 6.29341,21.99388 6.19741,21.99388 7.08218,0.36691 6.48956,5.80248 6.48956,5.80248 0,0 0.10016,11.86704 0,11.86704 0.5968,5.31502 -0.78458,6.17465 -0.78458,6.2952 -1.2854,1.98658 0.78458,4.6965 0.78458,4.6965 1.87383,4.19854 -0.78458,5.92828 -0.78458,5.92828 0,0 -2.75441,1.11122 -2.75441,1.23703 -1.86966,0.61327 -1.66934,2.09664 -1.66934,2.09664 0,0 0,12.72668 0,12.84724 0,2.09665 -1.47736,1.85554 -1.47736,1.85554 0,0 -9.64044,0.12579 -9.73225,0 -1.77367,0 -1.57752,-1.9761 -1.57752,-1.9761 0,0 0,-13.33995 0,-13.46574 0,-1.9761 -1.57335,-1.9761 -1.57335,-1.9761 h -49.77549 c 0,0 -1.56919,0 -1.56919,1.9761 0,0.12579 0,13.46574 0,13.46574 0,0 0.19615,1.9761 -1.57752,1.9761 -0.096,0.12579 -9.73641,0 -9.73641,0 0,0 -1.47736,0.24634 -1.47736,-1.85554 0,-0.12056 0,-12.84724 0,-12.84724 0,0 0.19615,-1.48337 -1.66935,-2.09664 0,-0.12581 -2.758576,-1.23703 -2.758576,-1.23703 0,0 -2.654248,-1.72974 -0.780416,-5.92828 0,0 2.065806,-2.71516 0.780416,-4.6965 0,-0.12055 -1.373031,-0.98542 -0.780416,-6.2952 -0.100161,0 0,-11.86704 0,-11.86704 0,0 -0.596789,-5.43557 6.489552,-5.80248 -0.096,0 6.19324,-21.99388 6.19324,-21.99388 0,0 0.49664,-3.70059 4.52809,-3.70059 0,-0.12579 54.49137,-0.12579 54.49137,0"
       id="path3284"
       style="fill:#1c1d20;stroke-width:0.999996" />
  </g>
  <g
     inkscape:groupmode="layer"
     id="layer19"
     inkscape:label="Layer 9"
     transform="translate(3.5,-127)">
    <path
       id="path6928"
       style="fill:#ffffff;stroke-width:4;stroke-linecap:round;stroke-linejoin:bevel;stroke-miterlimit:2.613"
       d="m 115.29843,307.92633 a 5.698658,5.8974485 0 0 1 -5.69866,5.89745 5.698658,5.8974485 0 0 1 -5.69866,-5.89745 5.698658,5.8974485 0 0 1 5.69866,-5.89745 5.698658,5.8974485 0 0 1 5.69866,5.89745 z" />
    <path
       id="path6928-4"
       style="fill:#ffffff;stroke-width:4;stroke-linecap:round;stroke-linejoin:bevel;stroke-miterlimit:2.613"
       d="m 178.11618,307.86005 a 5.698658,5.8974485 0 0 1 -5.69865,5.89744 5.698658,5.8974485 0 0 1 -5.69866,-5.89744 5.698658,5.8974485 0 0 1 5.69866,-5.89745 5.698658,5.8974485 0 0 1 5.69865,5.89745 z" />
    <path
       style="fill:#ffffff;fill-opacity:1;stroke:none;stroke-width:4;stroke-linecap:round;stroke-linejoin:bevel;stroke-miterlimit:2.613;stroke-dasharray:none;stroke-opacity:1"
       d="m 115.96106,264.39123 52.34814,-0.13253 8.3492,22.39705 -70.10675,0.26506 z"
       id="path6945" />
    <path
       id="path6928-2"
       style="stroke-width:3.99999;stroke-linecap:round;stroke-linejoin:bevel;stroke-miterlimit:2.613"
       d="m 59.438773,301.37549 a 9.9412985,10.288089 0 0 1 -9.941298,10.28809 9.9412985,10.288089 0 0 1 -9.941299,-10.28809 9.9412985,10.288089 0 0 1 9.941299,-10.28809 9.9412985,10.288089 0 0 1 9.941298,10.28809 z" />
  </g>
  <g
     inkscape:groupmode="layer"
     id="layer20"
     inkscape:label="Layer 10"
     style="display:inline"
     transform="translate(3.5,-127)">
    <path
       style="font-size:60.433px;line-height:35.4099px;font-family:TrafficTypeW01-SpainD;-inkscape-font-specification:TrafficTypeW01-SpainD;letter-spacing:0px;word-spacing:0px;stroke-width:1px"
       d="m 103.58463,177.63009 h 8.27932 q 1.63169,0 2.84035,-1.20866 1.20866,-1.26909 1.20866,-3.02165 0,-1.75256 -1.20866,-2.96122 -1.20866,-1.26909 -2.84035,-1.26909 h -8.27932 z m 9.48798,-16.73994 q 5.6807,0 9.30668,3.92814 1.57126,1.75256 2.47775,4.04902 0.9065,2.23602 0.9065,4.53247 0,3.80728 -2.05472,6.82893 -2.05473,2.96122 -5.80157,4.71377 l 9.85058,16.25648 h -10.09231 l -9.36712,-15.28955 h -4.71377 v 15.28955 h -9.064952 v -40.30881 z m 37.52894,11.3614 -4.41161,14.08089 h 9.12538 z m 19.51986,28.94741 h -9.79015 l -2.05472,-6.2246 h -14.80609 l -1.87342,6.2246 h -9.54841 l 12.63049,-40.30881 h 11.66357 z m 16.61909,-8.46062 h 6.64763 q 1.99429,0 3.68641,-0.84606 1.69212,-0.84606 2.84035,-2.35689 1.20866,-1.57126 1.87342,-3.68641 0.66477,-2.17559 0.66477,-4.77421 0,-2.59862 -0.66477,-4.77421 -0.66476,-2.17558 -1.87342,-3.68641 -1.14823,-1.57126 -2.84035,-2.41732 -1.69212,-0.84606 -3.68641,-0.84606 h -6.64763 z m 6.64763,-31.84819 q 4.16987,0 7.61456,1.51082 3.44468,1.4504 5.92243,4.10945 2.47775,2.65905 3.80728,6.34546 1.38996,3.68642 1.38996,8.15846 0,4.47204 -1.38996,8.21889 -1.32953,3.68641 -3.80728,6.34546 -2.47775,2.65905 -5.92243,4.16988 -3.44469,1.45039 -7.61456,1.45039 h -15.89388 v -40.30881 z m 41.03393,11.3614 -4.41161,14.08089 h 9.12539 z m 19.51986,28.94741 h -9.79014 l -2.05473,-6.2246 h -14.80608 l -1.87342,6.2246 h -9.54842 l 12.6305,-40.30881 h 11.66357 z m 16.4378,-23.56887 h 8.27932 q 1.63169,0 2.84035,-1.20866 1.20866,-1.26909 1.20866,-3.02165 0,-1.75256 -1.20866,-2.96122 -1.20866,-1.26909 -2.84035,-1.26909 h -8.27932 z m 9.48798,-16.73994 q 5.6807,0 9.30668,3.92814 1.57126,1.75256 2.47775,4.04902 0.9065,2.23602 0.9065,4.53247 0,3.80728 -2.05472,6.82893 -2.05473,2.96122 -5.80157,4.71377 l 9.85058,16.25648 h -10.09231 l -9.36712,-15.28955 h -4.71377 v 15.28955 h -9.06495 v -40.30881 z"
       id="text6950"
       transform="scale(0.99596904,1.0040473)"
       aria-label="RADAR" />
  </g>
  <g
     inkscape:groupmode="layer"
     id="layer21"
     inkscape:label="Layer 11"
     transform="translate(3.5,-127)">
    <path
       fill="#e41408"
       d="m 213.156,303.00757 c 0,-35.25667 28.58467,-63.83869 63.84533,-63.83869 35.25418,0 63.84267,28.58202 63.84267,63.83869 0,35.258 -28.58849,63.844 -63.84267,63.844 -35.26066,0 -63.84533,-28.586 -63.84533,-63.844"
       id="path6967"
       style="stroke-width:1" />
    <path
       fill="#ffffff"
       d="m 230.18371,303.00757 c 0,-25.85519 20.95861,-46.81628 46.81762,-46.81628 25.85519,0 46.81247,20.96126 46.81247,46.81628 0,25.85901 -20.95728,46.81381 -46.81247,46.81381 -25.85901,0 -46.81762,-20.9548 -46.81762,-46.81381"
       id="path6969"
       style="stroke-width:1" />
    <path
       fill-rule="evenodd"
       d="m 311.26013,295.43592 c -1.64767,-6.56433 -8.22063,-11.4984 -15.1146,-11.4984 -6.90242,0 -13.13712,4.93407 -15.11858,11.4984 -0.97546,4.59582 -0.97546,11.82788 0,16.42369 1.9813,6.56416 8.21599,11.48977 15.11858,11.48977 6.89414,0 13.4671,-4.92545 15.1146,-11.48977 1.30063,-4.59565 1.30063,-11.82787 0,-16.42369 z m -8.22046,13.47555 c -0.33395,3.26898 -3.60741,5.90523 -6.89414,5.90523 -3.28191,0 -6.25211,-2.63625 -6.90242,-5.90523 -0.32499,-2.95709 -0.32499,-7.55273 0,-10.51845 0.65047,-3.29519 3.62051,-5.91386 6.90242,-5.91386 3.28673,0 6.56019,2.61883 6.89414,5.91386 0.65031,2.96572 0.65031,7.56136 0,10.51845 z"
       id="path6971"
       style="stroke-width:1" />
    <path
       fill-rule="evenodd"
       d="m 272.34779,294.92447 c -0.89485,-2.67557 -2.6774,-5.94837 -4.76304,-7.73108 -0.29612,-0.60236 -1.19412,-1.19063 -1.78255,-1.48659 -1.78769,-0.89816 -4.76121,-1.79135 -6.84652,-1.79135 -1.48692,0 -3.26848,0.30459 -4.75789,0.60138 -1.48841,0.29181 -3.27678,1.48593 -4.47023,2.67656 -5.65157,5.3513 -5.94836,14.57843 -0.29612,20.53226 0.60054,0.59241 1.48941,1.1898 2.38309,1.48543 3.57389,2.0795 8.92519,1.78802 12.49909,-0.29563 0,1.49008 -0.89667,3.56958 -2.38492,4.46326 -1.48842,1.19446 -3.56593,1.49008 -5.35628,0.88888 -1.184,-0.29679 -2.3748,-1.49124 -2.3748,-2.97701 l -8.03367,3.28259 c 0.89286,2.66677 2.97418,5.34748 5.06049,6.53645 4.4626,2.38841 10.41179,2.38841 14.87173,0 0.59988,-0.29181 1.48841,-0.88854 1.79134,-1.48576 1.78288,-1.78255 3.5656,-4.7549 4.46028,-7.13883 1.19063,-5.05965 1.19063,-12.49991 0,-17.56056 z m -8.62576,3.57406 c -0.30475,2.37961 -2.38243,4.45911 -5.06231,4.45911 -2.37994,0 -4.76452,-2.0795 -5.06048,-4.45928 0,-0.59191 0,-1.49008 0,-2.37961 0.29612,-2.37977 2.68071,-4.4626 5.06048,-4.4626 2.67988,0 4.75756,2.08283 5.06231,4.4626 0.29248,0.88953 0.29248,1.7877 0,2.37978 z"
       id="path6973"
       style="stroke-width:1" />
  </g>
</svg>
