<?xml version="1.0" encoding="UTF-8" standalone="no"?>
<svg
   width="500"
   height="160"
   viewBox="0 0 132.29166 42.333334"
   version="1.1"
   id="svg4433"
   inkscape:version="1.3.2 (091e20e, 2023-11-25, custom)"
   sodipodi:docname="ES_CAT_OR53punt1.svg"
   xmlns:inkscape="http://www.inkscape.org/namespaces/inkscape"
   xmlns:sodipodi="http://sodipodi.sourceforge.net/DTD/sodipodi-0.dtd"
   xmlns="http://www.w3.org/2000/svg"
   xmlns:svg="http://www.w3.org/2000/svg"
   xmlns:rdf="http://www.w3.org/1999/02/22-rdf-syntax-ns#"
   xmlns:cc="http://creativecommons.org/ns#"
   xmlns:dc="http://purl.org/dc/elements/1.1/">
  <defs
     id="defs4427">
    <rect
       x="38.364582"
       y="48.097469"
       width="28.915178"
       height="15.591518"
       id="rect5326" />
    <rect
       x="70.681549"
       y="45.357143"
       width="16.441963"
       height="13.134672"
       id="rect5320" />
    <rect
       x="72.949402"
       y="12.85119"
       width="1.5119047"
       height="19.182291"
       id="rect5314" />
  </defs>
  <sodipodi:namedview
     id="base"
     pagecolor="#ffffff"
     bordercolor="#666666"
     borderopacity="1.0"
     inkscape:pageopacity="0.0"
     inkscape:pageshadow="2"
     inkscape:zoom="1.0636576"
     inkscape:cx="202.13271"
     inkscape:cy="46.537532"
     inkscape:document-units="px"
     inkscape:current-layer="layer1"
     inkscape:document-rotation="0"
     showgrid="false"
     inkscape:pagecheckerboard="true"
     inkscape:showpageshadow="false"
     units="px"
     inkscape:window-width="1920"
     inkscape:window-height="1017"
     inkscape:window-x="-8"
     inkscape:window-y="-8"
     inkscape:window-maximized="1"
     inkscape:deskcolor="#d1d1d1" />
  <metadata
     id="metadata4430">
    <rdf:RDF>
      <cc:Work
         rdf:about="">
        <dc:format>image/svg+xml</dc:format>
        <dc:type
           rdf:resource="http://purl.org/dc/dcmitype/StillImage" />
        <dc:title />
      </cc:Work>
    </rdf:RDF>
  </metadata>
  <g
     inkscape:label="Capa 1"
     inkscape:groupmode="layer"
     id="layer1"
     style="display:inline">
    <path
       id="rect5257"
       style="display:inline;fill:#000080;stroke:#ffffff;stroke-width:2.00001;stroke-linecap:round;stroke-linejoin:round;stroke-miterlimit:2.613;stroke-dasharray:none;stroke-opacity:1"
       d="M 1.7008928,1.8838024 C 2.1031975,1.4607177 2.2678008,1.1416833 2.8347369,1.1459154 l 105.5499631,-0.0807 22.53657,19.4255305 -22.1586,20.773682 c 0,0 -70.429457,-0.09781 -105.6441848,-0.146708 C 2.4569663,41.116801 2.1211039,40.960188 1.6536458,40.464458 1.1638265,39.945014 1.1339285,39.646717 1.1339285,38.912593 V 3.5851289 c 0,-0.8173034 0.019369,-1.1254461 0.5669643,-1.7013265 z"
       sodipodi:nodetypes="sscccsssss" />
    <path
       style="display:inline;fill:#ffffff;stroke:none;stroke-width:2;stroke-linecap:round;stroke-linejoin:round;stroke-miterlimit:2.613;stroke-dasharray:none;stroke-opacity:1;fill-opacity:1"
       d="M 109.16357,42.199873 H 107.0847 L 126.33854,20.032738 108.3847,1.8898774 v 0 l 0.26727,-1.73725189 22.2693,19.25878949 z"
       id="path5278"
       sodipodi:nodetypes="cccccccc" />
    <text
       xml:space="preserve"
       id="text5312"
       style="font-size:11.2889px;line-height:6.61458px;font-family:'Highway Gothic Wide';-inkscape-font-specification:'Highway Gothic Wide';letter-spacing:0px;word-spacing:0px;white-space:pre;shape-inside:url(#rect5314);display:inline;fill:none;stroke:#000000;stroke-width:0.264583px;stroke-linecap:butt;stroke-linejoin:miter;stroke-opacity:1" />
    <text
       xml:space="preserve"
       id="text5318"
       style="font-size:11.2889px;line-height:6.61458px;font-family:'Highway Gothic Wide';-inkscape-font-specification:'Highway Gothic Wide';letter-spacing:0px;word-spacing:0px;white-space:pre;shape-inside:url(#rect5320);display:inline;fill:none;stroke:#000000;stroke-width:0.264583px;stroke-linecap:butt;stroke-linejoin:miter;stroke-opacity:1" />
    <text
       xml:space="preserve"
       id="text5324"
       style="font-size:11.2889px;line-height:6.61458px;font-family:'Highway Gothic Wide';-inkscape-font-specification:'Highway Gothic Wide';letter-spacing:0px;word-spacing:0px;white-space:pre;shape-inside:url(#rect5326);display:inline;fill:none;stroke:#000000;stroke-width:0.264583px;stroke-linecap:butt;stroke-linejoin:miter;stroke-opacity:1" />
    <text
       xml:space="preserve"
       style="font-size:11.2889px;line-height:6.61458px;font-family:'Highway Gothic Wide';-inkscape-font-specification:'Highway Gothic Wide';letter-spacing:0px;word-spacing:0px;display:inline;fill:none;stroke:#000000;stroke-width:0.264583px;stroke-linecap:butt;stroke-linejoin:miter;stroke-opacity:1"
       x="10.110864"
       y="40.91592"
       id="text5292"><tspan
         sodipodi:role="line"
         id="tspan5290"
         x="10.110864"
         y="40.91592"
         style="stroke-width:0.264583px" /></text>
    <path
       d="M 71.857239,34.795925 H 49.249814 q 0.837312,-11.010653 11.471175,-15.490272 2.76313,-1.130371 4.521485,-2.177011 1.758355,-1.088506 1.632758,-2.511936 0,-1.381565 -1.381565,-2.302608 -1.381564,-0.962909 -4.312156,-1.004775 -4.395888,0.125597 -7.787002,3.516711 l -4.060963,-3.265517 q 5.065737,-5.1913347 11.722368,-5.2750659 4.940141,0 7.870733,2.4700705 2.930592,2.4282044 2.930592,5.8611844 -0.04187,2.972457 -1.590893,4.730813 -1.549027,1.716489 -5.90305,3.600441 -6.907824,3.307383 -8.247523,6.824093 h 15.741466 z m 30.771221,0 H 80.021039 q 0.837312,-11.010653 11.471175,-15.490272 2.76313,-1.130371 4.521485,-2.177011 1.758355,-1.088506 1.632758,-2.511936 0,-1.381565 -1.381565,-2.302608 -1.381564,-0.962909 -4.312156,-1.004775 -4.395888,0.125597 -7.787002,3.516711 l -4.060963,-3.265517 q 5.065737,-5.1913347 11.722368,-5.2750659 4.940141,0 7.870733,2.4700705 2.930588,2.4282044 2.930588,5.8611844 -0.0419,2.972457 -1.59089,4.730813 -1.549026,1.716489 -5.903049,3.600441 -6.907824,3.307383 -8.247523,6.824093 h 15.741462 z"
       id="text5288-1-9"
       style="font-size:41.8656px;line-height:10.7322px;font-family:'Highway Gothic Wide';-inkscape-font-specification:'Highway Gothic Wide';letter-spacing:4.18656px;word-spacing:0px;fill:#ffffff;stroke-width:0.264584px"
       aria-label="22" />
  </g>
  <g
     inkscape:groupmode="layer"
     id="layer4"
     inkscape:label="Capa 3">
    <g
       id="g2750"
       style="display:inline;stroke-width:0.421352"
       transform="matrix(2.3733122,0,0,2.3733122,-130.37558,-4.6525909)">
      <path
         d="m 58.993549,16.541816 h 4.714875 L 64.15266,5.0594289 H 62.785822 L 58.993549,16.541816"
         id="polyline5612"
         style="fill:#ffffff;stroke-width:0.111483;fill-opacity:1" />
      <path
         d="m 65.315239,16.541816 h 4.67942 l -1.70762,-5.399087 3.450431,-3.8959897 1.128448,2.7334103 V 5.0594289 h -4.920721 l 2.768864,1.1284479 -3.34936,2.0849166 -1.024731,-3.2133645 h -1.366837 l 0.342106,11.4823871"
         id="polyline5614"
         style="fill:#ffffff;stroke-width:0.111483;fill-opacity:1" />
    </g>
  </g>
</svg>
