<?xml version="1.0" encoding="UTF-8" standalone="no"?>
<svg
   width="500"
   height="200"
   viewBox="0 0 132.29166 52.916668"
   version="1.1"
   id="svg4433"
   inkscape:version="1.3.2 (091e20e, 2023-11-25, custom)"
   sodipodi:docname="ES_CAT_OR51.svg"
   xmlns:inkscape="http://www.inkscape.org/namespaces/inkscape"
   xmlns:sodipodi="http://sodipodi.sourceforge.net/DTD/sodipodi-0.dtd"
   xmlns="http://www.w3.org/2000/svg"
   xmlns:svg="http://www.w3.org/2000/svg"
   xmlns:rdf="http://www.w3.org/1999/02/22-rdf-syntax-ns#"
   xmlns:cc="http://creativecommons.org/ns#"
   xmlns:dc="http://purl.org/dc/elements/1.1/">
  <defs
     id="defs4427">
    <rect
       x="38.364583"
       y="48.09747"
       width="28.915178"
       height="15.591518"
       id="rect5326" />
    <rect
       x="70.681547"
       y="45.357142"
       width="16.441964"
       height="13.134672"
       id="rect5320" />
    <rect
       x="72.949404"
       y="12.85119"
       width="1.5119047"
       height="19.182291"
       id="rect5314" />
  </defs>
  <sodipodi:namedview
     id="base"
     pagecolor="#ffffff"
     bordercolor="#666666"
     borderopacity="1.0"
     inkscape:pageopacity="0.0"
     inkscape:pageshadow="2"
     inkscape:zoom="1.0729879"
     inkscape:cx="169.6198"
     inkscape:cy="110.43927"
     inkscape:document-units="px"
     inkscape:current-layer="layer5"
     inkscape:document-rotation="0"
     showgrid="false"
     inkscape:pagecheckerboard="true"
     inkscape:showpageshadow="false"
     units="px"
     inkscape:window-width="1920"
     inkscape:window-height="1017"
     inkscape:window-x="-8"
     inkscape:window-y="-8"
     inkscape:window-maximized="1"
     inkscape:deskcolor="#d1d1d1" />
  <metadata
     id="metadata4430">
    <rdf:RDF>
      <cc:Work
         rdf:about="">
        <dc:format>image/svg+xml</dc:format>
        <dc:type
           rdf:resource="http://purl.org/dc/dcmitype/StillImage" />
        <dc:title />
      </cc:Work>
    </rdf:RDF>
  </metadata>
  <g
     inkscape:label="Capa 1"
     inkscape:groupmode="layer"
     id="layer1">
    <path
       id="rect5257"
       style="fill:#ffffff;stroke:#000000;stroke-width:1.99998539;stroke-linecap:round;stroke-linejoin:round;stroke-miterlimit:2.61299992;stroke-dasharray:none;stroke-opacity:1"
       d="m 2.1610167,18.794818 2.0476531,-0.921519 107.4833202,0.458546 2.06566,1.686319 15.8407,13.907575 L 111.12502,51.593752 4.3961442,51.686082 2.3500048,50.378661 1.1163885,48.548538 0.96014023,20.580138 Z"
       sodipodi:nodetypes="ccccccccccc" />
    <path
       style="fill:#000000;stroke:none;stroke-width:2;stroke-linecap:round;stroke-linejoin:round;stroke-miterlimit:2.613;stroke-dasharray:none;stroke-opacity:1"
       d="m 112.06996,51.877235 -1.97961,-0.273246 16.53167,-17.680626 -16.81991,-16.158482 2.20119,-0.500065 20.14639,16.660923 z"
       id="path5278"
       sodipodi:nodetypes="ccccccc" />
    <text
       xml:space="preserve"
       style="font-size:11.2889px;line-height:6.61458px;font-family:'Highway Gothic Wide';-inkscape-font-specification:'Highway Gothic Wide';letter-spacing:0px;word-spacing:0px;fill:none;stroke:#000000;stroke-width:0.264583px;stroke-linecap:butt;stroke-linejoin:miter;stroke-opacity:1"
       x="10.110864"
       y="40.91592"
       id="text5292"><tspan
         sodipodi:role="line"
         id="tspan5290"
         x="10.110864"
         y="40.91592"
         style="stroke-width:0.264583px" /></text>
    <g
       id="text5288-1"
       style="font-size:8.16956px;line-height:4.78685px;font-family:TrafficTypeW01-SpainD;-inkscape-font-specification:TrafficTypeW01-SpainD;letter-spacing:0.218827px;word-spacing:0px;stroke-width:0.264583px"
       aria-label="L'ARGENTERA 2,5">
      <path
         style="font-size:11.6708px;letter-spacing:0px"
         d="m 9.3654347,36.030841 h 3.3495193 v 1.633912 H 7.6148147 v -7.784424 h 1.75062 z m 5.2868663,-3.816352 h -1.01536 l -0.15172,-2.33416 h 1.3188 z m 4.423236,-0.140049 -0.851968,2.719296 h 1.76229 z m 3.769669,5.590313 h -1.89067 l -0.396807,-1.202092 h -2.859346 l -0.361795,1.202092 h -1.843987 l 2.439198,-7.784424 h 2.252464 z m 3.174461,-4.551612 h 1.598899 q 0.315112,0 0.548528,-0.233416 0.233416,-0.245087 0.233416,-0.58354 0,-0.338453 -0.233416,-0.571869 -0.233416,-0.245087 -0.548528,-0.245087 h -1.598899 z m 1.832315,-3.232812 q 1.097056,0 1.797304,0.758602 0.30344,0.338453 0.478502,0.781944 0.175062,0.431819 0.175062,0.87531 0,0.73526 -0.396807,1.3188 -0.396807,0.571869 -1.120397,0.910323 l 1.902341,3.139445 h -1.949024 l -1.808974,-2.952712 h -0.910322 v 2.952712 h -1.75062 v -7.784424 z m 10.993908,3.232812 v 4.551612 h -1.365484 l -0.15172,-0.326782 q -0.490174,0.280099 -0.910323,0.396807 -0.408478,0.128379 -0.921993,0.128379 -0.770273,0 -1.505533,-0.315112 -0.72359,-0.315112 -1.237105,-0.87531 -0.992018,-1.085384 -0.992018,-2.836005 0,-1.914011 1.143738,-3.034408 0.490174,-0.490173 1.178751,-0.758602 0.700248,-0.280099 1.412167,-0.280099 0.992018,0 1.820645,0.501845 0.840298,0.490173 1.377154,1.400496 l -1.540545,0.793614 q -0.233416,-0.525186 -0.676907,-0.805285 -0.44349,-0.29177 -1.02703,-0.29177 -0.420149,0 -0.758602,0.15172 -0.338453,0.14005 -0.58354,0.408478 -0.245087,0.268429 -0.385136,0.653565 -0.128379,0.373466 -0.128379,0.828627 v 0.816956 q 0,0.44349 0.0817,0.758602 0.0817,0.303441 0.2801,0.571869 0.268428,0.361795 0.641894,0.560199 0.385136,0.198403 0.828626,0.198403 0.350124,0 0.653565,-0.105037 0.303441,-0.116708 0.536857,-0.326782 0.233416,-0.210075 0.385136,-0.490174 0.151721,-0.29177 0.198404,-0.641894 H 35.34465 v -1.633912 z m 7.46931,-1.680595 h -3.582935 v 1.412166 h 3.197799 v 1.633913 h -3.197799 v 1.47052 h 3.933059 v 1.715608 H 40.946632 V 29.880329 H 46.3152 Z m 7.434291,3.442886 v -4.995103 h 1.75062 v 7.784424 h -1.949023 l -3.302837,-4.936749 v 4.936749 h -1.75062 v -7.784424 h 1.949024 z m 9.406657,-3.361191 h -2.264136 v 6.150512 H 59.10638 v -6.150512 h -2.252464 v -1.633912 h 6.302232 z m 6.734049,-0.08169 h -3.582935 v 1.412166 h 3.197799 v 1.633913 h -3.197799 v 1.47052 h 3.933059 v 1.715608 h -5.718692 v -7.784424 h 5.368568 z m 3.933055,1.680595 h 1.598899 q 0.315112,0 0.548528,-0.233416 0.233416,-0.245087 0.233416,-0.58354 0,-0.338453 -0.233416,-0.571869 -0.233416,-0.245087 -0.548528,-0.245087 h -1.598899 z m 1.832315,-3.232812 q 1.097056,0 1.797304,0.758602 0.30344,0.338453 0.478502,0.781944 0.175062,0.431819 0.175062,0.87531 0,0.73526 -0.396807,1.3188 -0.396807,0.571869 -1.120397,0.910323 l 1.902341,3.139445 h -1.949024 l -1.808974,-2.952712 h -0.910322 v 2.952712 h -1.75062 v -7.784424 z m 7.247571,2.194111 -0.851969,2.719296 h 1.762291 z m 3.769668,5.590313 h -1.89067 l -0.396807,-1.202092 h -2.859346 l -0.361795,1.202092 h -1.843986 l 2.439197,-7.784424 h 2.252465 z"
         id="path1" />
      <path
         style="font-size:11.6708px;letter-spacing:0.656483px"
         d="m 97.727987,36.030841 v 1.633912 h -5.566972 v -1.3188 q 0,-0.116708 0.03501,-0.186733 0.03501,-0.07003 0.128378,-0.14005 l 2.33416,-1.762291 q 0.653565,-0.490173 0.957006,-0.945335 0.315112,-0.466832 0.315112,-0.921993 0,-0.44349 -0.315112,-0.711919 -0.303441,-0.280099 -0.828627,-0.280099 -0.548527,0 -0.863639,0.326783 -0.303441,0.326782 -0.303441,0.910322 0,0.07002 0,0.128379 0,0.05835 0.02334,0.15172 h -1.832316 q -0.01167,-0.15172 -0.02334,-0.256757 0,-0.116708 0,-0.186733 0,-0.630223 0.210074,-1.143739 0.210074,-0.513515 0.595211,-0.87531 0.396807,-0.373465 0.945335,-0.571869 0.548527,-0.198403 1.225434,-0.198403 0.676906,0 1.225434,0.198403 0.560198,0.198404 0.957005,0.560199 0.396807,0.361794 0.606882,0.87531 0.210074,0.513515 0.210074,1.143738 0,0.758602 -0.303441,1.342142 -0.29177,0.58354 -0.968676,1.178751 l -1.202092,1.050372 z m 2.943963,0.03501 q 0.44349,0 0.71192,0.303441 0.2801,0.29177 0.2801,0.793615 0,0.59521 -0.40848,0.957005 -0.40848,0.373466 -1.07372,0.373466 -0.15172,0 -0.21007,-0.0817 -0.05835,-0.07003 -0.05835,-0.268428 0,-0.221745 0.151724,-0.233416 0.16339,-0.02334 0.2801,-0.0817 0.1167,-0.05835 0.1167,-0.116708 0,-0.07003 -0.10503,-0.08169 -0.29177,-0.01167 -0.466836,-0.210075 -0.175062,-0.198403 -0.175062,-0.513515 0,-0.373466 0.256758,-0.606882 0.26843,-0.233416 0.70025,-0.233416 z m 8.4059,-4.551612 h -3.34952 l -0.0817,0.758602 q 0.2801,-0.116708 0.51351,-0.163391 0.24509,-0.04668 0.54853,-0.04668 0.59521,0 1.10873,0.210074 0.51351,0.210075 0.87531,0.58354 0.37346,0.361795 0.58354,0.87531 0.21007,0.501845 0.21007,1.097056 0,0.653564 -0.22174,1.202092 -0.21008,0.548528 -0.60689,0.945335 -0.38513,0.396807 -0.93366,0.618552 -0.53686,0.221745 -1.17875,0.221745 -0.64189,0 -1.22543,-0.233416 -0.58354,-0.233416 -0.96868,-0.641894 -0.23342,-0.256757 -0.40848,-0.560198 -0.16339,-0.315112 -0.32678,-0.781944 l 1.69226,-0.501844 q 0.3618,1.003689 1.2021,1.003689 0.46683,0 0.77027,-0.326783 0.30344,-0.338453 0.30344,-0.863639 0,-0.548527 -0.30344,-0.898652 -0.30344,-0.350124 -0.78194,-0.350124 -0.60689,0 -0.96868,0.57187 l -1.90234,-0.256758 0.51351,-4.096451 h 4.93675 z"
         id="path2" />
    </g>
    <text
       xml:space="preserve"
       id="text5312"
       style="fill:none;stroke:black;stroke-opacity:1;stroke-width:0.26458333px;stroke-linejoin:miter;stroke-linecap:butt;font-family:'Highway Gothic Wide';font-size:11.28888875px;line-height:6.61458325px;letter-spacing:0px;word-spacing:0px;-inkscape-font-specification:'Highway Gothic Wide';white-space:pre;shape-inside:url(#rect5314)" />
    <text
       xml:space="preserve"
       id="text5318"
       style="fill:none;stroke:black;stroke-opacity:1;stroke-width:0.26458333px;stroke-linejoin:miter;stroke-linecap:butt;font-family:'Highway Gothic Wide';font-size:11.28888875px;line-height:6.61458325px;letter-spacing:0px;word-spacing:0px;-inkscape-font-specification:'Highway Gothic Wide';white-space:pre;shape-inside:url(#rect5320)" />
    <text
       xml:space="preserve"
       id="text5324"
       style="fill:none;stroke:black;stroke-opacity:1;stroke-width:0.26458333px;stroke-linejoin:miter;stroke-linecap:butt;font-family:'Highway Gothic Wide';font-size:11.28888875px;line-height:6.61458325px;letter-spacing:0px;word-spacing:0px;-inkscape-font-specification:'Highway Gothic Wide';white-space:pre;shape-inside:url(#rect5326)" />
  </g>
  <g
     inkscape:groupmode="layer"
     id="layer5"
     inkscape:label="Capa 3"
     style="display:inline">
    <path
       id="rect5280"
       style="display:inline;fill:#ffd42a;stroke:#000000;stroke-width:0.79375;stroke-linecap:round;stroke-linejoin:bevel;stroke-miterlimit:2.613"
       d="m 21.094394,0.26458198 h 33.965093 c 0.366448,0 0.661458,0.29501041 0.661458,0.66145831 V 13.686109 c 0,0.366447 -0.29501,0.661458 -0.661458,0.661458 H 21.094394 c -0.366448,0 -0.661458,-0.295011 -0.661458,-0.661458 V 0.92604029 c 0,-0.3664479 0.29501,-0.66145831 0.661458,-0.66145831 z" />
    <path
       style="font-size:9.35797px;line-height:5.48319px;font-family:TrafficTypeW01-SpainD;-inkscape-font-specification:TrafficTypeW01-SpainD;letter-spacing:0px;word-spacing:0px;stroke-width:0.264583px"
       d="m 29.77182,5.0860356 h -1.815446 v 4.9316504 h -1.43177 V 5.0860356 H 24.718516 V 3.7759197 h 5.053304 z m 2.339488,3.3407953 H 29.958975 V 7.2383687 h 2.152333 z M 35.395964,6.208992 h 0.402393 q 0.430467,0 0.664416,-0.1590855 0.243307,-0.1684435 0.243307,-0.4678985 0,-0.2900971 -0.215233,-0.4491826 -0.205876,-0.1684434 -0.589552,-0.1684434 -0.477257,0 -0.73928,0.2152333 -0.252665,0.2152333 -0.262023,0.617626 l -1.43177,-0.1590855 q 0.01872,-0.4585405 0.159086,-0.7860695 0.140369,-0.3368869 0.439825,-0.608268 0.318171,-0.2713812 0.795427,-0.4304667 0.477256,-0.1590855 1.020019,-0.1590855 0.514688,0 0.935797,0.1403696 0.430466,0.1403695 0.729921,0.3930347 0.308813,0.2526652 0.477257,0.6082681 0.168443,0.3556029 0.168443,0.7767115 0,0.4211087 -0.187159,0.7392797 -0.177801,0.308813 -0.524046,0.4866144 0.421108,0.1590855 0.608268,0.4678985 0.196517,0.3088131 0.196517,0.8235014 0,0.963871 -0.617626,1.5066332 -0.608268,0.5427628 -1.703151,0.5427628 -2.245912,0 -2.545367,-1.9932482 l 1.478559,-0.2245912 q 0.112296,0.8422173 1.001303,0.8422173 0.421108,0 0.655058,-0.1778015 0.233949,-0.1778014 0.233949,-0.4866144 0,-0.6457 -1.001303,-0.6457 h -0.393035 z m 7.477022,-0.6550579 -1.618928,2.189765 h 1.618928 z m 2.217839,3.5279548 H 44.342188 V 10.017686 H 42.872986 V 9.0818889 H 39.541549 V 7.7436991 l 3.050698,-3.9677794 h 1.749941 v 3.9677794 h 0.748637 z M 49.105393,6.208992 h 0.402393 q 0.430466,0 0.664416,-0.1590855 0.243307,-0.1684435 0.243307,-0.4678985 0,-0.2900971 -0.215233,-0.4491826 Q 49.9944,4.964382 49.610723,4.964382 q -0.477256,0 -0.739279,0.2152333 -0.252665,0.2152333 -0.262023,0.617626 l -1.43177,-0.1590855 q 0.01872,-0.4585405 0.159086,-0.7860695 0.140369,-0.3368869 0.439824,-0.608268 0.318171,-0.2713812 0.795428,-0.4304667 0.477256,-0.1590855 1.020019,-0.1590855 0.514688,0 0.935797,0.1403696 0.430466,0.1403695 0.729921,0.3930347 0.308813,0.2526652 0.477257,0.6082681 0.168443,0.3556029 0.168443,0.7767115 0,0.4211087 -0.187159,0.7392797 -0.177802,0.308813 -0.524047,0.4866144 0.421109,0.1590855 0.608269,0.4678985 0.196517,0.3088131 0.196517,0.8235014 0,0.963871 -0.617626,1.5066332 -0.608268,0.5427628 -1.703151,0.5427628 -2.245913,0 -2.545368,-1.9932482 l 1.47856,-0.2245912 q 0.112295,0.8422173 1.001302,0.8422173 0.421109,0 0.655058,-0.1778015 0.23395,-0.1778014 0.23395,-0.4866144 0,-0.6457 -1.001303,-0.6457 h -0.393035 z"
       id="text5284"
       transform="scale(0.99093505,1.0091479)"
       aria-label="T-343" />
  </g>
</svg>
