<?xml version="1.0" encoding="UTF-8" standalone="no"?>
<svg
   version="1.2"
   width="375.40665"
   height="180.26561"
   id="svg2"
   sodipodi:docname="ES_CAT_LOC510.svg"
   inkscape:version="1.3.2 (091e20e, 2023-11-25, custom)"
   xmlns:inkscape="http://www.inkscape.org/namespaces/inkscape"
   xmlns:sodipodi="http://sodipodi.sourceforge.net/DTD/sodipodi-0.dtd"
   xmlns="http://www.w3.org/2000/svg"
   xmlns:svg="http://www.w3.org/2000/svg"
   xmlns:rdf="http://www.w3.org/1999/02/22-rdf-syntax-ns#"
   xmlns:cc="http://creativecommons.org/ns#"
   xmlns:dc="http://purl.org/dc/elements/1.1/">
  <sodipodi:namedview
     pagecolor="#ffffff"
     bordercolor="#666666"
     borderopacity="1"
     objecttolerance="10"
     gridtolerance="10"
     guidetolerance="10"
     inkscape:pageopacity="0"
     inkscape:pageshadow="2"
     inkscape:window-width="1920"
     inkscape:window-height="1017"
     id="namedview906"
     showgrid="false"
     inkscape:zoom="1"
     inkscape:cx="46"
     inkscape:cy="-21.5"
     inkscape:window-x="-8"
     inkscape:window-y="-8"
     inkscape:window-maximized="1"
     inkscape:current-layer="layer3"
     fit-margin-top="0"
     fit-margin-left="0"
     fit-margin-right="0"
     fit-margin-bottom="0"
     inkscape:document-rotation="0"
     inkscape:showpageshadow="false"
     inkscape:pagecheckerboard="true"
     inkscape:deskcolor="#d1d1d1" />
  <metadata
     id="metadata3197">
    <rdf:RDF>
      <cc:Work
         rdf:about="">
        <dc:format>image/svg+xml</dc:format>
        <dc:type
           rdf:resource="http://purl.org/dc/dcmitype/StillImage" />
        <dc:title />
      </cc:Work>
    </rdf:RDF>
  </metadata>
  <defs
     id="defs3195" />
  <path
     d="m 374.89892,160.56605 c 0,17.41595 5.06684,19.72823 -16.81215,19.6993 L 26.459069,179.82687 C 4.5800878,179.79794 -0.04990732,182.80518 4.0368335e-4,165.38931 L 0.43888168,13.603683 C 0.48921168,-3.8201589 -2.874036,0.4545549 19.004946,0.48314309 l 335.574004,0.438478 C 376.45794,0.95020929 375.39099,0.5654251 375.3374,17.988461 l -0.43848,142.577589"
     id="path3113"
     style="display:inline;fill:#ffffff;stroke-width:1"
     sodipodi:nodetypes="csssssssc" />
  <path
     d="m 366.77346,158.23405 c 0,18.396 2.96059,14.89693 -15.56241,14.89693 H 27.863113 c -18.5250001,0 -19.5107091,2.18264 -19.5107091,-16.21236 V 23.97003 c 0,-18.4000008 -0.768202,-16.2143648 17.7567981,-16.2143648 h 322.919558 0.42838 c 18.523,0 17.31632,-2.624113 17.31632,15.7758868 z"
     id="path3115"
     style="display:inline;fill:#ffffff;stroke:#000000;stroke-width:7.0629;stroke-miterlimit:3.864"
     sodipodi:nodetypes="sssssscsss" />
  <g
     inkscape:groupmode="layer"
     id="layer1"
     inkscape:label="Layer 4"
     transform="translate(0,-0.00150384)">
    <path
       style="fill:none;fill-rule:evenodd;stroke:#ff0000;stroke-width:4;stroke-linecap:butt;stroke-linejoin:miter;stroke-miterlimit:4;stroke-dasharray:none;stroke-opacity:1"
       d="M 11.838901,167.93701 361.74421,12.277379"
       id="path1471" />
  </g>
  <g
     inkscape:groupmode="layer"
     id="layer3"
     inkscape:label="Layer 1"
     transform="translate(4.0368335e-4,0.04466509)">
    <path
       style="font-size:48px;line-height:28.125px;font-family:TrafficTypeW01-SpainD;-inkscape-font-specification:TrafficTypeW01-SpainD;letter-spacing:1px;word-spacing:0px;stroke:#000000;stroke-width:1px"
       d="m 72.365949,67.382745 h 13.776 v 6.72 h -20.976 v -32.016 h 7.2 z m 33.736001,-16.272 -3.504,11.184 h 7.248 z m 15.504,22.992 h -7.776 l -1.632,-4.944 h -11.76 l -1.487995,4.944 h -7.584 l 10.031995,-32.016 h 9.264 z m 28.30405,-6.72 h 6.576 q 1.824,0 2.88,-0.912 1.104,-0.912 1.104,-2.448 0,-1.536 -1.104,-2.448 -1.056,-0.912 -2.88,-0.912 h -6.576 z m 0,-12.816 h 6.576 q 1.2,0 1.968,-0.816 0.768,-0.816 0.768,-2.064 0,-1.248 -0.768,-2.064 -0.768,-0.816 -1.968,-0.816 h -6.576 z m -7.344,-12.48 h 15.456 q 1.776,0 3.312,0.672 1.584,0.672 2.736,1.824 1.152,1.152 1.824,2.736 0.672,1.584 0.672,3.36 0,1.872 -0.768,3.552 -0.72,1.632 -2.112,2.88 2.16,1.344 3.312,3.456 1.152,2.112 1.152,4.56 0,1.872 -0.72,3.504 -0.672,1.632 -1.872,2.88 -1.152,1.2 -2.784,1.92 -1.584,0.672 -3.408,0.672 h -16.8 z m 41.60804,32.016 h -7.344 v -32.016 h 7.344 z m 31.91201,-22.704 q -1.632,-1.344 -3.888,-2.112 -2.208,-0.816 -4.368,-0.816 -1.68,0 -2.688,0.72 -1.008,0.72 -1.008,1.872 0,0.864 0.624,1.392 0.672,0.528 2.112,0.864 l 3.648,0.864 q 5.232,1.2 7.92,3.888 2.688,2.688 2.688,6.72 0,2.256 -0.96,4.128 -0.912,1.872 -2.64,3.216 -1.68,1.296 -4.032,2.016 -2.352,0.768 -5.184,0.768 -4.656,0 -8.784,-1.824 -4.128,-1.872 -6.816,-5.184 l 6.384,-4.656 q 1.344,2.064 3.888,3.264 2.544,1.2 5.568,1.2 1.824,0 2.928,-0.816 1.152,-0.816 1.152,-2.16 0,-1.056 -0.864,-1.728 -0.816,-0.672 -2.64,-1.2 l -4.416,-1.104 q -1.824,-0.528 -3.024,-0.96 -1.2,-0.432 -2.112,-1.008 -1.92,-1.248 -3.024,-3.264 -1.056,-2.016 -1.056,-4.368 0,-2.16 0.816,-3.888 0.864,-1.776 2.352,-3.024 1.536,-1.248 3.696,-1.92 2.16,-0.672 4.848,-0.672 8.064,0 14.304,5.376 z m 21.30396,15.984 h 6.576 q 1.824,0 2.88,-0.912 1.104,-0.912 1.104,-2.448 0,-1.536 -1.104,-2.448 -1.056,-0.912 -2.88,-0.912 h -6.576 z m 0,-12.816 h 6.576 q 1.2,0 1.968,-0.816 0.768,-0.816 0.768,-2.064 0,-1.248 -0.768,-2.064 -0.768,-0.816 -1.968,-0.816 h -6.576 z m -7.344,-12.48 h 15.456 q 1.776,0 3.312,0.672 1.584,0.672 2.736,1.824 1.152,1.152 1.824,2.736 0.672,1.584 0.672,3.36 0,1.872 -0.768,3.552 -0.72,1.632 -2.112,2.88 2.16,1.344 3.312,3.456 1.152,2.112 1.152,4.56 0,1.872 -0.72,3.504 -0.672,1.632 -1.872,2.88 -1.152,1.2 -2.784,1.92 -1.584,0.672 -3.408,0.672 h -16.8 z m 45.20804,9.024 -3.504,11.184 h 7.248 z m 15.504,22.992 h -7.776 l -1.632,-4.944 h -11.76 l -1.488,4.944 h -7.584 l 10.032,-32.016 h 9.264 z m 14.05602,-6.72 h 13.776 v 6.72 h -20.976 v -32.016 h 7.2 z"
       id="text1502"
       aria-label="LA BISBAL &#10;&#10;" />
    <text
       xml:space="preserve"
       style="font-style:normal;font-variant:normal;font-weight:normal;font-stretch:normal;font-size:29.3333px;line-height:17.1875px;font-family:Ccrige;-inkscape-font-specification:Ccrige;letter-spacing:3px;word-spacing:0px;fill:#000000;stroke:#000000;stroke-width:1px;stroke-linecap:butt;stroke-linejoin:miter;stroke-opacity:1"
       x="132.0011"
       y="132.75752"
       id="text1502-7"><tspan
         sodipodi:role="line"
         id="tspan1500-8"
         x="132.0011"
         y="132.75752"
         style="letter-spacing:3px" /></text>
    <text
       xml:space="preserve"
       style="font-size:42.6667px;line-height:25px;font-family:Haettenschweiler;-inkscape-font-specification:Haettenschweiler;letter-spacing:0px;word-spacing:0px;fill:none;stroke:#000000;stroke-width:1px;stroke-linecap:butt;stroke-linejoin:miter;stroke-opacity:1"
       x="20.608053"
       y="111.3272"
       id="text1442"><tspan
         sodipodi:role="line"
         id="tspan1440"
         x="20.608053"
         y="111.3272" /></text>
    <path
       style="font-size:48px;line-height:28.125px;font-family:TrafficTypeW01-SpainD;-inkscape-font-specification:TrafficTypeW01-SpainD;letter-spacing:1px;word-spacing:0px;stroke:#000000;stroke-width:1px"
       d="m 57.800396,140.61719 h 5.28 q 1.584,0 2.928,-0.672 1.344,-0.672 2.256,-1.872 0.96,-1.248 1.488,-2.928 0.528,-1.728 0.528,-3.792 0,-2.064 -0.528,-3.792 -0.528,-1.728 -1.488,-2.928 -0.912,-1.248 -2.256,-1.92 -1.344,-0.672 -2.928,-0.672 h -5.28 z m 5.28,-25.296 q 3.312,0 6.048,1.2 2.736,1.152 4.704,3.264 1.968,2.112 3.024,5.04 1.104,2.928 1.104,6.48 0,3.552 -1.104,6.528 -1.056,2.928 -3.024,5.04 -1.968,2.112 -4.704,3.312 -2.736,1.152 -6.048,1.152 h -12.624 v -32.016 z m 24.663967,9.6 h -4.176 l -0.624,-9.6 h 5.424 z m 29.992017,-3.216 h -14.736 v 5.808 h 13.152 v 6.72 h -13.152 v 6.048 h 16.176 v 7.056 H 95.656378 v -32.016 h 22.080002 z m 34.26397,-6.384 h 8.016 v 32.016 h -7.2 v -20.64 l -8.928,12.624 -8.976,-12.624 v 20.64 h -7.2 v -32.016 h 8.016 l 7.968,11.376 z m 31.86402,14.736 q 1.536,0 2.592,-1.2 1.104,-1.2 1.104,-2.976 0,-1.776 -1.104,-2.976 -1.056,-1.2 -2.592,-1.2 h -6 v 8.352 z m -0.096,-14.736 q 2.496,0 4.56,0.816 2.112,0.768 3.6,2.16 1.536,1.392 2.352,3.36 0.864,1.92 0.864,4.224 0,2.16 -0.816,4.128 -0.768,1.92 -2.16,3.36 -1.536,1.584 -3.504,2.352 -1.968,0.72 -4.56,0.72 h -6.24 v 10.896 h -7.536 v -32.016 z m 31.52804,6.864 q -1.68,0 -3.168,0.72 -1.488,0.72 -2.592,2.064 -1.872,2.352 -1.872,6.528 0,2.16 0.432,3.744 0.48,1.536 1.44,2.784 1.104,1.344 2.592,2.064 1.488,0.72 3.216,0.72 1.68,0 3.168,-0.72 1.488,-0.72 2.592,-2.064 1.872,-2.448 1.872,-6.384 0,-2.304 -0.48,-3.84 -0.432,-1.584 -1.392,-2.832 -1.104,-1.344 -2.64,-2.064 -1.488,-0.72 -3.168,-0.72 z m 0,-7.344 q 3.504,0 6.48,1.248 2.976,1.248 5.136,3.648 4.08,4.416 4.08,12 0,3.6 -1.152,6.624 -1.152,3.024 -3.216,5.232 -2.064,2.16 -4.992,3.36 -2.88,1.2 -6.336,1.2 -3.504,0 -6.384,-1.2 -2.88,-1.2 -4.944,-3.408 -2.064,-2.208 -3.216,-5.28 -1.104,-3.072 -1.104,-6.768 0,-3.696 1.152,-6.768 1.152,-3.072 3.216,-5.232 2.064,-2.208 4.944,-3.408 2.88,-1.248 6.336,-1.248 z m 31.43204,13.776 h 6.576 q 1.296,0 2.256,-0.96 0.96,-1.008 0.96,-2.4 0,-1.392 -0.96,-2.352 -0.96,-1.008 -2.256,-1.008 h -6.576 z m 7.536,-13.296 q 4.512,0 7.392,3.12 1.248,1.392 1.968,3.216 0.72,1.776 0.72,3.6 0,3.024 -1.632,5.424 -1.632,2.352 -4.608,3.744 l 7.824,12.912 h -8.016 l -7.44,-12.144 h -3.744 v 12.144 h -7.2 v -32.016 z m 26.87204,25.296 h 5.28 q 1.584,0 2.928,-0.672 1.344,-0.672 2.256,-1.872 0.96,-1.248 1.488,-2.928 0.528,-1.728 0.528,-3.792 0,-2.064 -0.528,-3.792 -0.528,-1.728 -1.488,-2.928 -0.912,-1.248 -2.256,-1.92 -1.344,-0.672 -2.928,-0.672 h -5.28 z m 5.28,-25.296 q 3.312,0 6.048,1.2 2.736,1.152 4.704,3.264 1.968,2.112 3.024,5.04 1.104,2.928 1.104,6.48 0,3.552 -1.104,6.528 -1.056,2.928 -3.024,5.04 -1.968,2.112 -4.704,3.312 -2.736,1.152 -6.048,1.152 h -12.624 v -32.016 z m 36.85594,-1.68 h -6.288 l -4.272,-7.488 h 7.872 z m -3.264,10.704 -3.504,11.184 h 7.248 z m 15.504,22.992 h -7.776 l -1.632,-4.944 h -11.76 l -1.488,4.944 h -7.584 l 10.032,-32.016 h 9.264 z"
       id="text1502-8"
       aria-label="D'EMPORDÀ &#10;&#10;" />
  </g>
  <g
     inkscape:groupmode="layer"
     id="layer5"
     inkscape:label="Layer 3"
     transform="translate(4.0368335e-4,0.04466509)">
    <text
       xml:space="preserve"
       style="font-size:42.6667px;line-height:25px;font-family:'Andale Mono IPA';-inkscape-font-specification:'Andale Mono IPA';letter-spacing:0px;word-spacing:0px;fill:none;stroke:#000000;stroke-width:1px;stroke-linecap:butt;stroke-linejoin:miter;stroke-opacity:1"
       x="133.73573"
       y="169.69092"
       id="text1522"><tspan
         sodipodi:role="line"
         id="tspan1520"
         x="133.73573"
         y="169.69092" /></text>
  </g>
</svg>
