<?xml version="1.0" encoding="UTF-8" standalone="no"?>
<svg
   version="1.2"
   width="294.2403"
   height="211.08519"
   id="svg2"
   sodipodi:docname="ES_CAT_OR41c.svg"
   inkscape:version="1.3.2 (091e20e, 2023-11-25, custom)"
   xmlns:inkscape="http://www.inkscape.org/namespaces/inkscape"
   xmlns:sodipodi="http://sodipodi.sourceforge.net/DTD/sodipodi-0.dtd"
   xmlns="http://www.w3.org/2000/svg"
   xmlns:svg="http://www.w3.org/2000/svg"
   xmlns:rdf="http://www.w3.org/1999/02/22-rdf-syntax-ns#"
   xmlns:cc="http://creativecommons.org/ns#"
   xmlns:dc="http://purl.org/dc/elements/1.1/">
  <sodipodi:namedview
     pagecolor="#ffffff"
     bordercolor="#666666"
     borderopacity="1"
     objecttolerance="10"
     gridtolerance="10"
     guidetolerance="10"
     inkscape:pageopacity="0"
     inkscape:pageshadow="2"
     inkscape:window-width="1920"
     inkscape:window-height="1017"
     id="namedview6659"
     showgrid="false"
     inkscape:zoom="1"
     inkscape:cx="281"
     inkscape:cy="-148.5"
     inkscape:window-x="-8"
     inkscape:window-y="-8"
     inkscape:window-maximized="1"
     inkscape:current-layer="layer11"
     fit-margin-top="0"
     fit-margin-left="0"
     fit-margin-right="0"
     fit-margin-bottom="0"
     inkscape:document-rotation="0"
     inkscape:showpageshadow="false"
     inkscape:pagecheckerboard="true"
     inkscape:deskcolor="#d1d1d1" />
  <metadata
     id="metadata4010">
    <rdf:RDF>
      <cc:Work
         rdf:about="">
        <dc:format>image/svg+xml</dc:format>
        <dc:type
           rdf:resource="http://purl.org/dc/dcmitype/StillImage" />
        <dc:title />
      </cc:Work>
    </rdf:RDF>
  </metadata>
  <defs
     id="defs4008" />
  <g
     inkscape:groupmode="layer"
     id="layer11"
     inkscape:label="Layer 1"
     style="display:inline"
     transform="translate(-3.654911,30.180049)">
    <path
       d="m 297.78649,167.75296 c 0.34023,3.78664 -0.062,7.63133 -2.00947,10.56364 -0.32361,0.201 -0.33662,0.51165 -1.994,1.10397 l -3.76478,1.34548 c 6.75792,0.22776 -110.91668,-0.12768 -197.607333,0.0615 -21.662089,0.0473 -43.199414,-0.13864 -59.929292,0.0398 -4.918851,0.0525 -9.30894,0.0456 -13.375464,0.008 -2.857475,-0.0261 -5.713385,0.0277 -7.797074,-0.33358 -7.1943343,-1.24731 -6.817864,-5.45661 -6.8294367,-8.88412 L 3.95942,17.58345 C 3.8994511,-0.17759478 0.30006,2.0673684 19.51187,2.0673684 h 262.91995 c 10.13712,0 13.30972,-0.5145413 14.43956,1.430214 1.01172,1.7414474 0.87916,5.3550654 0.91195,13.7458406 0.14946,38.241615 -0.15031,76.816319 -0.0413,115.075477 0.0539,18.9121 0.007,-19.37763 -0.0157,-0.56247 -0.0113,9.43886 0.32673,26.51339 0.0602,35.99653 z"
       id="path3217"
       style="fill:#000080;stroke-width:0.999997"
       sodipodi:nodetypes="ccscsssssssssssscc" />
    <path
       d="m 289.76093,164.09696 c 0,10.76106 1.16348,8.93465 -9.59873,8.89385 L 16.67497,171.99195 C 5.91277,171.95115 8.49073,172.4475 8.49073,161.6855 V 81.435851 c 0,-10.764824 -0.45905,-8.93697 10.30314,-8.895729 l 260.66203,0.998862 c 10.76221,0.04124 10.30503,0.955173 10.30503,11.720937 z"
       id="path3243"
       style="fill:none;stroke:#ffffff;stroke-width:4;stroke-miterlimit:3.864"
       sodipodi:nodetypes="sssssssss" />
    <path
       d="m 150.57922,141.42325 -0.1784,9.20626 12.58035,-2.58202 -15.89901,15.30017 -15.29687,-15.89189 12.47648,3.05729 0.0496,-15.45944 6.13906,0.11644"
       id="polyline3245"
       style="fill:#ffffff;stroke-width:0.999997"
       sodipodi:nodetypes="cccccccc" />
    <text
       xml:space="preserve"
       style="font-size:38.6689px;line-height:22.6576px;font-family:'Andale Mono IPA';-inkscape-font-specification:'Andale Mono IPA';letter-spacing:0px;word-spacing:0px;fill:#ffffff;fill-opacity:1;stroke:none;stroke-width:0.999997px;stroke-linecap:butt;stroke-linejoin:miter;stroke-opacity:1"
       x="307.61365"
       y="178.6953"
       id="text4113"
       transform="scale(1.067666,0.9366225)"><tspan
         sodipodi:role="line"
         id="tspan4111"
         x="307.61365"
         y="178.6953"
         style="font-style:normal;font-variant:normal;font-weight:normal;font-stretch:normal;font-size:38.6689px;font-family:'Highway Gothic Wide';-inkscape-font-specification:'Highway Gothic Wide';fill:#ffffff;fill-opacity:1;stroke:none;stroke-width:0.999997px" /></text>
    <path
       d="M 10.85674,55.217002 V 16.59514 c 0,-8.1207908 -1.34082,-6.113885 5.48767,-6.092352 l 264.73496,0.834835 c 6.91376,0.0218 6.5425,-2.0276538 6.5425,6.092352 v 36.502956 c 0,8.120781 1.60729,8.582155 -5.30647,8.560468 L 16.16783,61.658564 c -6.82849,-0.02142 -5.31109,1.679219 -5.31109,-6.441562 h -3.58082 3.58082 m -3.58082,0 c 0,10.452017 0.0992,10.681082 8.89191,10.708662 l 266.14757,0.834835 c 8.79271,0.02758 8.89125,-2.374766 8.89125,-12.827568 V 17.429975 c 0,-10.4606628 -1.33523,-10.3317268 -10.12728,-10.3594523 L 16.34441,6.2356875 C 7.5517,6.2079599 7.27592,6.1344772 7.27592,16.59514 Z"
       id="path5608"
       style="fill:#ffffff;stroke-width:0.999997"
       sodipodi:nodetypes="cssssssscccsssssssss" />
    <g
       id="g5651"
       transform="matrix(0.53249244,0,0,0.53249352,-5.32698,-14.893022)"
       style="stroke-width:1.87796">
      <path
         d="M 53.950398,130.92797 H 81.72097 l 2.616542,-67.631163 h -8.05066 L 53.950398,130.92797"
         id="polyline5612"
         style="fill:#ffffff;stroke-width:1.87796" />
      <path
         d="m 91.185094,130.92797 h 27.561746 l -10.05787,-31.800578 20.323,-22.947344 6.64656,16.099763 V 63.296807 h -28.98301 l 16.30859,6.646548 -19.7277,12.280143 -6.035656,-18.926691 h -8.05066 l 2.015,67.631163"
         id="polyline5614"
         style="fill:#ffffff;stroke-width:1.87796" />
    </g>
    <path
       style="font-size:28.1783px;line-height:16.5108px;font-family:'Highway Gothic Wide';-inkscape-font-specification:'Highway Gothic Wide';letter-spacing:0px;word-spacing:0px;fill:#ffffff;stroke-width:0.999997px"
       d="m 258.18531,40.981222 q 0,2.536047 -2.02884,4.198566 -2.00066,1.634342 -5.1848,1.634342 -3.3814,0 -5.69202,-1.916125 -2.31062,-1.944302 -2.31062,-5.438412 0.0564,-4.649419 3.66318,-8.368955 3.635,-3.719536 8.90434,-3.804071 v 3.184148 q -5.88926,0.929884 -8.28442,5.438412 1.74706,-0.619922 3.86043,-0.619922 3.07143,0 5.07209,1.606163 2.00066,1.606163 2.00066,4.085854 z m -3.35322,0.02818 q 0,-1.098954 -1.09895,-1.747055 -1.09895,-0.676279 -2.87419,-0.676279 -1.91612,0 -2.95872,0.591744 -1.01442,0.563566 -0.98624,1.606164 -0.0845,1.098953 1.0426,1.859767 1.12713,0.732636 2.90236,0.732636 1.77524,0 2.87419,-0.648101 1.09895,-0.676279 1.09895,-1.718876 z M 275.994,40.586725 q 0,2.620582 -2.14155,4.423994 -2.14155,1.803411 -5.3257,1.803411 -4.59306,-0.05636 -7.60814,-3.296861 l 2.53605,-2.536047 q 2.16973,2.282442 5.26934,2.395155 1.74706,0 2.81783,-0.732636 1.09896,-0.732635 1.09896,-1.916124 -0.0564,-1.380737 -1.01442,-2.085194 -0.95807,-0.704458 -2.0852,-0.760814 h -1.15531 v -3.381397 h 1.0426 q 0.84535,0 1.54981,-0.535387 0.73263,-0.535388 0.73263,-1.32438 0,-0.873528 -0.92988,-1.437094 -0.92989,-0.563566 -2.39516,-0.563566 -2.42333,0 -4.2831,1.577985 l -2.28244,-2.282442 q 2.70511,-2.648761 6.76279,-2.648761 2.84601,0 4.70578,1.49345 1.85976,1.49345 1.85976,3.804071 0,2.395156 -1.57798,3.522288 2.45151,1.577984 2.42333,4.480349 z"
       id="text5284-6"
       transform="scale(0.99551619,1.004504)"
       aria-label="63" />
    <path
       style="font-size:42.6667px;line-height:25px;font-family:'Highway Gothic Wide';-inkscape-font-specification:'Highway Gothic Wide';letter-spacing:0px;word-spacing:0px;fill:#ffffff;stroke-width:1px"
       d="m 60.202028,107.23067 q 0,8.78934 -6.912006,12.62934 -3.114669,1.70667 -6.741338,1.70667 H 37.332677 V 92.979993 h 9.216007 q 3.669336,0 6.826672,1.834668 6.826672,3.88267 6.826672,12.416009 z m -5.120004,0 q 0,-5.67467 -4.224003,-8.021339 -1.962669,-1.109334 -4.309337,-1.109334 h -4.01067 v 18.346683 h 4.01067 q 2.090668,0 4.096003,-1.10934 4.437337,-2.38933 4.437337,-8.10667 z m 27.519988,5.504 H 69.84467 q 0.170666,2.21867 1.450667,3.41334 1.322668,1.19467 2.688002,1.19467 1.749335,0 3.456003,-1.62134 l 3.157336,3.15734 q -2.688002,3.2 -6.613339,3.2 -3.840002,0 -6.528004,-3.11467 -2.645336,-3.15733 -2.645336,-7.72267 0,-4.52267 2.602669,-7.68001 2.602668,-3.15733 6.357338,-3.15733 4.437337,0.0427 6.613338,3.41333 2.176002,3.37067 2.218668,7.42401 z m -5.03467,-4.01067 q -0.08533,-1.664 -1.194667,-2.73066 -1.066668,-1.06667 -2.474669,-1.024 -1.578668,-0.0427 -2.730669,1.10933 -1.109334,1.10933 -1.152001,2.64533 z m 25.728058,6.91201 q -0.0427,2.816 -2.38934,4.608 -2.346664,1.74934 -6.144,1.792 -5.077337,-0.0853 -9.30134,-2.47466 l 2.304002,-4.43734 q 3.626669,2.09067 6.869338,2.13333 2.090668,0 2.858669,-0.512 0.810667,-0.512 0.810667,-1.408 0,-0.93866 -0.768001,-1.408 -0.768,-0.46933 -3.114669,-0.896 -4.693336,-0.81067 -6.357338,-2.47467 -1.621334,-1.70667 -1.578667,-3.62667 -0.04267,-2.73067 2.133334,-4.65067 2.176002,-1.96266 5.888005,-1.96266 4.181336,0 8.02134,2.26133 l -2.09067,4.13867 q -2.645334,-1.49333 -5.80267,-1.664 -1.877335,0.0427 -2.517335,0.46933 -0.640001,0.384 -0.640001,1.06667 -0.04267,0.68267 0.597334,1.024 0.682667,0.34133 2.560002,0.59733 4.437337,0.55467 6.528,2.43201 2.09067,1.83466 2.13334,4.992 z m 15.91469,0.512 -1.49333,5.376 q -1.28001,0.512 -2.81601,0.55467 -2.432,0 -3.84,-1.83467 -1.36533,-1.87733 -1.36533,-4.608 v -10.02667 h -3.41334 v -4.77867 h 3.41334 v -5.717342 l 5.20533,-2.602669 v 8.320011 h 4.30934 v 4.77867 h -4.30934 v 9.77067 q 0.128,1.96267 1.83467,1.92 1.19467,0.0853 2.47467,-1.152 z m 9.55736,-21.162682 q 0,1.109334 -0.768,1.877335 -0.768,0.768 -1.792,0.768 -1.10934,0 -1.83467,-0.725334 -0.72534,-0.725334 -0.72534,-1.920001 0,-1.024001 0.72534,-1.749335 0.768,-0.725334 1.83467,-0.725334 1.024,0 1.792,0.725334 0.768,0.725334 0.768,1.749335 z m 0,5.717342 v 20.86401 h -5.12001 v -20.86401 z m 4.43736,0.128 h 4.82134 v 1.62133 q 1.92,-1.92 5.07734,-1.92 3.37067,0 5.46133,2.34667 2.13334,2.304 2.17601,6.016 v 12.67201 h -5.12001 v -12.41601 q 0,-1.664 -1.024,-2.73067 -0.98133,-1.06666 -2.688,-1.06666 -1.536,0 -2.73067,1.152 -1.152,1.10933 -1.152,2.56 v 12.50134 h -4.82134 z m 38.61341,20.73601 h -4.82134 v -0.896 q -2.26134,1.28 -5.12001,1.28 -3.66933,0 -5.58933,-2.048 -1.92,-2.09067 -1.92,-5.248 0,-3.24267 2.26133,-5.03467 2.304,-1.79201 5.76,-1.79201 2.34667,0 4.56534,0.64 -0.0853,-3.24266 -3.54133,-3.456 -2.56001,-0.0427 -5.03467,1.49334 l -2.38934,-3.79734 q 3.84,-2.51734 7.50934,-2.51734 3.54133,0 5.93067,2.43201 2.38934,2.432 2.38934,6.31467 z m -4.82134,-5.07734 v -3.49867 q -2.47467,-0.68266 -4.35201,-0.68266 -1.74933,0 -2.73066,0.768 -0.98134,0.768 -0.98134,1.83467 0,1.10933 0.93867,1.92 0.93867,0.81066 2.64533,0.81066 1.92001,0 4.48001,-1.152 z m 25.60006,1.66401 q -3.15734,3.92533 -7.72267,3.92533 -4.30934,0 -7.12534,-3.072 -2.81601,-3.11467 -2.81601,-7.85067 0,-4.73601 2.81601,-7.85068 2.816,-3.11467 7.12534,-3.11467 4.56533,0 7.72267,3.92534 l -3.02934,3.02934 q -2.00533,-1.87734 -4.608,-2.00534 -2.26134,0 -3.712,1.70667 -1.40801,1.664 -1.40801,4.30934 0,2.60267 1.40801,4.30933 1.45066,1.70667 3.712,1.70667 2.60267,-0.21333 4.30934,-2.34667 z m 9.08803,-23.168022 q 0,1.109334 -0.768,1.877335 -0.768,0.768 -1.792,0.768 -1.10933,0 -1.83467,-0.725334 -0.72533,-0.725334 -0.72533,-1.920001 0,-1.024001 0.72533,-1.749335 0.768,-0.725334 1.83467,-0.725334 1.024,0 1.792,0.725334 0.768,0.725334 0.768,1.749335 z m 0,5.717342 v 20.86401 h -5.12 v -20.86401 z m 22.3574,10.45334 q 0,4.52267 -2.688,7.72267 -2.64534,3.2 -6.44268,3.2 -3.84,0 -6.48533,-3.2 -2.64534,-3.2 -2.64534,-7.72267 0,-4.56534 2.64534,-7.76534 2.64533,-3.20001 6.48533,-3.20001 3.79734,0 6.44268,3.20001 2.688,3.2 2.688,7.76534 z m -4.94934,0 q 0,-2.56001 -1.152,-4.18134 -1.152,-1.664 -2.98667,-1.664 -1.92,0 -3.072,1.664 -1.152,1.664 -1.152,4.18134 0,2.51733 1.152,4.224 1.152,1.664 3.072,1.664 1.83467,0 2.98667,-1.664 1.152,-1.70667 1.152,-4.224 z m 8.14938,-10.32534 h 4.82134 v 1.62133 q 1.92,-1.92 5.07733,-1.92 3.37067,0 5.46134,2.34667 2.13334,2.304 2.176,6.016 v 12.67201 h -5.12 v -12.41601 q 0,-1.664 -1.024,-2.73067 -0.98134,-1.06666 -2.688,-1.06666 -1.536,0 -2.73067,1.152 -1.152,1.10933 -1.152,2.56 v 12.50134 h -4.82134 z m 38.35739,14.80534 q -0.0427,2.816 -2.38934,4.608 -2.34667,1.74934 -6.144,1.792 -5.07734,-0.0853 -9.30134,-2.47466 l 2.304,-4.43734 q 3.62667,2.09067 6.86934,2.13333 2.09067,0 2.85867,-0.512 0.81066,-0.512 0.81066,-1.408 0,-0.93866 -0.768,-1.408 -0.768,-0.46933 -3.11467,-0.896 -4.69333,-0.81067 -6.35733,-2.47467 -1.62134,-1.70667 -1.57867,-3.62667 -0.0427,-2.73067 2.13333,-4.65067 2.176,-1.96266 5.88801,-1.96266 4.18133,0 8.02134,2.26133 l -2.09067,4.13867 q -2.64534,-1.49333 -5.80267,-1.664 -1.87734,0.0427 -2.51734,0.46933 -0.64,0.384 -0.64,1.06667 -0.0427,0.68267 0.59734,1.024 0.68266,0.34133 2.56,0.59733 4.43733,0.55467 6.528,2.43201 2.09067,1.83466 2.13334,4.992 z"
       id="text5780"
       aria-label="Destinacions" />
    <path
       id="rect5280"
       style="display:inline;fill:#000080;stroke:#ffffff;stroke-width:1.99999;stroke-linecap:round;stroke-linejoin:round;stroke-miterlimit:2.613"
       d="m 121.50461,-29.180054 h 72.30058 v 28.31203108 h -72.30058 z" />
    <path
       style="font-size:28.1783px;line-height:16.5108px;font-family:'Highway Gothic Wide';-inkscape-font-specification:'Highway Gothic Wide';letter-spacing:0px;word-spacing:0px;fill:#ffffff;stroke-width:0.999997px"
       d="m 145.06308,-9.7060182 q -2.62058,4.1703885 -7.29818,4.1703885 -3.69136,0 -5.86108,-2.6769386 -2.14156,-2.6769387 -2.14156,-7.1291097 0,-4.48035 2.14156,-7.100932 2.14155,-2.620582 5.86108,-2.620582 4.70578,0 7.29818,4.170388 l -3.07143,1.521629 q -1.46527,-2.254264 -4.22675,-2.338799 -2.14155,0.05636 -3.35322,1.916124 -1.21166,1.83159 -1.21166,4.395815 0,3.043257 1.23984,4.733955 1.26803,1.6625193 3.3814,1.6625193 2.81783,-0.028178 4.08585,-2.2824423 z m 8.84797,-4.1140318 h -6.25559 v -3.381396 h 6.25559 z m 17.24511,2.057016 q 0,2.6205818 -2.14155,4.4239931 -2.14156,1.8034112 -5.3257,1.8034112 -4.59307,-0.056357 -7.60814,-3.2968612 l 2.53604,-2.5360471 q 2.16973,2.2824424 5.26934,2.3951556 1.74706,0 2.81783,-0.7326358 1.09896,-0.7326358 1.09896,-1.9161248 -0.0564,-1.380736 -1.01442,-2.085194 -0.95806,-0.704457 -2.08519,-0.760814 h -1.15532 v -3.381396 h 1.0426 q 0.84535,0 1.54981,-0.535388 0.73263,-0.535388 0.73263,-1.32438 0,-0.873527 -0.92988,-1.437093 -0.92988,-0.563566 -2.39516,-0.563566 -2.42333,0 -4.2831,1.577984 l -2.28244,-2.282442 q 2.70512,-2.64876 6.76279,-2.64876 2.84601,0 4.70578,1.49345 1.85977,1.49345 1.85977,3.80407 0,2.395156 -1.57799,3.522288 2.45151,1.577985 2.42334,4.48035 z m 17.94958,5.8892647 h -15.21628 q 0.56356,-7.4108927 7.72085,-10.4259717 1.85977,-0.760814 3.04326,-1.465271 1.18349,-0.732636 1.09895,-1.690698 0,-0.929884 -0.92988,-1.549807 -0.92988,-0.648101 -2.90237,-0.676279 -2.95872,0.08453 -5.24116,2.366977 l -2.73329,-2.197907 q 3.40957,-3.49411 7.88992,-3.550466 3.32504,0 5.29752,1.66252 1.97248,1.634341 1.97248,3.944962 -0.0282,2.000659 -1.07077,3.184148 -1.0426,1.15531 -3.97314,2.423334 -4.64942,2.226085 -5.55113,4.5930626 h 10.59504 z"
       id="text5284"
       transform="scale(0.99551619,1.004504)"
       aria-label="C-32" />
  </g>
</svg>
