<?xml version="1.0" encoding="UTF-8" standalone="no"?>
<svg
   width="398"
   height="203"
   viewBox="0 0 105.3045 53.710417"
   version="1.1"
   id="svg4433"
   inkscape:version="1.3.2 (091e20e, 2023-11-25, custom)"
   sodipodi:docname="ES_CAT_OR52.svg"
   xmlns:inkscape="http://www.inkscape.org/namespaces/inkscape"
   xmlns:sodipodi="http://sodipodi.sourceforge.net/DTD/sodipodi-0.dtd"
   xmlns="http://www.w3.org/2000/svg"
   xmlns:svg="http://www.w3.org/2000/svg"
   xmlns:rdf="http://www.w3.org/1999/02/22-rdf-syntax-ns#"
   xmlns:cc="http://creativecommons.org/ns#"
   xmlns:dc="http://purl.org/dc/elements/1.1/">
  <defs
     id="defs4427">
    <rect
       x="38.364582"
       y="48.097469"
       width="28.915178"
       height="15.591518"
       id="rect5326" />
    <rect
       x="70.681549"
       y="45.357143"
       width="16.441963"
       height="13.134672"
       id="rect5320" />
    <rect
       x="72.949402"
       y="12.85119"
       width="1.5119047"
       height="19.182291"
       id="rect5314" />
  </defs>
  <sodipodi:namedview
     id="base"
     pagecolor="#ffffff"
     bordercolor="#666666"
     borderopacity="1.0"
     inkscape:pageopacity="0.0"
     inkscape:pageshadow="2"
     inkscape:zoom="1.32"
     inkscape:cx="270.45455"
     inkscape:cy="123.86364"
     inkscape:document-units="px"
     inkscape:current-layer="layer1"
     inkscape:document-rotation="0"
     showgrid="true"
     inkscape:pagecheckerboard="true"
     inkscape:showpageshadow="false"
     units="px"
     inkscape:window-width="1920"
     inkscape:window-height="1017"
     inkscape:window-x="-8"
     inkscape:window-y="-8"
     inkscape:window-maximized="1"
     inkscape:deskcolor="#d1d1d1">
    <inkscape:grid
       type="xygrid"
       id="grid4018"
       originx="0"
       originy="0"
       spacingy="1"
       spacingx="1"
       units="px"
       visible="true" />
  </sodipodi:namedview>
  <metadata
     id="metadata4430">
    <rdf:RDF>
      <cc:Work
         rdf:about="">
        <dc:format>image/svg+xml</dc:format>
        <dc:type
           rdf:resource="http://purl.org/dc/dcmitype/StillImage" />
      </cc:Work>
    </rdf:RDF>
  </metadata>
  <g
     inkscape:label="Capa 1"
     inkscape:groupmode="layer"
     id="layer1">
    <path
       id="rect5257"
       style="fill:#ffffff;stroke:#000000;stroke-width:2.29905;stroke-linecap:round;stroke-linejoin:round;stroke-miterlimit:2.613;stroke-dasharray:none;stroke-opacity:1"
       d="m 3.9943389,19.489888 80.7452901,0.543116 6.138128,0.110423 12.106163,13.63942 -12.121554,13.517309 -86.6507807,0.216151 z"
       sodipodi:nodetypes="ccccccc" />
    <path
       style="fill:#000000;stroke:none;stroke-width:2.29905;stroke-linecap:round;stroke-linejoin:round;stroke-miterlimit:2.613;stroke-dasharray:none;stroke-opacity:1"
       d="m 91.088345,48.194066 -2.275609,-0.314103 9.337715,-14.099847 -9.803015,-13.061852 2.530321,-0.574837 13.626883,13.63942 z"
       id="path5278"
       sodipodi:nodetypes="ccccccc" />
    <text
       xml:space="preserve"
       style="font-size:11.2889px;line-height:6.61458px;font-family:'Highway Gothic Wide';-inkscape-font-specification:'Highway Gothic Wide';letter-spacing:0px;word-spacing:0px;fill:none;stroke:#000000;stroke-width:0.264583px;stroke-linecap:butt;stroke-linejoin:miter;stroke-opacity:1"
       x="10.110864"
       y="40.91592"
       id="text5292"><tspan
         sodipodi:role="line"
         id="tspan5290"
         x="10.110864"
         y="40.91592"
         style="stroke-width:0.264583px" /></text>
    <path
       style="font-size:13.9855px;line-height:5.73622px;font-family:TrafficTypeW01-SpainD;-inkscape-font-specification:TrafficTypeW01-SpainD;letter-spacing:0.786682px;word-spacing:0px;stroke-width:0.304145px"
       d="m 16.836679,30.260476 h -3.118874 v 8.472407 H 11.258074 V 30.260476 H 8.1552764 v -2.250734 h 8.6814026 z m 6.933061,-2.813417 h -2.106045 l -1.430823,-2.507961 h 2.636574 z m -1.093214,3.585097 -1.173598,3.745865 h 2.427578 z m 5.192764,7.700727 h -2.60442 l -0.546607,-1.655898 h -3.938784 l -0.498378,1.655898 h -2.540114 l 3.360025,-10.723141 h 3.102797 z m 5.27717,-6.269902 h 2.202503 q 0.434071,0 0.755604,-0.321534 0.321534,-0.33761 0.321534,-0.803833 0,-0.466224 -0.321534,-0.787758 -0.321533,-0.337609 -0.755604,-0.337609 H 33.14646 Z m 2.524037,-4.453239 q 1.511207,0 2.475807,1.044984 0.417993,0.466223 0.659144,1.077137 0.24115,0.594837 0.24115,1.205751 0,1.012829 -0.546607,1.816663 -0.546607,0.787757 -1.543361,1.25398 l 2.620498,4.324626 H 36.892324 L 34.40044,34.665484 h -1.25398 v 4.067399 H 30.734958 V 28.009742 Z m 9.521419,4.453239 h 2.202504 q 0.434071,0 0.755604,-0.321534 0.321533,-0.33761 0.321533,-0.803833 0,-0.466224 -0.321533,-0.787758 -0.321533,-0.337609 -0.755604,-0.337609 h -2.202504 z m 2.524037,-4.453239 q 1.511207,0 2.475808,1.044984 0.417993,0.466223 0.659144,1.077137 0.241149,0.594837 0.241149,1.205751 0,1.012829 -0.546606,1.816663 -0.546607,0.787757 -1.543361,1.25398 l 2.620498,4.324626 H 48.93778 l -2.491883,-4.067399 h -1.253981 v 4.067399 h -2.4115 V 28.009742 Z m 14.505191,2.138198 h -4.935538 v 1.945277 h 4.405008 v 2.250734 h -4.405008 v 2.02566 h 5.417838 v 2.363272 H 54.825875 V 28.009742 h 7.395269 z m 13.026108,2.315041 v 6.269902 H 73.36628 l -0.208996,-0.450147 q -0.67522,0.38584 -1.25398,0.546607 -0.562684,0.176842 -1.270058,0.176842 -1.06106,0 -2.07389,-0.434069 -0.996754,-0.434071 -1.704127,-1.205751 -1.366518,-1.49513 -1.366518,-3.906631 0,-2.636574 1.575514,-4.179934 0.67522,-0.675221 1.623744,-1.044985 0.964601,-0.38584 1.945277,-0.38584 1.366518,0 2.507961,0.691298 1.15752,0.67522 1.897047,1.9292 l -2.12212,1.093214 Q 72.5946,30.839236 71.983687,30.453396 71.372773,30.05148 70.56894,30.05148 q -0.578761,0 -1.044984,0.208996 -0.466224,0.19292 -0.803833,0.562684 -0.337611,0.369763 -0.530531,0.900294 -0.176843,0.514453 -0.176843,1.141443 v 1.125367 q 0,0.610913 0.112539,1.044984 0.112538,0.417994 0.38584,0.787756 0.369764,0.498378 0.884217,0.771681 0.53053,0.273304 1.141443,0.273304 0.482301,0 0.900294,-0.144691 0.417994,-0.160767 0.739527,-0.450147 0.321533,-0.28938 0.530531,-0.67522 0.208996,-0.401916 0.273303,-0.884216 h -2.556191 v -2.250734 z m 7.624362,-1.430825 -1.173598,3.745865 h 2.427578 z m 5.192764,7.700727 h -2.604421 l -0.546606,-1.655898 h -3.938784 l -0.498378,1.655898 H 77.936075 L 81.2961,28.009742 h 3.102797 z"
       id="text5288-1"
       aria-label="TÀRREGA " />
    <text
       xml:space="preserve"
       id="text5312"
       style="font-size:11.2889px;line-height:6.61458px;font-family:'Highway Gothic Wide';-inkscape-font-specification:'Highway Gothic Wide';letter-spacing:0px;word-spacing:0px;white-space:pre;shape-inside:url(#rect5314);fill:none;stroke:#000000;stroke-width:0.264583px;stroke-linecap:butt;stroke-linejoin:miter;stroke-opacity:1" />
    <text
       xml:space="preserve"
       id="text5318"
       style="font-size:11.2889px;line-height:6.61458px;font-family:'Highway Gothic Wide';-inkscape-font-specification:'Highway Gothic Wide';letter-spacing:0px;word-spacing:0px;white-space:pre;shape-inside:url(#rect5320);fill:none;stroke:#000000;stroke-width:0.264583px;stroke-linecap:butt;stroke-linejoin:miter;stroke-opacity:1" />
    <text
       xml:space="preserve"
       id="text5324"
       style="font-size:11.2889px;line-height:6.61458px;font-family:'Highway Gothic Wide';-inkscape-font-specification:'Highway Gothic Wide';letter-spacing:0px;word-spacing:0px;white-space:pre;shape-inside:url(#rect5326);fill:none;stroke:#000000;stroke-width:0.264583px;stroke-linecap:butt;stroke-linejoin:miter;stroke-opacity:1" />
  </g>
  <g
     inkscape:groupmode="layer"
     id="layer5"
     inkscape:label="Capa 3"
     style="display:inline">
    <path
       id="rect5280"
       style="display:inline;fill:#ff2121;stroke:#ffffff;stroke-width:0.608286;stroke-linecap:round;stroke-linejoin:round;stroke-miterlimit:2.613"
       d="m 13.811914,1.1998133 h 36.914684 c 1.010977,0 1.824869,0.813892 1.824869,1.8248698 V 15.563676 c 0,1.010978 -0.813892,1.82487 -1.824869,1.82487 H 13.811914 c -1.010977,0 -1.824869,-0.813892 -1.824869,-1.82487 V 3.0246831 c 0,-1.0109778 0.813892,-1.8248698 1.824869,-1.8248698 z" />
    <path
       style="font-size:13.8842px;line-height:8.13528px;font-family:TrafficTypeW01-SpainD;-inkscape-font-specification:TrafficTypeW01-SpainD;letter-spacing:0px;word-spacing:0px;fill:#ffffff;stroke-width:0.304145px"
       d="m 25.957141,11.387461 q -0.645287,1.634675 -1.888641,2.524844 -1.243356,0.873984 -2.911655,0.873984 -1.148924,0 -2.093245,-0.404623 -0.94432,-0.420807 -1.636822,-1.165312 -0.676763,-0.744504 -1.054491,-1.780338 -0.377728,-1.035833 -0.377728,-2.2982539 0,-1.2138669 0.34625,-2.2173309 0.346252,-1.0196475 1.038754,-1.7641535 0.70824,-0.7768743 1.684037,-1.1814966 0.975798,-0.4208072 2.061767,-0.4208072 1.699777,0 2.958871,0.8901695 1.259094,0.8901691 1.857163,2.5086583 L 23.423213,7.8753401 Q 23.171395,7.0013557 22.557586,6.5158089 21.959517,6.0302622 21.109628,6.0302622 q -0.566592,0 -1.023014,0.2265887 -0.456421,0.210404 -0.786933,0.631211 -0.330512,0.4046223 -0.503638,0.9872782 -0.173126,0.5664712 -0.173126,1.2786067 0,1.4890092 0.676764,2.2982542 0.330512,0.404622 0.81841,0.631211 0.503639,0.226589 1.038754,0.226589 0.849887,0 1.463696,-0.517917 0.629547,-0.534101 0.802672,-1.375716 z m 4.454035,0.372253 H 26.79128 V 9.7042334 h 3.619896 z m 5.760369,2.751432 H 33.763528 V 7.4383485 h -1.77847 V 5.2857573 h 0.928581 q 0.4879,0 0.771195,-0.2913285 0.283297,-0.2913273 0.283297,-0.7930592 V 3.7158228 h 2.203414 z m 7.93232,-7.7201932 -2.722792,3.7872642 h 2.722792 z m 3.730065,6.1017042 h -1.259094 v 1.618489 h -2.470971 v -1.618489 h -5.60297 v -2.31444 l 5.130809,-6.8623942 h 2.943132 v 6.8623942 h 1.259094 z"
       id="text5284"
       aria-label="C-14" />
  </g>
</svg>
