<?xml version="1.0" encoding="UTF-8" standalone="no"?>
<svg
   version="1.2"
   width="381.67932"
   height="417.06445"
   id="svg2"
   sodipodi:docname="ES_CAT_OR63.svg"
   inkscape:version="1.3.2 (091e20e, 2023-11-25, custom)"
   xmlns:inkscape="http://www.inkscape.org/namespaces/inkscape"
   xmlns:sodipodi="http://sodipodi.sourceforge.net/DTD/sodipodi-0.dtd"
   xmlns="http://www.w3.org/2000/svg"
   xmlns:svg="http://www.w3.org/2000/svg"
   xmlns:rdf="http://www.w3.org/1999/02/22-rdf-syntax-ns#"
   xmlns:cc="http://creativecommons.org/ns#"
   xmlns:dc="http://purl.org/dc/elements/1.1/">
  <sodipodi:namedview
     pagecolor="#ffffff"
     bordercolor="#666666"
     borderopacity="1"
     objecttolerance="10"
     gridtolerance="10"
     guidetolerance="10"
     inkscape:pageopacity="0"
     inkscape:pageshadow="2"
     inkscape:window-width="1920"
     inkscape:window-height="1017"
     id="namedview5859"
     showgrid="false"
     inkscape:zoom="1.23"
     inkscape:cx="184.55285"
     inkscape:cy="241.05691"
     inkscape:window-x="-8"
     inkscape:window-y="-8"
     inkscape:window-maximized="1"
     inkscape:current-layer="layer3"
     fit-margin-top="0"
     fit-margin-left="0"
     fit-margin-right="0"
     fit-margin-bottom="0"
     inkscape:document-rotation="0"
     inkscape:pagecheckerboard="true"
     inkscape:showpageshadow="false"
     inkscape:deskcolor="#d1d1d1" />
  <metadata
     id="metadata3125">
    <rdf:RDF>
      <cc:Work
         rdf:about="">
        <dc:format>image/svg+xml</dc:format>
        <dc:type
           rdf:resource="http://purl.org/dc/dcmitype/StillImage" />
        <dc:title />
      </cc:Work>
    </rdf:RDF>
  </metadata>
  <defs
     id="defs3123" />
  <g
     id="g3115"
     style="stroke-width:0.639086"
     transform="matrix(1.5527702,0,0,1.5767887,-56.687223,64.779204)">
    <g
       id="g3117"
       style="stroke-width:0.639086" />
  </g>
  <g
     inkscape:groupmode="layer"
     id="layer11"
     inkscape:label="Layer 3"
     transform="translate(6.415614,199.9442)" />
  <g
     inkscape:groupmode="layer"
     id="layer14"
     inkscape:label="Layer 5"
     style="opacity:0.995444"
     transform="translate(6.4087094,187.03355)">
    <path
       id="rect5280-9-1"
       style="display:inline;fill:#ffffff;stroke:#000080;stroke-width:2;stroke-linecap:round;stroke-linejoin:round;stroke-miterlimit:2.613"
       d="m 63.08097,-186.03355 h 119.27827 c 2.216,0 4,1.784 4,4 v 43.81203 c 0,2.216 -1.784,4 -4,4 H 63.08097 c -2.216,0 -3.999999,-1.784 -3.999999,-4 v -43.81203 c 0,-2.216 1.783999,-4 3.999999,-4 z" />
  </g>
  <g
     inkscape:groupmode="layer"
     id="layer15"
     inkscape:label="Layer 6"
     transform="translate(6.4976465,247.5)">
    <path
       d="m 371.31205,139.50474 c 0,7.54007 0.24538,18.37248 -0.64752,23.21214 -0.90061,4.88146 -2.96555,3.73804 -9.08324,3.74592 L 5.4655215,166.92082 c -12.17893,0.0157 -9.05135,2.38626 -9.004916,-12.7589 l 0.362417,-118.193425 c 0.0464,-15.14258 7.33713,-12.78516 19.5150205,-12.75247 l 341.257677,0.91608 c 12.18298,0.0327 13.71735,-2.39152 13.71735,12.75246 V 139.50474 Z"
       id="path3101-1-9"
       style="display:inline;fill:#ffffff;fill-opacity:1;stroke:#000080;stroke-width:5;stroke-miterlimit:3.864;stroke-opacity:1"
       sodipodi:nodetypes="csssssssscc"
       inkscape:label="path3101" />
  </g>
  <g
     inkscape:groupmode="layer"
     id="layer10"
     inkscape:label="Layer 2"
     transform="translate(6.415614,199.9442)"
     style="display:inline">
    <path
       d="m 365.3951,187.06054 c 0,5.86268 0.24113,14.28526 -0.63631,18.04828 -0.88501,3.79551 -2.91418,2.90636 -8.92592,2.91258 l -343.94782,0.35614 c -11.96798982,0.0124 -8.8857708,1.85543 -8.84895,-9.92051 L 3.39224,84.55731 c 0.036815,-11.77394 7.210051,-9.941387 19.17702,-9.915506 l 329.34707,0.71228 c 11.97197,0.02589 13.47977,-1.85949 13.47977,9.915506 v 101.79095 z"
       id="path3101-1"
       style="fill:#000080;fill-opacity:1;stroke:#ffffff;stroke-width:5;stroke-miterlimit:3.864;stroke-opacity:1"
       sodipodi:nodetypes="csssssssscc"
       inkscape:label="path3101" />
    <path
       style="font-size:46.1173px;line-height:27.0218px;font-family:'Highway Gothic Wide';-inkscape-font-specification:'Highway Gothic Wide';letter-spacing:3.24261px;word-spacing:0px;fill:#ffffff;stroke-width:1px"
       d="m 54.86317,151.89175 h -8.900639 v 25.45675 h -5.395724 v -25.45675 h -8.900638 v -5.44184 H 54.86317 Z m 26.208991,25.45675 h -5.211255 v -0.96847 q -2.444216,1.38352 -5.534075,1.38352 -3.966088,0 -6.041366,-2.21363 -2.075279,-2.25975 -2.075279,-5.67243 0,-3.50491 2.444217,-5.44184 2.490334,-1.93692 6.225835,-1.93692 2.536452,0 4.934551,0.69175 -0.09223,-3.50491 -3.827736,-3.7355 -2.767038,-0.0461 -5.441841,1.61411 l -2.582569,-4.10444 q 4.150557,-2.72092 8.116645,-2.72092 3.827736,0 6.410304,2.62869 2.582569,2.62868 2.582569,6.82536 z m -5.211255,-5.48796 v -3.78162 q -2.674803,-0.73788 -4.703964,-0.73788 -1.890809,0 -2.951507,0.83011 -1.060698,0.83011 -1.060698,1.98305 0,1.19905 1.014581,2.07528 1.01458,0.87622 2.859272,0.87622 2.075279,0 4.842316,-1.24516 z m 27.730934,-16.04882 -1.70634,5.25737 q -1.29128,-1.47575 -3.320443,-1.42964 -3.873853,-0.0461 -3.919971,4.47338 v 13.23567 h -5.534075 v -22.55136 h 5.534075 v 1.3374 q 1.660223,-1.89081 4.196674,-1.89081 2.72092,0 4.75008,1.56799 z m 20.99778,0 -1.70634,5.25737 q -1.29128,-1.47575 -3.32044,-1.42964 -3.87386,-0.0461 -3.91997,4.47338 v 13.23567 h -5.53408 v -22.55136 h 5.53408 v 1.3374 q 1.66022,-1.89081 4.19667,-1.89081 2.72092,0 4.75008,1.56799 z m 24.54881,21.53678 h -5.21125 v -0.96847 q -2.44422,1.38352 -5.53408,1.38352 -3.96608,0 -6.04136,-2.21363 -2.07528,-2.25975 -2.07528,-5.67243 0,-3.50491 2.44422,-5.44184 2.49033,-1.93692 6.22583,-1.93692 2.53645,0 4.93455,0.69175 -0.0922,-3.50491 -3.82773,-3.7355 -2.76704,-0.0461 -5.44185,1.61411 l -2.58256,-4.10444 q 4.15055,-2.72092 8.11664,-2.72092 3.82774,0 6.41031,2.62869 2.58256,2.62868 2.58256,6.82536 z m -5.21125,-5.48796 v -3.78162 q -2.6748,-0.73788 -4.70397,-0.73788 -1.8908,0 -2.9515,0.83011 -1.0607,0.83011 -1.0607,1.98305 0,1.19905 1.01458,2.07528 1.01458,0.87622 2.85927,0.87622 2.07528,0 4.84232,-1.24516 z m 12.83505,-5.67243 q 0,-4.56561 2.3981,-8.16276 2.44422,-3.64327 6.73313,-3.64327 2.49033,0 4.28891,1.38352 v -0.96846 h 5.53407 v 22.55136 q -0.0461,4.47337 -3.04374,7.37876 -2.95151,2.95151 -6.73313,3.78162 l -1.24516,-5.25737 q 4.93455,-1.29128 5.48796,-5.90301 v -1.01459 q -1.70634,1.56799 -4.10444,1.61411 -4.65785,-0.0461 -7.00983,-3.55103 -2.30587,-3.55103 -2.30587,-8.20888 z m 5.02679,-0.0922 q 0,2.72093 1.29128,4.56562 1.3374,1.79857 3.4588,1.79857 2.53645,-0.0922 3.64327,-1.98304 v -8.57782 q -1.29129,-1.98304 -3.73551,-2.1214 -2.21363,0 -3.45879,1.75246 -1.19905,1.75246 -1.19905,4.56561 z m 40.87429,0 q 0,4.88844 -2.90539,8.34724 -2.85927,3.45879 -6.96371,3.45879 -4.15056,0 -7.00983,-3.45879 -2.85927,-3.4588 -2.85927,-8.34724 0,-4.93455 2.85927,-8.39334 2.85927,-3.4588 7.00983,-3.4588 4.10444,0 6.96371,3.4588 2.90539,3.45879 2.90539,8.39334 z m -5.3496,0 q 0,-2.76703 -1.24517,-4.51949 -1.24517,-1.79858 -3.22821,-1.79858 -2.07528,0 -3.32045,1.79858 -1.24516,1.79857 -1.24516,4.51949 0,2.72093 1.24516,4.56562 1.24517,1.79857 3.32045,1.79857 1.98304,0 3.22821,-1.79857 1.24517,-1.84469 1.24517,-4.56562 z m 12.05105,-11.16038 h 5.21125 v 1.75246 q 2.07528,-2.07528 5.48796,-2.07528 3.64327,0 5.90301,2.53645 2.30587,2.49033 2.35199,6.50254 v 13.69684 h -5.53408 v -13.42014 q 0,-1.79857 -1.10682,-2.95151 -1.06069,-1.15293 -2.90538,-1.15293 -1.66023,0 -2.95151,1.24517 -1.24517,1.19905 -1.24517,2.76704 v 13.51237 h -5.21125 z m 44.9788,22.41301 h -5.21126 v -0.96847 q -2.44421,1.38352 -5.53407,1.38352 -3.96609,0 -6.04137,-2.21363 -2.07528,-2.25975 -2.07528,-5.67243 0,-3.50491 2.44422,-5.44184 2.49033,-1.93692 6.22583,-1.93692 2.53646,0 4.93456,0.69175 -0.0922,-3.50491 -3.82774,-3.7355 -2.76704,-0.0461 -5.44184,1.61411 l -2.58257,-4.10444 q 4.15056,-2.72092 8.11664,-2.72092 3.82774,0 6.41031,2.62869 2.58257,2.62868 2.58257,6.82536 z m -5.21126,-5.48796 v -3.78162 q -2.6748,-0.73788 -4.70396,-0.73788 -1.89081,0 -2.95151,0.83011 -1.0607,0.83011 -1.0607,1.98305 0,1.19905 1.01458,2.07528 1.01458,0.87622 2.85928,0.87622 2.07528,0 4.84231,-1.24516 z"
       id="text6487-1"
       aria-label="Tarragona " />
    <path
       id="rect5280-9"
       style="display:inline;fill:#000080;stroke:#ffffff;stroke-width:2;stroke-linecap:round;stroke-linejoin:round;stroke-miterlimit:2.613"
       d="M 65.422443,-196.60802 H 179.61769 c 2.216,0 4,1.784 4,4 v 38.30537 c 0,2.216 -1.784,4 -4,4 H 65.422443 c -2.216,0 -4,-1.784 -4,-4 v -38.30537 c 0,-2.216 1.784,-4 4,-4 z" />
    <path
       style="font-size:40.3243px;line-height:23.6277px;font-family:'Highway Gothic Wide';-inkscape-font-specification:'Highway Gothic Wide';letter-spacing:0px;word-spacing:0px;fill:#ffffff;stroke-width:0.999997px"
       d="m 103.86344,-163.84479 q -3.75016,5.96799 -10.443989,5.96799 -5.282483,0 -8.387454,-3.8308 -3.064647,-3.83081 -3.064647,-10.20205 0,-6.41157 3.064647,-10.16172 3.064647,-3.75016 8.387454,-3.75016 6.734159,0 10.443989,5.96799 l -4.395344,2.17751 q -2.096864,-3.22594 -6.048645,-3.34691 -3.064647,0.0806 -4.798592,2.74205 -1.733944,2.62108 -1.733944,6.29059 0,4.35502 1.774269,6.77448 1.814593,2.37914 4.838916,2.37914 4.032429,-0.0403 5.847023,-3.26627 z m 12.6618,-5.88735 h -8.95199 v -4.83892 h 8.95199 z m 24.67846,2.94367 q 0,3.75016 -3.06465,6.33092 -3.06465,2.58075 -7.62129,2.58075 -6.57286,-0.0806 -10.88756,-4.71794 l 3.62918,-3.62919 q 3.10498,3.26627 7.54065,3.42757 2.50011,0 4.03243,-1.04843 1.57265,-1.04843 1.57265,-2.74205 -0.0807,-1.97589 -1.45168,-2.984 -1.37102,-1.00811 -2.984,-1.08876 h -1.65329 v -4.83891 h 1.492 q 1.20973,0 2.21783,-0.76617 1.04843,-0.76616 1.04843,-1.89524 0,-1.25005 -1.3307,-2.05654 -1.3307,-0.80648 -3.42756,-0.80648 -3.46789,0 -6.1293,2.25816 l -3.26626,-3.26627 q 3.87113,-3.79048 9.67783,-3.79048 4.07275,0 6.73416,2.13718 2.6614,2.13719 2.6614,5.44378 0,3.42757 -2.25816,5.04054 3.50821,2.25816 3.46789,6.41156 z m 25.68659,8.42778 h -21.77512 q 0.80648,-10.60529 11.04885,-14.91999 2.66141,-1.08875 4.35503,-2.09686 1.69362,-1.04843 1.57265,-2.41946 0,-1.3307 -1.33071,-2.21784 -1.3307,-0.92745 -4.1534,-0.96778 -4.23405,0.12097 -7.50032,3.38724 l -3.91145,-3.14529 q 4.87924,-5.00022 11.2908,-5.08086 4.75827,0 7.58097,2.37913 2.8227,2.33881 2.8227,5.6454 -0.0403,2.86303 -1.53232,4.55665 -1.492,1.65329 -5.68573,3.46789 -6.65351,3.18562 -7.94389,6.57286 h 15.16194 z"
       id="text5284-2"
       transform="scale(0.99145141,1.0086223)"
       aria-label="C-32" />
    <path
       style="font-size:38.1344px;line-height:22.3443px;font-family:'Caracteres L4';-inkscape-font-specification:'Caracteres L4';letter-spacing:2.68131px;word-spacing:0px;fill:#ffffff;stroke-width:1px"
       d="m 38.079745,94.191316 q 2.290299,0.01862 4.17095,1.489625 1.899272,1.471005 2.755807,3.798544 0.446887,1.266185 0.61447,3.277175 -0.353786,9.86877 -3.798544,14.03971 -3.314415,4.00337 -7.019857,4.00337 H 24.263474 L 29.141996,94.191316 Z M 29.868188,116.1819 h 4.18957 q 2.048234,-0.20482 3.333036,-1.48962 1.284801,-1.2848 2.029614,-3.64958 1.303422,-2.90477 1.471005,-7.76467 0.130342,-3.779925 -2.94201,-4.357155 h -4.878522 z m 23.163654,-13.61144 h 4.487495 l -3.59372,18.26652 h -4.561976 z m 1.359283,-7.019861 h 4.319912 l -0.726192,4.18957 h -4.319912 z m 10.148055,6.815031 h 4.282672 l -0.353786,2.58823 q 1.377903,-2.08548 2.737186,-2.56961 0.61447,-0.16758 1.154459,-0.16758 0.446888,0 1.15446,0.14896 l -1.117219,4.82266 q -1.508245,-0.52136 -2.625464,0.31655 -1.415144,0.81929 -2.457881,4.04061 l -1.694449,9.25429 h -4.319912 z m 21.618168,-0.24206 q 3.090972,0 4.413014,1.50824 1.415144,1.34067 1.526866,4.24544 0.01862,0.39102 0.01862,0.76343 -0.03724,2.21582 -0.502749,4.20819 h -9.701182 q -0.707572,3.42614 0.782053,4.54335 0.986876,0.6331 2.122715,-0.0745 1.266182,-0.96825 1.73169,-2.86752 h 4.748179 q -0.837914,3.42613 -3.59372,5.38127 -1.78755,1.06135 -3.779923,1.06135 -1.675829,0 -3.519239,-0.74481 -3.109593,-1.89927 -3.109593,-6.12608 0,-0.37241 0.01862,-0.76343 0.577229,-5.6792 2.942009,-8.50949 2.066855,-2.4765 5.902639,-2.62546 z m -3.612341,7.20606 h 5.288169 q 0.260684,-2.49512 -0.335166,-3.44476 -1.508245,-1.65721 -3.668201,0.22345 -1.061358,1.22894 -1.284802,3.22131 z m 22.120913,-6.964 q 2.90477,0.11172 4.37578,1.61997 2.02961,1.84341 2.02961,5.02748 0,0.42827 -0.0372,0.89378 h -4.20819 q 0.33516,-4.46888 -1.91789,-4.15233 -3.05373,-0.20482 -4.17095,5.58609 -0.782057,6.70332 1.95513,6.38677 2.3834,-0.11172 3.29579,-2.97925 h 4.35716 q -1.24756,4.18957 -5.56748,6.03298 -1.43376,0.24207 -2.51374,0.24207 -1.26618,0 -2.01099,-0.33517 -3.891647,-1.17308 -4.09647,-6.94538 0.167582,-5.58609 2.886148,-8.5281 2.569602,-2.64408 5.623332,-2.84891 z m 18.73202,0 q 2.90477,0.11172 4.37577,1.61997 2.02962,1.84341 2.02962,5.02748 0,0.42827 -0.0372,0.89378 h -4.20819 q 0.33516,-4.46888 -1.9179,-4.15233 -3.05373,-0.20482 -4.17095,5.58609 -0.78205,6.70332 1.95514,6.38677 2.3834,-0.11172 3.29579,-2.97925 h 4.35716 q -1.24757,4.18957 -5.56748,6.03298 -1.43376,0.24207 -2.51374,0.24207 -1.26618,0 -2.01099,-0.33517 -3.89165,-1.17308 -4.09647,-6.94538 0.16758,-5.58609 2.88615,-8.5281 2.5696,-2.64408 5.62333,-2.84891 z m 13.89074,0.20483 h 4.48749 l -3.59372,18.26652 h -4.56198 z m 1.35928,-7.019861 h 4.31991 l -0.72619,4.18957 h -4.31991 z m 21.48783,10.054971 q 0.68895,1.58272 0.68895,3.79854 0,1.02412 -0.14896,2.17858 -0.61447,4.26405 -2.64409,6.55435 -2.29029,2.60684 -5.08334,2.88615 -0.57723,0.0372 -0.94964,0.0372 -0.50274,0 -1.06135,-0.0559 -2.30892,-0.16759 -4.11509,-2.86753 -0.98688,-1.63859 -0.98688,-4.31991 0,-0.78206 0.0931,-1.65721 0.44689,-4.84128 3.2958,-7.65295 1.95513,-1.88065 3.74268,-2.08548 0.78205,-0.13034 1.52687,-0.13034 h 0.16758 q 3.61234,0 5.47437,3.31442 z m -7.72743,12.23354 q 1.48963,0.0559 2.45788,-1.3779 0.9124,-1.43376 1.48963,-4.13371 0.59585,-3.07235 -0.0931,-5.23231 -0.59585,-1.73169 -1.89928,-1.50824 -1.61996,-0.22345 -2.86752,1.89927 -0.93102,1.76893 -1.28481,4.02199 -0.31654,2.69994 -0.0372,4.13371 0.48413,2.55098 2.23444,2.19719 z"
       id="text6487-1-5"
       aria-label="Direccio" />
    <text
       xml:space="preserve"
       style="font-style:normal;font-variant:normal;font-weight:normal;font-stretch:normal;font-size:37.3895px;line-height:21.9079px;font-family:TrafficTypeW01-SpainD;-inkscape-font-specification:TrafficTypeW01-SpainD;letter-spacing:0px;word-spacing:0px;display:inline;fill:#000000;stroke:none;stroke-width:0.999996px;stroke-linecap:butt;stroke-linejoin:miter;stroke-opacity:1"
       x="304.56534"
       y="140.41682"
       id="text6487-1-5-2"><tspan
         sodipodi:role="line"
         id="tspan6485-7-9-0"
         x="304.56534"
         y="140.41682"
         style="font-style:normal;font-variant:normal;font-weight:normal;font-stretch:normal;font-family:'Highway Gothic Wide';-inkscape-font-specification:'Highway Gothic Wide';letter-spacing:2.62894px;fill:#ffffff;fill-opacity:1;stroke-width:0.999996px" /></text>
    <text
       xml:space="preserve"
       style="font-style:normal;font-variant:normal;font-weight:normal;font-stretch:normal;font-size:37.3895px;line-height:21.9079px;font-family:TrafficTypeW01-SpainD;-inkscape-font-specification:TrafficTypeW01-SpainD;letter-spacing:0px;word-spacing:0px;display:inline;fill:#000000;stroke:none;stroke-width:0.999996px;stroke-linecap:butt;stroke-linejoin:miter;stroke-opacity:1"
       x="287.06784"
       y="186.59615"
       id="text6487-1-5-2-0"><tspan
         sodipodi:role="line"
         id="tspan6485-7-9-0-3"
         x="287.06784"
         y="186.59615"
         style="font-style:normal;font-variant:normal;font-weight:normal;font-stretch:normal;font-family:'Highway Gothic Wide';-inkscape-font-specification:'Highway Gothic Wide';letter-spacing:2.62894px;fill:#ffffff;fill-opacity:1;stroke-width:0.999996px" /></text>
    <path
       style="font-size:38.1344px;line-height:22.3443px;font-family:Arial;-inkscape-font-specification:Arial;letter-spacing:2.68131px;word-spacing:0px;fill:#ffffff;stroke-width:1px"
       d="m 153.9696,98.034254 2.4765,-5.213687 h 4.3944 l -4.09647,5.213687 z"
       id="text6487-1-5-22"
       aria-label="´" />
    <path
       d="m 372.71004,33.52615 c 0,7.54006 0.24538,18.37247 -0.64752,23.21213 -0.90061,4.88146 -2.96555,3.73804 -9.08324,3.74592 L 6.8635099,60.94222 c -12.17893,0.0157 -9.0366933,2.386298 -9.00491,-12.7589 l 0.36241,-172.69342 c 0.031778,-15.14262 7.33713,-12.78516 19.5150301,-12.75247 l 341.25767,0.91608 c 12.18298,0.0327 13.71735,-2.39152 13.71735,12.75246 V 33.52615 Z"
       id="path3101-1-9-7"
       style="display:inline;fill:#ffffff;fill-opacity:1;stroke:#000080;stroke-width:5;stroke-miterlimit:3.864;stroke-opacity:1"
       sodipodi:nodetypes="csssssssscc"
       inkscape:label="path3101" />
    <path
       d="m 366.71105,33.52613 c 0,5.86269 0.24113,14.28526 -0.63631,18.04829 -0.88501,3.79551 -2.91418,2.90636 -8.92592,2.91257 L 13.20101,54.84314 C 1.2330199,54.85554 4.3267038,56.6986 4.3520599,44.92262 l 0.35614,-165.39971 c 0.025352,-11.77397 7.2100501,-9.94139 19.1770201,-9.91551 l 329.34706,0.71228 c 11.97197,0.0259 13.47977,-1.85949 13.47977,9.91551 V 33.52613 Z"
       id="path3101-1-1"
       style="display:inline;fill:#000080;fill-opacity:1;stroke:#ffffff;stroke-width:5;stroke-miterlimit:3.864;stroke-opacity:1"
       sodipodi:nodetypes="csssssssscc"
       inkscape:label="path3101" />
    <path
       style="font-size:46.1173px;line-height:27.0218px;font-family:'Highway Gothic Wide';-inkscape-font-specification:'Highway Gothic Wide';letter-spacing:3.24261px;word-spacing:0px;fill:#ffffff;stroke-width:1px"
       d="m 58.336962,-46.584488 -11.483208,30.89859 H 40.904623 L 29.51365,-46.584488 h 5.949132 l 8.439465,22.551359 8.485583,-22.551359 z m 12.834971,2.167513 q 0,1.19905 -0.830111,2.029162 -0.830112,0.830111 -1.936927,0.830111 -1.199049,0 -1.983043,-0.783994 -0.783995,-0.783994 -0.783995,-2.075279 0,-1.106815 0.783995,-1.890809 0.830111,-0.783994 1.983043,-0.783994 1.106815,0 1.936927,0.783994 0.830111,0.783994 0.830111,1.890809 z m 0,6.179718 v 22.551359 h -5.534076 v -22.551359 z m 14.495272,22.551359 H 80.13313 V -44.32474 l 5.534075,-2.767038 z m 26.993055,0 h -5.21125 v -0.968463 q -2.44422,1.383519 -5.53408,1.383519 -3.966087,0 -6.041365,-2.21363 -2.075278,-2.259748 -2.075278,-5.672428 0,-3.504915 2.444216,-5.441841 2.490334,-1.936927 6.225837,-1.936927 2.53645,0 4.93455,0.69176 -0.0922,-3.504915 -3.82774,-3.735502 -2.76703,-0.04612 -5.441837,1.614106 l -2.582569,-4.10444 q 4.150557,-2.72092 8.116646,-2.72092 3.82773,0 6.4103,2.628686 2.58257,2.628686 2.58257,6.82536 z m -5.21125,-5.487958 v -3.781619 q -2.67481,-0.737877 -4.70397,-0.737877 -1.89081,0 -2.951505,0.830112 -1.060698,0.830111 -1.060698,1.983044 0,1.199049 1.014581,2.075278 1.014582,0.876229 2.859272,0.876229 2.07528,0 4.84232,-1.245167 z m 12.37387,-16.925049 h 5.21126 v 1.752458 q 2.07528,-2.075279 5.48796,-2.075279 3.64326,0 5.90301,2.536452 2.30586,2.490334 2.35198,6.502539 v 13.696837 h -5.53407 v -13.420134 q 0,-1.798574 -1.10682,-2.951507 -1.0607,-1.152932 -2.90539,-1.152932 -1.66022,0 -2.95151,1.245167 -1.24516,1.19905 -1.24516,2.767038 v 13.512368 h -5.21126 z m 45.43998,11.160386 q 0,4.888434 -2.90539,8.347231 -2.85928,3.458798 -6.96372,3.458798 -4.15055,0 -7.00982,-3.458798 -2.85928,-3.458797 -2.85928,-8.347231 0,-4.93455 2.85928,-8.393348 2.85927,-3.458797 7.00982,-3.458797 4.10444,0 6.96372,3.458797 2.90539,3.458798 2.90539,8.393348 z m -5.34961,0 q 0,-2.767037 -1.24517,-4.519495 -1.24516,-1.798574 -3.22821,-1.798574 -2.07528,0 -3.32044,1.798574 -1.24517,1.798575 -1.24517,4.519495 0,2.720921 1.24517,4.565613 1.24516,1.798575 3.32044,1.798575 1.98305,0 3.22821,-1.798575 1.24517,-1.844692 1.24517,-4.565613 z m 32.7116,-11.298738 -8.02441,22.551359 h -5.8569 l -8.02441,-22.551359 h 5.53408 l 5.39572,15.310943 5.44184,-15.310943 z m 24.77936,22.551359 h -5.21126 v -0.968463 q -2.44421,1.383519 -5.53407,1.383519 -3.96609,0 -6.04137,-2.21363 -2.07528,-2.259748 -2.07528,-5.672428 0,-3.504915 2.44422,-5.441841 2.49033,-1.936927 6.22583,-1.936927 2.53646,0 4.93456,0.69176 -0.0922,-3.504915 -3.82774,-3.735502 -2.76704,-0.04612 -5.44184,1.614106 l -2.58257,-4.10444 q 4.15056,-2.72092 8.11664,-2.72092 3.82774,0 6.41031,2.628686 2.58257,2.628686 2.58257,6.82536 z m -5.21126,-5.487958 v -3.781619 q -2.6748,-0.737877 -4.70396,-0.737877 -1.89081,0 -2.95151,0.830112 -1.0607,0.830111 -1.0607,1.983044 0,1.199049 1.01458,2.075278 1.01458,0.876229 2.85928,0.876229 2.07528,0 4.84231,-1.245167 z"
       id="text6487-1-2"
       aria-label="Vilanova" />
    <path
       style="font-size:36.0163px;line-height:21.1033px;font-family:'Highway Gothic Wide';-inkscape-font-specification:'Highway Gothic Wide';letter-spacing:2.53239px;word-spacing:0px;fill:#ffffff;stroke-width:0.999995px"
       d="m 34.711384,4.1650993 q 0,0.9364238 -0.648293,1.5847172 -0.648293,0.6482934 -1.512685,0.6482934 -0.936423,0 -1.548701,-0.6122771 -0.612277,-0.6122771 -0.612277,-1.6207335 0,-0.8643912 0.612277,-1.4766683 0.648294,-0.6122771 1.548701,-0.6122771 0.864392,0 1.512685,0.6122771 0.648293,0.6122771 0.648293,1.4766683 z m 0,4.8261842 V 26.603254 H 30.389428 V 8.9912835 Z M 57.748297,26.603254 H 53.426341 V 4.2371319 l 4.321956,-2.160978 z m 21.080816,0 h -4.069842 v -0.756342 q -1.908864,1.080489 -4.321956,1.080489 -3.097402,0 -4.718135,-1.728782 -1.620734,-1.764799 -1.620734,-4.430005 0,-2.737239 1.908864,-4.249924 1.944881,-1.512684 4.862201,-1.512684 1.980896,0 3.853744,0.540244 -0.07203,-2.737239 -2.989353,-2.91732 -2.160978,-0.03602 -4.249923,1.26057 l -2.016913,-3.20545 q 3.241467,-2.1249621 6.338869,-2.1249621 2.989353,0 5.006265,2.0529291 2.016913,2.052929 2.016913,5.330412 z m -4.069842,-4.285939 v -2.953337 q -2.088945,-0.576261 -3.673662,-0.576261 -1.476669,0 -2.305044,0.648294 -0.828374,0.648293 -0.828374,1.5487 0,0.936424 0.792358,1.620734 0.792359,0.68431 2.233011,0.68431 1.620733,0 3.781711,-0.97244 z M 107.41254,14.57381 h 9.14814 v 3.133418 q 0,3.925777 -2.80928,6.626999 -2.77325,2.701223 -6.77106,2.701223 -4.97025,0 -7.671472,-3.925777 -2.305043,-3.385532 -2.305043,-8.607896 0,-5.5465098 2.737239,-8.9680583 2.737236,-3.4575648 7.239276,-3.4575648 6.23082,0 9.04009,5.0062657 l -4.03382,2.0169128 q -1.90887,-2.7372388 -5.00627,-2.7372388 -2.52114,0 -4.10586,2.3050432 -1.5487,2.2690272 -1.5487,5.8346402 0,3.457565 1.15252,5.546511 1.44065,2.665206 4.50204,2.665206 1.7648,0 3.20545,-1.080489 1.44065,-1.080489 1.87285,-2.737239 h -4.6461 z m 30.48101,4.57407 h -10.76887 q 0.14406,1.872848 1.22455,2.881304 1.11651,1.008457 2.26903,1.008457 1.47667,0 2.91732,-1.36862 l 2.6652,2.665206 q -2.26902,2.701223 -5.58252,2.701223 -3.24147,0 -5.5105,-2.62919 -2.23301,-2.665206 -2.23301,-6.51895 0,-3.817728 2.197,-6.482934 2.19699,-2.6652066 5.36643,-2.6652066 3.74569,0.036016 5.58252,2.8813036 1.83683,2.845288 1.87285,6.266837 z m -4.24992,-3.385532 q -0.072,-1.404636 -1.00846,-2.305043 -0.90041,-0.900408 -2.08894,-0.864391 -1.33261,-0.03602 -2.30505,0.936423 -0.93642,0.936424 -0.97244,2.233011 z m 14.74194,10.840906 h -4.32195 V 4.2371319 l 4.32195,-2.160978 z m 17.19106,-4.57407 -1.26057,4.538054 q -1.08049,0.432196 -2.37708,0.468212 -2.05293,0 -3.24146,-1.548701 -1.15253,-1.584717 -1.15253,-3.88976 v -8.463831 h -2.8813 V 9.0993324 h 2.8813 V 4.2731482 l 4.39399,-2.1969943 v 7.0231785 h 3.63765 v 4.0338256 h -3.63765 v 8.247733 q 0.10805,1.65675 1.5487,1.620733 1.00846,0.07203 2.08895,-0.97244 z M 183.0918,9.7836421 181.7592,13.8895 q -1.00846,-1.152521 -2.59318,-1.116505 -3.02537,-0.03602 -3.06138,3.493581 v 10.336678 h -4.32196 V 8.9912835 h 4.32196 v 1.0444725 q 1.29658,-1.4766681 3.27748,-1.4766681 2.12496,0 3.70968,1.2245542 z m 8.22298,-2.0169128 2.48513,-4.9342331 h 4.68212 l -4.39399,4.9342331 z m 10.98497,18.8365247 h -4.06984 v -1.368619 q -1.62073,1.620733 -4.28594,1.620733 -2.84529,0 -4.6461,-1.94488 -1.7648,-1.980896 -1.80082,-5.114314 V 9.0993324 h 4.32196 V 19.580076 q 0,1.404635 0.82837,2.305043 0.8644,0.900407 2.30505,0.900407 1.29658,0 2.26902,-0.936423 1.00846,-0.97244 1.00846,-2.196995 V 9.0993324 h 4.06984 z"
       id="text6487-1-2-7"
       aria-label="i la Geltrú" />
    <path
       style="font-size:48.2841px;line-height:28.2914px;font-family:'Highway Gothic Wide';-inkscape-font-specification:'Highway Gothic Wide';letter-spacing:3.39497px;word-spacing:0px;fill:#ffffff;stroke-width:1px"
       d="m 58.191677,-82.457743 q -0.04828,4.297285 -3.379887,7.146047 -3.283319,2.848762 -9.222263,2.848762 -7.918593,0 -12.891855,-6.663206 l 4.82841,-3.283318 q 3.283319,4.297284 8.256581,4.393853 3.090183,0.04828 4.82841,-1.207103 1.786512,-1.255386 1.834796,-3.331603 0.144852,-1.738227 -1.400239,-2.848762 -1.545091,-1.110534 -6.276933,-2.221068 -6.614922,-1.545091 -8.884274,-3.814444 -2.221069,-2.269353 -2.269353,-5.311251 -0.09657,-3.524744 2.993614,-6.228644 3.138467,-2.7522 8.111729,-2.7522 7.870308,0.38627 12.071025,6.132082 l -4.58699,3.041898 q -2.655625,-3.090182 -7.484035,-3.47645 -2.607341,0 -3.959296,0.965677 -1.351955,0.965682 -1.255387,2.172785 -0.04828,1.351954 1.448523,2.221068 1.496807,0.869114 4.297285,1.400239 6.759774,1.255387 9.801672,4.104149 3.090183,2.800477 3.138467,6.711489 z m 14.596881,-20.665597 q 0,1.25539 -0.869114,2.1245 -0.869113,0.86912 -2.027932,0.86912 -1.255386,0 -2.076216,-0.82083 -0.82083,-0.82083 -0.82083,-2.17279 0,-1.15882 0.82083,-1.97965 0.869114,-0.82082 2.076216,-0.82082 1.158819,0 2.027932,0.82082 0.869114,0.82083 0.869114,1.97965 z m 0,6.470072 v 23.610925 h -5.794092 v -23.610925 z m 22.998357,17.478844 -1.689943,6.083797 q -1.448523,0.579409 -3.186751,0.627693 -2.752193,0 -4.345569,-2.076216 -1.545091,-2.124501 -1.545091,-5.214683 v -11.346763 h -3.862728 v -5.40782 h 3.862728 v -6.470064 l 5.89066,-2.94533 v 9.415394 h 4.876694 v 5.40782 h -4.876694 v 11.057058 q 0.144853,2.221069 2.076217,2.172785 1.351954,0.09657 2.800477,-1.303671 z m 7.885405,-5.552671 q 0,-4.780126 2.51077,-8.546286 2.55906,-3.814444 7.04948,-3.814444 2.60734,0 4.49042,1.448523 v -1.013966 h 5.79409 v 23.610925 q -0.0483,4.683558 -3.18675,7.725456 -3.09018,3.090182 -7.04948,3.959296 l -1.30367,-5.504387 q 5.1664,-1.351955 5.74581,-6.180365 v -1.06225 q -1.78651,1.641659 -4.29728,1.689943 -4.8767,-0.04828 -7.33919,-3.717876 -2.4142,-3.717875 -2.4142,-8.594569 z m 5.26296,-0.09657 q 0,2.848761 1.35196,4.780125 1.40024,1.88308 3.62131,1.88308 2.65562,-0.09657 3.81444,-2.076216 v -8.980842 q -1.35195,-2.076217 -3.91101,-2.221069 -2.31764,0 -3.62131,1.834796 -1.25539,1.834795 -1.25539,4.780126 z m 42.50506,1.786511 h -14.43695 q 0.19314,2.510773 1.64166,3.862728 1.49681,1.351955 3.0419,1.351955 1.97965,0 3.91101,-1.834796 l 3.57303,3.573024 q -3.0419,3.621307 -7.48404,3.621307 -4.34557,0 -7.38747,-3.524739 -2.99361,-3.573024 -2.99361,-8.739422 0,-5.118115 2.94533,-8.691138 2.94533,-3.573024 7.19433,-3.573024 5.02155,0.04829 7.48404,3.862728 2.46249,3.814444 2.51077,8.401434 z m -5.69752,-4.538705 q -0.0966,-1.88308 -1.35196,-3.090182 -1.2071,-1.207103 -2.80048,-1.158819 -1.78651,-0.04828 -3.09018,1.255387 -1.25539,1.255386 -1.30367,2.993614 z m 32.51032,7.822024 q -0.0483,3.186751 -2.70391,5.214683 -2.65563,1.979648 -6.95291,2.027932 -5.74581,-0.09657 -10.52594,-2.800478 l 2.60735,-5.021546 q 4.10414,2.365921 7.77374,2.414205 2.36592,0 3.23503,-0.579409 0.9174,-0.57941 0.9174,-1.593376 0,-1.06225 -0.86912,-1.593375 -0.86911,-0.531125 -3.52473,-1.013966 -5.31126,-0.917398 -7.19434,-2.800478 -1.83479,-1.931364 -1.78651,-4.104148 -0.0483,-3.090183 2.41421,-5.262967 2.46249,-2.221069 6.6632,-2.221069 4.73185,0 9.07741,2.559058 l -2.36592,4.683557 q -2.99361,-1.689943 -6.56663,-1.88308 -2.1245,0.04828 -2.84877,0.531125 -0.72426,0.434557 -0.72426,1.207103 -0.0483,0.772546 0.67598,1.158818 0.77255,0.386273 2.89705,0.675978 5.02154,0.627693 7.38746,2.752193 2.36592,2.076217 2.41421,5.64924 z"
       id="text6487-1-2-4"
       aria-label="Sitges" />
    <path
       style="font-size:48.2841px;line-height:28.2914px;font-family:'Highway Gothic Wide';-inkscape-font-specification:'Highway Gothic Wide';letter-spacing:3.39497px;word-spacing:0px;fill:#ffffff;stroke-width:1px"
       d="M 301.32961,-73.34584 H 275.2562 q 0.96568,-12.698719 13.22984,-17.865117 3.18675,-1.303671 5.21469,-2.510773 2.02793,-1.255387 1.88308,-2.897046 0,-1.593376 -1.59338,-2.655626 -1.59338,-1.110538 -4.97326,-1.158818 -5.06983,0.14485 -8.98084,4.055864 l -4.68356,-3.766164 q 5.84237,-5.98722 13.51955,-6.08379 5.69752,0 9.07741,2.84876 3.37988,2.80048 3.37988,6.759774 -0.0483,3.428171 -1.83479,5.456103 -1.78651,1.979648 -6.80806,4.152432 -7.96688,3.814444 -9.51197,7.870309 h 18.15482 z M 335.385,-84.451183 q 0,5.06983 -3.81445,8.401433 -3.81444,3.283319 -9.80167,3.283319 -6.51835,0 -12.4573,-3.621308 l 3.0419,-4.876694 q 4.49042,2.559057 9.4154,2.655626 3.71787,0.04828 5.89066,-1.64166 2.17278,-1.738227 2.17278,-4.249 0.0966,-2.655626 -1.97964,-4.249001 -2.07622,-1.64166 -5.35954,-1.689944 -3.47645,0.04828 -6.95291,1.496807 l -5.02155,-1.448523 0.82083,-15.306062 h 21.583 v 5.745811 h -16.17518 l -0.2897,4.731841 q 2.89704,-0.869113 6.22865,-0.917397 5.55267,0 9.12569,3.331602 3.57303,3.283319 3.57303,8.35315 z"
       id="text6487-1-2-4-5"
       aria-label="25" />
    <path
       style="font-size:48.2841px;line-height:28.2914px;font-family:'Highway Gothic Wide';-inkscape-font-specification:'Highway Gothic Wide';letter-spacing:3.39497px;word-spacing:0px;fill:#ffffff;stroke-width:1px"
       d="m 300.49452,-3.8845401 q 0,4.49042125 -3.66959,7.5806036 -3.66959,3.0901824 -9.1257,3.0901824 -7.8703,-0.096568 -13.0367,-5.6492397 l 4.34557,-4.3455689 q 3.71787,3.91101205 9.02912,4.10414845 2.99362,0 4.82841,-1.25538659 1.88308,-1.25538656 1.88308,-3.28331876 -0.0966,-2.3659209 -1.73823,-3.5730234 -1.64166,-1.2071025 -3.57302,-1.3036707 h -1.97965 v -5.7940923 h 1.78651 q 1.44853,0 2.65563,-0.917398 1.25539,-0.917397 1.25539,-2.269352 0,-1.496807 -1.59338,-2.462489 -1.59337,-0.965682 -4.10415,-0.965682 -4.15243,0 -7.33918,2.703909 l -3.91101,-3.911012 q 4.63527,-4.538705 11.58818,-4.538705 4.8767,0 8.06345,2.559057 3.18675,2.559057 3.18675,6.518354 0,4.104148 -2.70391,6.035512 4.20071,2.7039096 4.15243,7.6771719 z m 35.64876,-6.2286489 q 0,7.5806037 -3.66959,12.2641613 -3.62131,4.6352736 -9.70511,4.6352736 -6.6632,0 -10.42936,-5.3595351 -3.28332,-4.6352735 -3.28332,-11.4433318 0,-7.725456 3.66959,-12.167593 3.66959,-4.490421 10.04309,-4.490421 5.98723,0 9.65682,4.586989 3.71788,4.538706 3.71788,11.974457 z m -5.74581,0.09657 q 0,-5.118114 -2.02793,-8.01516 -1.97965,-2.897046 -5.60096,-2.897046 -3.66959,0 -5.74581,2.897046 -2.07621,2.897046 -2.07621,8.01516 0,5.1663989 2.07621,8.111729 2.07622,2.89704595 5.74581,2.89704595 4.15243,0 6.0838,-3.62130745 1.54509,-2.8487619 1.54509,-7.3874675 z"
       id="text6487-1-2-4-5-4"
       aria-label="30" />
  </g>
  <g
     inkscape:groupmode="layer"
     id="layer3"
     inkscape:label="Layer 1"
     transform="translate(6.415614,199.9442)"
     style="display:inline" />
</svg>
