<?xml version="1.0" encoding="UTF-8" standalone="no"?>
<svg
   version="1.2"
   width="373.85117"
   height="121.57835"
   id="svg2"
   sodipodi:docname="ES_CAT_OR43b.svg"
   inkscape:version="1.3.2 (091e20e, 2023-11-25, custom)"
   xmlns:inkscape="http://www.inkscape.org/namespaces/inkscape"
   xmlns:sodipodi="http://sodipodi.sourceforge.net/DTD/sodipodi-0.dtd"
   xmlns="http://www.w3.org/2000/svg"
   xmlns:svg="http://www.w3.org/2000/svg"
   xmlns:rdf="http://www.w3.org/1999/02/22-rdf-syntax-ns#"
   xmlns:cc="http://creativecommons.org/ns#"
   xmlns:dc="http://purl.org/dc/elements/1.1/">
  <sodipodi:namedview
     pagecolor="#ffffff"
     bordercolor="#666666"
     borderopacity="1"
     objecttolerance="10"
     gridtolerance="10"
     guidetolerance="10"
     inkscape:pageopacity="0"
     inkscape:pageshadow="2"
     inkscape:window-width="1920"
     inkscape:window-height="1017"
     id="namedview5859"
     showgrid="false"
     inkscape:zoom="1.4088798"
     inkscape:cx="187.38291"
     inkscape:cy="103.98332"
     inkscape:window-x="-8"
     inkscape:window-y="-8"
     inkscape:window-maximized="1"
     inkscape:current-layer="svg2"
     fit-margin-top="0"
     fit-margin-left="0"
     fit-margin-right="0"
     fit-margin-bottom="0"
     inkscape:document-rotation="0"
     inkscape:showpageshadow="false"
     inkscape:pagecheckerboard="true"
     inkscape:deskcolor="#d1d1d1" />
  <metadata
     id="metadata3125">
    <rdf:RDF>
      <cc:Work
         rdf:about="">
        <dc:format>image/svg+xml</dc:format>
        <dc:type
           rdf:resource="http://purl.org/dc/dcmitype/StillImage" />
        <dc:title />
      </cc:Work>
    </rdf:RDF>
  </metadata>
  <defs
     id="defs3123" />
  <g
     id="g3182"
     transform="translate(-5.201316,-74.102472)">
    <path
       d="m 376.522,171.75218 c 0,5.86268 0.24113,14.28526 -0.63631,18.04828 -0.88501,3.79551 -2.91418,2.90646 -8.92592,2.91258 L 17.011951,193.06918 C 5.0439572,193.08136 8.0994571,194.9245 8.163,183.14867 l 0.3561402,-66.00022 c 0.063532,-11.77383 7.2100448,-9.94093 19.1770188,-9.91551 l 335.347071,0.71228 c 11.97197,0.0254 13.47977,-1.85949 13.47977,9.91551 v 53.89145 z"
       id="path3101"
       style="fill:#000080;fill-opacity:1;stroke:#ffffff;stroke-width:5;stroke-miterlimit:3.864;stroke-opacity:1"
       sodipodi:nodetypes="csssssssscc"
       inkscape:label="path3101" />
    <path
       d="m 363.05736,120.23286 -45.429,9.308 18.066,11.492 -32.848,28.457 10.946,10.95 28.468,-32.84 11.493,18.062 9.304,-45.429"
       id="polyline3085"
       style="mix-blend-mode:normal;fill:#ffffff;fill-opacity:1" />
    <g
       id="g3115"
       inkscape:label="g3115">
      <g
         id="g3117" />
    </g>
    <path
       style="font-size:42.6667px;line-height:25px;font-family:TrafficTypeW01-SpainD;-inkscape-font-specification:TrafficTypeW01-SpainD;letter-spacing:3px;word-spacing:0px;fill:#ffffff;stroke-width:1px"
       d="m 31.67895,160.70029 h 4.693337 q 1.408001,0 2.602669,-0.59733 1.194667,-0.59734 2.005335,-1.664 0.853334,-1.10934 1.322667,-2.60267 0.469334,-1.536 0.469334,-3.37067 0,-1.83467 -0.469334,-3.37067 -0.469333,-1.536 -1.322667,-2.60267 -0.810668,-1.10933 -2.005335,-1.70667 -1.194668,-0.59733 -2.602669,-0.59733 H 31.67895 Z m 4.693337,-22.48535 q 2.944002,0 5.376004,1.06667 2.432002,1.024 4.181337,2.90133 1.749334,1.87734 2.688002,4.48001 0.981334,2.60267 0.981334,5.76 0,3.15734 -0.981334,5.80267 -0.938668,2.60267 -2.688002,4.48001 -1.749335,1.87733 -4.181337,2.944 -2.432002,1.024 -5.376004,1.024 H 25.150945 v -28.45869 z m 32.653326,15.40268 q -0.298667,-1.23733 -1.280001,-1.96267 -0.938667,-0.768 -2.218668,-0.768 -1.280001,0 -2.261335,0.768 -0.938667,0.72534 -1.237334,1.96267 z m -6.997338,4.82134 q 0.341333,1.408 1.408001,2.21867 1.066667,0.768 2.688002,0.768 1.365334,0 2.602668,-0.55467 1.237335,-0.55467 2.261335,-1.57867 l 4.26667,4.26667 q -0.725334,0.768 -1.792001,1.408 -1.024001,0.64 -2.261335,1.152 -1.194668,0.46934 -2.517335,0.72534 -1.280001,0.256 -2.474669,0.256 -2.218668,0 -4.181336,-0.72534 -1.962668,-0.768 -3.413336,-2.176 -3.114669,-2.98667 -3.114669,-8.064 0,-2.38934 0.64,-4.18134 0.682668,-1.792 2.133335,-3.28534 1.450668,-1.49333 3.285336,-2.26133 1.877335,-0.81067 4.01067,-0.81067 2.389335,0 4.480003,1.06667 2.133335,1.024 3.498669,2.90133 0.981334,1.23734 1.493335,3.24267 0.554667,2.00534 0.554667,4.18134 0,0.34133 -0.04267,0.68267 0,0.29866 -0.08533,0.768 z m 32.141357,-5.29067 q -1.920002,-2.00534 -4.52267,-2.00534 -0.896001,0 -1.536002,0.256 -0.597333,0.256 -0.597333,0.64 0,0.384 1.194667,0.68267 l 3.797336,0.896 q 5.760005,1.28 5.760005,6.48534 0,1.536 -0.597334,2.816 -0.597334,1.23733 -1.706668,2.176 -1.109334,0.896 -2.645335,1.408 -1.536001,0.46934 -3.370669,0.46934 -1.493335,0 -2.986669,-0.29867 -1.450668,-0.29867 -2.816002,-0.81067 -1.365335,-0.55466 -2.560002,-1.28 -1.194668,-0.768 -2.090669,-1.70667 l 4.26667,-3.968 q 0.469334,0.512 1.194668,0.98133 0.768,0.42667 1.621334,0.76801 0.853334,0.34133 1.706668,0.55466 0.896001,0.21334 1.621335,0.21334 0.682667,0 1.152001,-0.29867 0.512,-0.29867 0.512,-0.768 0,-0.34134 -0.384,-0.55467 -0.384001,-0.256 -1.365335,-0.46933 l -3.754669,-0.896 q -2.432002,-0.59734 -3.754669,-2.13334 -1.322668,-1.536 -1.322668,-3.79733 0,-1.49334 0.554667,-2.77334 0.597334,-1.28 1.621334,-2.176 1.066668,-0.93867 2.474669,-1.45067 1.450668,-0.512 3.157336,-0.512 2.517335,0 4.864003,0.81067 2.346669,0.81067 4.352004,2.34667 z m 24.248038,-7.08268 v 5.54668 h -5.07734 v 7.68 q 0,1.70667 1.70667,1.70667 1.57867,0 2.816,-0.59733 l 1.10933,5.54667 q -1.10933,0.46933 -2.64533,0.72533 -1.536,0.29867 -3.15734,0.29867 -3.02933,0 -4.77867,-1.408 -1.74933,-1.45067 -1.74933,-3.96801 v -9.984 h -3.28534 v -5.54668 h 3.28534 v -6.57067 l 6.69867,-1.70667 v 8.27734 z m 9.39997,-8.576 q 1.53601,0 2.60267,1.10933 1.10934,1.06667 1.10934,2.64534 0,1.49333 -1.10934,2.60267 -1.06666,1.06666 -2.56,1.06666 -1.57867,0 -2.688,-1.06666 -1.06667,-1.10934 -1.06667,-2.64534 0,-1.536 1.06667,-2.60267 1.10933,-1.10933 2.64533,-1.10933 z m 3.20001,29.18402 h -6.40001 v -20.60802 h 6.40001 z m 14.4347,-20.48002 0.29866,0.72534 q 2.13334,-1.32267 4.48001,-1.32267 1.792,0 3.328,0.64 1.536,0.64 2.688,1.74934 1.152,1.10933 1.792,2.64533 0.64,1.49334 0.64,3.24267 v 12.80001 h -6.528 v -11.39201 q 0,-1.408 -0.93867,-2.38933 -0.896,-1.024 -2.176,-1.024 -1.32267,0 -2.26134,1.024 -0.896,0.98133 -0.896,2.38933 v 11.39201 h -6.528 v -20.48002 z m 31.24533,11.77601 q -0.59734,0.17067 -1.06667,0.256 -0.42667,0.0853 -1.10934,0.21334 -0.98133,0.17066 -1.62133,0.34133 -0.64,0.128 -1.024,0.29867 -0.34133,0.17066 -0.46933,0.42666 -0.128,0.256 -0.128,0.59734 0,0.72533 0.64,1.19467 0.64,0.42666 1.664,0.42666 1.70667,0 2.64533,-0.85333 0.29867,-0.256 0.384,-0.512 0.0853,-0.256 0.0853,-0.896 z m 6.528,9.13068 q -2.09067,-0.17067 -3.28533,-0.55467 -1.15201,-0.42667 -1.92001,-1.28 -1.408,0.98133 -2.73066,1.408 -1.32267,0.42667 -2.81601,0.42667 -1.62133,0 -3.02933,-0.512 -1.36534,-0.55467 -2.38934,-1.45067 -1.024,-0.93867 -1.62133,-2.176 -0.55467,-1.23734 -0.55467,-2.64534 0,-5.248 6.74134,-6.48534 l 4.18134,-0.72533 q 0.72533,-0.128 0.72533,-0.512 0,-0.59733 -0.81067,-0.98133 -0.768,-0.38401 -2.00533,-0.38401 -1.36534,0 -2.77334,0.64001 -1.408,0.59733 -2.64533,1.70666 l -2.98667,-4.69333 q 1.792,-1.57867 4.05333,-2.43201 2.30401,-0.85333 4.86401,-0.85333 1.92,0 3.54133,0.46933 1.62134,0.42667 2.77334,1.23734 1.19467,0.81067 1.87733,1.87733 0.68267,1.06667 0.68267,2.34667 v 9.47201 q 0,1.024 1.536,1.024 0.0853,0 0.21334,0 0.17066,0 0.384,-0.0427 z m 21.04804,-12.58668 q -0.34134,-1.62133 -1.408,-2.51733 -1.06667,-0.93867 -2.56001,-0.93867 -1.87733,0 -2.90133,1.36533 -0.98133,1.32267 -0.98133,3.84001 0,2.56 1.024,3.968 1.06666,1.408 2.944,1.408 1.57867,0 2.60267,-0.896 1.06666,-0.93867 1.28,-2.56 l 5.58934,2.09066 q -1.15201,3.20001 -3.62667,5.03468 -2.47467,1.792 -5.71734,1.792 -2.21867,0 -4.096,-0.81067 -1.83467,-0.81067 -3.20001,-2.26134 -1.36533,-1.49333 -2.13333,-3.456 -0.768,-2.00533 -0.768,-4.39467 0,-2.304 0.72533,-4.224 0.768,-1.96267 2.048,-3.37067 1.32267,-1.408 3.11467,-2.176 1.83467,-0.81067 3.968,-0.81067 3.28534,0 5.71734,1.74934 2.47467,1.70666 3.96801,5.07733 z m 14.904,-17.02401 q 1.536,0 2.60267,1.10933 1.10933,1.06667 1.10933,2.64534 0,1.49333 -1.10933,2.60267 -1.06667,1.06666 -2.56,1.06666 -1.57867,0 -2.688,-1.06666 -1.06667,-1.10934 -1.06667,-2.64534 0,-1.536 1.06667,-2.60267 1.10933,-1.10933 2.64533,-1.10933 z m 3.2,29.18402 h -6.4 v -20.60802 h 6.4 z m 23.39472,-28.92802 -3.79734,6.656 h -5.12 l 2.38933,-6.656 z m -1.96267,17.66401 q 0,-1.92 -1.19467,-3.11467 -1.19467,-1.23733 -3.11467,-1.23733 -1.87733,0 -3.072,1.23733 -1.19467,1.19467 -1.19467,3.11467 v 1.74934 q 0,1.92 1.19467,3.15733 1.19467,1.19467 3.072,1.19467 1.92,0 3.11467,-1.19467 1.19467,-1.23733 1.19467,-3.15733 z m -4.26667,-10.06934 q 4.52267,0 7.552,3.15734 2.81601,2.944 2.81601,7.76534 0,2.51733 -0.68267,4.43733 -0.68267,1.87734 -2.13334,3.37067 -1.49333,1.536 -3.41333,2.34667 -1.87734,0.81067 -4.13867,0.81067 -4.65067,0 -7.59467,-3.15734 -1.49334,-1.536 -2.176,-3.41333 -0.64001,-1.87734 -0.64001,-4.52267 0,-4.82134 2.81601,-7.63734 3.072,-3.15734 7.59467,-3.15734 z"
       id="text6487"
       aria-label="Destinació" />
  </g>
  <g
     inkscape:groupmode="layer"
     id="layer1"
     inkscape:label="Layer 1"
     transform="translate(0,30.470038)" />
  <g
     inkscape:groupmode="layer"
     id="layer2"
     inkscape:label="Layer 2"
     transform="translate(0,30.470038)">
    <path
       id="rect5280"
       style="display:inline;fill:#000080;stroke:#ffffff;stroke-width:1.99999;stroke-linecap:round;stroke-linejoin:round;stroke-miterlimit:2.613"
       d="M 71.404053,-29.470043 H 143.70464 V -1.1580124 H 71.404053 Z" />
    <path
       style="font-size:28.1783px;line-height:16.5108px;font-family:'Highway Gothic Wide';-inkscape-font-specification:'Highway Gothic Wide';letter-spacing:0px;word-spacing:0px;fill:#ffffff;stroke-width:0.999997px"
       d="m 94.736887,-9.9947092 q -2.620582,4.1703885 -7.29818,4.1703885 -3.691358,0 -5.861087,-2.6769386 -2.141551,-2.6769387 -2.141551,-7.1291097 0,-4.48035 2.141551,-7.100932 2.141551,-2.620582 5.861087,-2.620582 4.705776,0 7.29818,4.170388 l -3.071435,1.521629 q -1.465272,-2.254265 -4.226745,-2.338799 -2.141551,0.05636 -3.353218,1.916124 -1.211667,1.83159 -1.211667,4.395815 0,3.043256 1.239845,4.733955 1.268024,1.6625193 3.381396,1.6625193 2.817831,-0.028178 4.085854,-2.2824423 z m 8.847963,-4.1140318 h -6.25558 v -3.381396 h 6.25558 z m 17.24511,2.057016 q 0,2.6205818 -2.14155,4.423993 -2.14155,1.8034113 -5.3257,1.8034113 -4.59306,-0.056357 -7.60814,-3.2968612 l 2.53605,-2.5360471 q 2.16973,2.2824424 5.26934,2.3951556 1.74705,0 2.81783,-0.7326358 1.09895,-0.7326358 1.09895,-1.9161248 -0.0564,-1.380736 -1.01442,-2.085194 -0.95806,-0.704457 -2.08519,-0.760814 h -1.15531 v -3.381396 h 1.0426 q 0.84535,0 1.5498,-0.535388 0.73264,-0.535388 0.73264,-1.32438 0,-0.873527 -0.92988,-1.437093 -0.92989,-0.563566 -2.39516,-0.563566 -2.42333,0 -4.2831,1.577984 l -2.28244,-2.282442 q 2.70511,-2.64876 6.76279,-2.64876 2.84601,0 4.70577,1.49345 1.85977,1.49345 1.85977,3.80407 0,2.395156 -1.57798,3.522288 2.45151,1.577985 2.42333,4.48035 z m 17.94959,5.8892647 h -15.21629 q 0.56357,-7.4108927 7.72086,-10.4259717 1.85977,-0.760814 3.04326,-1.465271 1.18348,-0.732636 1.09895,-1.690698 0,-0.929884 -0.92989,-1.549807 -0.92988,-0.648101 -2.90236,-0.676279 -2.95872,0.08453 -5.24116,2.366977 l -2.7333,-2.197907 q 3.40958,-3.49411 7.88992,-3.550466 3.32504,0 5.29753,1.66252 1.97248,1.634341 1.97248,3.944962 -0.0282,2.000659 -1.07078,3.184148 -1.0426,1.15531 -3.97314,2.423334 -4.64942,2.226085 -5.55112,4.5930626 h 10.59504 z"
       id="text5284"
       transform="scale(0.99551619,1.004504)"
       aria-label="C-32" />
  </g>
</svg>
