<?xml version="1.0" encoding="UTF-8" standalone="no"?>
<svg
   version="1.2"
   width="373.83954"
   height="139.89951"
   id="svg2"
   sodipodi:docname="ES_CAT_OR32.svg"
   inkscape:version="1.3.2 (091e20e, 2023-11-25, custom)"
   xmlns:inkscape="http://www.inkscape.org/namespaces/inkscape"
   xmlns:sodipodi="http://sodipodi.sourceforge.net/DTD/sodipodi-0.dtd"
   xmlns="http://www.w3.org/2000/svg"
   xmlns:svg="http://www.w3.org/2000/svg"
   xmlns:rdf="http://www.w3.org/1999/02/22-rdf-syntax-ns#"
   xmlns:cc="http://creativecommons.org/ns#"
   xmlns:dc="http://purl.org/dc/elements/1.1/">
  <sodipodi:namedview
     pagecolor="#ffffff"
     bordercolor="#666666"
     borderopacity="1"
     objecttolerance="10"
     gridtolerance="10"
     guidetolerance="10"
     inkscape:pageopacity="0"
     inkscape:pageshadow="2"
     inkscape:window-width="1920"
     inkscape:window-height="1017"
     id="namedview5859"
     showgrid="false"
     inkscape:zoom="1.4088798"
     inkscape:cx="109.3067"
     inkscape:cy="-9.5820806"
     inkscape:window-x="-8"
     inkscape:window-y="-8"
     inkscape:window-maximized="1"
     inkscape:current-layer="g3182"
     fit-margin-top="0"
     fit-margin-left="0"
     fit-margin-right="0"
     fit-margin-bottom="0"
     inkscape:showpageshadow="false"
     inkscape:pagecheckerboard="true"
     inkscape:deskcolor="#d1d1d1" />
  <metadata
     id="metadata3125">
    <rdf:RDF>
      <cc:Work
         rdf:about="">
        <dc:format>image/svg+xml</dc:format>
        <dc:type
           rdf:resource="http://purl.org/dc/dcmitype/StillImage" />
        <dc:title />
      </cc:Work>
    </rdf:RDF>
  </metadata>
  <defs
     id="defs3123" />
  <g
     inkscape:groupmode="layer"
     id="layer9"
     inkscape:label="Layer 1"
     transform="translate(-0.01148676,-2.6748803e-5)">
    <g
       id="g3182"
       transform="translate(-5.201316,-104.57251)">
      <path
         d="m 376.522,171.75218 c 0,5.86268 0.24113,63.07647 -0.63631,66.83949 -0.88501,3.79551 -2.91418,2.90647 -8.92592,2.91258 L 17.011951,241.86039 C 5.0439572,241.87257 8.1264652,243.71583 8.163,231.93988 L 8.5191402,117.14845 c 0.036529,-11.77394 7.2100448,-9.94093 19.1770188,-9.91551 l 335.347071,0.71228 c 11.97197,0.0254 13.47977,-1.85949 13.47977,9.91551 v 53.89145 z"
         id="path3101"
         style="fill:#ffffff;stroke:#1c1d20;stroke-width:5;stroke-miterlimit:3.864"
         sodipodi:nodetypes="csssssssscc" />
      <g
         id="g3115">
        <g
           id="g3117" />
      </g>
    </g>
  </g>
  <g
     inkscape:groupmode="layer"
     id="layer11"
     inkscape:label="Layer 3"
     style="display:inline"
     transform="translate(-0.01148676,-2.6748803e-5)">
    <path
       d="m 164.84359,50.661186 q -1.74934,4.309337 -5.12001,6.656005 -3.37067,2.304002 -7.89334,2.304002 -3.11467,0 -5.67467,-1.066668 -2.56,-1.109334 -4.43733,-3.072002 -1.83467,-1.962668 -2.85867,-4.693337 -1.024,-2.730669 -1.024,-6.058671 0,-3.200003 0.93866,-5.845338 0.93867,-2.688002 2.81601,-4.65067 1.92,-2.048001 4.56533,-3.114669 2.64534,-1.109334 5.58934,-1.109334 4.608,0 8.02134,2.346668 3.41333,2.346669 5.03467,6.613339 l -6.82667,2.432001 q -0.68267,-2.304001 -2.34667,-3.584002 -1.62134,-1.280001 -3.92534,-1.280001 -1.536,0 -2.77333,0.597334 -1.23734,0.554667 -2.13334,1.664001 -0.896,1.066667 -1.36533,2.602668 -0.46934,1.493335 -0.46934,3.37067 0,3.925336 1.83467,6.058671 0.896,1.066667 2.21867,1.664001 1.36533,0.597334 2.816,0.597334 2.304,0 3.96801,-1.365335 1.70666,-1.408001 2.176,-3.626669 z m 15.61596,-12.202676 -3.11467,9.941341 h 6.44267 z m 13.78134,20.437349 h -6.912 l -1.45067,-4.39467 h -10.45334 l -1.32267,4.39467 h -6.74134 l 8.91734,-28.458688 h 8.23467 z m 11.60536,-16.640013 h 5.84533 q 1.152,0 2.00534,-0.853334 0.85333,-0.896 0.85333,-2.133335 0,-1.237334 -0.85333,-2.090668 -0.85334,-0.896 -2.00534,-0.896 h -5.84533 z m 6.69867,-11.818675 q 4.01067,0 6.57067,2.773335 1.10933,1.237335 1.74933,2.858669 0.64,1.578668 0.64,3.200002 0,2.688002 -1.45066,4.821337 -1.45067,2.090669 -4.09601,3.328003 l 6.95468,11.477342 h -7.12534 l -6.61334,-10.794675 h -3.328 v 10.794675 h -6.40001 V 30.437171 Z m 22.99738,22.48535 h 4.69334 q 1.408,0 2.60267,-0.597334 1.19466,-0.597334 2.00533,-1.664001 0.85333,-1.109334 1.32267,-2.602669 0.46933,-1.536001 0.46933,-3.370669 0,-1.834668 -0.46933,-3.370669 -0.46934,-1.536001 -1.32267,-2.602669 -0.81067,-1.109334 -2.00533,-1.706668 -1.19467,-0.597333 -2.60267,-0.597333 h -4.69334 z m 4.69334,-22.48535 q 2.944,0 5.376,1.066667 2.432,1.024001 4.18134,2.901336 1.74933,1.877335 2.688,4.480003 0.98133,2.602669 0.98133,5.760004 0,3.157336 -0.98133,5.802671 -0.93867,2.602669 -2.688,4.480004 -1.74934,1.877335 -4.18134,2.944002 -2.432,1.024001 -5.376,1.024001 H 229.0143 V 30.437171 Z m 31.82932,6.101338 q -1.49333,0 -2.816,0.64 -1.32266,0.640001 -2.304,1.834668 -1.664,2.090669 -1.664,5.802671 0,1.920002 0.384,3.328003 0.42667,1.365334 1.28,2.474668 0.98134,1.194668 2.304,1.834668 1.32267,0.640001 2.85867,0.640001 1.49334,0 2.816,-0.640001 1.32267,-0.64 2.30401,-1.834668 1.664,-2.176001 1.664,-5.674671 0,-2.048001 -0.42667,-3.413336 -0.384,-1.408001 -1.23733,-2.517335 -0.98134,-1.194667 -2.34667,-1.834668 -1.32267,-0.64 -2.81601,-0.64 z m 0,-6.528005 q 3.11467,0 5.76001,1.109334 2.64533,1.109334 4.56534,3.242669 3.62667,3.925336 3.62667,10.666675 0,3.200002 -1.02401,5.888004 -1.024,2.688002 -2.85866,4.65067 -1.83467,1.920002 -4.43734,2.986669 -2.56,1.066668 -5.63201,1.066668 -3.11466,0 -5.67467,-1.066668 -2.56,-1.066667 -4.39467,-3.029335 -1.83466,-1.962669 -2.85866,-4.693337 -0.98134,-2.730669 -0.98134,-6.016005 0,-3.285336 1.024,-6.016004 1.024,-2.730669 2.85867,-4.65067 1.83467,-1.962668 4.39467,-3.029336 2.56,-1.109334 5.632,-1.109334 z M 311.9157,48.698518 V 30.437171 h 6.4 v 28.458688 h -7.12534 L 299.11569,40.847845 v 18.048014 h -6.40001 V 30.437171 h 7.12534 z m 24.61868,-10.240008 -3.11467,9.941341 h 6.44267 z m 13.78134,20.437349 h -6.912 l -1.45067,-4.39467 h -10.45334 l -1.32267,4.39467 h -6.74134 l 8.91734,-28.458688 h 8.23467 z"
       id="text6487"
       style="font-size:42.6667px;line-height:25px;font-family:TrafficTypeW01-SpainD;-inkscape-font-specification:TrafficTypeW01-SpainD;letter-spacing:0px;word-spacing:0px;stroke-width:1px"
       aria-label="CARDONA" />
    <path
       d="m 159.40565,96.110918 q -1.45066,-1.194667 -3.456,-1.877334 -1.96267,-0.725334 -3.88267,-0.725334 -1.49333,0 -2.38933,0.64 -0.896,0.640001 -0.896,1.664002 0,0.768 0.55466,1.237334 0.59734,0.469334 1.87734,0.768 l 3.24267,0.768001 q 4.65067,1.066667 7.04,3.456003 2.38934,2.38933 2.38934,5.97334 0,2.00533 -0.85334,3.66933 -0.81066,1.664 -2.34666,2.85867 -1.49334,1.152 -3.58401,1.792 -2.09067,0.68267 -4.608,0.68267 -4.13867,0 -7.80801,-1.62133 -3.66933,-1.66401 -6.05867,-4.60801 l 5.67467,-4.13867 q 1.19467,1.83467 3.45601,2.90134 2.26133,1.06667 4.94933,1.06667 1.62134,0 2.60267,-0.72534 1.024,-0.72533 1.024,-1.92 0,-0.93867 -0.768,-1.536 -0.72533,-0.59733 -2.34667,-1.06667 l -3.92533,-0.98133 q -1.62134,-0.46934 -2.688,-0.85334 -1.06667,-0.384 -1.87734,-0.896 -1.70667,-1.10933 -2.688,-2.901332 -0.93867,-1.792001 -0.93867,-3.88267 0,-1.920001 0.72534,-3.456002 0.768,-1.578668 2.09066,-2.688002 1.36534,-1.109334 3.28534,-1.706668 1.92,-0.597334 4.30934,-0.597334 7.168,0 12.71467,4.77867 z m 23.85066,-2.176001 q -1.49333,0 -2.816,0.64 -1.32267,0.640001 -2.304,1.834668 -1.66401,2.090669 -1.66401,5.802675 0,1.92 0.38401,3.328 0.42666,1.36533 1.28,2.47467 0.98133,1.19466 2.304,1.83467 1.32267,0.64 2.85867,0.64 1.49333,0 2.816,-0.64 1.32267,-0.64001 2.304,-1.83467 1.664,-2.176 1.664,-5.67467 0,-2.04801 -0.42667,-3.413339 -0.384,-1.408001 -1.23733,-2.517336 -0.98133,-1.194667 -2.34667,-1.834668 -1.32267,-0.64 -2.816,-0.64 z m 0,-6.528005 q 3.11467,0 5.76,1.109334 2.64534,1.109334 4.56534,3.242669 3.62667,3.925336 3.62667,10.666675 0,3.2 -1.024,5.888 -1.024,2.68801 -2.85867,4.65067 -1.83467,1.92001 -4.43734,2.98667 -2.56,1.06667 -5.632,1.06667 -3.11467,0 -5.67467,-1.06667 -2.56,-1.06666 -4.39467,-3.02933 -1.83467,-1.96267 -2.85867,-4.69334 -0.98133,-2.73067 -0.98133,-6.016 0,-3.285339 1.024,-6.016008 1.024,-2.730669 2.85867,-4.65067 1.83466,-1.962668 4.39467,-3.029336 2.56,-1.109334 5.632,-1.109334 z m 27.05072,22.912018 h 12.24534 v 5.97334 H 203.90702 V 87.833579 h 6.40001 z m 37.54668,-14.208012 q -1.45066,-1.194667 -3.456,-1.877334 -1.96267,-0.725334 -3.88267,-0.725334 -1.49333,0 -2.38933,0.64 -0.896,0.640001 -0.896,1.664002 0,0.768 0.55466,1.237334 0.59734,0.469334 1.87734,0.768 l 3.24267,0.768001 q 4.65067,1.066667 7.04,3.456003 2.38934,2.38933 2.38934,5.97334 0,2.00533 -0.85334,3.66933 -0.81066,1.664 -2.34667,2.85867 -1.49333,1.152 -3.584,1.792 -2.09067,0.68267 -4.608,0.68267 -4.13867,0 -7.80801,-1.62133 -3.66933,-1.66401 -6.05867,-4.60801 l 5.67467,-4.13867 q 1.19467,1.83467 3.45601,2.90134 2.26133,1.06667 4.94933,1.06667 1.62134,0 2.60267,-0.72534 1.024,-0.72533 1.024,-1.92 0,-0.93867 -0.768,-1.536 -0.72533,-0.59733 -2.34667,-1.06667 l -3.92533,-0.98133 q -1.62134,-0.46934 -2.68801,-0.85334 -1.06666,-0.384 -1.87733,-0.896 -1.70667,-1.10933 -2.688,-2.901332 -0.93867,-1.792001 -0.93867,-3.88267 0,-1.920001 0.72533,-3.456002 0.768,-1.578668 2.09067,-2.688002 1.36534,-1.109334 3.28534,-1.706668 1.92,-0.597334 4.30933,-0.597334 7.16801,0 12.71468,4.77867 z m 23.85067,-2.176001 q -1.49334,0 -2.81601,0.64 -1.32266,0.640001 -2.304,1.834668 -1.664,2.090669 -1.664,5.802675 0,1.92 0.384,3.328 0.42667,1.36533 1.28,2.47467 0.98134,1.19466 2.304,1.83467 1.32267,0.64 2.85867,0.64 1.49334,0 2.81601,-0.64 1.32266,-0.64001 2.304,-1.83467 1.664,-2.176 1.664,-5.67467 0,-2.04801 -0.42667,-3.413339 -0.384,-1.408001 -1.23733,-2.517336 -0.98134,-1.194667 -2.34667,-1.834668 -1.32267,-0.64 -2.816,-0.64 z m 0,-6.528005 q 3.11467,0 5.76,1.109334 2.64534,1.109334 4.56534,3.242669 3.62667,3.925336 3.62667,10.666675 0,3.2 -1.024,5.888 -1.024,2.68801 -2.85867,4.65067 -1.83467,1.92001 -4.43734,2.98667 -2.56,1.06667 -5.632,1.06667 -3.11467,0 -5.67467,-1.06667 -2.56001,-1.06666 -4.39467,-3.02933 -1.83467,-1.96267 -2.85867,-4.69334 -0.98134,-2.73067 -0.98134,-6.016 0,-3.285339 1.024,-6.016008 1.024,-2.730669 2.85867,-4.65067 1.83467,-1.962668 4.39467,-3.029336 2.56,-1.109334 5.63201,-1.109334 z M 311.5551,106.09493 V 87.833579 h 6.4 v 28.458691 h -7.12533 L 298.75509,98.244253 v 18.048017 h -6.4 V 87.833579 h 7.12533 z m 24.61868,-10.240012 -3.11467,9.941342 h 6.44267 z m 13.78135,20.437352 h -6.91201 l -1.45067,-4.39467 h -10.45334 l -1.32267,4.39467 h -6.74133 l 8.91734,-28.458691 h 8.23467 z"
       id="text6487-9"
       style="font-size:42.6667px;line-height:25px;font-family:TrafficTypeW01-SpainD;-inkscape-font-specification:TrafficTypeW01-SpainD;letter-spacing:0px;word-spacing:0px;stroke-width:1px"
       aria-label="SOLSONA" />
  </g>
  <g
     inkscape:groupmode="layer"
     id="layer10"
     inkscape:label="Layer 2"
     transform="translate(-0.01148676,-2.6748803e-5)">
    <path
       d="m 49.606423,31.32474 -25.541404,38.7049 20.900662,-4.64852 -3.104905,43.34918 15.48281,0.003 L 54.252115,65.382 75.150656,70.02698 49.606423,31.32491"
       id="polyline3085"
       style="fill:#1c1d20" />
  </g>
</svg>
