<?xml version="1.0" encoding="UTF-8" standalone="no"?>
<svg
   version="1.2"
   width="290.75006"
   height="166.08519"
   id="svg2"
   sodipodi:docname="ES_CAT_OR44a.svg"
   inkscape:version="1.3.2 (091e20e, 2023-11-25, custom)"
   xmlns:inkscape="http://www.inkscape.org/namespaces/inkscape"
   xmlns:sodipodi="http://sodipodi.sourceforge.net/DTD/sodipodi-0.dtd"
   xmlns="http://www.w3.org/2000/svg"
   xmlns:svg="http://www.w3.org/2000/svg"
   xmlns:rdf="http://www.w3.org/1999/02/22-rdf-syntax-ns#"
   xmlns:cc="http://creativecommons.org/ns#"
   xmlns:dc="http://purl.org/dc/elements/1.1/">
  <sodipodi:namedview
     pagecolor="#ffffff"
     bordercolor="#666666"
     borderopacity="1"
     objecttolerance="10"
     gridtolerance="10"
     guidetolerance="10"
     inkscape:pageopacity="0"
     inkscape:pageshadow="2"
     inkscape:window-width="1920"
     inkscape:window-height="1017"
     id="namedview6659"
     showgrid="false"
     inkscape:zoom="2"
     inkscape:cx="190.5"
     inkscape:cy="-24.75"
     inkscape:window-x="-8"
     inkscape:window-y="-8"
     inkscape:window-maximized="1"
     inkscape:current-layer="layer11"
     fit-margin-top="0"
     fit-margin-left="0"
     fit-margin-right="0"
     fit-margin-bottom="0"
     inkscape:document-rotation="0"
     inkscape:showpageshadow="false"
     inkscape:pagecheckerboard="true"
     inkscape:deskcolor="#d1d1d1" />
  <metadata
     id="metadata4010">
    <rdf:RDF>
      <cc:Work
         rdf:about="">
        <dc:format>image/svg+xml</dc:format>
        <dc:type
           rdf:resource="http://purl.org/dc/dcmitype/StillImage" />
        <dc:title />
      </cc:Work>
    </rdf:RDF>
  </metadata>
  <defs
     id="defs4008" />
  <g
     inkscape:groupmode="layer"
     id="layer11"
     inkscape:label="Layer 1"
     style="display:inline"
     transform="translate(-3.6451487,-11.319951)">
    <path
       d="m 294.28649,164.25296 c 0.34023,3.78664 -0.062,7.63133 -2.00947,10.56364 -0.32361,0.201 -0.33662,0.51165 -1.994,1.10397 l -3.76478,1.34548 c 6.75792,0.22776 -107.41668,-0.12768 -194.107333,0.0615 -21.662089,0.0473 -43.199414,-0.13864 -59.929292,0.0398 -4.918851,0.0525 -9.30894,0.0456 -13.375464,0.008 -2.857475,-0.0261 -5.713385,0.0277 -7.797074,-0.33358 -7.1943343,-1.24731 -6.8135271,-5.45662 -6.8294367,-8.88412 L 3.95942,56.08345 C 3.8769781,38.322495 0.30006,40.567368 19.51187,40.567368 h 259.41995 c 10.13712,0 13.30972,-0.514541 14.43956,1.430214 1.01172,1.741448 0.87916,5.355066 0.91195,13.745841 0.14946,38.241617 -0.15031,38.316319 -0.0413,76.575477 0.0539,18.9121 0.007,-19.37763 -0.0157,-0.56247 -0.0113,9.43886 0.32673,23.01339 0.0602,32.49653 z"
       id="path3217"
       style="fill:#ffffff;fill-opacity:1;stroke-width:0.999997"
       sodipodi:nodetypes="ccscsssssssssssscc" />
    <path
       d="m 289.76093,164.09696 c 0,10.76106 1.16348,8.93465 -9.59873,8.89385 L 16.67497,171.99195 C 5.91277,171.95115 8.49073,172.4475 8.49073,161.6855 V 55.935851 c 0,-10.764824 -0.45905,-8.93697 10.30314,-8.895729 l 260.66203,0.998862 c 10.76221,0.04124 10.30503,0.955173 10.30503,11.720937 z"
       id="path3243"
       style="fill:none;stroke:#000000;stroke-width:4;stroke-miterlimit:3.864;stroke-opacity:1"
       sodipodi:nodetypes="sssssssss" />
    <path
       d="m 144.14369,141.44129 6.38366,6.63596 7.06989,-10.72142 -0.42344,22.06115 -22.05379,-0.42074 10.98404,-6.66037 -10.89641,-10.96655 4.42331,-4.25864"
       id="polyline3245"
       style="fill:#000000;fill-opacity:1;stroke-width:0.999997"
       sodipodi:nodetypes="cccccccc" />
    <text
       xml:space="preserve"
       style="font-size:38.6689px;line-height:22.6576px;font-family:'Andale Mono IPA';-inkscape-font-specification:'Andale Mono IPA';letter-spacing:0px;word-spacing:0px;fill:#ffffff;fill-opacity:1;stroke:none;stroke-width:0.999997px;stroke-linecap:butt;stroke-linejoin:miter;stroke-opacity:1"
       x="307.61365"
       y="178.6953"
       id="text4113"
       transform="scale(1.067666,0.9366225)"><tspan
         sodipodi:role="line"
         id="tspan4111"
         x="307.61365"
         y="178.6953"
         style="font-style:normal;font-variant:normal;font-weight:normal;font-stretch:normal;font-size:38.6689px;font-family:'Highway Gothic Wide';-inkscape-font-specification:'Highway Gothic Wide';fill:#ffffff;fill-opacity:1;stroke:none;stroke-width:0.999997px" /></text>
    <path
       style="font-size:30.6003px;line-height:17.9298px;font-family:TrafficTypeW01-SpainD;-inkscape-font-specification:TrafficTypeW01-SpainD;letter-spacing:0px;word-spacing:0px;stroke-width:0.999997px"
       d="m 34.488748,84.014374 h 3.366033 q 1.009809,0 1.866618,-0.428404 0.856808,-0.428404 1.438214,-1.193412 0.612006,-0.795608 0.948609,-1.866618 0.336604,-1.101611 0.336604,-2.417424 0,-1.315813 -0.336604,-2.417423 -0.336603,-1.101611 -0.948609,-1.866619 -0.581406,-0.795607 -1.438214,-1.224012 -0.856809,-0.428404 -1.866618,-0.428404 h -3.366033 z m 3.366033,-16.126358 q 2.11142,0 3.855637,0.765008 1.744217,0.734407 2.99883,2.08082 1.254612,1.346413 1.927819,3.213032 0.703807,1.866618 0.703807,4.13104 0,2.264422 -0.703807,4.161641 -0.673207,1.866618 -1.927819,3.213031 -1.254613,1.346413 -2.99883,2.111421 -1.744217,0.734407 -3.855637,0.734407 h -8.047879 v -20.4104 z m 28.060453,4.06984 h -9.394292 v 3.702636 h 8.384482 v 4.284042 h -8.384482 v 3.855638 h 10.312301 v 4.498244 H 51.839096 v -20.4104 h 14.076138 z m 19.492369,1.866618 q -1.04041,-0.856808 -2.478624,-1.346413 -1.407614,-0.520205 -2.784628,-0.520205 -1.07101,0 -1.713616,0.459005 -0.642607,0.459004 -0.642607,1.193411 0,0.550806 0.397804,0.887409 0.428404,0.336603 1.346413,0.550805 l 2.325623,0.550806 q 3.335433,0.765007 5.04905,2.478624 1.713617,1.713617 1.713617,4.284042 0,1.438214 -0.612006,2.631626 -0.581406,1.193411 -1.683017,2.05022 -1.07101,0.826208 -2.570425,1.285212 -1.499415,0.489605 -3.304833,0.489605 -2.968229,0 -5.599854,-1.162811 -2.631626,-1.193412 -4.345243,-3.304833 l 4.06984,-2.968229 q 0.856808,1.315813 2.478624,2.080821 1.621816,0.765007 3.549635,0.765007 1.162811,0 1.866618,-0.520205 0.734407,-0.520205 0.734407,-1.377013 0,-0.673207 -0.550805,-1.101611 -0.520205,-0.428404 -1.683016,-0.765008 L 78.155332,79.760932 Q 76.992521,79.424329 76.227513,79.148926 75.462506,78.873524 74.8811,78.50632 73.657088,77.710712 72.953281,76.4255 q -0.673207,-1.285213 -0.673207,-2.784627 0,-1.377014 0.520206,-2.478625 0.550805,-1.132211 1.499414,-1.927819 0.97921,-0.795607 2.356223,-1.224012 1.377014,-0.428404 3.090631,-0.428404 5.14085,0 9.118889,3.427234 z m 22.919627,-1.652416 h -5.93646 V 88.298416 H 97.708923 V 72.172058 h -5.905858 v -4.284042 h 16.524165 z m 8.26208,16.126358 h -4.68185 v -20.4104 h 4.68185 z m 19.7066,-7.313472 V 67.888016 h 4.59004 v 20.4104 h -5.11025 l -8.65988,-12.943927 v 12.943927 h -4.59005 v -20.4104 h 5.11025 z m 17.65636,-7.344071 -2.23382,7.129869 h 4.62065 z m 9.8839,14.657543 h -4.95725 l -1.04041,-3.151831 h -7.49707 l -0.94861,3.151831 h -4.83485 l 6.39546,-20.4104 h 5.90586 z m 21.08359,-5.905858 q -1.25461,3.090631 -3.67203,4.773647 -2.41742,1.652416 -5.66106,1.652416 -2.23382,0 -4.06984,-0.765007 -1.83601,-0.795608 -3.18243,-2.203222 -1.31581,-1.407614 -2.05022,-3.366033 -0.73441,-1.958419 -0.73441,-4.345242 0,-2.295023 0.67321,-4.192241 0.67321,-1.927819 2.01962,-3.335433 1.37701,-1.468815 3.27423,-2.233822 1.89722,-0.795608 4.00864,-0.795608 3.30484,0 5.75286,1.683017 2.44802,1.683016 3.61083,4.743046 l -4.89604,1.744217 q -0.48961,-1.652416 -1.68302,-2.570425 -1.16281,-0.918009 -2.81523,-0.918009 -1.10161,0 -1.98902,0.428404 -0.88741,0.397804 -1.53001,1.193412 -0.64261,0.765007 -0.97921,1.866618 -0.33661,1.071011 -0.33661,2.417424 0,2.815227 1.31582,4.345242 0.6426,0.765008 1.59121,1.193412 0.97921,0.428404 2.01962,0.428404 1.65242,0 2.84583,-0.979209 1.22401,-1.00981 1.56062,-2.601026 z m 8.65987,5.905858 h -4.68185 v -20.4104 h 4.68185 z m 14.77994,-16.034557 q -1.07101,0 -2.01962,0.459005 -0.94861,0.459004 -1.65241,1.315812 -1.19342,1.499415 -1.19342,4.161641 0,1.377014 0.27541,2.386824 0.306,0.979209 0.91801,1.774817 0.7038,0.856808 1.65241,1.315813 0.94861,0.459004 2.05022,0.459004 1.07101,0 2.01962,-0.459004 0.94861,-0.459005 1.65242,-1.315813 1.19341,-1.560615 1.19341,-4.06984 0,-1.468814 -0.306,-2.448024 -0.27541,-1.00981 -0.88741,-1.805418 -0.70381,-0.856808 -1.68302,-1.315812 -0.94861,-0.459005 -2.01962,-0.459005 z m 0,-4.681846 q 2.23382,0 4.13104,0.795608 1.89722,0.795608 3.27423,2.325623 2.60103,2.815227 2.60103,7.650075 0,2.295022 -0.73441,4.222841 -0.73441,1.927819 -2.05022,3.335433 -1.31581,1.377013 -3.18243,2.142021 -1.83602,0.765007 -4.03924,0.765007 -2.23382,0 -4.06984,-0.765007 -1.83602,-0.765008 -3.15183,-2.172622 -1.31581,-1.407613 -2.05022,-3.366033 -0.70381,-1.958419 -0.70381,-4.314642 0,-2.356223 0.73441,-4.314642 0.73441,-1.958419 2.05022,-3.335433 1.31581,-1.407614 3.15183,-2.172621 1.83602,-0.795608 4.03924,-0.795608 z m 28.58072,13.402931 V 67.888016 h 4.59004 v 20.4104 h -5.11025 L 227.7602,75.354489 v 12.943927 h -4.59005 v -20.4104 h 5.11025 z m 24.266,-7.16047 q -1.04041,-0.856808 -2.47862,-1.346413 -1.40761,-0.520205 -2.78463,-0.520205 -1.07101,0 -1.71361,0.459005 -0.64261,0.459004 -0.64261,1.193411 0,0.550806 0.3978,0.887409 0.42841,0.336603 1.34642,0.550805 l 2.32562,0.550806 q 3.33543,0.765007 5.04905,2.478624 1.71362,1.713617 1.71362,4.284042 0,1.438214 -0.61201,2.631626 -0.58141,1.193411 -1.68302,2.05022 -1.07101,0.826208 -2.57042,1.285212 -1.49942,0.489605 -3.30483,0.489605 -2.96823,0 -5.59986,-1.162811 -2.63163,-1.193412 -4.34524,-3.304833 l 4.06984,-2.968229 q 0.85681,1.315813 2.47862,2.080821 1.62182,0.765007 3.54964,0.765007 1.16281,0 1.86662,-0.520205 0.7344,-0.520205 0.7344,-1.377013 0,-0.673207 -0.5508,-1.101611 -0.52021,-0.428404 -1.68302,-0.765008 l -2.81523,-0.703807 q -1.16281,-0.336603 -1.92782,-0.612006 -0.765,-0.275402 -1.34641,-0.642606 -1.22401,-0.795608 -1.92782,-2.08082 -0.6732,-1.285213 -0.6732,-2.784627 0,-1.377014 0.5202,-2.478625 0.55081,-1.132211 1.49942,-1.927819 0.9792,-0.795607 2.35622,-1.224012 1.37701,-0.428404 3.09063,-0.428404 5.14085,0 9.11889,3.427234 z"
       id="text5780"
       transform="scale(1.0059643,0.99407107)"
       aria-label="DESTINACIONS" />
    <path
       id="rect5280"
       style="display:inline;fill:#ff2121;stroke:#ffffff;stroke-width:1.99999;stroke-linecap:round;stroke-linejoin:round;stroke-miterlimit:2.613"
       d="m 121.50461,12.319946 h 72.30058 v 28.312031 h -72.30058 z" />
    <path
       style="font-size:28.1783px;line-height:16.5108px;font-family:TrafficTypeW01-SpainD;-inkscape-font-specification:TrafficTypeW01-SpainD;letter-spacing:0px;word-spacing:0px;fill:#ffffff;stroke-width:0.999997px"
       d="m 147.06374,30.001739 q -1.15531,2.846009 -3.3814,4.395815 -2.22608,1.521628 -5.21298,1.521628 -2.05702,0 -3.74771,-0.704457 -1.6907,-0.732636 -2.93055,-2.028838 -1.21167,-1.296202 -1.88794,-3.099613 -0.67628,-1.803411 -0.67628,-4.001319 0,-2.113372 0.61992,-3.860427 0.61992,-1.775233 1.85977,-3.071435 1.26802,-1.352558 3.01508,-2.057016 1.74705,-0.732635 3.69135,-0.732635 3.04326,0 5.29752,1.549806 2.25427,1.549807 3.32504,4.367637 l -4.50853,1.606163 q -0.45085,-1.521628 -1.5498,-2.366977 -1.07078,-0.845349 -2.59241,-0.845349 -1.01441,0 -1.83159,0.394496 -0.81717,0.366318 -1.40891,1.098954 -0.59174,0.704457 -0.90171,1.718876 -0.30996,0.98624 -0.30996,2.226086 0,2.592403 1.21167,4.001318 0.59174,0.704458 1.46527,1.098954 0.90171,0.394496 1.85977,0.394496 1.52163,0 2.62058,-0.901705 1.12713,-0.929884 1.43709,-2.395156 z m 7.97444,0.648101 h -6.48101 v -3.578644 h 6.48101 z m 10.31329,4.790311 h -4.31128 V 23.126234 h -3.18415 V 19.37852 h 1.66252 q 0.87353,0 1.38073,-0.50721 0.50721,-0.507209 0.50721,-1.380736 v -0.845349 h 3.94497 z m 18.76676,-14.849964 h -8.08717 l -0.19725,1.831589 q 0.67628,-0.281783 1.23984,-0.394496 0.59175,-0.112713 1.32438,-0.112713 1.4371,0 2.67694,0.507209 1.23985,0.50721 2.11338,1.408915 0.9017,0.873528 1.40891,2.113373 0.50721,1.211667 0.50721,2.64876 0,1.577985 -0.53539,2.902365 -0.50721,1.32438 -1.46527,2.282442 -0.92988,0.958063 -2.25426,1.49345 -1.2962,0.535388 -2.84601,0.535388 -1.54981,0 -2.95872,-0.563566 -1.40892,-0.563566 -2.3388,-1.549806 -0.56357,-0.619923 -0.98624,-1.352559 -0.3945,-0.760814 -0.78899,-1.887946 l 4.08585,-1.211667 q 0.87353,2.423334 2.90236,2.423334 1.12714,0 1.85977,-0.788993 0.73264,-0.81717 0.73264,-2.085194 0,-1.32438 -0.73264,-2.169729 -0.73263,-0.845349 -1.88794,-0.845349 -1.46528,0 -2.3388,1.380737 l -4.59307,-0.619923 1.23985,-9.890583 h 11.91942 z"
       id="text5284"
       transform="scale(0.99551619,1.004504)"
       aria-label="C-15" />
  </g>
</svg>
