<?xml version="1.0" encoding="UTF-8" standalone="no"?>
<svg
   version="1.2"
   width="319.21185"
   height="154.78897"
   id="svg2"
   sodipodi:docname="ES_CAT_LOC541.svg"
   inkscape:version="1.3.2 (091e20e, 2023-11-25, custom)"
   xmlns:inkscape="http://www.inkscape.org/namespaces/inkscape"
   xmlns:sodipodi="http://sodipodi.sourceforge.net/DTD/sodipodi-0.dtd"
   xmlns="http://www.w3.org/2000/svg"
   xmlns:svg="http://www.w3.org/2000/svg"
   xmlns:rdf="http://www.w3.org/1999/02/22-rdf-syntax-ns#"
   xmlns:cc="http://creativecommons.org/ns#"
   xmlns:dc="http://purl.org/dc/elements/1.1/">
  <sodipodi:namedview
     pagecolor="#ffffff"
     bordercolor="#666666"
     borderopacity="1"
     objecttolerance="10"
     gridtolerance="10"
     guidetolerance="10"
     inkscape:pageopacity="0"
     inkscape:pageshadow="2"
     inkscape:window-width="1920"
     inkscape:window-height="1017"
     id="namedview906"
     showgrid="false"
     inkscape:zoom="2.280617"
     inkscape:cx="199.94589"
     inkscape:cy="109.40022"
     inkscape:window-x="-8"
     inkscape:window-y="-8"
     inkscape:window-maximized="1"
     inkscape:current-layer="layer3"
     fit-margin-top="0"
     fit-margin-left="0"
     fit-margin-right="0"
     fit-margin-bottom="0"
     inkscape:document-rotation="0"
     inkscape:showpageshadow="false"
     inkscape:pagecheckerboard="true"
     inkscape:deskcolor="#d1d1d1" />
  <metadata
     id="metadata3197">
    <rdf:RDF>
      <cc:Work
         rdf:about="">
        <dc:format>image/svg+xml</dc:format>
        <dc:type
           rdf:resource="http://purl.org/dc/dcmitype/StillImage" />
        <dc:title />
      </cc:Work>
    </rdf:RDF>
  </metadata>
  <defs
     id="defs3195" />
  <g
     inkscape:groupmode="layer"
     id="layer8"
     inkscape:label="Layer 4"
     transform="translate(167.22381,43.18159)">
    <path
       d="m 151.98804,80.06918 c 0,17.41595 1.12052,32.01374 -20.75845,31.97668 l -258.8404,-0.43848 c -21.87897,-0.0371 -39.67261,4.29372 -39.613,-13.122131 l 0.43848,-128.107821 c 0.0596,-17.423813 17.29552,-13.559018 39.17452,-13.559018 h 239.98585 c 21.879,0 39.613,-3.864101 39.613,13.559018 V 80.06918"
       id="path3113"
       style="display:inline;fill:#00be00;fill-opacity:1;stroke-width:1"
       sodipodi:nodetypes="csssssssc" />
    <path
       d="m 142.9856,85.191297 c 0,18.396003 -15.017,14.458453 -33.54,14.458453 h -234.77541 c -18.525,0 -33.542,2.62111 -33.542,-15.773887 V -20.133181 c 0,-18.4 15.017,-15.337409 33.542,-15.337409 H 109.4456 c 18.523,0 33.54,-3.501069 33.54,14.898931 z"
       id="path3115"
       style="display:inline;fill:#00be00;fill-opacity:1;stroke:#ffffff;stroke-width:7.0629;stroke-miterlimit:3.864"
       sodipodi:nodetypes="sssssssss"
       sodipodi:insensitive="true" />
  </g>
  <g
     inkscape:groupmode="layer"
     id="layer3"
     inkscape:label="Layer 1"
     style="display:inline">
    <path
       style="font-size:37.6628px;line-height:22.068px;font-family:Ccrige;-inkscape-font-specification:Ccrige;letter-spacing:8px;word-spacing:0px;fill:#ffffff;stroke-width:0.999999px"
       d="M 25.249595,88.859186 H 44.740094 V 83.049699 H 31.332137 V 78.031131 H 42.160192 V 72.221644 H 31.332137 v -4.623108 h 12.10859 V 62.128014 H 25.249595 v 26.731172 z m 30.738931,-0.0094 H 73.445234 V 83.021452 H 61.647362 V 62.109183 H 55.97911 l 0.0094,26.740588 z m 70.309744,-1.233457 0.64968,1.233457 h 4.40655 l -0.0753,-15.761882 H 119.5378 v 5.630588 h 6.46858 q -0.1224,0.894492 -0.47078,1.732489 -1.05456,2.363341 -3.46498,3.314327 -5.41403,1.48768 -7.88094,-3.559135 -0.43312,-1.675995 -0.54611,-3.408483 v -2.664643 q 0.14123,-1.741905 0.62143,-3.427315 0.98865,-2.14678 3.15426,-3.107181 5.32929,-1.732489 8.02218,3.182506 l 5.61176,-2.513991 q -1.78899,-3.380237 -5.15981,-5.206883 -10.4985,-4.397131 -16.76936,5.093894 -3.51205,7.645548 0.13182,15.234603 0.009,0.0094 0.009,0.02825 6.7793,9.15206 17.033,4.199402 z m 14.39326,1.233457 h 6.33676 l 1.28995,-4.001673 9.70759,0.0094 1.25229,3.992257 h 6.5345 l -8.96375,-26.731173 -7.25951,-0.0094 -8.89783,26.740588 z m 9.73583,-9.971227 3.00361,-9.265048 3.01302,9.265048 h -6.01663 z m 26.6525,9.952395 6.20494,0.01883 V 78.483085 l 3.16368,0.0094 5.9978,10.35727 h 6.30852 l -6.38385,-10.950459 0.10358,-0.03766 q 3.1825,-1.346445 4.52895,-4.547783 2.15619,-7.231258 -4.54779,-10.68682 -1.12988,-0.442538 -2.33509,-0.508448 l -13.04074,0.01883 v 26.693509 z m 6.1767,-15.517073 0.0188,-5.621173 h 5.56468 q 2.15619,0.367212 2.51399,2.532823 0.0188,2.589318 -2.53283,3.08835 h -5.56467 z m 26.80314,15.517073 6.20495,0.01883 V 78.483085 l 3.16367,0.0094 5.9978,10.35727 h 6.30852 l -6.38384,-10.950459 0.10357,-0.03766 q 3.18251,-1.346445 4.52895,-4.547783 2.1562,-7.231258 -4.54778,-10.68682 -1.12989,-0.442538 -2.3351,-0.508448 l -13.04074,0.01883 v 26.693509 z m 6.1767,-15.517073 0.0188,-5.621173 h 5.56468 q 2.15619,0.367212 2.51399,2.532823 0.0188,2.589318 -2.53282,3.08835 h -5.56468 z m 26.41717,15.535905 h 6.33677 l 1.28995,-4.001673 9.70759,0.0094 1.25228,3.992257 h 6.5345 l -8.96375,-26.731173 -7.2595,-0.0094 -8.89784,26.740588 z m 9.73584,-9.971227 3.0036,-9.265048 3.01303,9.265048 h -6.01663 z m 26.62427,9.971227 h 6.08254 V 78.021716 h 10.81864 v -5.809487 h -10.81864 v -4.632525 h 12.09918 v -5.470521 h -18.18172 v 26.740588 z"
       id="text1502-7"
       transform="scale(0.99817165,1.0018317)"
       aria-label="EL GARRAF" />
    <text
       xml:space="preserve"
       style="font-size:42.6667px;line-height:25px;font-family:Haettenschweiler;-inkscape-font-specification:Haettenschweiler;letter-spacing:0px;word-spacing:0px;fill:none;stroke:#000000;stroke-width:1px;stroke-linecap:butt;stroke-linejoin:miter;stroke-opacity:1"
       x="49.109516"
       y="113.12728"
       id="text2178"><tspan
         sodipodi:role="line"
         id="tspan2176"
         x="49.109516"
         y="113.12728" /></text>
  </g>
  <g
     inkscape:groupmode="layer"
     id="layer5"
     inkscape:label="Layer 3"
     style="display:inline">
    <text
       xml:space="preserve"
       style="font-size:42.6667px;line-height:25px;font-family:'Andale Mono IPA';-inkscape-font-specification:'Andale Mono IPA';letter-spacing:0px;word-spacing:0px;fill:none;stroke:#000000;stroke-width:1px;stroke-linecap:butt;stroke-linejoin:miter;stroke-opacity:1"
       x="133.73573"
       y="169.69092"
       id="text1522"><tspan
         sodipodi:role="line"
         id="tspan1520"
         x="133.73573"
         y="169.69092" /></text>
  </g>
</svg>
