<?xml version="1.0" encoding="UTF-8" standalone="no"?>
<svg
   width="1695.7272"
   height="478"
   id="svg3272"
   version="1.1"
   inkscape:version="1.3.2 (091e20e, 2023-11-25, custom)"
   sodipodi:docname="ES_CAT_ID450.svg"
   xmlns:inkscape="http://www.inkscape.org/namespaces/inkscape"
   xmlns:sodipodi="http://sodipodi.sourceforge.net/DTD/sodipodi-0.dtd"
   xmlns="http://www.w3.org/2000/svg"
   xmlns:svg="http://www.w3.org/2000/svg"
   xmlns:rdf="http://www.w3.org/1999/02/22-rdf-syntax-ns#"
   xmlns:cc="http://creativecommons.org/ns#"
   xmlns:dc="http://purl.org/dc/elements/1.1/">
  <defs
     id="defs3274" />
  <sodipodi:namedview
     id="base"
     pagecolor="#ffffff"
     bordercolor="#666666"
     borderopacity="1.0"
     inkscape:pageopacity="0.0"
     inkscape:pageshadow="2"
     inkscape:zoom="0.70710678"
     inkscape:cx="896.6114"
     inkscape:cy="366.98842"
     inkscape:document-units="px"
     inkscape:current-layer="layer2"
     showgrid="false"
     fit-margin-top="0"
     fit-margin-left="0"
     fit-margin-right="0"
     fit-margin-bottom="0"
     inkscape:window-width="1920"
     inkscape:window-height="1017"
     inkscape:window-x="-8"
     inkscape:window-y="-8"
     inkscape:window-maximized="1"
     inkscape:document-rotation="0"
     inkscape:showpageshadow="false"
     inkscape:pagecheckerboard="true"
     inkscape:deskcolor="#d1d1d1" />
  <metadata
     id="metadata3277">
    <rdf:RDF>
      <cc:Work
         rdf:about="">
        <dc:format>image/svg+xml</dc:format>
        <dc:type
           rdf:resource="http://purl.org/dc/dcmitype/StillImage" />
        <dc:title />
      </cc:Work>
    </rdf:RDF>
  </metadata>
  <g
     inkscape:label="Capa 1"
     inkscape:groupmode="layer"
     id="layer1"
     transform="translate(244.4286,-504.79077)"
     style="display:inline">
    <g
       inkscape:groupmode="layer"
       id="layer12"
       inkscape:label="E-80">
      <rect
         style="fill:#ffcc00;stroke:#000000;stroke-width:20;stroke-linecap:round;stroke-linejoin:round;stroke-miterlimit:3.864;stroke-dasharray:none"
         id="rect9789"
         width="1675.7272"
         height="458"
         x="-234.4286"
         y="514.79077"
         ry="74.953316"
         rx="74.953316" />
    </g>
  </g>
  <g
     inkscape:groupmode="layer"
     id="layer2"
     inkscape:label="Capa 2"
     style="display:inline"
     transform="translate(10.000008,9.999977)">
    <path
       style="font-weight:bold;font-size:379.886px;line-height:222.59px;font-family:TrafficTypeW01-SpainD;-inkscape-font-specification:'TrafficTypeW01-SpainD Bold';letter-spacing:0px;word-spacing:0px;stroke-width:0.999996px"
       d="m 220.62534,294.85173 h 52.04438 q 14.43567,0 22.79316,-7.21784 8.73738,-7.21783 8.73738,-19.37418 0,-12.15635 -8.73738,-19.37419 -8.35749,-7.21783 -22.79316,-7.21783 h -52.04438 z m 0,-101.42956 h 52.04438 q 9.49715,0 15.57533,-6.45806 6.07817,-6.45806 6.07817,-16.3351 0,-9.87703 -6.07817,-16.3351 -6.07818,-6.45806 -15.57533,-6.45806 H 220.62534 Z M 162.50279,94.651814 h 122.32329 q 14.05578,0 26.21213,5.318404 12.53624,5.318402 21.6535,14.435672 9.11726,9.11726 14.43567,21.6535 5.3184,12.53623 5.3184,26.59202 0,14.81555 -6.07818,28.11156 -5.69828,12.91612 -16.71498,22.79316 17.09487,10.63681 26.21213,27.35179 9.11727,16.71498 9.11727,36.08917 0,14.81555 -5.69829,27.73167 -5.31841,12.91613 -14.81556,22.79316 -9.11726,9.49715 -22.03338,15.19544 -12.53624,5.31841 -26.97191,5.31841 H 162.50279 Z m 380.2663,0 h 58.50244 L 532.89205,348.03577 H 461.85337 L 393.4739,94.651814 h 58.12255 L 497.18277,257.6229 Z M 711.4387,283.45515 h -87.37378 v -48.24552 h 87.37378 z m 237.80901,11.39658 v 53.18404 H 768.04209 v -42.92712 q 0,-3.79886 1.13966,-6.07818 1.13966,-2.27931 4.17875,-4.55863 l 75.97719,-57.36278 q 21.27362,-15.95521 31.15066,-30.77077 10.25692,-15.19544 10.25692,-30.01099 0,-14.43567 -10.25692,-23.17304 -9.87704,-9.11727 -26.97191,-9.11727 -17.85464,0 -28.11156,10.63681 -9.87704,10.63681 -9.87704,29.63111 0,2.27931 0,4.17874 0,1.89943 0.75977,4.93852 h -59.6421 q -0.37988,-4.93852 -0.75977,-8.35749 0,-3.79886 0,-6.07818 0,-20.51384 6.83795,-37.22882 6.83795,-16.71499 19.37418,-28.49145 12.91613,-12.15635 30.77077,-18.614416 17.85464,-6.458062 39.88803,-6.458062 22.03339,0 39.88803,6.458062 18.23452,6.458066 31.15065,18.234526 12.91612,11.77647 19.75407,28.49145 6.83795,16.71498 6.83795,37.22883 0,24.69259 -9.87704,43.68689 -9.49715,18.99429 -31.53054,38.36848 l -39.12825,34.18974 z m 153.47369,53.18404 h -58.1225 V 182.02559 h -42.9271 v -50.52484 h 22.4132 q 11.7765,0 18.6144,-6.83794 6.838,-6.83795 6.838,-18.61442 V 94.651814 h 53.184 z m 165.251,0 h -58.1225 V 182.02559 h -42.9272 v -50.52484 h 22.4133 q 11.7765,0 18.6144,-6.83794 6.838,-6.83795 6.838,-18.61442 V 94.651814 h 53.184 z m 264.0212,-53.18404 v 53.18404 H 1350.788 v -42.92712 q 0,-3.79886 1.1397,-6.07818 1.1396,-2.27931 4.1787,-4.55863 l 75.9772,-57.36278 q 21.2736,-15.95521 31.1507,-30.77077 10.2569,-15.19544 10.2569,-30.01099 0,-14.43567 -10.2569,-23.17304 -9.8771,-9.11727 -26.9719,-9.11727 -17.8547,0 -28.1116,10.63681 -9.877,10.63681 -9.877,29.63111 0,2.27931 0,4.17874 0,1.89943 0.7597,4.93852 h -59.6421 q -0.3799,-4.93852 -0.7597,-8.35749 0,-3.79886 0,-6.07818 0,-20.51384 6.8379,-37.22882 6.8379,-16.71499 19.3742,-28.49145 12.9161,-12.15635 30.7708,-18.614416 17.8546,-6.458062 39.888,-6.458062 22.0334,0 39.888,6.458062 18.2345,6.458066 31.1507,18.234526 12.9161,11.77647 19.754,28.49145 6.838,16.71498 6.838,37.22883 0,24.69259 -9.8771,43.68689 -9.4971,18.99429 -31.5305,38.36848 l -39.1283,34.18974 z"
       id="text850"
       transform="scale(0.98997863,1.0101228)"
       aria-label="BV-2112" />
  </g>
</svg>
