<?xml version="1.0" encoding="UTF-8" standalone="no"?>
<svg
   width="500"
   height="160"
   viewBox="0 0 132.29166 42.333334"
   version="1.1"
   id="svg4433"
   inkscape:version="1.3.2 (091e20e, 2023-11-25, custom)"
   sodipodi:docname="ES_CAT_OR53punt2.svg"
   xmlns:inkscape="http://www.inkscape.org/namespaces/inkscape"
   xmlns:sodipodi="http://sodipodi.sourceforge.net/DTD/sodipodi-0.dtd"
   xmlns="http://www.w3.org/2000/svg"
   xmlns:svg="http://www.w3.org/2000/svg"
   xmlns:rdf="http://www.w3.org/1999/02/22-rdf-syntax-ns#"
   xmlns:cc="http://creativecommons.org/ns#"
   xmlns:dc="http://purl.org/dc/elements/1.1/">
  <defs
     id="defs4427">
    <rect
       x="38.364582"
       y="48.097469"
       width="28.915178"
       height="15.591518"
       id="rect5326" />
    <rect
       x="70.681549"
       y="45.357143"
       width="16.441963"
       height="13.134672"
       id="rect5320" />
    <rect
       x="72.949402"
       y="12.85119"
       width="1.5119047"
       height="19.182291"
       id="rect5314" />
  </defs>
  <sodipodi:namedview
     id="base"
     pagecolor="#ffffff"
     bordercolor="#666666"
     borderopacity="1.0"
     inkscape:pageopacity="0.0"
     inkscape:pageshadow="2"
     inkscape:zoom="1.1383002"
     inkscape:cx="202.05565"
     inkscape:cy="46.121399"
     inkscape:document-units="px"
     inkscape:current-layer="layer1"
     inkscape:document-rotation="0"
     showgrid="false"
     inkscape:pagecheckerboard="true"
     inkscape:showpageshadow="false"
     units="px"
     inkscape:window-width="1920"
     inkscape:window-height="1017"
     inkscape:window-x="-8"
     inkscape:window-y="-8"
     inkscape:window-maximized="1"
     inkscape:deskcolor="#d1d1d1" />
  <metadata
     id="metadata4430">
    <rdf:RDF>
      <cc:Work
         rdf:about="">
        <dc:format>image/svg+xml</dc:format>
        <dc:type
           rdf:resource="http://purl.org/dc/dcmitype/StillImage" />
        <dc:title />
      </cc:Work>
    </rdf:RDF>
  </metadata>
  <g
     inkscape:label="Capa 1"
     inkscape:groupmode="layer"
     id="layer1"
     style="display:inline">
    <path
       id="rect5257"
       style="display:inline;fill:#ffffff;stroke:#000000;stroke-width:2.00001;stroke-linecap:round;stroke-linejoin:round;stroke-miterlimit:2.613;stroke-dasharray:none;stroke-opacity:1"
       d="M 1.7008928,1.8838024 C 2.1031975,1.4607177 2.2678008,1.1416833 2.8347369,1.1459154 l 105.5499631,-0.0807 22.53657,19.4255305 -22.1586,20.773682 c 0,0 -70.429457,-0.09781 -105.6441848,-0.146708 C 2.4569663,41.116801 2.1211039,40.960188 1.6536458,40.464458 1.1638265,39.945014 1.1339285,39.646717 1.1339285,38.912593 V 3.5851289 c 0,-0.8173034 0.019369,-1.1254461 0.5669643,-1.7013265 z"
       sodipodi:nodetypes="sscccsssss" />
    <path
       style="display:inline;fill:#000000;stroke:none;stroke-width:2;stroke-linecap:round;stroke-linejoin:round;stroke-miterlimit:2.613;stroke-dasharray:none;stroke-opacity:1"
       d="M 109.16357,42.199873 H 107.0847 L 126.33854,20.032738 108.3847,1.8898774 v 0 l 0.26727,-1.73725189 22.2693,19.25878949 z"
       id="path5278"
       sodipodi:nodetypes="cccccccc" />
    <text
       xml:space="preserve"
       id="text5312"
       style="font-size:11.2889px;line-height:6.61458px;font-family:'Highway Gothic Wide';-inkscape-font-specification:'Highway Gothic Wide';letter-spacing:0px;word-spacing:0px;white-space:pre;shape-inside:url(#rect5314);display:inline;fill:none;stroke:#000000;stroke-width:0.264583px;stroke-linecap:butt;stroke-linejoin:miter;stroke-opacity:1" />
    <text
       xml:space="preserve"
       id="text5318"
       style="font-size:11.2889px;line-height:6.61458px;font-family:'Highway Gothic Wide';-inkscape-font-specification:'Highway Gothic Wide';letter-spacing:0px;word-spacing:0px;white-space:pre;shape-inside:url(#rect5320);display:inline;fill:none;stroke:#000000;stroke-width:0.264583px;stroke-linecap:butt;stroke-linejoin:miter;stroke-opacity:1" />
    <text
       xml:space="preserve"
       id="text5324"
       style="font-size:11.2889px;line-height:6.61458px;font-family:'Highway Gothic Wide';-inkscape-font-specification:'Highway Gothic Wide';letter-spacing:0px;word-spacing:0px;white-space:pre;shape-inside:url(#rect5326);display:inline;fill:none;stroke:#000000;stroke-width:0.264583px;stroke-linecap:butt;stroke-linejoin:miter;stroke-opacity:1" />
    <text
       xml:space="preserve"
       style="font-size:11.2889px;line-height:6.61458px;font-family:'Highway Gothic Wide';-inkscape-font-specification:'Highway Gothic Wide';letter-spacing:0px;word-spacing:0px;display:inline;fill:none;stroke:#000000;stroke-width:0.264583px;stroke-linecap:butt;stroke-linejoin:miter;stroke-opacity:1"
       x="10.110864"
       y="40.91592"
       id="text5292"><tspan
         sodipodi:role="line"
         id="tspan5290"
         x="10.110864"
         y="40.91592"
         style="stroke-width:0.264583px" /></text>
    <path
       style="font-size:11.2889px;line-height:6.61458px;font-family:Ccrige;-inkscape-font-specification:Ccrige;letter-spacing:0px;word-spacing:0px;fill:#ffffff;stroke-width:0.264583px"
       d="m 15.4214,31.845886 h 1.885246 l 0.0028,-5.003806 3.273782,4.98405 0.01129,0.01976 h 2.040469 l 0.0028,-8.012297 h -1.817512 l -0.0028,5.147738 -3.43747,-5.150561 h -1.961446 l 0.0028,8.01512 z m 8.34532,-2.102558 h 2.765781 V 28.26166 H 23.76672 v 1.481668 z m 7.049911,2.096913 0.0028,-8.00383 H 29.17974 v 0.349956 q -0.107244,0.682978 -0.793045,0.770467 l -0.725312,0.0028 v 1.662291 l 1.374424,-0.0028 v 5.221116 h 1.780824 z"
       id="text5284-0"
       aria-label="N-1" />
    <path
       style="font-size:42.2835px;line-height:10.8393px;font-family:TrafficTypeW01-SpainD;-inkscape-font-specification:TrafficTypeW01-SpainD;letter-spacing:4.22835px;word-spacing:0px;stroke-width:0.264583px"
       d="m 72.419251,29.475547 v 5.91969 h -20.16923 v -4.778036 q 0,-0.422835 0.12685,-0.676536 0.126851,-0.253701 0.465119,-0.507402 l 8.4567,-6.384808 q 2.367876,-1.775907 3.467247,-3.424964 1.141655,-1.69134 1.141655,-3.340396 0,-1.606773 -1.141655,-2.579294 -1.099371,-1.014804 -3.002129,-1.014804 -1.987324,0 -3.128979,1.183938 -1.099371,1.183938 -1.099371,3.298113 0,0.253701 0,0.465119 0,0.211417 0.08457,0.549685 h -6.638509 q -0.04228,-0.549685 -0.08457,-0.930237 0,-0.422835 0,-0.676536 0,-2.283309 0.761103,-4.143783 0.761103,-1.860474 2.156458,-3.1712624 1.437639,-1.3530721 3.424964,-2.0718916 1.987324,-0.7188195 4.439767,-0.7188195 2.452444,0 4.439768,0.7188195 2.029608,0.7188195 3.467247,2.0296081 1.437639,1.3107889 2.198742,3.1712629 0.761103,1.860474 0.761103,4.143783 0,2.748427 -1.099371,4.862602 -1.057087,2.114175 -3.50953,4.270634 l -4.355201,3.805515 z m 32.981139,0 v 5.91969 H 85.231165 v -4.778036 q 0,-0.422835 0.12685,-0.676536 0.126851,-0.253701 0.465119,-0.507402 l 8.4567,-6.384808 q 2.367876,-1.775907 3.467247,-3.424964 1.141654,-1.69134 1.141654,-3.340396 0,-1.606773 -1.141654,-2.579294 -1.099371,-1.014804 -3.002129,-1.014804 -1.987324,0 -3.128979,1.183938 -1.099371,1.183938 -1.099371,3.298113 0,0.253701 0,0.465119 0,0.211417 0.08457,0.549685 H 83.96266 q -0.04228,-0.549685 -0.08457,-0.930237 0,-0.422835 0,-0.676536 0,-2.283309 0.761103,-4.143783 0.761103,-1.860474 2.156458,-3.1712624 1.437639,-1.3530721 3.424964,-2.0718916 1.987324,-0.7188195 4.439767,-0.7188195 2.452443,0 4.439768,0.7188195 2.029607,0.7188195 3.467247,2.0296081 1.43764,1.3107889 2.19874,3.1712629 0.76111,1.860474 0.76111,4.143783 0,2.748427 -1.09938,4.862602 -1.05708,2.114175 -3.50953,4.270634 l -4.355197,3.805515 z"
       id="text5288-1-9"
       aria-label="22" />
  </g>
  <g
     inkscape:groupmode="layer"
     id="layer4"
     inkscape:label="Capa 3">
    <g
       id="g2750"
       style="display:inline;stroke-width:0.421352"
       transform="matrix(2.3733122,0,0,2.3733122,-130.37558,-4.6525909)">
      <path
         d="m 58.993549,16.541816 h 4.714875 L 64.15266,5.0594289 H 62.785822 L 58.993549,16.541816"
         id="polyline5612"
         style="fill:#000000;stroke-width:0.111483" />
      <path
         d="m 65.315239,16.541816 h 4.67942 l -1.70762,-5.399087 3.450431,-3.8959897 1.128448,2.7334103 V 5.0594289 h -4.920721 l 2.768864,1.1284479 -3.34936,2.0849166 -1.024731,-3.2133645 h -1.366837 l 0.342106,11.4823871"
         id="polyline5614"
         style="fill:#000000;stroke-width:0.111483" />
    </g>
  </g>
</svg>
