<?xml version="1.0" encoding="UTF-8" standalone="no"?>
<svg
   version="1.2"
   width="365.65909"
   height="211.4147"
   id="svg2"
   sodipodi:docname="ES_CAT_OR31.svg"
   inkscape:version="1.3.2 (091e20e, 2023-11-25, custom)"
   xmlns:inkscape="http://www.inkscape.org/namespaces/inkscape"
   xmlns:sodipodi="http://sodipodi.sourceforge.net/DTD/sodipodi-0.dtd"
   xmlns="http://www.w3.org/2000/svg"
   xmlns:svg="http://www.w3.org/2000/svg"
   xmlns:rdf="http://www.w3.org/1999/02/22-rdf-syntax-ns#"
   xmlns:cc="http://creativecommons.org/ns#"
   xmlns:dc="http://purl.org/dc/elements/1.1/">
  <sodipodi:namedview
     pagecolor="#ffffff"
     bordercolor="#666666"
     borderopacity="1"
     objecttolerance="10"
     gridtolerance="10"
     guidetolerance="10"
     inkscape:pageopacity="0"
     inkscape:pageshadow="2"
     inkscape:window-width="1920"
     inkscape:window-height="1017"
     id="namedview6659"
     showgrid="false"
     inkscape:zoom="1.4182101"
     inkscape:cx="198.13707"
     inkscape:cy="102.5941"
     inkscape:window-x="-8"
     inkscape:window-y="-8"
     inkscape:window-maximized="1"
     inkscape:current-layer="layer11"
     fit-margin-top="0"
     fit-margin-left="0"
     fit-margin-right="0"
     fit-margin-bottom="0"
     inkscape:document-rotation="0"
     inkscape:showpageshadow="false"
     inkscape:pagecheckerboard="true"
     inkscape:deskcolor="#d1d1d1" />
  <metadata
     id="metadata4010">
    <rdf:RDF>
      <cc:Work
         rdf:about="">
        <dc:format>image/svg+xml</dc:format>
        <dc:type
           rdf:resource="http://purl.org/dc/dcmitype/StillImage" />
        <dc:title />
      </cc:Work>
    </rdf:RDF>
  </metadata>
  <defs
     id="defs4008" />
  <g
     inkscape:groupmode="layer"
     id="layer11"
     inkscape:label="Layer 1"
     style="display:inline"
     transform="translate(31.347867,-28.133926)">
    <path
       d="m 49.15885,207.10985 -20.663,-20.664 16.661,3.616 v -12.144 h 8.128 v 12.144 l 16.538,-3.616 -20.664,20.664"
       id="polyline3924"
       style="fill:#ffffff" />
    <path
       d="m 334.20249,226.52073 c 0.34023,3.78664 -0.062,7.63133 -2.00947,10.56364 -0.32361,0.201 -0.33662,0.51165 -1.994,1.10397 l -3.76478,1.34548 c 6.75792,0.22776 -148.39334,-2.249 -235.083993,-2.05982 -21.662089,0.0473 -77.14054,-0.13864 -93.8704175,0.0398 -4.918851,0.0525 -9.3089405,0.0456 -13.3754645,0.008 -2.857475,-0.0261 -5.713385,0.0277 -7.797074,-0.33358 -7.194334,-1.24731 -6.817395,-5.45661 -6.829436,-8.88412 L -31.042366,80.229897 c -0.0624,-17.761036 -3.658973,-15.637975 15.55245,-15.516082 l 334.337736,2.12132 c 10.13692,0.06432 13.30972,-0.514541 14.43956,1.430214 1.01172,1.741448 0.87916,5.355066 0.91195,13.745841 0.14946,38.24162 -0.15031,13.816319 -0.0413,52.07548 0.0539,18.9121 0.007,37.62237 -0.0157,56.43753 -0.0113,9.43886 0.32673,26.51339 0.0602,35.99653 z"
       id="path3217"
       style="fill:#000080;stroke-width:0.999997"
       sodipodi:nodetypes="ccscsssssssssssscc" />
    <path
       d="m 326.17693,225.09696 c 0,10.76106 1.16351,8.92612 -9.59873,8.89385 l -333.137249,-0.99886 c -10.762229,-0.0323 -8.18424,0.45555 -8.18424,-10.30645 V 81.435851 c 0,-10.764824 -0.45908,-8.928274 10.30314,-8.895729 L 315.8719,73.538984 c 10.76224,0.03254 10.30503,0.955173 10.30503,11.720937 z"
       id="path3243"
       style="fill:none;stroke:#ffffff;stroke-width:4;stroke-miterlimit:3.864"
       sodipodi:nodetypes="sssssssss" />
    <path
       d="m 6.7048618,200.48561 -0.1784,9.20626 12.5803502,-2.58202 -15.8990102,15.30017 -15.2968698,-15.89189 12.47647978,3.05729 0.0496,-15.45944 6.13906002,0.11644"
       id="polyline3245"
       style="fill:#ffffff;stroke-width:0.999997"
       sodipodi:nodetypes="cccccccc" />
    <text
       xml:space="preserve"
       style="font-size:38.6689px;line-height:22.6576px;font-family:'Andale Mono IPA';-inkscape-font-specification:'Andale Mono IPA';letter-spacing:0px;word-spacing:0px;fill:#ffffff;fill-opacity:1;stroke:none;stroke-width:0.999997px;stroke-linecap:butt;stroke-linejoin:miter;stroke-opacity:1"
       x="307.61365"
       y="178.6953"
       id="text4113"
       transform="scale(1.067666,0.9366225)"><tspan
         sodipodi:role="line"
         id="tspan4111"
         x="307.61365"
         y="178.6953"
         style="font-style:normal;font-variant:normal;font-weight:normal;font-stretch:normal;font-size:38.6689px;font-family:'Highway Gothic Wide';-inkscape-font-specification:'Highway Gothic Wide';fill:#ffffff;fill-opacity:1;stroke:none;stroke-width:0.999997px" /></text>
    <path
       id="rect5280"
       style="display:inline;fill:#000080;stroke:#ffffff;stroke-width:1.99999;stroke-linecap:round;stroke-linejoin:round;stroke-miterlimit:2.613"
       d="m 107.8455,29.133921 h 72.30058 v 28.31203 H 107.8455 Z" />
    <path
       style="font-size:28.1783px;line-height:16.5108px;font-family:'Highway Gothic Wide';-inkscape-font-specification:'Highway Gothic Wide';letter-spacing:0px;word-spacing:0px;fill:#ffffff;stroke-width:0.999997px"
       d="m 131.34243,48.346493 q -2.62058,4.170388 -7.29818,4.170388 -3.69136,0 -5.86108,-2.676939 -2.14156,-2.676938 -2.14156,-7.12911 0,-4.480349 2.14156,-7.100931 2.14155,-2.620582 5.86108,-2.620582 4.70578,0 7.29818,4.170388 l -3.07143,1.521628 q -1.46527,-2.254264 -4.22675,-2.338799 -2.14155,0.05636 -3.35322,1.916125 -1.21166,1.831589 -1.21166,4.395815 0,3.043256 1.23984,4.733954 1.26803,1.66252 3.3814,1.66252 2.81783,-0.02818 4.08585,-2.282442 z m 8.84797,-4.114032 h -6.25559 v -3.381396 h 6.25559 z m 17.24511,2.057016 q 0,2.620582 -2.14155,4.423993 -2.14156,1.803411 -5.3257,1.803411 -4.59307,-0.05636 -7.60814,-3.296861 l 2.53604,-2.536047 q 2.16973,2.282442 5.26934,2.395155 1.74706,0 2.81783,-0.732635 1.09896,-0.732636 1.09896,-1.916125 -0.0564,-1.380737 -1.01442,-2.085194 -0.95806,-0.704458 -2.08519,-0.760814 h -1.15531 v -3.381396 h 1.04259 q 0.84535,0 1.54981,-0.535388 0.73263,-0.535388 0.73263,-1.32438 0,-0.873528 -0.92988,-1.437094 -0.92988,-0.563566 -2.39515,-0.563566 -2.42334,0 -4.28311,1.577985 l -2.28244,-2.282442 q 2.70512,-2.64876 6.76279,-2.64876 2.84601,0 4.70578,1.49345 1.85977,1.493449 1.85977,3.80407 0,2.395156 -1.57799,3.522288 2.45151,1.577985 2.42334,4.48035 z m 17.94958,5.889264 h -15.21628 q 0.56357,-7.410893 7.72085,-10.425971 1.85977,-0.760814 3.04326,-1.465272 1.18349,-0.732635 1.09895,-1.690698 0,-0.929883 -0.92988,-1.549806 -0.92988,-0.648101 -2.90237,-0.676279 -2.95872,0.08454 -5.24116,2.366977 l -2.73329,-2.197908 q 3.40957,-3.494109 7.88992,-3.550465 3.32504,0 5.29752,1.662519 1.97248,1.634342 1.97248,3.944962 -0.0282,2.00066 -1.07077,3.184148 -1.0426,1.155311 -3.97314,2.423334 -4.64942,2.226086 -5.55113,4.593063 h 10.59504 z"
       id="text5284"
       transform="scale(0.99551619,1.004504)"
       aria-label="C-32" />
    <path
       style="font-size:27.463px;line-height:16.0916px;font-family:'Highway Gothic Wide';-inkscape-font-specification:'Highway Gothic Wide';letter-spacing:0px;word-spacing:0px;fill:#ffffff;stroke-width:1px"
       d="m 42.857351,92.580506 h -5.300359 v 15.159574 h -3.21317 V 92.580506 h -5.300359 v -3.240634 h 13.813888 z m 13.676555,15.159574 h -3.103319 v -0.57672 q -1.455539,0.82389 -3.29556,0.82389 -2.361818,0 -3.597653,-1.31823 -1.235835,-1.34568 -1.235835,-3.37794 0,-2.08719 1.455539,-3.24064 1.483002,-1.153444 3.707505,-1.153444 1.510465,0 2.938541,0.411945 -0.05493,-2.087188 -2.279429,-2.224503 -1.64778,-0.02746 -3.240634,0.961205 l -1.537928,-2.444207 q 2.47167,-1.620317 4.833488,-1.620317 2.279429,0 3.817357,1.565391 1.537928,1.565391 1.537928,4.064524 z m -3.103319,-3.2681 v -2.25196 q -1.592854,-0.43941 -2.801226,-0.43941 -1.125983,0 -1.757632,0.49433 -0.631649,0.49434 -0.631649,1.18091 0,0.71404 0.604186,1.23584 0.604186,0.5218 1.702706,0.5218 1.235835,0 2.883615,-0.74151 z m 14.582876,-9.557119 -1.016131,3.130782 q -0.768964,-0.878816 -1.977336,-0.851353 -2.306892,-0.02746 -2.334355,2.663911 v 7.881879 h -3.29556 V 94.310675 h 3.29556 v 0.796427 q 0.988668,-1.125983 2.499133,-1.125983 1.620317,0 2.828689,0.933742 z m 10.573261,0 -1.016131,3.130782 q -0.768964,-0.878816 -1.977336,-0.851353 -2.306892,-0.02746 -2.334355,2.663911 v 7.881879 h -3.29556 V 94.310675 h 3.29556 v 0.796427 q 0.988668,-1.125983 2.499133,-1.125983 1.620317,0 2.828689,0.933742 z m 12.687912,12.825219 h -3.103319 v -0.57672 q -1.455539,0.82389 -3.29556,0.82389 -2.361818,0 -3.597653,-1.31823 -1.235834,-1.34568 -1.235834,-3.37794 0,-2.08719 1.455538,-3.24064 1.483002,-1.153444 3.707505,-1.153444 1.510465,0 2.938541,0.411945 -0.05493,-2.087188 -2.279429,-2.224503 -1.64778,-0.02746 -3.240634,0.961205 l -1.537928,-2.444207 q 2.47167,-1.620317 4.833488,-1.620317 2.279429,0 3.817357,1.565391 1.537928,1.565391 1.537928,4.064524 z m -3.103319,-3.2681 v -2.25196 q -1.592854,-0.43941 -2.801226,-0.43941 -1.125983,0 -1.757632,0.49433 -0.631649,0.49434 -0.631649,1.18091 0,0.71404 0.604186,1.23584 0.604186,0.5218 1.702706,0.5218 1.235835,0 2.883615,-0.74151 z m 5.712323,-3.37794 q 0,-2.718841 1.428076,-4.860955 1.455539,-2.169577 4.009598,-2.169577 1.483006,0 2.554056,0.82389 v -0.576723 h 3.29556 v 13.429405 q -0.0275,2.66391 -1.81255,4.39408 -1.75764,1.75763 -4.009603,2.25197 l -0.741501,-3.13078 q 2.938544,-0.76897 3.268094,-3.51527 v -0.60418 q -1.01613,0.93374 -2.444204,0.9612 -2.773763,-0.0275 -4.174376,-2.11465 -1.37315,-2.11465 -1.37315,-4.88841 z m 2.993467,-0.0549 q 0,1.62032 0.768964,2.71884 0.796427,1.07105 2.059725,1.07105 1.510464,-0.0549 2.169574,-1.18091 v -5.108113 q -0.76896,-1.180909 -2.2245,-1.263298 -1.318224,0 -2.059725,1.043594 -0.714038,1.043594 -0.714038,2.718837 z m 22.409793,0 q 0,2.91108 -1.73017,4.9708 -1.7027,2.05973 -4.14691,2.05973 -2.47167,0 -4.17437,-2.05973 -1.70271,-2.05972 -1.70271,-4.9708 0,-2.938541 1.70271,-4.998266 1.7027,-2.059725 4.17437,-2.059725 2.44421,0 4.14691,2.059725 1.73017,2.059725 1.73017,4.998266 z m -3.18571,0 q 0,-1.64778 -0.7415,-2.691374 -0.7415,-1.071057 -1.92241,-1.071057 -1.23583,0 -1.97733,1.071057 -0.7415,1.071057 -0.7415,2.691374 0,1.62032 0.7415,2.71884 0.7415,1.07105 1.97733,1.07105 1.18091,0 1.92241,-1.07105 0.7415,-1.09852 0.7415,-2.71884 z m 5.24546,-6.646046 h 3.10332 v 1.043594 q 1.23583,-1.235835 3.2681,-1.235835 2.16957,0 3.51526,1.510465 1.37315,1.483002 1.40061,3.872283 v 8.156509 h -3.29556 v -7.991731 q 0,-1.071057 -0.65911,-1.757632 -0.63165,-0.686575 -1.73017,-0.686575 -0.98867,0 -1.75763,0.741501 -0.7415,0.714038 -0.7415,1.64778 v 8.046657 h -3.10332 z m 24.85404,13.347016 h -3.10332 v -0.57672 q -1.45554,0.82389 -3.29556,0.82389 -2.36182,0 -3.59765,-1.31823 -1.23584,-1.34568 -1.23584,-3.37794 0,-2.08719 1.45554,-3.24064 1.483,-1.153444 3.70751,-1.153444 1.51046,0 2.93854,0.411945 -0.0549,-2.087188 -2.27943,-2.224503 -1.64778,-0.02746 -3.24064,0.961205 l -1.53792,-2.444207 q 2.47167,-1.620317 4.83348,-1.620317 2.27943,0 3.81736,1.565391 1.53793,1.565391 1.53793,4.064524 z m -3.10332,-3.2681 v -2.25196 q -1.59285,-0.43941 -2.80123,-0.43941 -1.12598,0 -1.75763,0.49433 -0.63165,0.49434 -0.63165,1.18091 0,0.71404 0.60419,1.23584 0.60418,0.5218 1.7027,0.5218 1.23584,0 2.88362,-0.74151 z m 18.09812,-4.476464 h -6.09679 v -3.29556 h 6.09679 z m 25.59548,-10.655644 -6.83829,18.400208 h -3.54273 l -6.78336,-18.400208 h 3.54273 l 5.02573,13.429408 5.05319,-13.429408 z m 13.09983,18.400208 h -3.10332 v -0.57672 q -1.45554,0.82389 -3.29556,0.82389 -2.36182,0 -3.59765,-1.31823 -1.23584,-1.34568 -1.23584,-3.37794 0,-2.08719 1.45554,-3.24064 1.483,-1.153444 3.7075,-1.153444 1.51047,0 2.93855,0.411945 -0.0549,-2.087188 -2.27943,-2.224503 -1.64778,-0.02746 -3.24064,0.961205 l -1.53793,-2.444207 q 2.47167,-1.620317 4.83349,-1.620317 2.27943,0 3.81736,1.565391 1.53793,1.565391 1.53793,4.064524 z m -3.10332,-3.2681 v -2.25196 q -1.59286,-0.43941 -2.80123,-0.43941 -1.12598,0 -1.75763,0.49433 -0.63165,0.49434 -0.63165,1.18091 0,0.71404 0.60419,1.23584 0.60418,0.5218 1.7027,0.5218 1.23584,0 2.88362,-0.74151 z m 9.28252,3.2681 h -3.29556 V 90.685559 l 3.29556,-1.64778 z m 14.25331,-5.68484 h -8.21143 q 0.10985,1.42808 0.93374,2.19704 0.85135,0.76896 1.73017,0.76896 1.12598,0 2.2245,-1.04359 l 2.03226,2.03226 q -1.73017,2.05973 -4.25676,2.05973 -2.47167,0 -4.20184,-2.0048 -1.70271,-2.03226 -1.70271,-4.9708 0,-2.911082 1.67524,-4.943344 1.67525,-2.032262 4.09199,-2.032262 2.85615,0.02746 4.25677,2.19704 1.40061,2.169577 1.42807,4.778566 z m -3.24063,-2.581521 q -0.0549,-1.071057 -0.76897,-1.757632 -0.68657,-0.686575 -1.59285,-0.659112 -1.01613,-0.02746 -1.75763,0.714038 -0.71404,0.714038 -0.7415,1.702706 z m -1.86749,-6.096786 -3.35048,-3.762431 h 3.57019 l 1.89495,3.762431 z m 7.33265,1.016131 h 3.10332 v 1.043594 q 1.23583,-1.235835 3.26809,-1.235835 2.16958,0 3.51527,1.510465 1.37315,1.483002 1.40061,3.872283 v 8.156509 h -3.29556 v -7.991731 q 0,-1.071057 -0.65911,-1.757632 -0.63165,-0.686575 -1.73017,-0.686575 -0.98867,0 -1.75763,0.741501 -0.7415,0.714038 -0.7415,1.64778 v 8.046657 h -3.10332 z m 24.63433,11.149976 q -2.03226,2.5266 -4.9708,2.5266 -2.77376,0 -4.58632,-1.97734 -1.81256,-2.0048 -1.81256,-5.05319 0,-3.048393 1.81256,-5.053192 1.81256,-2.004799 4.58632,-2.004799 2.93854,0 4.9708,2.526596 l -1.94987,1.949873 q -1.29076,-1.208372 -2.96601,-1.290761 -1.45553,0 -2.38928,1.09852 -0.90628,1.071057 -0.90628,2.773763 0,1.67524 0.90628,2.77376 0.93375,1.09852 2.38928,1.09852 1.67525,-0.13731 2.77377,-1.51046 z m 5.84965,-14.912407 q 0,0.714038 -0.49434,1.208372 -0.49433,0.494334 -1.15344,0.494334 -0.71404,0 -1.18091,-0.466871 -0.46687,-0.466871 -0.46687,-1.235835 0,-0.659112 0.46687,-1.125983 0.49433,-0.466871 1.18091,-0.466871 0.65911,0 1.15344,0.466871 0.49434,0.466871 0.49434,1.125983 z m 0,3.680042 v 13.429405 h -3.29556 V 94.310675 Z m 14.116,13.429405 h -3.10332 v -0.57672 q -1.45554,0.82389 -3.29556,0.82389 -2.36182,0 -3.59766,-1.31823 -1.23583,-1.34568 -1.23583,-3.37794 0,-2.08719 1.45554,-3.24064 1.483,-1.153444 3.7075,-1.153444 1.51047,0 2.93854,0.411945 -0.0549,-2.087188 -2.27942,-2.224503 -1.64778,-0.02746 -3.24064,0.961205 l -1.53793,-2.444207 q 2.47167,-1.620317 4.83349,-1.620317 2.27943,0 3.81736,1.565391 1.53793,1.565391 1.53793,4.064524 z m -3.10332,-3.2681 v -2.25196 q -1.59286,-0.43941 -2.80123,-0.43941 -1.12598,0 -1.75763,0.49433 -0.63165,0.49434 -0.63165,1.18091 0,0.71404 0.60419,1.23584 0.60418,0.5218 1.7027,0.5218 1.23584,0 2.88362,-0.74151 z"
       id="text5780"
       transform="scale(1.0062124,0.99382593)"
       aria-label="Tarragona - València" />
    <path
       d="m 297.31556,200.67343 -0.1784,9.20626 12.58035,-2.58202 -15.89901,15.30017 -15.29687,-15.89189 12.47648,3.05729 0.0496,-15.45944 6.13906,0.11644"
       id="polyline3245-2"
       style="display:inline;fill:#ffffff;stroke-width:0.999997"
       sodipodi:nodetypes="cccccccc" />
    <path
       style="font-size:27.463px;line-height:16.0916px;font-family:'Highway Gothic Wide';-inkscape-font-specification:'Highway Gothic Wide';letter-spacing:0px;word-spacing:0px;fill:#ffffff;stroke-width:1px"
       d="m 55.778177,123.73382 -6.838287,18.40021 h -3.542727 l -6.783361,-18.40021 h 3.542727 l 5.025729,13.42941 5.053192,-13.42941 z m 5.712283,1.29076 q 0,0.71404 -0.494334,1.20838 -0.494334,0.49433 -1.153446,0.49433 -0.714038,0 -1.180909,-0.46687 -0.466871,-0.46687 -0.466871,-1.23584 0,-0.65911 0.466871,-1.12598 0.494334,-0.46687 1.180909,-0.46687 0.659112,0 1.153446,0.46687 0.494334,0.46687 0.494334,1.12598 z m 0,3.68005 v 13.4294 H 58.1949 v -13.4294 z m 6.700996,13.4294 h -3.29556 v -17.05452 l 3.29556,-1.64778 z m 14.143466,0 h -3.103319 v -0.57672 q -1.455539,0.82389 -3.29556,0.82389 -2.361818,0 -3.597653,-1.31822 -1.235835,-1.34569 -1.235835,-3.37795 0,-2.08719 1.455539,-3.24064 1.483002,-1.15344 3.707505,-1.15344 1.510465,0 2.938541,0.41194 -0.05493,-2.08719 -2.279429,-2.2245 -1.64778,-0.0275 -3.240634,0.9612 l -1.537928,-2.4442 q 2.47167,-1.62032 4.833488,-1.62032 2.279429,0 3.817357,1.56539 1.537928,1.56539 1.537928,4.06453 z m -3.103319,-3.26809 v -2.25197 q -1.592854,-0.43941 -2.801226,-0.43941 -1.125983,0 -1.757632,0.49434 -0.631649,0.49433 -0.631649,1.18091 0,0.71403 0.604186,1.23583 0.604186,0.5218 1.702706,0.5218 1.235835,0 2.883615,-0.7415 z M 84.6693,128.78702 h 3.103319 v 1.04359 q 1.235835,-1.23584 3.268097,-1.23584 2.169577,0 3.515264,1.51047 1.37315,1.483 1.400613,3.87228 v 8.15651 h -3.29556 v -7.99173 q 0,-1.07106 -0.659112,-1.75763 -0.631649,-0.68658 -1.730169,-0.68658 -0.988668,0 -1.757632,0.7415 -0.741501,0.71404 -0.741501,1.64778 v 8.04666 H 84.6693 Z m 25.12867,6.64604 q 0,2.91108 -1.73017,4.9708 -1.70271,2.05973 -4.14691,2.05973 -2.47167,0 -4.17438,-2.05973 -1.702706,-2.05972 -1.702706,-4.9708 0,-2.93854 1.702706,-4.99826 1.70271,-2.05973 4.17438,-2.05973 2.4442,0 4.14691,2.05973 1.73017,2.05972 1.73017,4.99826 z m -3.18571,0 q 0,-1.64778 -0.7415,-2.69137 -0.7415,-1.07106 -1.92241,-1.07106 -1.23584,0 -1.97734,1.07106 -0.7415,1.07105 -0.7415,2.69137 0,1.62032 0.7415,2.71884 0.7415,1.07106 1.97734,1.07106 1.18091,0 1.92241,-1.07106 0.7415,-1.09852 0.7415,-2.71884 z m 17.54888,-6.72843 -4.77856,13.4294 h -3.4878 l -4.77856,-13.4294 h 3.29556 l 3.21317,9.11771 3.24063,-9.11771 z m 12.8252,13.4294 h -3.10332 v -0.57672 q -1.45554,0.82389 -3.29556,0.82389 -2.36182,0 -3.59765,-1.31822 -1.23584,-1.34569 -1.23584,-3.37795 0,-2.08719 1.45554,-3.24064 1.483,-1.15344 3.70751,-1.15344 1.51046,0 2.93854,0.41194 -0.0549,-2.08719 -2.27943,-2.2245 -1.64778,-0.0275 -3.24064,0.9612 l -1.53792,-2.4442 q 2.47167,-1.62032 4.83348,-1.62032 2.27943,0 3.81736,1.56539 1.53793,1.56539 1.53793,4.06453 z m -3.10332,-3.26809 v -2.25197 q -1.59285,-0.43941 -2.80123,-0.43941 -1.12598,0 -1.75763,0.49434 -0.63165,0.49433 -0.63165,1.18091 0,0.71403 0.60419,1.23583 0.60418,0.5218 1.7027,0.5218 1.23584,0 2.88362,-0.7415 z m 16.31302,-13.84136 q 0,0.71404 -0.49433,1.20838 -0.49433,0.49433 -1.15345,0.49433 -0.71403,0 -1.18091,-0.46687 -0.46687,-0.46687 -0.46687,-1.23584 0,-0.65911 0.46687,-1.12598 0.49434,-0.46687 1.18091,-0.46687 0.65912,0 1.15345,0.46687 0.49433,0.46687 0.49433,1.12598 z m 0,3.68005 v 13.4294 h -3.29556 v -13.4294 z m 13.70404,13.4294 h -3.29556 v -17.05452 l 3.29556,-1.64778 z m 14.14346,0 h -3.10332 v -0.57672 q -1.45553,0.82389 -3.29556,0.82389 -2.36181,0 -3.59765,-1.31822 -1.23583,-1.34569 -1.23583,-3.37795 0,-2.08719 1.45554,-3.24064 1.483,-1.15344 3.7075,-1.15344 1.51047,0 2.93854,0.41194 -0.0549,-2.08719 -2.27943,-2.2245 -1.64778,-0.0275 -3.24063,0.9612 l -1.53793,-2.4442 q 2.47167,-1.62032 4.83349,-1.62032 2.27943,0 3.81736,1.56539 1.53792,1.56539 1.53792,4.06453 z m -3.10332,-3.26809 v -2.25197 q -1.59285,-0.43941 -2.80122,-0.43941 -1.12598,0 -1.75763,0.49434 -0.63165,0.49433 -0.63165,1.18091 0,0.71403 0.60418,1.23583 0.60419,0.5218 1.70271,0.5218 1.23583,0 2.88361,-0.7415 z m 21.03666,-5.90455 h 6.97561 v 2.38928 q 0,2.99347 -2.14212,5.05319 -2.11465,2.05973 -5.16304,2.05973 -3.7899,0 -5.84962,-2.99347 -1.75763,-2.58152 -1.75763,-6.56365 0,-4.22931 2.08719,-6.83829 2.08718,-2.63645 5.52006,-2.63645 4.7511,0 6.89321,3.81736 l -3.07585,1.53793 q -1.45554,-2.08719 -3.81736,-2.08719 -1.92241,0 -3.13078,1.75763 -1.18091,1.73017 -1.18091,4.44901 0,2.63644 0.87881,4.2293 1.09852,2.03226 3.43288,2.03226 1.34569,0 2.44421,-0.82389 1.09852,-0.82389 1.42807,-2.08719 h -3.54273 z m 21.31127,3.4878 h -8.21143 q 0.10985,1.42808 0.93374,2.19704 0.85135,0.76897 1.73017,0.76897 1.12598,0 2.2245,-1.0436 l 2.03226,2.03226 q -1.73017,2.05973 -4.25676,2.05973 -2.47167,0 -4.20184,-2.0048 -1.70271,-2.03226 -1.70271,-4.9708 0,-2.91108 1.67525,-4.94334 1.67524,-2.03226 4.09198,-2.03226 2.85615,0.0275 4.25677,2.19704 1.40061,2.16957 1.42807,4.77856 z m -3.24063,-2.58152 q -0.0549,-1.07106 -0.76896,-1.75763 -0.68658,-0.68658 -1.59286,-0.65911 -1.01613,-0.0275 -1.75763,0.71403 -0.71404,0.71404 -0.7415,1.70271 z m 9.30998,8.26636 h -3.29556 v -17.05452 l 3.29556,-1.64778 z m 11.17746,-3.4878 -0.9612,3.46034 q -0.82389,0.32956 -1.81256,0.35702 -1.56539,0 -2.47167,-1.18091 -0.87882,-1.20837 -0.87882,-2.966 v -6.45381 h -2.19704 v -3.07585 h 2.19704 v -3.68005 l 3.35049,-1.67524 v 5.35529 h 2.77376 v 3.07585 h -2.77376 v 6.28903 q 0.0824,1.2633 1.18091,1.23583 0.76896,0.0549 1.59285,-0.7415 z m 11.42461,-9.33742 -1.01613,3.13078 q -0.76896,-0.87881 -1.97734,-0.85135 -2.30689,-0.0275 -2.33435,2.66391 v 7.88188 h -3.29556 v -13.4294 h 3.29556 v 0.79642 q 0.98867,-1.12598 2.49913,-1.12598 1.62032,0 2.82869,0.93374 z m 4.33916,-1.53793 1.89494,-3.76243 h 3.57019 l -3.35048,3.76243 z m 8.37621,14.36315 h -3.10332 v -1.04359 q -1.23583,1.23583 -3.26809,1.23583 -2.16958,0 -3.54273,-1.483 -1.34569,-1.51046 -1.37315,-3.89974 v -8.15651 h 3.29556 v 7.99173 q 0,1.07106 0.63165,1.75763 0.65911,0.68658 1.75763,0.68658 0.98867,0 1.73017,-0.71404 0.76896,-0.7415 0.76896,-1.67525 v -8.04665 h 3.10332 z"
       id="text5780-0"
       transform="scale(1.0062124,0.99382595)"
       aria-label="Vilanova i la Geltrú" />
    <text
       xml:space="preserve"
       style="font-size:42.6667px;line-height:25px;font-family:Haettenschweiler;-inkscape-font-specification:Haettenschweiler;letter-spacing:0px;word-spacing:0px;fill:none;stroke:#000000;stroke-width:1px;stroke-linecap:butt;stroke-linejoin:miter;stroke-opacity:1"
       x="48.563221"
       y="168.85315"
       id="text8443"><tspan
         sodipodi:role="line"
         id="tspan8441"
         x="48.563221"
         y="168.85315" /></text>
    <path
       style="font-size:27.463px;line-height:16.0916px;font-family:'Highway Gothic Wide';-inkscape-font-specification:'Highway Gothic Wide';letter-spacing:0px;word-spacing:0px;fill:#ffffff;stroke-width:1px"
       d="m 54.41215,168.95006 q -2.554059,4.06452 -7.112917,4.06452 -3.597653,0 -5.712304,-2.60898 -2.087188,-2.60899 -2.087188,-6.94814 0,-4.36662 2.087188,-6.92068 2.087188,-2.55405 5.712304,-2.55405 4.586321,0 7.112917,4.06452 l -2.993467,1.483 q -1.428076,-2.19704 -4.11945,-2.27943 -2.087188,0.0549 -3.268097,1.86749 -1.180909,1.78509 -1.180909,4.28422 0,2.96601 1.208372,4.61379 1.235835,1.62032 3.29556,1.62032 2.7463,-0.0275 3.982135,-2.22451 z m 14.225813,3.73497 h -3.103319 v -0.57672 q -1.455539,0.82389 -3.29556,0.82389 -2.361818,0 -3.597652,-1.31823 -1.235835,-1.34569 -1.235835,-3.37795 0,-2.08719 1.455539,-3.24063 1.483001,-1.15345 3.707504,-1.15345 1.510465,0 2.938541,0.41195 -0.05493,-2.08719 -2.279429,-2.22451 -1.64778,-0.0275 -3.240634,0.96121 l -1.537927,-2.44421 q 2.471669,-1.62031 4.833487,-1.62031 2.279429,0 3.817357,1.56539 1.537928,1.56539 1.537928,4.06452 z m -3.103319,-3.2681 v -2.25196 q -1.592854,-0.43941 -2.801226,-0.43941 -1.125983,0 -1.757632,0.49433 -0.631649,0.49434 -0.631649,1.18091 0,0.71404 0.604186,1.23584 0.604186,0.52179 1.702706,0.52179 1.235835,0 2.883615,-0.7415 z m 16.532751,-0.54926 q -0.02746,1.81256 -1.537928,2.96601 -1.510465,1.12598 -3.954672,1.15344 -3.268097,-0.0549 -5.986934,-1.59285 l 1.483002,-2.85615 q 2.334355,1.34568 4.421543,1.37315 1.345687,0 1.840021,-0.32956 0.521797,-0.32956 0.521797,-0.90628 0,-0.60419 -0.494334,-0.90628 -0.494334,-0.30209 -2.004799,-0.57672 -3.02093,-0.5218 -4.091987,-1.59286 -1.043594,-1.09852 -1.016131,-2.33435 -0.02746,-1.75763 1.37315,-2.99347 1.400613,-1.2633 3.789894,-1.2633 2.691374,0 5.163044,1.45554 l -1.345687,2.66391 q -1.702706,-0.9612 -3.734968,-1.07105 -1.208372,0.0275 -1.620317,0.30209 -0.411945,0.24717 -0.411945,0.68658 -0.02746,0.4394 0.384482,0.65911 0.439408,0.2197 1.64778,0.38448 2.856152,0.35702 4.201839,1.56539 1.345687,1.18091 1.37315,3.21317 z m 10.243707,0.32956 -0.961205,3.46034 q -0.82389,0.32955 -1.812558,0.35701 -1.565391,0 -2.47167,-1.1809 -0.878816,-1.20838 -0.878816,-2.96601 v -6.4538 h -2.197039 v -3.07586 h 2.197039 v -3.68004 l 3.350486,-1.67524 v 5.35528 h 2.773763 v 3.07586 h -2.773763 v 6.28902 q 0.08239,1.2633 1.180909,1.23584 0.768964,0.0549 1.592854,-0.7415 z m 13.649118,-2.19704 h -8.211437 q 0.109852,1.42807 0.933742,2.19704 0.851353,0.76896 1.730165,0.76896 1.12599,0 2.22451,-1.04359 l 2.03226,2.03226 q -1.73017,2.05972 -4.25677,2.05972 -2.471666,0 -4.201835,-2.00479 -1.702706,-2.03227 -1.702706,-4.97081 0,-2.91108 1.675243,-4.94334 1.675243,-2.03226 4.091988,-2.03226 2.85615,0.0275 4.25676,2.19704 1.40062,2.16958 1.42808,4.77856 z m -3.24063,-2.58152 q -0.0549,-1.07106 -0.76897,-1.75764 -0.68657,-0.68657 -1.59285,-0.65911 -1.016133,-0.0275 -1.757634,0.71404 -0.714038,0.71404 -0.741501,1.70271 z m 9.30998,8.26636 h -3.29556 v -17.05452 l 3.29556,-1.64778 z m 6.72845,0 h -3.29556 v -17.05452 l 3.29556,-1.64778 z m 3.15827,-6.64605 q 0,-2.71883 1.42808,-4.86095 1.45554,-2.16958 4.0096,-2.16958 1.56539,0.0275 2.55406,0.82389 v -4.20183 l 3.29556,-1.64778 v 18.7023 h -3.29556 v -0.60419 q -1.01614,0.93374 -2.44421,0.96121 -2.77376,-0.0275 -4.17438,-2.11465 -1.37315,-2.11465 -1.37315,-4.88842 z m 2.99347,-0.0549 q 0,1.62031 0.76896,2.71883 0.79643,1.07106 2.05973,1.07106 1.51046,-0.0549 2.16958,-1.18091 v -5.10812 q -0.76897,-1.18091 -2.22451,-1.26329 -1.31822,0 -2.05972,1.04359 -0.71404,1.04359 -0.71404,2.71884 z m 22.24501,1.01613 h -8.21144 q 0.10985,1.42807 0.93374,2.19704 0.85136,0.76896 1.73017,0.76896 1.12599,0 2.22451,-1.04359 l 2.03226,2.03226 q -1.73017,2.05972 -4.25677,2.05972 -2.47167,0 -4.20184,-2.00479 -1.7027,-2.03227 -1.7027,-4.97081 0,-2.91108 1.67524,-4.94334 1.67524,-2.03226 4.09199,-2.03226 2.85615,0.0275 4.25676,2.19704 1.40062,2.16958 1.42808,4.77856 z m -3.24063,-2.58152 q -0.0549,-1.07106 -0.76897,-1.75764 -0.68657,-0.68657 -1.59285,-0.65911 -1.01613,-0.0275 -1.75763,0.71404 -0.71404,0.71404 -0.74151,1.70271 z m 11.97389,-1.92241 h -2.0048 v 10.18877 h -3.24064 v -10.18877 h -1.73017 v -3.15825 h 1.73017 v -1.70271 q 0,-1.45553 0.82389,-2.38928 0.82389,-0.9612 2.47167,-0.9612 0.90628,0 1.94988,0.43941 v 2.69137 q -0.5218,-0.16478 -1.09852,-0.19224 -0.93375,0 -0.90628,1.01613 v 1.09852 h 2.0048 z m 13.18222,4.50393 h -8.21144 q 0.10986,1.42807 0.93375,2.19704 0.85135,0.76896 1.73016,0.76896 1.12599,0 2.22451,-1.04359 l 2.03226,2.03226 q -1.73017,2.05972 -4.25677,2.05972 -2.47167,0 -4.20183,-2.00479 -1.70271,-2.03227 -1.70271,-4.97081 0,-2.91108 1.67524,-4.94334 1.67525,-2.03226 4.09199,-2.03226 2.85615,0.0275 4.25676,2.19704 1.40062,2.16958 1.42808,4.77856 z m -3.24063,-2.58152 q -0.0549,-1.07106 -0.76897,-1.75764 -0.68657,-0.68657 -1.59285,-0.65911 -1.01613,-0.0275 -1.75763,0.71404 -0.71404,0.71404 -0.7415,1.70271 z m 9.30998,8.26636 h -3.29556 v -17.05452 l 3.29556,-1.64778 z m 13.97868,-3.81736 q -0.0275,1.81256 -1.53792,2.96601 -1.51047,1.12598 -3.95468,1.15344 -3.26809,-0.0549 -5.98693,-1.59285 l 1.483,-2.85615 q 2.33436,1.34568 4.42154,1.37315 1.34569,0 1.84003,-0.32956 0.52179,-0.32956 0.52179,-0.90628 0,-0.60419 -0.49433,-0.90628 -0.49434,-0.30209 -2.0048,-0.57672 -3.02093,-0.5218 -4.09199,-1.59286 -1.04359,-1.09852 -1.01613,-2.33435 -0.0275,-1.75763 1.37315,-2.99347 1.40061,-1.2633 3.7899,-1.2633 2.69137,0 5.16304,1.45554 l -1.34569,2.66391 q -1.7027,-0.9612 -3.73497,-1.07105 -1.20837,0.0275 -1.62031,0.30209 -0.41195,0.24717 -0.41195,0.68658 -0.0275,0.4394 0.38448,0.65911 0.43941,0.2197 1.64778,0.38448 2.85616,0.35702 4.20184,1.56539 1.34569,1.18091 1.37315,3.21317 z"
       id="text5780-0-0"
       transform="scale(1.0062124,0.99382595)"
       aria-label="Castelldefels" />
    <path
       style="font-size:27.463px;line-height:16.0916px;font-family:'Caracteres L4';-inkscape-font-specification:'Caracteres L4';letter-spacing:0px;word-spacing:0px;fill:#ffffff;stroke-width:1px"
       d="m 215.15227,168.40702 h 2.93672 q -0.28161,1.13982 0.33524,1.75667 0.72412,0.53638 1.90417,0.18773 1.18005,-0.34865 1.08618,-1.54211 0.0134,-0.77776 -1.09959,-1.3946 -1.43483,-0.63026 -2.6417,-1.6628 -1.2471,-1.00573 -0.89845,-3.17809 0.25478,-1.36779 1.42142,-2.31988 0.85822,-0.72412 2.15896,-0.88504 0.63025,-0.0402 1.12641,-0.0402 0.8314,0 1.26051,0.12068 1.08618,0.22797 1.78349,0.97891 0.76435,0.88504 0.76435,2.34669 0,0.30842 -0.0402,0.65707 h -3.11105 q 0.37548,-1.31414 -0.38888,-1.77007 -1.3946,-0.37547 -1.97122,0.4157 -0.79117,1.13982 0.25479,1.8103 3.09763,1.58234 3.64743,2.3601 0.67048,0.79117 0.65707,2.09191 -0.0536,1.04596 -0.40229,1.82372 -0.49616,0.89845 -1.31415,1.63598 -1.01913,0.80458 -2.0785,0.96549 -0.54979,0.067 -1.04595,0.067 -0.89845,0 -1.70303,-0.1341 -1.05936,-0.34865 -1.89076,-1.2605 -0.73753,-0.76436 -0.77776,-2.29306 z m 20.14132,4.27768 h -3.08422 l 0.25478,-2.23941 q -1.46165,1.99804 -2.93672,2.29305 -0.37547,0.0402 -0.6973,0.0402 -0.93868,0 -1.39461,-0.32183 -0.92526,-0.5498 -1.18005,-1.62257 -0.20114,-0.77776 -0.20114,-1.70303 0,-0.68389 0.12069,-1.44824 l 1.47506,-8.27377 h 3.29878 l -1.54212,8.12626 q -0.25478,1.36779 0.32184,2.02486 0.99231,0.77776 2.13213,-0.24137 0.87163,-0.8314 1.36779,-2.93672 l 1.28733,-6.97303 h 3.11104 l -2.14555,11.66641 z m 12.39053,0.10728 h -3.04399 l 0.2816,-1.72984 q -0.73753,1.44824 -1.87735,1.8103 -0.59003,0.16092 -1.44825,0.21455 -1.28732,-0.17432 -1.72984,-0.85821 -1.22028,-1.22028 -1.42143,-3.54016 -0.0402,-0.53638 -0.0402,-1.05936 0,-1.6628 0.56321,-3.43287 0.67048,-1.931 1.70303,-3.00377 1.51529,-1.74326 2.84285,-1.77008 2.42715,-0.22796 3.15127,2.01145 l 1.26051,-6.97302 h 3.17809 z m -3.09763,-10.99593 q -1.62257,0.0939 -3.08422,4.80067 -0.0805,3.79493 1.40801,3.96926 2.53443,-0.40229 2.93672,-4.59952 0.65707,-4.00949 -1.26051,-4.17041 z"
       id="text5780-0-0-3"
       transform="scale(1.0062124,0.99382595)"
       aria-label="sud" />
    <path
       d="m 153.93614,200.67375 -0.1784,9.20626 12.58035,-2.58202 -15.89901,15.30017 -15.29687,-15.89189 12.47648,3.05729 0.0496,-15.45944 6.13906,0.11644"
       id="polyline3245-2-1"
       style="display:inline;fill:#ffffff;stroke-width:0.999997"
       sodipodi:nodetypes="cccccccc" />
  </g>
</svg>
