<?xml version="1.0" encoding="UTF-8" standalone="no"?>
<svg
   version="1.2"
   width="426.55441"
   height="225.42148"
   id="svg2"
   sodipodi:docname="ES_CAT_OR25.svg"
   inkscape:version="1.3.2 (091e20e, 2023-11-25, custom)"
   xmlns:inkscape="http://www.inkscape.org/namespaces/inkscape"
   xmlns:sodipodi="http://sodipodi.sourceforge.net/DTD/sodipodi-0.dtd"
   xmlns="http://www.w3.org/2000/svg"
   xmlns:svg="http://www.w3.org/2000/svg"
   xmlns:rdf="http://www.w3.org/1999/02/22-rdf-syntax-ns#"
   xmlns:cc="http://creativecommons.org/ns#"
   xmlns:dc="http://purl.org/dc/elements/1.1/">
  <sodipodi:namedview
     pagecolor="#ffffff"
     bordercolor="#666666"
     borderopacity="1"
     objecttolerance="10"
     gridtolerance="10"
     guidetolerance="10"
     inkscape:pageopacity="0"
     inkscape:pageshadow="2"
     inkscape:window-width="1920"
     inkscape:window-height="1017"
     id="namedview6959"
     showgrid="false"
     inkscape:showpageshadow="false"
     inkscape:pagecheckerboard="true"
     fit-margin-top="0"
     fit-margin-left="0"
     fit-margin-right="0"
     fit-margin-bottom="0"
     inkscape:zoom="1.32"
     inkscape:cx="287.12121"
     inkscape:cy="82.19697"
     inkscape:window-x="-8"
     inkscape:window-y="-8"
     inkscape:window-maximized="1"
     inkscape:current-layer="g4288"
     inkscape:deskcolor="#d1d1d1" />
  <metadata
     id="metadata4176">
    <rdf:RDF>
      <cc:Work
         rdf:about="">
        <dc:format>image/svg+xml</dc:format>
        <dc:type
           rdf:resource="http://purl.org/dc/dcmitype/StillImage" />
        <dc:title />
      </cc:Work>
    </rdf:RDF>
  </metadata>
  <defs
     id="defs4174" />
  <g
     inkscape:groupmode="layer"
     id="layer11"
     inkscape:label="Layer 2"
     style="display:inline"
     transform="translate(-0.34581736,-0.58423565)">
    <g
       id="g4288"
       transform="translate(0.34581736,0.81577574)">
      <path
         d="m 426.28054,206.39556 c -0.32105,11.33972 -0.12913,18.54987 -13.53841,18.54044 L 8.528642,224.65162 C -0.19063432,224.64549 0.099,222.67799 0.099,204.12055 V 29.791 C 0.099,13.391 -1.6190762,0.1 14.784924,0.1 H 406.76922 c 21.43268,0 19.33838,13.047897 19.3397,15.130926 L 426.22266,195.248 Z"
         id="path4058"
         style="fill:#ffffff"
         sodipodi:nodetypes="cssssssscc" />
      <path
         d="m 426.22366,195.248 c 0,12.03902 1.66756,22.4089 -3.94604,27.06682 -2.02925,1.6838 -5.00998,2.62118 -9.36488,2.62118 H 19.789949 C 3.3859491,224.936 0.099,227.56408 0.099,211.17308 V 13.410917 C 0.099,-2.9890832 13.396,0.1 29.8,0.1 h 366.73166 c 16.402,0 29.64945,-0.81401898 29.691,15.585928 V 195.248 Z"
         id="path4060"
         style="fill:none;stroke:#1c1d20;stroke-width:0.198;stroke-miterlimit:3.864"
         sodipodi:nodetypes="csssssssscc" />
      <path
         d="m 242.1147,126.98791 -12.99951,-6.50207 0.86801,4.33335 h -10.83336 v 4.33539 h 10.83336 l -0.86801,4.33129 12.99951,-6.49796"
         id="polyline4062"
         style="fill:#1c1d20;stroke-width:1" />
      <path
         d="m 200.88518,85.755311 -6.50155,13.001064 4.33436,-0.86647 v 10.836435 h 4.33181 V 97.889905 l 4.33437,0.86647 -6.49899,-13.001064"
         id="polyline4064"
         style="fill:#1c1d20;stroke-width:1" />
      <path
         d="m 159.65309,126.98791 12.99849,6.49796 -0.86595,-4.33129 h 10.83387 v -4.33539 h -10.83387 l 0.86595,-4.33335 -12.99849,6.50207"
         id="polyline4066"
         style="fill:#1c1d20;stroke-width:1" />
      <path
         d="m 198.71799,159.55383 m 4.33181,0 h -4.33231 v -14.29817 h 4.33231 z"
         id="path4068"
         style="fill:#1c1d20;stroke-width:1" />
      <path
         d="m 190.50255,145.03441 c 3.04806,1.78284 6.5952,2.80778 10.38315,2.80778 11.36692,0 20.58414,-9.21517 20.58414,-20.58518 0,-11.36692 -9.21722,-20.58105 -20.58414,-20.58105 -11.36898,0 -20.58312,9.21413 -20.58312,20.58105 0,3.73238 0.98995,7.23373 2.72441,10.24834 l 7.14987,-4.08432 c -1.04501,-1.81473 -1.64185,-3.91914 -1.64185,-6.16402 0,-6.81954 5.52806,-12.34863 12.35069,-12.34863 6.82056,0 12.34863,5.52909 12.34863,12.34863 0,6.82365 -5.52807,12.35275 -12.34863,12.35275 -2.28244,0 -4.41876,-0.61898 -6.25253,-1.69845 l -4.13062,7.1231"
         id="path4070"
         style="fill:#1c1d20;stroke-width:1" />
      <path
         d="m 418.69466,193.593 c 0,13.766 1.01306,24.937 -12.89694,24.937 H 31.864 c -13.91,0 -25.185,2.93407 -25.185,-10.83193 V 19.159937 C 6.679,5.3809376 17.954,6.51 31.864,6.51 h 361.64866 c 13.909,0 25.182,-2.9500716 25.182,10.829928 z"
         id="path4072"
         style="fill:none;stroke:#1c1d20;stroke-width:5;stroke-miterlimit:3.864"
         sodipodi:nodetypes="sssssssss" />
      <g
         id="g4168" />
      <g
         id="E-80"
         transform="matrix(0.04676273,0,0,0.06166455,217.56954,25.119558)"
         inkscape:label="E-80"
         style="display:inline;stroke-width:18.6223">
        <path
           style="fill:#ffffff;fill-opacity:1;stroke-width:18.6223"
           d="m -877.11397,119.96468 v -229 H 208.88608 v 229 229 H -877.11397 Z"
           id="path2390-0"
           sodipodi:nodetypes="ccccccc"
           inkscape:connector-curvature="0" />
        <path
           id="rect852"
           style="fill:#ff0000;stroke-linecap:round;stroke-linejoin:round"
           d="m -877.11395,-109.03532 h 1086 v 458 h -1086 z" />
      </g>
      <path
         style="font-weight:bold;font-size:26.6187px;line-height:15.597px;font-family:Ccrige;-inkscape-font-specification:'Ccrige Bold';letter-spacing:0px;word-spacing:0px;fill:#ffffff;stroke-width:0.999993px"
         d="m 185.1502,40.911455 h 4.44532 l 0.007,-11.798739 7.71943,11.752156 0.0266,0.04658 h 4.81133 l 0.007,-18.892622 h -4.28561 l -0.007,12.138127 -8.1054,-12.144782 h -4.625 l 0.007,18.899277 z m 19.67787,-4.957733 h 6.52158 v -3.493704 h -6.52158 v 3.493704 z m 9.18344,4.971042 h 4.37212 V 22.025487 h -4.37212 v 18.899277 z m 5.94926,0 h 4.37212 V 22.025487 h -4.37212 v 18.899277 z"
         id="text850"
         transform="scale(0.98128725,1.0190696)"
         aria-label="N-II" />
      <path
         d="m 128.20689,71.501166 h 3.43702 q 0.95334,0 1.50527,-0.476668 0.57702,-0.476668 0.57702,-1.279478 0,-0.802809 -0.57702,-1.279477 -0.55193,-0.476668 -1.50527,-0.476668 h -3.43702 z m 0,-6.698442 h 3.43702 q 0.6272,0 1.0286,-0.426493 0.40141,-0.426492 0.40141,-1.078775 0,-0.652283 -0.40141,-1.078775 -0.4014,-0.426493 -1.0286,-0.426493 h -3.43702 z m -3.83844,-6.522828 h 8.07827 q 0.92825,0 1.73106,0.351229 0.8279,0.35123 1.43001,0.953337 0.6021,0.602107 0.95333,1.430004 0.35123,0.827898 0.35123,1.756146 0,0.978424 -0.4014,1.856497 -0.37632,0.852986 -1.10387,1.505268 1.12896,0.702459 1.73106,1.806322 0.60211,1.103863 0.60211,2.383341 0,0.978424 -0.37632,1.831409 -0.35123,0.852985 -0.97842,1.505268 -0.60211,0.627195 -1.45509,1.003512 -0.8279,0.351229 -1.78124,0.351229 h -8.78073 z m 23.10589,4.716506 -1.83141,5.845458 h 3.78825 z m 8.10336,12.017056 h -4.06423 l -0.85298,-2.584043 h -6.14651 l -0.77773,2.584043 h -3.96387 l 5.24335,-16.733562 h 4.84195 z m 6.82389,-9.784241 h 3.43702 q 0.67737,0 1.17913,-0.501756 0.50176,-0.526844 0.50176,-1.25439 0,-0.727546 -0.50176,-1.229302 -0.50176,-0.526844 -1.17913,-0.526844 h -3.43702 z m 3.93878,-6.949321 q 2.35825,0 3.86352,1.630707 0.65228,0.727546 1.0286,1.680883 0.37632,0.928248 0.37632,1.881585 0,1.580531 -0.85299,2.834921 -0.85298,1.229302 -2.40843,1.956848 l 4.08931,6.748618 h -4.18966 l -3.88861,-6.347213 h -1.95684 v 6.347213 h -3.76317 V 58.279896 Z m 24.15956,11.891617 q -1.0286,2.533868 -3.01054,3.913697 -1.98193,1.354741 -4.64124,1.354741 -1.83141,0 -3.33668,-0.627195 -1.50527,-0.652283 -2.60913,-1.806322 -1.07878,-1.154038 -1.68088,-2.759658 -0.60211,-1.605619 -0.60211,-3.562467 0,-1.881585 0.55193,-3.437029 0.55193,-1.580531 1.6558,-2.73457 1.12895,-1.204214 2.68439,-1.831409 1.55544,-0.652283 3.2865,-0.652283 2.70949,0 4.71651,1.379829 2.00702,1.379829 2.96036,3.888609 l -4.01405,1.430005 q -0.4014,-1.354742 -1.37983,-2.107375 -0.95333,-0.752634 -2.30808,-0.752634 -0.90316,0 -1.6307,0.351229 -0.72755,0.326141 -1.25439,0.978424 -0.52685,0.627195 -0.80281,1.530356 -0.27597,0.878073 -0.27597,1.981936 0,2.308077 1.07878,3.562467 0.52684,0.627195 1.30456,0.978424 0.80281,0.35123 1.6558,0.35123 1.35474,0 2.33316,-0.80281 1.00352,-0.827897 1.27948,-2.132463 z m 14.80178,-8.554939 h -7.70196 v 3.035623 h 6.87406 v 3.512292 h -6.87406 v 3.161063 h 8.45459 v 3.687906 H 193.76132 V 58.279896 h 11.54039 z m 8.45458,9.884592 h 7.2002 v 3.512292 H 209.99312 V 58.279896 h 3.76317 z m 17.46109,-9.633714 q -0.87808,0 -1.6558,0.376317 -0.77772,0.376317 -1.35474,1.078775 -0.97842,1.229302 -0.97842,3.411941 0,1.128951 0.22579,1.956848 0.25087,0.802809 0.75263,1.455092 0.57702,0.702459 1.35474,1.078776 0.77772,0.376317 1.68088,0.376317 0.87808,0 1.6558,-0.376317 0.77772,-0.376317 1.35474,-1.078776 0.97842,-1.279478 0.97842,-3.336677 0,-1.204214 -0.25087,-2.007024 -0.22579,-0.827897 -0.72755,-1.48018 -0.57702,-0.702458 -1.37983,-1.078775 -0.77772,-0.376317 -1.65579,-0.376317 z m 0,-3.838434 q 1.83141,0 3.38685,0.652283 1.55544,0.652283 2.68439,1.906673 2.13247,2.308077 2.13247,6.27195 0,1.881584 -0.60211,3.462116 -0.60211,1.580531 -1.68088,2.73457 -1.07878,1.128951 -2.60913,1.756146 -1.50527,0.627195 -3.31159,0.627195 -1.83141,0 -3.33668,-0.627195 -1.50527,-0.627195 -2.58404,-1.781234 -1.07878,-1.154039 -1.68089,-2.759658 -0.57702,-1.605619 -0.57702,-3.537379 0,-1.931761 0.60211,-3.53738 0.60211,-1.605619 1.68088,-2.73457 1.07878,-1.154039 2.58405,-1.781234 1.50526,-0.652283 3.31159,-0.652283 z m 23.43201,10.988456 V 58.279896 h 3.76317 v 16.733562 h -4.18966 l -7.09984,-10.612139 v 10.612139 h -3.76317 V 58.279896 h 4.18966 z m 14.47566,-6.021072 -1.83141,5.845458 h 3.78826 z m 8.10336,12.017056 h -4.06423 l -0.85298,-2.584043 h -6.14651 l -0.77772,2.584043 h -3.96388 l 5.24335,-16.733562 h 4.84195 z"
         id="text8415"
         style="font-size:25.0878px;line-height:14.6999px;font-family:TrafficTypeW01-SpainD;-inkscape-font-specification:TrafficTypeW01-SpainD;letter-spacing:0px;word-spacing:0px;stroke-width:1px"
         aria-label="BARCELONA" />
      <path
         d="m 25.705396,169.22394 h 2.365759 q 0.709728,0 1.311921,-0.30109 0.602193,-0.3011 1.010824,-0.83877 0.430138,-0.55918 0.666714,-1.31192 0.236576,-0.77425 0.236576,-1.69905 0,-0.9248 -0.236576,-1.69904 -0.236576,-0.77425 -0.666714,-1.31193 -0.408631,-0.55917 -1.010824,-0.86027 -0.602193,-0.3011 -1.311921,-0.3011 h -2.365759 z m 2.365759,-11.33413 q 1.483976,0 2.709869,0.53767 1.225894,0.51616 2.107677,1.46247 0.881782,0.9463 1.354934,2.25822 0.494659,1.31192 0.494659,2.90343 0,1.59151 -0.494659,2.92494 -0.473152,1.31192 -1.354934,2.25823 -0.881783,0.9463 -2.107677,1.48397 -1.225893,0.51617 -2.709869,0.51617 H 22.41484 v -14.3451 z m 19.721813,2.86041 H 41.19035 v 2.60234 h 5.89289 v 3.01097 h -5.89289 v 2.70986 h 7.247825 v 3.16152 H 37.899794 v -14.3451 h 9.893174 z m 22.08759,3.097 v 8.38769 H 67.36425 l -0.279589,-0.60219 q -0.90329,0.51616 -1.677539,0.73123 -0.752741,0.23658 -1.699045,0.23658 -1.419455,0 -2.77439,-0.58069 -1.333428,-0.58069 -2.279732,-1.61302 -1.828086,-2.00014 -1.828086,-5.22617 0,-3.52714 2.107676,-5.5918 0.90329,-0.90329 2.172197,-1.39795 1.290414,-0.51616 2.602335,-0.51616 1.828087,0 3.355077,0.92479 1.548497,0.90329 2.537814,2.58083 l -2.838911,1.46247 q -0.430138,-0.96781 -1.2474,-1.48397 -0.817262,-0.53768 -1.892607,-0.53768 -0.774249,0 -1.397949,0.27959 -0.6237,0.25809 -1.075345,0.75274 -0.451645,0.49466 -0.709728,1.20439 -0.236576,0.68822 -0.236576,1.52699 v 1.50548 q 0,0.81727 0.150549,1.39795 0.150548,0.55918 0.516165,1.05384 0.494659,0.66671 1.18288,1.03233 0.709728,0.36562 1.52699,0.36562 0.645207,0 1.204386,-0.19356 0.55918,-0.21507 0.989318,-0.6022 0.430138,-0.38712 0.709727,-0.90329 0.27959,-0.53767 0.365618,-1.18288 h -3.419598 v -3.01096 z m 15.979619,-5.95741 v 8.60276 q 0,2.66685 -1.806579,4.40891 -1.763566,1.69905 -4.301381,1.69905 -1.225893,0 -2.322745,-0.43014 -1.075345,-0.43014 -1.957128,-1.26891 -1.80658,-1.74206 -1.80658,-4.40891 v -8.60276 h 3.290556 v 8.60276 q 0,0.60219 0.215069,1.11836 0.215069,0.51616 0.580687,0.90329 0.387124,0.36561 0.903289,0.58068 0.516166,0.21507 1.118359,0.21507 0.580687,0 1.096852,-0.21507 0.516166,-0.21507 0.881783,-0.58068 0.387124,-0.38713 0.602193,-0.90329 0.215069,-0.51617 0.215069,-1.11836 v -8.60276 z m 9.097425,-4.10782 -1.914114,3.35507 h -2.817404 l 1.204386,-3.35507 z m -1.720552,18.45292 h -3.290556 v -14.3451 h 3.290556 z m 10.81797,-8.00057 4.73152,8.00057 h -3.7637 l -2.81741,-4.79604 -2.83891,4.79604 h -3.763707 l 4.731517,-8.00057 -3.763707,-6.34453 h 3.763707 l 1.8711,3.16151 1.84959,-3.16151 h 3.76371 z m 12.86113,-3.26905 q -0.75274,0 -1.41945,0.32261 -0.66672,0.3226 -1.16137,0.92479 -0.83877,1.05384 -0.83877,2.92494 0,0.96781 0.19356,1.67754 0.21507,0.68822 0.64521,1.2474 0.49465,0.60219 1.16137,0.9248 0.66671,0.3226 1.44096,0.3226 0.75274,0 1.41946,-0.3226 0.66671,-0.32261 1.16137,-0.9248 0.83877,-1.09685 0.83877,-2.86042 0,-1.03233 -0.21507,-1.72055 -0.19356,-0.70973 -0.6237,-1.26891 -0.49466,-0.60219 -1.18288,-0.92479 -0.66671,-0.32261 -1.41946,-0.32261 z m 0,-3.29055 q 1.57001,0 2.90344,0.55918 1.33342,0.55918 2.30123,1.63452 1.82809,1.97864 1.82809,5.37673 0,1.61301 -0.51616,2.96795 -0.51617,1.35493 -1.44097,2.34425 -0.92479,0.96781 -2.23671,1.50548 -1.29042,0.53768 -2.83892,0.53768 -1.57,0 -2.86041,-0.53768 -1.29042,-0.53767 -2.21521,-1.52699 -0.9248,-0.98931 -1.44097,-2.36576 -0.49466,-1.37644 -0.49466,-3.03247 0,-1.65603 0.51617,-3.03247 0.51617,-1.37644 1.44096,-2.34425 0.9248,-0.98932 2.21521,-1.52699 1.29042,-0.55918 2.83891,-0.55918 z m 13.63539,11.5492 h 6.17248 v 3.01097 h -9.39851 v -14.3451 h 3.22603 z m 18.92607,-7.1618 q -0.73123,-0.60219 -1.74206,-0.9463 -0.98931,-0.36562 -1.95713,-0.36562 -0.75274,0 -1.20438,0.32261 -0.45165,0.3226 -0.45165,0.83877 0,0.38712 0.27959,0.6237 0.3011,0.23657 0.94631,0.38712 l 1.63452,0.38713 q 2.34425,0.53767 3.54864,1.74205 1.20439,1.20439 1.20439,3.01097 0,1.01082 -0.43014,1.84959 -0.40863,0.83877 -1.18288,1.44097 -0.75274,0.58068 -1.80658,0.90329 -1.05384,0.34411 -2.32275,0.34411 -2.08617,0 -3.93576,-0.81727 -1.84959,-0.83876 -3.05398,-2.32274 l 2.86042,-2.08617 q 0.60219,0.9248 1.74206,1.46247 1.13986,0.53767 2.4948,0.53767 0.81726,0 1.31192,-0.36562 0.51616,-0.36561 0.51616,-0.96781 0,-0.47315 -0.38712,-0.77425 -0.36562,-0.30109 -1.18288,-0.53767 l -1.97863,-0.49466 q -0.81727,-0.23657 -1.35494,-0.43013 -0.53767,-0.19357 -0.9463,-0.45165 -0.86028,-0.55918 -1.35494,-1.46247 -0.47315,-0.90329 -0.47315,-1.95713 0,-0.96781 0.36562,-1.74206 0.38712,-0.79575 1.05384,-1.35493 0.68822,-0.55918 1.65603,-0.86028 0.96781,-0.30109 2.1722,-0.30109 3.61315,0 6.40905,2.40877 z"
         id="text8415-6"
         style="font-size:21.5069px;line-height:12.6018px;font-family:TrafficTypeW01-SpainD;-inkscape-font-specification:TrafficTypeW01-SpainD;letter-spacing:0px;word-spacing:0px;stroke-width:1px"
         aria-label="DE GUÃXOLS" />
      <path
         d="m 34.544721,136.64739 q -0.852985,-0.70246 -2.032111,-1.10387 -1.154039,-0.42649 -2.28299,-0.42649 -0.878073,0 -1.404917,0.37632 -0.526844,0.37632 -0.526844,0.97842 0,0.45158 0.326142,0.72755 0.351229,0.27596 1.103863,0.45158 l 1.906673,0.45158 q 2.73457,0.62719 4.139487,2.03211 1.404916,1.40492 1.404916,3.51229 0,1.17913 -0.501756,2.15755 -0.476668,0.97843 -1.379829,1.68089 -0.878073,0.67737 -2.107375,1.05368 -1.229302,0.40141 -2.709482,0.40141 -2.433517,0 -4.591067,-0.95334 -2.157551,-0.97842 -3.562468,-2.70948 l 3.336678,-2.43352 q 0.702458,1.07878 2.032111,1.70597 1.329654,0.6272 2.910185,0.6272 0.953336,0 1.530356,-0.42649 0.602107,-0.4265 0.602107,-1.12895 0,-0.55194 -0.45158,-0.90317 -0.426493,-0.35122 -1.379829,-0.62719 l -2.308078,-0.57702 q -0.953336,-0.27597 -1.580531,-0.50176 -0.627195,-0.22579 -1.103863,-0.52684 -1.003512,-0.65228 -1.580532,-1.70597 -0.551931,-1.05369 -0.551931,-2.28299 0,-1.12895 0.426492,-2.03211 0.451581,-0.92825 1.229302,-1.58053 0.80281,-0.65229 1.931761,-1.00351 1.128951,-0.35123 2.533868,-0.35123 4.21475,0 7.476164,2.80983 z m 12.920208,-0.25088 v 3.26141 h -2.985448 v 4.51581 q 0,1.00351 1.003512,1.00351 0.928248,0 1.655794,-0.35123 l 0.652283,3.26141 q -0.652283,0.27597 -1.555443,0.4265 -0.903161,0.17561 -1.856498,0.17561 -1.781233,0 -2.809833,-0.8279 -1.0286,-0.85298 -1.0286,-2.33316 v -5.87055 h -1.93176 v -3.26141 h 1.93176 v -3.86352 l 3.938785,-1.00351 v 4.86703 z m 3.386831,8.68038 q 0.777722,0 1.329654,0.55193 0.551931,0.55193 0.551931,1.35474 0,0.75263 -0.551931,1.30457 -0.551932,0.55193 -1.329654,0.55193 -0.777722,0 -1.329653,-0.55193 -0.551932,-0.55194 -0.551932,-1.32966 0,-0.80281 0.551932,-1.32965 0.551931,-0.55193 1.329653,-0.55193 z m 23.707975,-9.78424 h -7.526339 v 3.01053 h 6.874057 v 3.33668 h -6.874057 v 6.87406 h -3.838433 v -16.73357 h 11.364772 z m 14.400385,-0.17562 h -7.701955 v 3.03562 h 6.874057 v 3.5123 h -6.874057 v 3.16106 h 8.454589 v 3.68791 H 77.419732 V 131.78035 H 88.96012 Z m 8.454571,9.88459 h 7.200199 v 3.5123 H 93.651521 v -16.73357 h 3.76317 z m 14.300029,3.5123 h -3.83843 v -16.73357 h 3.83843 z m 18.99147,-16.73357 v 10.03512 q 0,3.11089 -2.10738,5.143 -2.0572,1.98194 -5.01756,1.98194 -1.43,0 -2.70948,-0.50176 -1.25439,-0.50175 -2.28299,-1.48018 -2.10737,-2.03211 -2.10737,-5.143 v -10.03512 h 3.83843 v 10.03512 q 0,0.70246 0.25088,1.30457 0.25088,0.60211 0.67737,1.05369 0.45158,0.42649 1.05369,0.67737 0.6021,0.25088 1.30456,0.25088 0.67737,0 1.27948,-0.25088 0.60211,-0.25088 1.0286,-0.67737 0.45158,-0.45158 0.70246,-1.05369 0.25088,-0.60211 0.25088,-1.30457 v -10.03512 z"
         id="text8415-6-1"
         style="font-size:25.0878px;line-height:14.6999px;font-family:TrafficTypeW01-SpainD;-inkscape-font-specification:TrafficTypeW01-SpainD;letter-spacing:0px;word-spacing:0px;stroke-width:1px"
         aria-label="St. FELIU &#10;" />
      <path
         style="font-size:25.0878px;line-height:14.6999px;font-family:TrafficTypeW01-SpainD;-inkscape-font-specification:TrafficTypeW01-SpainD;letter-spacing:-1px;word-spacing:0px;stroke-width:1px"
         d="m 26.794892,196.87188 h 7.200198 v 3.51229 H 23.031722 v -16.73356 h 3.76317 z m 13.224768,0 h 7.200198 v 3.51229 H 36.25649 v -16.73356 h 3.76317 z m 16.461088,-9.63372 q -0.878073,0 -1.655794,0.37632 -0.777722,0.37632 -1.354742,1.07878 -0.978424,1.2293 -0.978424,3.41194 0,1.12895 0.22579,1.95685 0.250878,0.8028 0.752634,1.45509 0.57702,0.70246 1.354742,1.07877 0.777721,0.37632 1.680882,0.37632 0.878073,0 1.655795,-0.37632 0.777722,-0.37631 1.354741,-1.07877 0.978424,-1.27948 0.978424,-3.33668 0,-1.20421 -0.250878,-2.00702 -0.22579,-0.8279 -0.727546,-1.48018 -0.577019,-0.70246 -1.379829,-1.07878 -0.777722,-0.37632 -1.655795,-0.37632 z m 0,-3.83843 q 1.83141,0 3.386853,0.65228 1.555444,0.65229 2.684395,1.90668 2.132463,2.30807 2.132463,6.27195 0,1.88158 -0.602108,3.46211 -0.602107,1.58053 -1.680882,2.73457 -1.078776,1.12895 -2.609131,1.75615 -1.505268,0.62719 -3.31159,0.62719 -1.831409,0 -3.336677,-0.62719 -1.505268,-0.6272 -2.584043,-1.78124 -1.078776,-1.15403 -1.680883,-2.75965 -0.577019,-1.60562 -0.577019,-3.53738 0,-1.93176 0.602107,-3.53738 0.602107,-1.60562 1.680882,-2.73457 1.078776,-1.15404 2.584044,-1.78124 1.505268,-0.65228 3.311589,-0.65228 z m 14.905681,7.2002 h 3.437029 q 0.67737,0 1.179126,-0.50176 0.501756,-0.52684 0.501756,-1.25439 0,-0.72754 -0.501756,-1.2293 -0.501756,-0.52684 -1.179126,-0.52684 h -3.437029 z m 3.938785,-6.94932 q 2.358253,0 3.863521,1.63071 0.652283,0.72754 1.0286,1.68088 0.376317,0.92825 0.376317,1.88158 0,1.58053 -0.852985,2.83492 -0.852986,1.22931 -2.408429,1.95685 l 4.089311,6.74862 h -4.189662 l -3.888609,-6.34721 h -1.956849 v 6.34721 H 67.62326 v -16.73356 z m 20.224297,3.33668 h -7.701954 v 3.03562 h 6.874057 v 3.51229 h -6.874057 v 3.16106 h 8.454588 v 3.68791 H 84.009124 v -16.73356 h 11.540387 z m 15.307059,0.17561 h -4.86703 v 13.22127 H 102.1511 V 187.1629 h -4.84194 v -3.51229 h 13.54741 z m 11.62269,9.70898 h 2.75965 q 0.8279,0 1.53036,-0.35123 0.70246,-0.35123 1.17913,-0.97842 0.50175,-0.65229 0.77772,-1.53036 0.27596,-0.90316 0.27596,-1.98194 0,-1.07877 -0.27596,-1.98193 -0.27597,-0.90316 -0.77772,-1.53036 -0.47667,-0.65228 -1.17913,-1.00351 -0.70246,-0.35123 -1.53036,-0.35123 h -2.75965 z m 2.75965,-13.22127 q 1.73106,0 3.16107,0.62719 1.43,0.60211 2.4586,1.70597 1.0286,1.10387 1.58053,2.63422 0.57702,1.53036 0.57702,3.38686 0,1.85649 -0.57702,3.41194 -0.55193,1.53035 -1.58053,2.63422 -1.0286,1.10386 -2.4586,1.73105 -1.43001,0.60211 -3.16107,0.60211 h -6.59809 v -16.73356 z m 22.0055,3.33668 h -7.70195 v 3.03562 h 6.87405 v 3.51229 h -6.87405 v 3.16106 h 8.45459 v 3.68791 h -12.29303 v -16.73356 h 11.54039 z m 22.23482,-3.33668 h 4.18966 v 16.73356 h -3.76317 v -10.78775 l -4.66633,6.59809 -4.69142,-6.59809 v 10.78775 h -3.76317 v -16.73356 h 4.18967 l 4.16457,5.94581 z m 13.95234,4.7165 -1.83141,5.84546 h 3.78825 z m 8.10336,12.01706 h -4.06423 l -0.85298,-2.58404 h -6.14651 l -0.77773,2.58404 h -3.96387 l 5.24335,-16.73356 h 4.84195 z m 5.8239,-9.78424 h 3.43702 q 0.67738,0 1.17913,-0.50176 0.50176,-0.52684 0.50176,-1.25439 0,-0.72754 -0.50176,-1.2293 -0.50175,-0.52684 -1.17913,-0.52684 h -3.43702 z m 3.93878,-6.94932 q 2.35825,0 3.86352,1.63071 0.65228,0.72754 1.0286,1.68088 0.37632,0.92825 0.37632,1.88158 0,1.58053 -0.85299,2.83492 -0.85298,1.22931 -2.40843,1.95685 l 4.08932,6.74862 h -4.18967 l -3.88861,-6.34721 h -1.95684 v 6.34721 h -3.76317 v -16.73356 z"
         id="text8415-6-1-9"
         aria-label="LLORET DE MAR &#10;" />
      <path
         d="m 267.96091,107.52724 q -0.85298,-0.70246 -2.03211,-1.10386 -1.15404,-0.4265 -2.28299,-0.4265 -0.87807,0 -1.40492,0.37632 -0.52684,0.37632 -0.52684,0.97842 0,0.45159 0.32614,0.72755 0.35123,0.27597 1.10386,0.45158 l 1.90668,0.45158 q 2.73457,0.6272 4.13948,2.03211 1.40492,1.40492 1.40492,3.5123 0,1.17912 -0.50176,2.15755 -0.47666,0.97842 -1.37983,1.68088 -0.87807,0.67737 -2.10737,1.05369 -1.2293,0.4014 -2.70948,0.4014 -2.43352,0 -4.59107,-0.95334 -2.15755,-0.97842 -3.56247,-2.70948 l 3.33668,-2.43351 q 0.70246,1.07877 2.03211,1.70597 1.32965,0.62719 2.91019,0.62719 0.95333,0 1.53035,-0.42649 0.60211,-0.42649 0.60211,-1.12895 0,-0.55193 -0.45158,-0.90316 -0.42649,-0.35123 -1.37983,-0.6272 l -2.30808,-0.57702 q -0.95333,-0.27596 -1.58053,-0.50175 -0.62719,-0.22579 -1.10386,-0.52685 -1.00351,-0.65228 -1.58053,-1.70597 -0.55194,-1.05369 -0.55194,-2.28299 0,-1.12895 0.4265,-2.03211 0.45158,-0.92825 1.2293,-1.58053 0.80281,-0.65228 1.93176,-1.00351 1.12895,-0.35123 2.53387,-0.35123 4.21475,0 7.47616,2.80983 z m 10.61212,11.86653 h -3.83843 v -16.73356 h 3.83843 z m 8.63021,-3.51229 h 7.2002 v 3.51229 h -10.96337 v -16.73356 h 3.76317 z m 22.07726,-8.35424 q -0.85299,-0.70246 -2.03211,-1.10386 -1.15404,-0.4265 -2.28299,-0.4265 -0.87808,0 -1.40492,0.37632 -0.52684,0.37632 -0.52684,0.97842 0,0.45159 0.32614,0.72755 0.35123,0.27597 1.10386,0.45158 l 1.90667,0.45158 q 2.73457,0.6272 4.13949,2.03211 1.40492,1.40492 1.40492,3.5123 0,1.17912 -0.50176,2.15755 -0.47667,0.97842 -1.37983,1.68088 -0.87807,0.67737 -2.10737,1.05369 -1.2293,0.4014 -2.70949,0.4014 -2.43351,0 -4.59106,-0.95334 -2.15755,-0.97842 -3.56247,-2.70948 l 3.33668,-2.43351 q 0.70246,1.07877 2.03211,1.70597 1.32965,0.62719 2.91018,0.62719 0.95334,0 1.53036,-0.42649 0.60211,-0.42649 0.60211,-1.12895 0,-0.55193 -0.45158,-0.90316 -0.4265,-0.35123 -1.37983,-0.6272 l -2.30808,-0.57702 q -0.95334,-0.27596 -1.58053,-0.50175 -0.6272,-0.22579 -1.10386,-0.52685 -1.00352,-0.65228 -1.58054,-1.70597 -0.55193,-1.05369 -0.55193,-2.28299 0,-1.12895 0.4265,-2.03211 0.45158,-0.92825 1.2293,-1.58053 0.80281,-0.65228 1.93176,-1.00351 1.12895,-0.35123 2.53387,-0.35123 4.21475,0 7.47616,2.80983 z"
         id="text8415-6-6"
         style="font-size:25.0878px;line-height:14.6999px;font-family:TrafficTypeW01-SpainD;-inkscape-font-specification:TrafficTypeW01-SpainD;letter-spacing:0px;word-spacing:0px;stroke-width:1px"
         aria-label="SILS" />
      <path
         d="m 264.41683,135.85478 q -0.85299,-0.70245 -2.03211,-1.10386 -1.15404,-0.42649 -2.28299,-0.42649 -0.87808,0 -1.40492,0.37632 -0.52684,0.37631 -0.52684,0.97842 0,0.45158 0.32614,0.72755 0.35123,0.27596 1.10386,0.45158 l 1.90667,0.45158 q 2.73457,0.62719 4.13949,2.03211 1.40492,1.40492 1.40492,3.51229 0,1.17913 -0.50176,2.15755 -0.47667,0.97843 -1.37983,1.68088 -0.87807,0.67737 -2.10737,1.05369 -1.22931,0.40141 -2.70949,0.40141 -2.43351,0 -4.59106,-0.95334 -2.15755,-0.97842 -3.56247,-2.70948 l 3.33668,-2.43352 q 0.70246,1.07878 2.03211,1.70597 1.32965,0.6272 2.91018,0.6272 0.95334,0 1.53036,-0.4265 0.60211,-0.42649 0.60211,-1.12895 0,-0.55193 -0.45158,-0.90316 -0.4265,-0.35123 -1.37983,-0.62719 l -2.30808,-0.57702 q -0.95334,-0.27597 -1.58053,-0.50176 -0.6272,-0.22579 -1.10386,-0.52684 -1.00352,-0.65229 -1.58054,-1.70597 -0.55193,-1.05369 -0.55193,-2.28299 0,-1.12895 0.42649,-2.03211 0.45159,-0.92825 1.22931,-1.58054 0.80281,-0.65228 1.93176,-1.00351 1.12895,-0.35123 2.53387,-0.35123 4.21475,0 7.47616,2.80984 z m 12.92021,-0.25087 v 3.26141 h -2.98545 v 4.5158 q 0,1.00352 1.00351,1.00352 0.92825,0 1.65579,-0.35123 l 0.65229,3.26141 q -0.65229,0.27597 -1.55545,0.42649 -0.90316,0.17562 -1.85649,0.17562 -1.78124,0 -2.80984,-0.8279 -1.0286,-0.85298 -1.0286,-2.33316 v -5.87055 h -1.93176 v -3.26141 h 1.93176 v -3.86352 l 3.93879,-1.00352 v 4.86704 z m 7.90263,6.99949 q -0.35123,0.10035 -0.62719,0.15053 -0.25088,0.0502 -0.65229,0.12544 -0.57702,0.10035 -0.95333,0.2007 -0.37632,0.0753 -0.60211,0.17562 -0.2007,0.10035 -0.27597,0.25087 -0.0753,0.15053 -0.0753,0.35123 0,0.4265 0.37632,0.70246 0.37631,0.25088 0.97842,0.25088 1.00351,0 1.55544,-0.50176 0.17562,-0.15052 0.2258,-0.30105 0.0502,-0.15053 0.0502,-0.52684 z m 3.83843,5.36879 q -1.2293,-0.10035 -1.93176,-0.32614 -0.67737,-0.25088 -1.12895,-0.75263 -0.82789,0.57702 -1.60562,0.82789 -0.77772,0.25088 -1.65579,0.25088 -0.95334,0 -1.78124,-0.30105 -0.8028,-0.32614 -1.40491,-0.85299 -0.60211,-0.55193 -0.95334,-1.27948 -0.32614,-0.72754 -0.32614,-1.55544 0,-3.0858 3.96387,-3.81334 l 2.45861,-0.4265 q 0.42649,-0.0753 0.42649,-0.30105 0,-0.35123 -0.47667,-0.57702 -0.45158,-0.22579 -1.17913,-0.22579 -0.8028,0 -1.6307,0.37632 -0.8279,0.35123 -1.55545,1.00351 l -1.75614,-2.75966 q 1.05369,-0.92825 2.38334,-1.43 1.35474,-0.50176 2.86001,-0.50176 1.12895,0 2.08229,0.27597 0.95333,0.25087 1.6307,0.72754 0.70246,0.47667 1.10387,1.10387 0.4014,0.62719 0.4014,1.37982 v 5.5695 q 0,0.6021 0.90316,0.6021 0.0502,0 0.12544,0 0.10035,0 0.22579,-0.0251 z m 4.69143,-3.6879 q 0.77773,0 1.32966,0.55193 0.55193,0.55193 0.55193,1.35474 0,0.75263 -0.55193,1.30456 -0.55193,0.55193 -1.32966,0.55193 -0.77772,0 -1.32965,-0.55193 -0.55193,-0.55193 -0.55193,-1.32965 0,-0.80281 0.55193,-1.32965 0.55193,-0.55193 1.32965,-0.55193 z m 26.96939,-1.40492 q -1.0286,2.53387 -3.01053,3.91369 -1.98194,1.35475 -4.64125,1.35475 -1.83141,0 -3.33667,-0.6272 -1.50527,-0.65228 -2.60914,-1.80632 -1.07877,-1.15404 -1.68088,-2.75966 -0.60211,-1.60562 -0.60211,-3.56247 0,-1.88158 0.55194,-3.43702 0.55193,-1.58054 1.65579,-2.73457 1.12895,-1.20422 2.6844,-1.83141 1.55544,-0.65229 3.2865,-0.65229 2.70948,0 4.7165,1.37983 2.00703,1.37983 2.96036,3.88861 l -4.01404,1.43001 q -0.40141,-1.35475 -1.37983,-2.10738 -0.95334,-0.75263 -2.30808,-0.75263 -0.90316,0 -1.63071,0.35123 -0.72754,0.32614 -1.25439,0.97842 -0.52684,0.6272 -0.80281,1.53036 -0.27596,0.87807 -0.27596,1.98193 0,2.30808 1.07877,3.56247 0.52685,0.62719 1.30457,0.97842 0.80281,0.35123 1.65579,0.35123 1.35474,0 2.33317,-0.80281 1.00351,-0.82789 1.27948,-2.13246 z m 10.56197,-8.30406 q -0.87808,0 -1.6558,0.37631 -0.77772,0.37632 -1.35474,1.07878 -0.97842,1.2293 -0.97842,3.41194 0,1.12895 0.22579,1.95685 0.25088,0.80281 0.75263,1.45509 0.57702,0.70246 1.35474,1.07878 0.77772,0.37631 1.68089,0.37631 0.87807,0 1.65579,-0.37631 0.77772,-0.37632 1.35474,-1.07878 0.97843,-1.27948 0.97843,-3.33668 0,-1.20421 -0.25088,-2.00702 -0.22579,-0.8279 -0.72755,-1.48018 -0.57702,-0.70246 -1.37983,-1.07878 -0.77772,-0.37631 -1.65579,-0.37631 z m 0,-3.83844 q 1.83141,0 3.38685,0.65229 1.55544,0.65228 2.68439,1.90667 2.13247,2.30808 2.13247,6.27195 0,1.88158 -0.60211,3.46212 -0.60211,1.58053 -1.68088,2.73457 -1.07878,1.12895 -2.60913,1.75614 -1.50527,0.6272 -3.31159,0.6272 -1.83141,0 -3.33668,-0.6272 -1.50527,-0.62719 -2.58404,-1.78123 -1.07878,-1.15404 -1.68089,-2.75966 -0.57702,-1.60562 -0.57702,-3.53738 0,-1.93176 0.60211,-3.53738 0.60211,-1.60562 1.68088,-2.73457 1.07878,-1.15404 2.58405,-1.78123 1.50527,-0.65229 3.31159,-0.65229 z m 15.90568,13.47215 h 7.2002 v 3.51229 H 343.4434 v -16.73356 h 3.76317 z m 17.46109,-9.63371 q -0.87807,0 -1.65579,0.37631 -0.77772,0.37632 -1.35474,1.07878 -0.97843,1.2293 -0.97843,3.41194 0,1.12895 0.22579,1.95685 0.25088,0.80281 0.75264,1.45509 0.57702,0.70246 1.35474,1.07878 0.77772,0.37631 1.68088,0.37631 0.87807,0 1.6558,-0.37631 0.77772,-0.37632 1.35474,-1.07878 0.97842,-1.27948 0.97842,-3.33668 0,-1.20421 -0.25088,-2.00702 -0.22579,-0.8279 -0.72754,-1.48018 -0.57702,-0.70246 -1.37983,-1.07878 -0.77772,-0.37631 -1.6558,-0.37631 z m 0,-3.83844 q 1.83141,0 3.38686,0.65229 1.55544,0.65228 2.68439,1.90667 2.13246,2.30808 2.13246,6.27195 0,1.88158 -0.6021,3.46212 -0.60211,1.58053 -1.68089,2.73457 -1.07877,1.12895 -2.60913,1.75614 -1.50527,0.6272 -3.31159,0.6272 -1.83141,0 -3.33667,-0.6272 -1.50527,-0.62719 -2.58405,-1.78123 -1.07877,-1.15404 -1.68088,-2.75966 -0.57702,-1.60562 -0.57702,-3.53738 0,-1.93176 0.60211,-3.53738 0.6021,-1.60562 1.68088,-2.73457 1.07878,-1.15404 2.58404,-1.78123 1.50527,-0.65229 3.31159,-0.65229 z m 24.83694,0.25088 h 4.18966 v 16.73356 h -3.76317 v -10.78775 l -4.66633,6.59809 -4.69142,-6.59809 v 10.78775 h -3.76317 v -16.73356 h 4.18966 l 4.16458,5.94581 z m 14.95234,4.71651 -1.83141,5.84545 h 3.78826 z m 8.10336,12.01705 h -4.06422 l -0.85299,-2.58404 h -6.14651 l -0.77772,2.58404 h -3.96387 l 5.24335,-16.73356 h 4.84194 z"
         id="text8415-6-6-8"
         style="font-size:25.0878px;line-height:14.6999px;font-family:TrafficTypeW01-SpainD;-inkscape-font-specification:TrafficTypeW01-SpainD;letter-spacing:0px;word-spacing:0px;stroke-width:1px"
         aria-label="Sta. COLOMA" />
      <path
         d="m 33.533233,102.2052 h 3.863521 L 32.88095,118.93876 H 28.189532 L 23.673728,102.2052 h 3.838433 l 3.010536,10.76266 z m 10.7125,16.73356 H 40.4073 V 102.2052 h 3.838433 z m 8.705469,-3.51229 h 2.759658 q 0.827898,0 1.530356,-0.35123 0.702458,-0.35123 1.179127,-0.97843 0.501756,-0.65228 0.777721,-1.53035 0.275966,-0.90316 0.275966,-1.98194 0,-1.07877 -0.275966,-1.98193 -0.275965,-0.90317 -0.777721,-1.53036 -0.476669,-0.65228 -1.179127,-1.00351 -0.702458,-0.35123 -1.530356,-0.35123 H 52.951202 Z M 55.71086,102.2052 q 1.731058,0 3.161063,0.62719 1.430005,0.60211 2.458604,1.70597 1.0286,1.10387 1.580532,2.63422 0.577019,1.53036 0.577019,3.38685 0,1.8565 -0.577019,3.41194 -0.551932,1.53036 -1.580532,2.63422 -1.028599,1.10387 -2.458604,1.73106 -1.430005,0.60211 -3.161063,0.60211 H 49.112769 V 102.2052 Z m 15.228279,6.94932 h 3.437028 q 0.677371,0 1.179127,-0.50176 0.501756,-0.52684 0.501756,-1.25439 0,-0.72754 -0.501756,-1.2293 -0.501756,-0.52684 -1.179127,-0.52684 h -3.437028 z m 3.938784,-6.94932 q 2.358254,0 3.863522,1.6307 0.652282,0.72755 1.028599,1.68089 0.376317,0.92824 0.376317,1.88158 0,1.58053 -0.852985,2.83492 -0.852985,1.2293 -2.408429,1.95685 l 4.089312,6.74862 h -4.189663 l -3.888609,-6.34721 h -1.956848 v 6.34721 h -3.76317 V 102.2052 Z m 21.224298,3.33667 h -7.701954 v 3.03563 h 6.874057 v 3.51229 h -6.874057 v 3.16106 h 8.454588 v 3.68791 H 84.561833 V 102.2052 h 11.540388 z m 8.454569,3.61265 h 3.43703 q 0.67737,0 1.17913,-0.50176 0.50175,-0.52684 0.50175,-1.25439 0,-0.72754 -0.50175,-1.2293 -0.50176,-0.52684 -1.17913,-0.52684 h -3.43703 z m 3.93879,-6.94932 q 2.35825,0 3.86352,1.6307 0.65228,0.72755 1.0286,1.68089 0.37631,0.92824 0.37631,1.88158 0,1.58053 -0.85298,2.83492 -0.85299,1.2293 -2.40843,1.95685 l 4.08931,6.74862 h -4.18966 l -3.88861,-6.34721 h -1.95685 v 6.34721 h -3.76317 V 102.2052 Z m 21.22429,3.33667 h -7.70195 v 3.03563 h 6.87406 v 3.51229 h -6.87406 v 3.16106 h 8.45459 v 3.68791 H 118.17949 V 102.2052 h 11.54038 z m 15.98091,1.53036 q -0.85298,-0.70246 -2.03211,-1.10386 -1.15404,-0.4265 -2.28299,-0.4265 -0.87807,0 -1.40491,0.37632 -0.52685,0.37632 -0.52685,0.97843 0,0.45158 0.32614,0.72754 0.35123,0.27597 1.10387,0.45158 l 1.90667,0.45158 q 2.73457,0.6272 4.13949,2.03211 1.40491,1.40492 1.40491,3.5123 0,1.17912 -0.50175,2.15755 -0.47667,0.97842 -1.37983,1.68088 -0.87807,0.67737 -2.10738,1.05369 -1.2293,0.4014 -2.70948,0.4014 -2.43352,0 -4.59107,-0.95333 -2.15755,-0.97843 -3.56246,-2.70949 l 3.33667,-2.43351 q 0.70246,1.07877 2.03212,1.70597 1.32965,0.62719 2.91018,0.62719 0.95334,0 1.53036,-0.42649 0.6021,-0.42649 0.6021,-1.12895 0,-0.55193 -0.45158,-0.90316 -0.42649,-0.35123 -1.37983,-0.6272 l -2.30807,-0.57702 q -0.95334,-0.27596 -1.58054,-0.50175 -0.62719,-0.22579 -1.10386,-0.52685 -1.00351,-0.65228 -1.58053,-1.70597 -0.55193,-1.05368 -0.55193,-2.28299 0,-1.12895 0.42649,-2.03211 0.45158,-0.92825 1.2293,-1.58053 0.80281,-0.65228 1.93176,-1.00351 1.12895,-0.35123 2.53387,-0.35123 4.21475,0 7.47617,2.80983 z"
         id="text8415-6-4"
         style="font-size:25.0878px;line-height:14.6999px;font-family:TrafficTypeW01-SpainD;-inkscape-font-specification:TrafficTypeW01-SpainD;letter-spacing:0px;word-spacing:0px;stroke-width:1px"
         aria-label="VIDRERES" />
      <path
         d="m 254.87993,168.56273 h 2.36576 q 0.70973,0 1.31192,-0.30109 0.60219,-0.3011 1.01082,-0.83877 0.43014,-0.55918 0.66672,-1.31192 0.23657,-0.77425 0.23657,-1.69905 0,-0.92479 -0.23657,-1.69904 -0.23658,-0.77425 -0.66672,-1.31192 -0.40863,-0.55918 -1.01082,-0.86028 -0.60219,-0.3011 -1.31192,-0.3011 h -2.36576 z m 2.36576,-11.33413 q 1.48397,0 2.70987,0.53767 1.22589,0.51617 2.10767,1.46247 0.88179,0.9463 1.35494,2.25822 0.49466,1.31192 0.49466,2.90344 0,1.59151 -0.49466,2.92493 -0.47315,1.31192 -1.35494,2.25823 -0.88178,0.9463 -2.10767,1.48397 -1.2259,0.51617 -2.70987,0.51617 h -5.65632 v -14.3451 z m 19.72181,2.86041 h -6.60262 v 2.60234 h 5.89289 v 3.01097 h -5.89289 v 2.70987 h 7.24783 v 3.16151 h -10.53838 v -14.3451 h 9.89317 z m 19.6358,0.15055 h -6.45207 v 2.58083 h 5.8929 v 2.86042 h -5.8929 v 5.89289 h -3.29055 v -14.3451 h 9.74262 z m 7.24784,1.03233 -1.57001,5.01111 h 3.24755 z m 6.94673,10.30181 h -3.48412 l -0.73124,-2.21521 h -5.26919 l -0.66671,2.21521 h -3.39809 l 4.49494,-14.3451 h 4.15083 z m 5.84988,-8.38769 h 2.94644 q 0.58069,0 1.01083,-0.43014 0.43014,-0.45164 0.43014,-1.07534 0,-0.6237 -0.43014,-1.05384 -0.43014,-0.45165 -1.01083,-0.45165 h -2.94644 z m 3.37658,-5.95741 q 2.02165,0 3.31207,1.39795 0.55917,0.6237 0.88178,1.44096 0.3226,0.79575 0.3226,1.61302 0,1.35493 -0.73123,2.43028 -0.73124,1.05383 -2.06467,1.67753 l 3.50563,5.78536 h -3.59165 l -3.33357,-5.44125 h -1.67754 v 5.44125 h -3.22604 v -14.3451 z m 17.97979,9.20495 v -9.20495 h 3.22604 v 14.3451 h -3.59166 l -6.08645,-9.09742 v 9.09742 h -3.22604 v -14.3451 h 3.59166 z m 17.27002,-6.34454 h -6.60261 v 2.60234 h 5.89289 v 3.01097 h -5.89289 v 2.70987 h 7.24782 v 3.16151 h -10.53838 v -14.3451 h 9.89317 z m 7.24782,3.097 h 2.94644 q 0.58069,0 1.01083,-0.43014 0.43014,-0.45164 0.43014,-1.07534 0,-0.6237 -0.43014,-1.05384 -0.43014,-0.45165 -1.01083,-0.45165 h -2.94644 z m 3.37658,-5.95741 q 2.02165,0 3.31207,1.39795 0.55918,0.6237 0.88178,1.44096 0.3226,0.79575 0.3226,1.61302 0,1.35493 -0.73123,2.43028 -0.73124,1.05383 -2.06467,1.67753 l 3.50563,5.78536 h -3.59165 l -3.33357,-5.44125 h -1.67754 v 5.44125 h -3.22604 v -14.3451 z m 17.97979,4.17234 q -0.73124,-0.6022 -1.74206,-0.94631 -0.98932,-0.36562 -1.95713,-0.36562 -0.75274,0 -1.20439,0.32261 -0.45164,0.3226 -0.45164,0.83877 0,0.38712 0.27959,0.6237 0.30109,0.23657 0.9463,0.38712 l 1.63453,0.38713 q 2.34425,0.53767 3.54863,1.74206 1.20439,1.20438 1.20439,3.01096 0,1.01083 -0.43014,1.84959 -0.40863,0.83877 -1.18288,1.44097 -0.75274,0.58068 -1.80658,0.90329 -1.05383,0.34411 -2.32274,0.34411 -2.08617,0 -3.93576,-0.81726 -1.8496,-0.83877 -3.05398,-2.32275 l 2.86041,-2.08617 q 0.6022,0.9248 1.74206,1.46247 1.13987,0.53767 2.4948,0.53767 0.81727,0 1.31192,-0.36562 0.51617,-0.36561 0.51617,-0.96781 0,-0.47315 -0.38712,-0.77424 -0.36562,-0.3011 -1.18288,-0.53768 l -1.97864,-0.49466 q -0.81726,-0.23657 -1.35493,-0.43013 -0.53768,-0.19357 -0.94631,-0.45165 -0.86027,-0.55918 -1.35493,-1.46247 -0.47315,-0.90329 -0.47315,-1.95713 0,-0.96781 0.36561,-1.74205 0.38713,-0.79576 1.05384,-1.35494 0.68822,-0.55918 1.65603,-0.86028 0.96781,-0.30109 2.1722,-0.30109 3.61316,0 6.40906,2.40877 z"
         id="text8415-6-5"
         style="font-size:21.5069px;line-height:12.6018px;font-family:TrafficTypeW01-SpainD;-inkscape-font-specification:TrafficTypeW01-SpainD;letter-spacing:0px;word-spacing:0px;stroke-width:1px"
         aria-label="DE FARNERS" />
    </g>
  </g>
</svg>
