<?xml version="1.0" encoding="UTF-8" standalone="no"?>
<svg
   version="1.2"
   width="524.3855"
   height="428.6987"
   id="svg2"
   sodipodi:docname="ES_CAT_OR10.svg"
   inkscape:version="1.3.2 (091e20e, 2023-11-25, custom)"
   xmlns:inkscape="http://www.inkscape.org/namespaces/inkscape"
   xmlns:sodipodi="http://sodipodi.sourceforge.net/DTD/sodipodi-0.dtd"
   xmlns="http://www.w3.org/2000/svg"
   xmlns:svg="http://www.w3.org/2000/svg"
   xmlns:rdf="http://www.w3.org/1999/02/22-rdf-syntax-ns#"
   xmlns:cc="http://creativecommons.org/ns#"
   xmlns:dc="http://purl.org/dc/elements/1.1/">
  <sodipodi:namedview
     pagecolor="#ffffff"
     bordercolor="#666666"
     borderopacity="1"
     objecttolerance="10"
     gridtolerance="10"
     guidetolerance="10"
     inkscape:pageopacity="0"
     inkscape:pageshadow="2"
     inkscape:window-width="1920"
     inkscape:window-height="1017"
     id="namedview1625"
     showgrid="false"
     inkscape:zoom="1.4142136"
     inkscape:cx="557.90724"
     inkscape:cy="228.04193"
     inkscape:window-x="-8"
     inkscape:window-y="-8"
     inkscape:window-maximized="1"
     inkscape:current-layer="layer5"
     fit-margin-top="0"
     fit-margin-left="0"
     fit-margin-right="0"
     fit-margin-bottom="0"
     inkscape:showpageshadow="false"
     inkscape:pagecheckerboard="true"
     inkscape:deskcolor="#d1d1d1">
    <inkscape:grid
       type="xygrid"
       id="grid3228"
       originx="-0.014899992"
       originy="56.465948"
       spacingy="1"
       spacingx="1"
       units="px"
       visible="false" />
  </sodipodi:namedview>
  <metadata
     id="metadata4640">
    <rdf:RDF>
      <cc:Work
         rdf:about="">
        <dc:format>image/svg+xml</dc:format>
        <dc:type
           rdf:resource="http://purl.org/dc/dcmitype/StillImage" />
        <dc:title />
      </cc:Work>
    </rdf:RDF>
  </metadata>
  <defs
     id="defs4638" />
  <g
     id="g4751"
     transform="translate(-0.0149,56.465948)">
    <path
       d="m 524.26856,27.23975 c 0,-14.85 -12.269,-27.122 -27.116,-27.122 H 27.26875 c -14.849,0 -27.122,12.272 -27.122,27.122 v 317.871 c 0,14.854 12.273,27.122 27.122,27.122 h 469.88381 c 14.849,0 27.116,-12.268 27.116,-27.122 v -317.871"
       id="path4520"
       style="fill:#000080"
       sodipodi:nodetypes="csssssssc" />
    <path
       d="M 492.44875,24.23975"
       id="path4522"
       style="fill:none;stroke:#ffffff;stroke-width:0.2637;stroke-miterlimit:2.613" />
    <path
       d="m 524.26856,27.23975 c 0,-14.85 -12.269,-27.122 -27.116,-27.122 H 27.26875 c -14.849,0 -27.122,12.272 -27.122,27.122"
       id="path4524"
       style="fill:none;stroke:#ffffff;stroke-width:0.2637;stroke-miterlimit:2.613"
       sodipodi:nodetypes="cssc" />
    <path
       d="m 513.70928,27.23975 v 316.17499 c 0,10.33 -9.04236,18.989 -20.13787,18.989 H 28.759051 c -11.099753,0 -20.1421095,-8.659 -20.1421095,-18.989 V 27.23975 c 0,-10.331 9.0423565,-18.984 20.1421095,-18.984 H 493.57141 c 11.09339,0 20.13787,8.653 20.13787,18.984 h 5.7605 -5.7605 m 5.75944,0 c 0,-13.304 -11.78732,-24.412 -25.89731,-24.412 H 28.759051 c -14.116347,0 -25.8973011,11.108 -25.8973011,24.412 v 316.17499 c 0,13.308 11.7820151,24.413 25.8973011,24.413 H 493.57141 c 14.10999,0 25.89731,-11.104 25.89731,-24.413 z"
       id="path4530"
       style="fill:#ffffff;stroke-width:1"
       sodipodi:nodetypes="cssssssscccsssssssss" />
  </g>
  <g
     inkscape:groupmode="layer"
     id="layer3"
     inkscape:label="Layer 1"
     transform="translate(-0.0149,56.465948)" />
  <g
     inkscape:groupmode="layer"
     id="layer4"
     inkscape:label="Layer 2"
     transform="translate(-0.0149,56.465948)">
    <path
       id="polyline2619"
       style="fill:#ffffff"
       class="st0"
       transform="translate(136.2,156.5)"
       d="m 110.8,108.7 33.3,-41.9 -9.3,-0.6 28,-12.2 -6.1,29.9 -2.5,-9 -30.4,38.6 v 75.8 h -13 v -80.6" />
    <path
       id="polyline2623"
       style="fill:#ffffff"
       class="st0"
       transform="matrix(-1,0,0,1,306.5,156.5)"
       d="m 75.1,108.7 33.4,-41.9 -9.3,-0.6 28,-12.2 -6.1,29.9 -2.5,-9 -30.5,38.6 v 75.8 h -13 v -80.6" />
  </g>
  <g
     inkscape:groupmode="layer"
     id="layer6"
     inkscape:label="Layer 4"
     transform="translate(-0.0149,56.465948)">
    <path
       id="rect3334"
       style="fill:#000080;stroke:#ffffff;stroke-width:2.00001;stroke-linecap:round"
       d="M 50,54.343143 H 160 V 100 H 50 Z" />
    <path
       id="rect3334-8"
       style="fill:#000080;stroke:#ffffff;stroke-width:2.00001;stroke-linecap:round"
       d="m 318.58578,53.535534 h 110 V 99.19239 h -110 z" />
    <path
       d="m 189.76418,140.58725 h 3.03536 l -0.25075,2.20394 q 1.4385,-1.96639 2.89019,-2.25672 0.36953,-0.0396 0.68626,-0.0396 0.9238,0 1.37251,0.31674 0.91061,0.54108 1.16135,1.59686 0.19796,0.76544 0.19796,1.67605 0,0.67306 -0.11877,1.4253 l -1.4517,8.14268 h -3.24651 l 1.51768,-7.99751 q 0.25075,-1.34612 -0.31674,-1.99278 -0.97659,-0.76544 -2.09835,0.23755 -0.85782,0.81822 -1.34612,2.89019 l -1.26693,6.86255 h -3.06176 l 2.11156,-11.48158 z m 20.24453,2.29632 q 0.4883,1.12176 0.4883,2.69223 0,0.72585 -0.10558,1.54408 -0.43551,3.02216 -1.874,4.64542 -1.62326,1.84761 -3.60284,2.04557 -0.40912,0.0264 -0.67306,0.0264 -0.35633,0 -0.75224,-0.0396 -1.63646,-0.11878 -2.91659,-2.03237 -0.69945,-1.16136 -0.69945,-3.06176 0,-0.55428 0.066,-1.17455 0.31674,-3.43128 2.33591,-5.42406 1.38571,-1.33291 2.65264,-1.47808 0.55429,-0.0924 1.08217,-0.0924 h 0.11878 q 2.56026,0 3.87998,2.3491 z m -5.47684,8.67057 q 1.05577,0.0396 1.74203,-0.97659 0.64666,-1.01619 1.05578,-2.92978 0.42231,-2.17755 -0.066,-3.70842 -0.42231,-1.22734 -1.34612,-1.06898 -1.14815,-0.15836 -2.03237,1.34612 -0.65986,1.25373 -0.91061,2.8506 -0.22435,1.91359 -0.0264,2.92978 0.34313,1.80802 1.58367,1.55727 z m 9.02689,-10.96689 h 3.03536 l -0.25075,1.83442 q 0.9766,-1.47809 1.93999,-1.82122 0.43551,-0.11877 0.81823,-0.11877 0.31674,0 0.81823,0.10557 l -0.79183,3.41808 q -1.06898,-0.36952 -1.86081,0.22436 -1.00299,0.58067 -1.74203,2.86379 l -1.20095,6.55902 h -3.06175 z m 16.07421,13.21042 h -2.99576 l 0.27714,-1.70244 q -0.72585,1.4253 -1.84761,1.78162 -0.58068,0.15837 -1.4253,0.21116 -1.26693,-0.17157 -1.70244,-0.84462 -1.20095,-1.20095 -1.39891,-3.48407 -0.0396,-0.52789 -0.0396,-1.04258 0,-1.63645 0.55428,-3.37849 0.65986,-1.9004 1.67605,-2.95617 1.49129,-1.71564 2.79781,-1.74204 2.3887,-0.22435 3.10135,1.97959 l 1.24053,-6.86256 h 3.12774 z m -3.04855,-10.82172 q -1.59687,0.0924 -3.03536,4.7246 -0.0792,3.73482 1.38571,3.90638 2.49427,-0.39592 2.89019,-4.52664 0.64666,-3.94597 -1.24054,-4.10434 z"
       id="text3353"
       style="font-style:italic;font-weight:500;font-size:27.0279px;line-height:15.8366px;font-family:'Caracteres L4';-inkscape-font-specification:'Caracteres L4 Medium Italic';letter-spacing:0px;word-spacing:0px;fill:#ffffff;stroke-width:1px"
       aria-label="nord" />
    <path
       d="m 455.09381,152.34496 h 2.89019 q -0.27714,1.12176 0.32993,1.72883 0.71265,0.52789 1.87401,0.18476 1.16135,-0.34312 1.06897,-1.51768 0.0132,-0.76544 -1.08217,-1.37251 -1.4121,-0.62027 -2.59985,-1.63645 -1.22734,-0.98979 -0.88421,-3.12774 0.25074,-1.34612 1.3989,-2.28312 0.84462,-0.71265 2.12475,-0.87102 0.62027,-0.0396 1.10857,-0.0396 0.81823,0 1.24054,0.11878 1.06897,0.22435 1.75523,0.96339 0.75224,0.87102 0.75224,2.30952 0,0.30353 -0.0396,0.64666 h -3.06176 q 0.36952,-1.29333 -0.38272,-1.74203 -1.37251,-0.36953 -1.93999,0.40911 -0.77863,1.12176 0.25075,1.78162 3.04856,1.55728 3.58964,2.32271 0.65986,0.77864 0.64667,2.05877 -0.0528,1.02938 -0.39592,1.79482 -0.4883,0.88422 -1.29333,1.61006 -1.00299,0.79184 -2.04557,0.9502 -0.54108,0.066 -1.02938,0.066 -0.88421,0 -1.67605,-0.13197 -1.04258,-0.34313 -1.8608,-1.24054 -0.72585,-0.75224 -0.76544,-2.25673 z m 19.82222,4.20991 h -3.03536 l 0.25075,-2.20394 q -1.4385,1.96639 -2.89019,2.25673 -0.36952,0.0396 -0.68626,0.0396 -0.9238,0 -1.37251,-0.31673 -0.9106,-0.54109 -1.16135,-1.59687 -0.19796,-0.76544 -0.19796,-1.67604 0,-0.67306 0.11878,-1.4253 l 1.45169,-8.14269 h 3.24651 l -1.51768,7.99752 q -0.25074,1.34611 0.31674,1.99278 0.97659,0.76544 2.09836,-0.23755 0.85781,-0.81823 1.34611,-2.89019 l 1.26693,-6.86256 h 3.06176 l -2.11156,11.48158 z m 12.19423,0.10558 h -2.99577 l 0.27715,-1.70244 q -0.72585,1.4253 -1.84762,1.78162 -0.58067,0.15837 -1.42529,0.21116 -1.26694,-0.17157 -1.70245,-0.84463 -1.20094,-1.20094 -1.3989,-3.48406 -0.0396,-0.52789 -0.0396,-1.04258 0,-1.63646 0.55428,-3.37849 0.65986,-1.9004 1.67605,-2.95618 1.49128,-1.71563 2.79781,-1.74203 2.38869,-0.22435 3.10134,1.97958 l 1.24054,-6.86255 h 3.12774 z m -3.04856,-10.82172 q -1.59686,0.0924 -3.03536,4.7246 -0.0792,3.73481 1.38571,3.90638 2.49428,-0.39592 2.89019,-4.52665 0.64667,-3.94596 -1.24054,-4.10433 z"
       id="text3353-1"
       style="font-style:italic;font-weight:500;font-size:27.0279px;line-height:15.8366px;font-family:'Caracteres L4';-inkscape-font-specification:'Caracteres L4 Medium Italic';letter-spacing:0px;word-spacing:0px;fill:#ffffff;stroke-width:1px"
       inkscape:transform-center-x="98.994949"
       inkscape:transform-center-y="-9.1923882"
       aria-label="sud" />
  </g>
  <g
     inkscape:groupmode="layer"
     id="layer5"
     inkscape:label="Layer 3"
     transform="translate(-0.0149,56.465948)">
    <g
       id="text3233-3"
       style="font-size:35.9276px;line-height:21.0514px;font-family:'Highway Gothic Wide';-inkscape-font-specification:'Highway Gothic Wide';letter-spacing:0px;word-spacing:0px;fill:#ffffff;stroke-width:0.999997px"
       aria-label="Barcelona&#10;&#10;Terrassa">
      <path
         d="m 45.153979,145.33297 q 0,1.83231 -1.005973,3.5209 -0.970045,1.65267 -2.622715,2.55086 -1.832307,1.00598 -3.700543,1.00598 H 25.753074 v -24.0715 h 11.209412 q 2.658642,0 4.167602,0.86227 3.269411,1.8323 3.269411,5.49692 0,3.59276 -2.479004,5.02986 3.197556,1.54489 3.233484,5.60471 z m -5.065792,-10.31122 q 0,-1.07783 -0.610769,-1.6886 -0.574842,-0.61077 -1.616742,-0.68262 h -7.724434 v 4.81429 h 7.724434 q 1.113756,-0.0719 1.65267,-0.71855 0.574841,-0.6467 0.574841,-1.72452 z m 0.790407,10.05972 q 0,-1.40117 -0.826334,-2.33529 -0.790408,-0.93412 -2.191584,-0.97004 h -7.724434 v 6.32325 h 7.724434 q 1.401176,0.0359 2.191584,-0.82633 0.826334,-0.86226 0.826334,-2.19159 z m 22.921782,7.32924 h -4.059819 v -0.75448 q -1.904163,1.07782 -4.311312,1.07782 -3.089774,0 -4.706516,-1.72452 -1.616742,-1.76045 -1.616742,-4.4191 0,-2.73049 1.904163,-4.23945 1.94009,-1.50896 4.850226,-1.50896 1.976018,0 3.844253,0.53891 -0.07185,-2.7305 -2.981991,-2.91013 -2.155656,-0.0359 -4.239457,1.25746 l -2.011945,-3.19755 q 3.233484,-2.11973 6.323257,-2.11973 2.981991,0 4.993937,2.04787 2.011946,2.04787 2.011946,5.31729 z m -4.059819,-4.27539 v -2.94606 q -2.083801,-0.57484 -3.664616,-0.57484 -1.473031,0 -2.299366,0.64669 -0.826335,0.6467 -0.826335,1.54489 0,0.93412 0.790407,1.61674 0.790408,0.68263 2.227512,0.68263 1.616742,0 3.772398,-0.97005 z m 19.077584,-12.5028 -1.329321,4.09574 q -1.005973,-1.14968 -2.586787,-1.11375 -3.017919,-0.0359 -3.053846,3.48497 v 10.31123 h -4.311312 v -17.5686 h 4.311312 v 1.0419 q 1.293394,-1.47303 3.269412,-1.47303 2.119728,0 3.700542,1.22154 z m 16.311143,13.90398 q -2.658642,3.30534 -6.502896,3.30534 -3.628687,0 -5.999909,-2.58679 -2.371222,-2.62272 -2.371222,-6.61068 0,-3.98796 2.371222,-6.61068 2.371222,-2.62271 5.999909,-2.62271 3.844254,0 6.502896,3.30534 l -2.55086,2.55086 q -1.688597,-1.58082 -3.880181,-1.6886 -1.904162,0 -3.125701,1.4371 -1.185611,1.40118 -1.185611,3.62869 0,2.19158 1.185611,3.62869 1.221539,1.4371 3.125701,1.4371 2.191584,-0.17964 3.628688,-1.97602 z m 17.460846,-4.56281 h -10.74235 q 0.14371,1.86824 1.22154,2.87421 1.11375,1.00597 2.26344,1.00597 1.47303,0 2.91013,-1.36525 l 2.65864,2.65865 q -2.26343,2.69457 -5.56877,2.69457 -3.23349,0 -5.496927,-2.62272 -2.227511,-2.65864 -2.227511,-6.50289 0,-3.80833 2.191584,-6.46697 2.191584,-2.65864 5.353214,-2.65864 3.73647,0.0359 5.56878,2.8742 1.8323,2.83828 1.86823,6.25141 z m -4.23946,-3.37719 q -0.0718,-1.40118 -1.00597,-2.29937 -0.89819,-0.89819 -2.0838,-0.86226 -1.32932,-0.0359 -2.29937,0.93412 -0.93411,0.93411 -0.97004,2.22751 z m 12.17949,10.81421 h -4.31132 v -22.31104 l 4.31132,-2.15566 z m 18.86202,-8.76634 q 0,3.80833 -2.26343,6.5029 -2.22752,2.69457 -5.42507,2.69457 -3.23349,0 -5.461,-2.69457 -2.22751,-2.69457 -2.22751,-6.5029 0,-3.84425 2.22751,-6.53882 2.22751,-2.69457 5.461,-2.69457 3.19755,0 5.42507,2.69457 2.26343,2.69457 2.26343,6.53882 z m -4.1676,0 q 0,-2.15566 -0.97004,-3.5209 -0.97005,-1.40118 -2.51493,-1.40118 -1.61675,0 -2.58679,1.40118 -0.97005,1.40117 -0.97005,3.5209 0,2.11973 0.97005,3.55683 0.97004,1.40118 2.58679,1.40118 1.54488,0 2.51493,-1.40118 0.97004,-1.4371 0.97004,-3.55683 z m 6.8622,-8.69448 h 4.05982 v 1.36525 q 1.61674,-1.61674 4.27538,-1.61674 2.83828,0 4.59874,1.97602 1.79638,1.94009 1.8323,5.06579 v 10.6705 h -4.31131 v -10.45494 q 0,-1.40117 -0.86226,-2.29936 -0.82634,-0.89819 -2.26344,-0.89819 -1.29339,0 -2.29937,0.97004 -0.97004,0.93412 -0.97004,2.15566 v 10.52679 h -4.05982 z m 32.51451,17.46082 h -4.05982 v -0.75448 q -1.90416,1.07782 -4.31131,1.07782 -3.08977,0 -4.70652,-1.72452 -1.61674,-1.76045 -1.61674,-4.4191 0,-2.73049 1.90416,-4.23945 1.94009,-1.50896 4.85023,-1.50896 1.97602,0 3.84425,0.53891 -0.0718,-2.7305 -2.98199,-2.91013 -2.15565,-0.0359 -4.23945,1.25746 l -2.01195,-3.19755 q 3.23348,-2.11973 6.32326,-2.11973 2.98199,0 4.99393,2.04787 2.01195,2.04787 2.01195,5.31729 z m -4.05982,-4.27539 v -2.94606 q -2.0838,-0.57484 -3.66461,-0.57484 -1.47304,0 -2.29937,0.64669 -0.82634,0.6467 -0.82634,1.54489 0,0.93412 0.79041,1.61674 0.79041,0.68263 2.22751,0.68263 1.61675,0 3.7724,-0.97005 z"
         id="path1" />
      <path
         d="m 43.03425,174.68147 h -6.934027 v 19.83203 h -4.203529 v -19.83203 h -6.934027 v -4.23946 H 43.03425 Z m 18.035631,12.39502 H 50.327529 q 0.14371,1.86824 1.221538,2.87421 1.113756,1.00597 2.263439,1.00597 1.473032,0 2.910136,-1.36525 l 2.658642,2.65865 q -2.263439,2.69457 -5.568778,2.69457 -3.233484,0 -5.496923,-2.62272 -2.227511,-2.65864 -2.227511,-6.5029 0,-3.80832 2.191583,-6.46696 2.191584,-2.65865 5.353213,-2.65865 3.73647,0.0359 5.568778,2.87421 1.832308,2.83828 1.868235,6.2514 z m -4.239457,-3.37719 q -0.07185,-1.40118 -1.005972,-2.29937 -0.89819,-0.89819 -2.083801,-0.86226 -1.329321,-0.0359 -2.299367,0.93412 -0.934117,0.93411 -0.970045,2.22751 z m 19.113515,-5.96399 -1.329321,4.09575 q -1.005973,-1.14968 -2.586788,-1.11375 -3.017918,-0.0359 -3.053846,3.48497 v 10.31122 h -4.311312 v -17.56859 h 4.311312 v 1.0419 q 1.293394,-1.47303 3.269412,-1.47303 2.119728,0 3.700543,1.22153 z m 13.832134,0 -1.329321,4.09575 q -1.005973,-1.14968 -2.586788,-1.11375 -3.017918,-0.0359 -3.053846,3.48497 v 10.31122 h -4.311312 v -17.56859 h 4.311312 v 1.0419 q 1.293394,-1.47303 3.269412,-1.47303 2.119729,0 3.700543,1.22153 z m 16.598567,16.77819 h -4.05982 v -0.75448 q -1.90417,1.07783 -4.311315,1.07783 -3.089773,0 -4.706515,-1.72452 -1.616742,-1.76045 -1.616742,-4.4191 0,-2.73049 1.904162,-4.23945 1.940091,-1.50896 4.850227,-1.50896 1.976013,0 3.844253,0.53891 -0.0719,-2.7305 -2.981991,-2.91013 -2.155656,-0.0359 -4.239457,1.25746 l -2.011946,-3.19756 q 3.233484,-2.11972 6.323258,-2.11972 2.981996,0 4.993936,2.04787 2.01195,2.04787 2.01195,5.31728 z m -4.05982,-4.27538 v -2.94606 q -2.0838,-0.57485 -3.664618,-0.57485 -1.473032,0 -2.299366,0.6467 -0.826335,0.6467 -0.826335,1.54489 0,0.93412 0.790407,1.61674 0.790407,0.68262 2.227511,0.68262 1.616741,0 3.772401,-0.97004 z m 21.62844,-0.71855 q -0.0359,2.37122 -2.01195,3.88018 -1.97602,1.47303 -5.17357,1.50896 -4.27539,-0.0719 -7.83222,-2.0838 l 1.94009,-3.73647 q 3.05385,1.76045 5.78435,1.79638 1.76045,0 2.40714,-0.43113 0.68263,-0.43114 0.68263,-1.18562 0,-0.7904 -0.6467,-1.18561 -0.64669,-0.3952 -2.62271,-0.75448 -3.95204,-0.68262 -5.35322,-2.0838 -1.36524,-1.4371 -1.32932,-3.05384 -0.0359,-2.29937 1.79638,-3.91611 1.83231,-1.65267 4.95801,-1.65267 3.52091,0 6.75439,1.90416 l -1.76045,3.48498 q -2.22751,-1.25747 -4.88615,-1.40118 -1.58082,0.0359 -2.11973,0.39521 -0.53892,0.32334 -0.53892,0.89819 -0.0359,0.57484 0.50299,0.86226 0.57484,0.28742 2.15566,0.50299 3.73647,0.46705 5.49692,2.04787 1.76045,1.54489 1.79638,4.20353 z m 17.06563,0 q -0.0359,2.37122 -2.01195,3.88018 -1.97602,1.47303 -5.17357,1.50896 -4.27539,-0.0719 -7.83222,-2.0838 l 1.94009,-3.73647 q 3.05385,1.76045 5.78434,1.79638 1.76046,0 2.40715,-0.43113 0.68263,-0.43114 0.68263,-1.18562 0,-0.7904 -0.6467,-1.18561 -0.6467,-0.3952 -2.62271,-0.75448 -3.95204,-0.68262 -5.35322,-2.0838 -1.36525,-1.4371 -1.32932,-3.05384 -0.0359,-2.29937 1.79638,-3.91611 1.83231,-1.65267 4.95801,-1.65267 3.52091,0 6.75439,1.90416 l -1.76045,3.48498 q -2.22751,-1.25747 -4.88616,-1.40118 -1.58081,0.0359 -2.11973,0.39521 -0.53891,0.32334 -0.53891,0.89819 -0.0359,0.57484 0.50299,0.86226 0.57484,0.28742 2.15565,0.50299 3.73647,0.46705 5.49693,2.04787 1.76045,1.54489 1.79638,4.20353 z m 17.28118,4.99393 h -4.05982 v -0.75448 q -1.90416,1.07783 -4.31131,1.07783 -3.08977,0 -4.70651,-1.72452 -1.61675,-1.76045 -1.61675,-4.4191 0,-2.73049 1.90417,-4.23945 1.94009,-1.50896 4.85022,-1.50896 1.97602,0 3.84426,0.53891 -0.0719,-2.7305 -2.982,-2.91013 -2.15565,-0.0359 -4.23945,1.25746 l -2.01195,-3.19756 q 3.23349,-2.11972 6.32326,-2.11972 2.98199,0 4.99394,2.04787 2.01194,2.04787 2.01194,5.31728 z m -4.05982,-4.27538 v -2.94606 q -2.0838,-0.57485 -3.66461,-0.57485 -1.47303,0 -2.29937,0.6467 -0.82633,0.6467 -0.82633,1.54489 0,0.93412 0.7904,1.61674 0.79041,0.68262 2.22752,0.68262 1.61674,0 3.77239,-0.97004 z"
         id="path2" />
    </g>
    <g
       id="text3233-3-0"
       style="font-size:35.9276px;line-height:21.0514px;font-family:'Highway Gothic Wide';-inkscape-font-specification:'Highway Gothic Wide';letter-spacing:0px;word-spacing:0px;fill:#ffffff;stroke-width:0.999997px"
       aria-label="Barcelona&#10;&#10;Rubí">
      <path
         d="m 315.71031,148.33297 q 0,1.83231 -1.00597,3.5209 -0.97004,1.65267 -2.62271,2.55086 -1.83231,1.00598 -3.70055,1.00598 h -12.07167 v -24.0715 h 11.20941 q 2.65864,0 4.1676,0.86227 3.26941,1.8323 3.26941,5.49692 0,3.59276 -2.479,5.02986 3.19756,1.54489 3.23348,5.60471 z m -5.06579,-10.31122 q 0,-1.07783 -0.61077,-1.6886 -0.57484,-0.61077 -1.61674,-0.68262 h -7.72443 v 4.81429 h 7.72443 q 1.11376,-0.0719 1.65267,-0.71855 0.57484,-0.6467 0.57484,-1.72452 z m 0.79041,10.05972 q 0,-1.40117 -0.82633,-2.33529 -0.79041,-0.93412 -2.19159,-0.97004 h -7.72443 v 6.32325 h 7.72443 q 1.40118,0.0359 2.19159,-0.82633 0.82633,-0.86226 0.82633,-2.19159 z m 22.92178,7.32924 h -4.05982 v -0.75448 q -1.90416,1.07782 -4.31131,1.07782 -3.08977,0 -4.70652,-1.72452 -1.61674,-1.76045 -1.61674,-4.4191 0,-2.73049 1.90417,-4.23945 1.94009,-1.50896 4.85022,-1.50896 1.97602,0 3.84425,0.53891 -0.0718,-2.7305 -2.98199,-2.91013 -2.15565,-0.0359 -4.23945,1.25746 l -2.01195,-3.19755 q 3.23349,-2.11973 6.32326,-2.11973 2.98199,0 4.99394,2.04787 2.01194,2.04787 2.01194,5.31729 z m -4.05982,-4.27539 v -2.94606 q -2.0838,-0.57484 -3.66461,-0.57484 -1.47303,0 -2.29937,0.64669 -0.82633,0.6467 -0.82633,1.54489 0,0.93412 0.7904,1.61674 0.79041,0.68263 2.22751,0.68263 1.61675,0 3.7724,-0.97005 z m 19.07759,-12.5028 -1.32932,4.09574 q -1.00598,-1.14968 -2.58679,-1.11375 -3.01792,-0.0359 -3.05385,3.48497 v 10.31123 h -4.31131 v -17.5686 h 4.31131 v 1.0419 q 1.2934,-1.47303 3.26941,-1.47303 2.11973,0 3.70055,1.22154 z m 16.31114,13.90398 q -2.65864,3.30534 -6.5029,3.30534 -3.62868,0 -5.99991,-2.58679 -2.37122,-2.62272 -2.37122,-6.61068 0,-3.98796 2.37122,-6.61068 2.37123,-2.62271 5.99991,-2.62271 3.84426,0 6.5029,3.30534 l -2.55086,2.55086 q -1.6886,-1.58082 -3.88018,-1.6886 -1.90416,0 -3.1257,1.4371 -1.18561,1.40118 -1.18561,3.62869 0,2.19158 1.18561,3.62869 1.22154,1.4371 3.1257,1.4371 2.19158,-0.17964 3.62869,-1.97602 z m 17.46085,-4.56281 h -10.74236 q 0.14371,1.86824 1.22154,2.87421 1.11376,1.00597 2.26344,1.00597 1.47303,0 2.91014,-1.36525 l 2.65864,2.65865 q -2.26344,2.69457 -5.56878,2.69457 -3.23348,0 -5.49692,-2.62272 -2.22751,-2.65864 -2.22751,-6.50289 0,-3.80833 2.19158,-6.46697 2.19158,-2.65864 5.35321,-2.65864 3.73647,0.0359 5.56878,2.8742 1.83231,2.83828 1.86824,6.25141 z m -4.23946,-3.37719 q -0.0719,-1.40118 -1.00597,-2.29937 -0.89819,-0.89819 -2.0838,-0.86226 -1.32932,-0.0359 -2.29937,0.93412 -0.93412,0.93411 -0.97005,2.22751 z m 12.17948,10.81421 h -4.31131 v -22.31104 l 4.31131,-2.15566 z m 18.86203,-8.76634 q 0,3.80833 -2.26344,6.5029 -2.22751,2.69457 -5.42507,2.69457 -3.23348,0 -5.46099,-2.69457 -2.22751,-2.69457 -2.22751,-6.5029 0,-3.84425 2.22751,-6.53882 2.22751,-2.69457 5.46099,-2.69457 3.19756,0 5.42507,2.69457 2.26344,2.69457 2.26344,6.53882 z m -4.1676,0 q 0,-2.15566 -0.97005,-3.5209 -0.97004,-1.40118 -2.51493,-1.40118 -1.61674,0 -2.58679,1.40118 -0.97004,1.40117 -0.97004,3.5209 0,2.11973 0.97004,3.55683 0.97005,1.40118 2.58679,1.40118 1.54489,0 2.51493,-1.40118 0.97005,-1.4371 0.97005,-3.55683 z m 6.86219,-8.69448 h 4.05982 v 1.36525 q 1.61675,-1.61674 4.27539,-1.61674 2.83828,0 4.59873,1.97602 1.79638,1.94009 1.83231,5.06579 v 10.6705 h -4.31131 v -10.45494 q 0,-1.40117 -0.86227,-2.29936 -0.82633,-0.89819 -2.26343,-0.89819 -1.2934,0 -2.29937,0.97004 -0.97005,0.93412 -0.97005,2.15566 v 10.52679 h -4.05982 z m 32.51452,17.46082 h -4.05982 v -0.75448 q -1.90417,1.07782 -4.31132,1.07782 -3.08977,0 -4.70651,-1.72452 -1.61674,-1.76045 -1.61674,-4.4191 0,-2.73049 1.90416,-4.23945 1.94009,-1.50896 4.85023,-1.50896 1.97601,0 3.84425,0.53891 -0.0719,-2.7305 -2.98199,-2.91013 -2.15566,-0.0359 -4.23946,1.25746 l -2.01194,-3.19755 q 3.23348,-2.11973 6.32325,-2.11973 2.98199,0 4.99394,2.04787 2.01195,2.04787 2.01195,5.31729 z m -4.05982,-4.27539 v -2.94606 q -2.0838,-0.57484 -3.66462,-0.57484 -1.47303,0 -2.29936,0.64669 -0.82634,0.6467 -0.82634,1.54489 0,0.93412 0.79041,1.61674 0.7904,0.68263 2.22751,0.68263 1.61674,0 3.7724,-0.97005 z"
         id="path3" />
      <path
         d="m 315.67439,197.5135 h -4.8143 l -3.88018,-9.44895 h -6.39512 v 9.44895 h -4.31131 v -24.07149 h 11.0657 q 2.37122,0 4.13168,1.00597 3.70054,2.15566 3.70054,6.35919 0,4.27538 -3.88018,6.39511 z m -4.8143,-16.70633 q 0,-1.40118 -0.93412,-2.22751 -0.93412,-0.82634 -2.51493,-0.82634 h -6.82625 v 5.99991 h 6.82625 q 1.58081,0 2.51493,-0.7904 0.93412,-0.82634 0.93412,-2.15566 z m 23.53255,16.70633 h -4.05982 v -1.36524 q -1.61674,1.61674 -4.27538,1.61674 -2.83829,0 -4.63467,-1.94009 -1.76045,-1.97602 -1.79638,-5.10172 v -10.6705 h 4.31132 v 10.45493 q 0,1.40118 0.82633,2.29937 0.86226,0.89819 2.29937,0.89819 1.29339,0 2.26344,-0.93412 1.00597,-0.97004 1.00597,-2.19158 v -10.52679 h 4.05982 z m 18.14347,-8.69448 q 0,3.62869 -1.83231,6.39512 -1.79638,2.7305 -5.42507,2.76642 -1.86823,-0.0359 -3.19756,-1.25746 v 0.7904 h -4.31131 v -22.31104 l 4.31131,-2.15565 v 7.65258 q 1.2934,-1.0419 3.34127,-1.07783 3.34127,0 5.2095,2.83828 1.90417,2.80235 1.90417,6.35918 z m -3.91611,-0.0718 q 0,-2.19158 -0.97005,-3.55683 -0.93412,-1.36525 -2.65864,-1.36525 -1.90416,0.10778 -2.91014,1.65267 v 6.68253 q 0.86227,1.47303 2.83828,1.54489 1.65267,0 2.65865,-1.40118 1.0419,-1.4371 1.0419,-3.55683 z m 6.61065,-10.0238 2.47901,-4.92208 h 4.67059 l -4.38317,4.92208 z m 5.74842,1.22154 v 17.56859 h -4.31131 v -17.56859 z"
         id="path4" />
    </g>
    <path
       d="M 85.984019,84.197329 Q 82.016016,90.512 74.933344,90.512 q -5.589337,0 -8.874673,-4.053336 -3.242669,-4.053336 -3.242669,-10.794675 0,-6.784005 3.242669,-10.752008 3.242669,-3.968003 8.874673,-3.968003 7.125339,0 11.050675,6.314672 l -4.65067,2.304001 q -2.218668,-3.413335 -6.400005,-3.541336 -3.242669,0.08533 -5.077337,2.901336 -1.834668,2.773335 -1.834668,6.656005 0,4.608003 1.877335,7.168005 1.920001,2.517335 5.120004,2.517335 4.26667,-0.04267 6.186671,-3.456002 z m 13.397312,-6.229338 h -9.472007 v -5.120004 h 9.472007 z m 26.197339,2.218668 q 0,4.480004 -3.37067,7.424006 -3.37067,2.901335 -8.66134,2.901335 -5.76,0 -11.00801,-3.200002 l 2.688,-4.309337 q 3.96801,2.261335 8.32001,2.346669 3.28534,0.04267 5.20534,-1.450668 1.92,-1.536001 1.92,-3.754669 0.0853,-2.346669 -1.74934,-3.75467 -1.83466,-1.450668 -4.736,-1.493334 -3.072,0.04267 -6.144,1.322667 l -4.43734,-1.280001 0.72533,-13.525343 h 19.07202 v 5.077337 h -14.29335 l -0.256,4.181337 q 2.56001,-0.768001 5.50401,-0.810668 4.90667,0 8.064,2.944003 3.15734,2.901335 3.15734,7.381338 z m 27.09336,0.682668 q -0.0427,4.52267 -3.02934,7.082671 -2.98666,2.560002 -8.49067,2.560002 -5.248,0 -8.40534,-2.602668 -3.11467,-2.645336 -3.11467,-7.040005 0.0427,-4.736004 3.32801,-6.741339 -2.43201,-2.005335 -2.43201,-5.376004 0,-3.541336 2.94401,-5.674671 2.944,-2.133335 7.68,-2.133335 4.82134,0 7.72267,2.133335 2.90134,2.133335 2.90134,5.674671 0.0853,3.328003 -2.38934,5.290671 3.20001,2.005335 3.28534,6.826672 z m -6.016,-12.330676 q 0,-2.901336 -5.54667,-2.986669 -5.46134,0.08533 -5.46134,2.986669 0,2.986669 5.54667,3.072002 5.46134,-0.08533 5.46134,-3.072002 z m 0.93866,12.458676 q 0.0427,-4.352004 -6.44267,-4.437337 -6.35734,0.04267 -6.4,4.437337 0,4.480003 6.44267,4.693336 6.22934,-0.128 6.4,-4.693336 z"
       id="text3313"
       style="font-size:42.6667px;line-height:25px;font-family:'Highway Gothic Wide';-inkscape-font-specification:'Highway Gothic Wide';letter-spacing:0px;word-spacing:0px;fill:#ffffff;stroke-width:1px"
       aria-label="C-58" />
    <path
       d="m 357.98402,85.197329 q -3.968,6.314671 -11.05068,6.314671 -5.58933,0 -8.87467,-4.053336 -3.24267,-4.053336 -3.24267,-10.794675 0,-6.784005 3.24267,-10.752008 3.24267,-3.968003 8.87467,-3.968003 7.12534,0 11.05068,6.314672 l -4.65067,2.304001 q -2.21867,-3.413335 -6.40001,-3.541336 -3.24266,0.08533 -5.07733,2.901336 -1.83467,2.773335 -1.83467,6.656005 0,4.608003 1.87733,7.168005 1.92001,2.517335 5.12001,2.517335 4.26667,-0.04267 6.18667,-3.456002 z m 13.39731,-6.229338 h -9.47201 v -5.120004 h 9.47201 z M 384.39466,91 h -5.03467 V 69.623984 h -3.584 v -4.309336 q 3.11467,-0.640001 4.52267,-2.901336 h 4.096 z m 28.37333,-8.320006 q 0,3.840003 -3.072,6.357338 -3.02934,2.474668 -7.85067,2.474668 -5.12001,0 -8.61868,-2.901335 -3.49866,-2.944002 -3.49866,-8.234673 0.0853,-7.040005 5.54667,-12.672009 5.504,-5.632005 13.48267,-5.760005 v 4.821337 q -8.91734,1.408001 -12.54401,8.234673 2.64534,-0.938667 5.84534,-0.938667 4.65067,0 7.68001,2.432002 3.02933,2.432001 3.02933,6.186671 z m -5.07733,0.04267 q 0,-1.664001 -1.66401,-2.645335 -1.664,-1.024001 -4.352,-1.024001 -2.90133,0 -4.48,0.896001 -1.536,0.853334 -1.49334,2.432002 -0.128,1.664001 1.57867,2.816002 1.70667,1.109334 4.39467,1.109334 2.688,0 4.352,-0.981334 1.66401,-1.024001 1.66401,-2.602669 z"
       id="text3313-0"
       style="font-size:42.6667px;line-height:25px;font-family:'Highway Gothic Wide';-inkscape-font-specification:'Highway Gothic Wide';letter-spacing:0px;word-spacing:0px;fill:#ffffff;stroke-width:1px"
       aria-label="C-16" />
  </g>
  <g
     inkscape:groupmode="layer"
     id="layer7"
     inkscape:label="Layer 5"
     transform="translate(-0.0149,56.465948)">
    <path
       style="display:inline;fill:#ffffff;fill-opacity:1;stroke-width:1"
       d="m 189.44224,-28.284272 v -28.181676 h 133.64761 v 28.181676 28.18167198 H 189.44224 Z"
       id="path2390-0"
       sodipodi:nodetypes="ccccccc"
       inkscape:connector-curvature="0" />
    <path
       sodipodi:nodetypes="ccccccccccsscccsccccccccsssccccssscccccsssscccc"
       id="path2384-0"
       d="m 189.44224,-28.284272 v -28.181676 h 66.8238 66.82381 v 28.181676 28.18167198 h -66.82381 -66.8238 z M 312.93705,-1.68001 c 1.27273,-0.36875 3.08029,-1.22543 4.05856,-1.92352 2.10334,-1.50091 3.74744,-4.13666 4.30391,-6.89991 0.17717,-0.8798 0.19426,-2.77825 0.16342,-18.150026 l -0.0345,-17.16744 -0.33927,-1.081523 c -0.81967,-2.613167 -2.32854,-4.747949 -4.31524,-6.105444 -0.90735,-0.619971 -2.78079,-1.465618 -3.92058,-1.769686 l -1.02392,-0.273152 H 256.20447 200.5795 l -1.08951,0.341575 c -4.05041,1.269824 -6.56076,3.719477 -7.91039,7.719122 l -0.35297,1.046044 -0.0381,17.10591 c -0.0277,12.40635 4.6e-4,17.35351 0.1027,18.00714 0.23996,1.53562 0.97003,3.35665 1.88356,4.69818 1.50523,2.21048 4.19152,3.93602 7.09708,4.5588 1.00407,0.21521 3.26593,0.2233 56.36335,0.20169 l 55.3173,-0.0225 z m -111.0038,-2.24017 c -4.50195,-0.48993 -7.62821,-3.50099 -8.17671,-7.87541 -0.17738,-1.41457 -0.17921,-31.425081 -0.002,-32.838263 0.2644,-2.108703 0.99454,-3.696379 2.3705,-5.154626 1.18356,-1.254343 2.58193,-2.040084 4.50413,-2.530836 l 1.05796,-0.270116 h 54.64045 54.64047 l 1.05796,0.270116 c 1.35063,0.344837 2.28548,0.760361 3.23337,1.437203 2.14655,1.53275 3.35442,3.662941 3.65258,6.441641 0.0857,0.798587 0.11483,6.548709 0.0866,17.079179 -0.039,14.515692 -0.0607,15.942002 -0.25325,16.654542 -0.92359,3.41671 -3.16629,5.62938 -6.66965,6.58034 l -0.9845,0.26723 -54.14821,0.0164 c -29.78151,0.009 -54.53585,-0.0258 -55.00964,-0.0774 z"
       style="display:inline;fill:#000080;fill-opacity:1;stroke-width:1"
       inkscape:connector-curvature="0" />
    <text
       xml:space="preserve"
       style="font-size:46.7504px;line-height:27.3928px;font-family:'Andale Mono IPA';-inkscape-font-specification:'Andale Mono IPA';letter-spacing:0px;word-spacing:0px;fill:none;stroke:#000000;stroke-width:0.999996px;stroke-linecap:butt;stroke-linejoin:miter;stroke-opacity:1"
       x="212.53751"
       y="-12.369359"
       id="text850"
       transform="scale(0.98997865,1.0101228)"><tspan
         sodipodi:role="line"
         id="tspan848"
         x="212.53751"
         y="-12.369359"
         style="font-style:normal;font-variant:normal;font-weight:bold;font-stretch:normal;font-family:'Highway Gothic Wide';-inkscape-font-specification:'Highway Gothic Wide Bold';fill:#ffffff;stroke:none;stroke-width:0.999996px"><tspan
           style="font-style:normal;font-variant:normal;font-weight:bold;font-stretch:normal;font-family:'Caracteres L4';-inkscape-font-specification:'Caracteres L4 Bold'"
           id="tspan3981">2 km</tspan></tspan></text>
  </g>
</svg>
