<?xml version="1.0" encoding="UTF-8" standalone="no"?>
<svg
   width="738.3045"
   height="478"
   id="svg3272"
   version="1.1"
   inkscape:version="1.3.2 (091e20e, 2023-11-25, custom)"
   sodipodi:docname="ES_CAT_ID400.svg"
   xmlns:inkscape="http://www.inkscape.org/namespaces/inkscape"
   xmlns:sodipodi="http://sodipodi.sourceforge.net/DTD/sodipodi-0.dtd"
   xmlns="http://www.w3.org/2000/svg"
   xmlns:svg="http://www.w3.org/2000/svg"
   xmlns:rdf="http://www.w3.org/1999/02/22-rdf-syntax-ns#"
   xmlns:cc="http://creativecommons.org/ns#"
   xmlns:dc="http://purl.org/dc/elements/1.1/">
  <defs
     id="defs3274" />
  <sodipodi:namedview
     id="base"
     pagecolor="#ffffff"
     bordercolor="#666666"
     borderopacity="1.0"
     inkscape:pageopacity="0.0"
     inkscape:pageshadow="2"
     inkscape:zoom="0.70710678"
     inkscape:cx="528.91587"
     inkscape:cy="366.98842"
     inkscape:document-units="px"
     inkscape:current-layer="layer2"
     showgrid="false"
     fit-margin-top="0"
     fit-margin-left="0"
     fit-margin-right="0"
     fit-margin-bottom="0"
     inkscape:window-width="1920"
     inkscape:window-height="1017"
     inkscape:window-x="-8"
     inkscape:window-y="-8"
     inkscape:window-maximized="1"
     inkscape:document-rotation="0"
     inkscape:showpageshadow="false"
     inkscape:pagecheckerboard="true"
     inkscape:deskcolor="#d1d1d1" />
  <metadata
     id="metadata3277">
    <rdf:RDF>
      <cc:Work
         rdf:about="">
        <dc:format>image/svg+xml</dc:format>
        <dc:type
           rdf:resource="http://purl.org/dc/dcmitype/StillImage" />
        <dc:title />
      </cc:Work>
    </rdf:RDF>
  </metadata>
  <g
     inkscape:label="Capa 1"
     inkscape:groupmode="layer"
     id="layer1"
     transform="translate(244.4286,-504.79077)"
     style="display:inline">
    <g
       inkscape:groupmode="layer"
       id="layer12"
       inkscape:label="E-80">
      <rect
         style="fill:#008000;stroke:#ffffff;stroke-width:20;stroke-linecap:round;stroke-linejoin:round;stroke-miterlimit:3.864;stroke-dasharray:none"
         id="rect9789"
         width="718.3045"
         height="458"
         x="-234.4286"
         y="514.79077"
         ry="74.953316"
         rx="74.953316" />
    </g>
  </g>
  <g
     inkscape:groupmode="layer"
     id="layer2"
     inkscape:label="Capa 2"
     style="display:inline"
     transform="translate(10.000013,9.9999805)">
    <path
       style="font-weight:bold;font-size:379.886px;line-height:222.59px;font-family:TrafficTypeW01-SpainD;-inkscape-font-specification:'TrafficTypeW01-SpainD Bold';letter-spacing:0px;word-spacing:0px;fill:#ffffff;stroke-width:0.999996px"
       d="m 274.39504,145.17665 h -116.625 v 45.9662 H 261.8588 v 53.18404 H 157.77004 v 47.86564 h 128.02158 v 55.84324 H 99.647483 V 94.651814 H 274.39504 Z m 129.16099,138.2785 h -87.37377 v -48.24552 h 87.37377 z M 542.59467,144.03699 q -15.57532,0 -25.07247,9.87704 -9.11727,9.87703 -9.11727,26.59202 0,17.47475 9.11727,27.73167 9.11726,9.87704 25.07247,9.87704 15.95521,0 25.07248,-9.87704 9.11726,-10.25692 9.11726,-27.35179 0,-17.09487 -9.11726,-26.9719 -9.11727,-9.87704 -25.07248,-9.87704 z m -31.53053,132.9601 q 6.83794,21.6535 30.01099,21.6535 8.35749,0 15.57532,-3.03909 7.21784,-3.03909 12.53624,-8.35749 5.31841,-5.69829 8.35749,-12.91612 3.41898,-7.21784 3.79886,-15.57533 -8.73737,6.45806 -20.89373,10.25692 -11.77646,3.41898 -25.07247,3.41898 -18.23453,0 -33.80985,-6.83795 -15.19544,-6.83795 -26.59202,-18.61442 -11.0167,-12.15635 -17.47476,-28.87133 -6.07817,-16.71498 -6.07817,-36.08917 0,-20.51384 6.45806,-37.22883 6.45806,-17.09487 17.85464,-29.25122 11.77647,-12.15635 28.11156,-18.994296 16.3351,-6.837948 36.08917,-6.837948 23.93282,0 42.54723,9.49715 18.9943,9.117264 31.91042,26.971904 13.29601,17.47476 20.13396,42.92712 6.83795,25.45236 6.83795,57.36278 0,34.56963 -7.97761,60.40187 -7.59772,25.45236 -23.55293,41.02769 -11.77646,11.77646 -29.6311,18.61441 -17.47476,6.45806 -37.9886,6.45806 -20.51385,0 -38.74837,-6.45806 -17.85464,-6.83795 -28.87134,-18.9943 -4.93852,-5.3184 -8.73738,-11.77646 -3.79886,-6.83795 -7.9776,-17.09487 z"
       id="text850"
       transform="scale(0.98997864,1.0101228)"
       aria-label="E-9" />
  </g>
</svg>
