<?xml version="1.0" encoding="UTF-8" standalone="no"?>
<svg
   version="1.2"
   width="347.34406"
   height="180.26683"
   id="svg2"
   sodipodi:docname="ES_CAT_LOC512a.svg"
   inkscape:version="1.3.2 (091e20e, 2023-11-25, custom)"
   xmlns:inkscape="http://www.inkscape.org/namespaces/inkscape"
   xmlns:sodipodi="http://sodipodi.sourceforge.net/DTD/sodipodi-0.dtd"
   xmlns="http://www.w3.org/2000/svg"
   xmlns:svg="http://www.w3.org/2000/svg"
   xmlns:rdf="http://www.w3.org/1999/02/22-rdf-syntax-ns#"
   xmlns:cc="http://creativecommons.org/ns#"
   xmlns:dc="http://purl.org/dc/elements/1.1/">
  <sodipodi:namedview
     pagecolor="#ffffff"
     bordercolor="#666666"
     borderopacity="1"
     objecttolerance="10"
     gridtolerance="10"
     guidetolerance="10"
     inkscape:pageopacity="0"
     inkscape:pageshadow="2"
     inkscape:window-width="1920"
     inkscape:window-height="1017"
     id="namedview906"
     showgrid="false"
     inkscape:zoom="2.8284271"
     inkscape:cx="140.3607"
     inkscape:cy="52.856232"
     inkscape:window-x="-8"
     inkscape:window-y="-8"
     inkscape:window-maximized="1"
     inkscape:current-layer="layer3"
     fit-margin-top="0"
     fit-margin-left="0"
     fit-margin-right="0"
     fit-margin-bottom="0"
     inkscape:document-rotation="0"
     inkscape:showpageshadow="false"
     inkscape:pagecheckerboard="true"
     inkscape:deskcolor="#d1d1d1" />
  <metadata
     id="metadata3197">
    <rdf:RDF>
      <cc:Work
         rdf:about="">
        <dc:format>image/svg+xml</dc:format>
        <dc:type
           rdf:resource="http://purl.org/dc/dcmitype/StillImage" />
        <dc:title />
      </cc:Work>
    </rdf:RDF>
  </metadata>
  <defs
     id="defs3195" />
  <path
     d="m 346.83634,160.56721 c 0,17.41595 5.06683,19.7309 -16.81215,19.6993 L 26.459069,179.82803 C 4.5800916,179.79643 -0.04990732,182.80634 4.0368303e-4,165.39047 L 0.43888168,13.604842 C 0.48921168,-3.818999 -2.8740323,0.45310498 19.004946,0.48430298 l 307.511424,0.438478 c 21.87899,0.0312 20.81203,-0.356196 20.75845,17.06684002 l -0.43848,142.577589"
     id="path3113"
     style="display:inline;fill:#ffffff;stroke-width:1"
     sodipodi:nodetypes="csssssssc" />
  <g
     inkscape:groupmode="layer"
     id="layer1"
     inkscape:label="Layer 4"
     transform="translate(8.3029116e-8,-3.4402216e-4)"
     style="display:inline">
    <path
       style="fill:#808080;fill-rule:evenodd;stroke:#808080;stroke-width:4;stroke-linecap:butt;stroke-linejoin:miter;stroke-miterlimit:4;stroke-dasharray:none;stroke-opacity:1"
       d="M 10.253048,168.7887 336.22927,10.39677"
       id="path2697"
       sodipodi:nodetypes="cc" />
  </g>
  <g
     inkscape:groupmode="layer"
     id="layer5"
     inkscape:label="Layer 3"
     transform="translate(4.0368303e-4,0.04582498)"
     style="display:inline">
    <text
       xml:space="preserve"
       style="font-size:42.6667px;line-height:25px;font-family:'Andale Mono IPA';-inkscape-font-specification:'Andale Mono IPA';letter-spacing:0px;word-spacing:0px;fill:none;stroke:#000000;stroke-width:1px;stroke-linecap:butt;stroke-linejoin:miter;stroke-opacity:1"
       x="133.73573"
       y="169.69092"
       id="text1522"><tspan
         sodipodi:role="line"
         id="tspan1520"
         x="133.73573"
         y="169.69092" /></text>
    <path
       d="m 337.83352,158.18939 c 0,18.396 2.96059,14.89693 -15.56241,14.89693 H 27.862709 c -18.5249997,0 -19.5107087,2.18264 -19.5107087,-16.21236 V 23.925363 c 0,-18.4000012 -0.768202,-16.2143652 17.7567977,-16.2143652 h 293.980022 0.42838 c 18.523,0 17.31632,-2.624113 17.31632,15.7758872 z"
       id="path3115"
       style="display:inline;fill:none;stroke:#000000;stroke-width:7.0629;stroke-miterlimit:3.864"
       sodipodi:nodetypes="sssssscsss" />
  </g>
  <g
     inkscape:groupmode="layer"
     id="layer3"
     inkscape:label="Layer 1"
     transform="translate(4.0368303e-4,0.04582498)"
     style="display:inline">
    <path
       style="font-size:48px;line-height:28.125px;font-family:TrafficTypeW01-SpainD;-inkscape-font-specification:TrafficTypeW01-SpainD;letter-spacing:1px;word-spacing:0px;stroke:#000000;stroke-width:1px"
       d="m 107.25398,64.838745 q -1.968,4.848 -5.76,7.488 -3.791997,2.592 -8.879997,2.592 -3.504,0 -6.384,-1.2 -2.88,-1.248 -4.992,-3.456 -2.064,-2.208 -3.216,-5.28 -1.152,-3.072 -1.152,-6.816 0,-3.6 1.056,-6.576 1.056,-3.024 3.168,-5.232 2.16,-2.304 5.136,-3.504 2.976,-1.248 6.288,-1.248 5.184,0 9.023997,2.64 3.84,2.64 5.664,7.44 l -7.679997,2.736 q -0.768,-2.592 -2.64,-4.032 -1.824,-1.44 -4.416,-1.44 -1.728,0 -3.12,0.672 -1.392,0.624 -2.4,1.872 -1.008,1.2 -1.536,2.928 -0.528,1.68 -0.528,3.792 0,4.416 2.064,6.816 1.008,1.2 2.496,1.872 1.536,0.672 3.168,0.672 2.592,0 4.464,-1.536 1.92,-1.584 2.448,-4.08 z m 16.74397,-0.528 q -0.672,0.192 -1.2,0.288 -0.48,0.096 -1.248,0.24 -1.104,0.192 -1.824,0.384 -0.72,0.144 -1.152,0.336 -0.384,0.192 -0.528,0.48 -0.144,0.288 -0.144,0.672 0,0.816 0.72,1.344 0.72,0.48 1.872,0.48 1.92,0 2.976,-0.96 0.336,-0.288 0.432,-0.576 0.096,-0.288 0.096,-1.008 z m 7.344,10.272 q -2.352,-0.192 -3.696,-0.624 -1.296,-0.48 -2.16,-1.44 -1.584,1.104 -3.072,1.584 -1.488,0.48 -3.168,0.48 -1.824,0 -3.408,-0.576 -1.536,-0.624 -2.688,-1.632 -1.152,-1.056 -1.824,-2.448 -0.624,-1.392 -0.624,-2.976 0,-5.904 7.584,-7.296 l 4.704,-0.816 q 0.816,-0.144 0.816,-0.576 0,-0.672 -0.912,-1.104 -0.864,-0.432 -2.256,-0.432 -1.536,0 -3.12,0.72 -1.584,0.672 -2.976,1.92 l -3.36,-5.28 q 2.016,-1.776 4.56,-2.736 2.592,-0.96 5.472,-0.96 2.16,0 3.984,0.528 1.824,0.48 3.12,1.392 1.344,0.912 2.112,2.112 0.768,1.2 0.768,2.64 v 10.656 q 0,1.152 1.728,1.152 0.096,0 0.24,0 0.192,0 0.432,-0.048 z m 21.44802,-15.696 q -2.16,-2.256 -5.088,-2.256 -1.008,0 -1.728,0.288 -0.672,0.288 -0.672,0.72 0,0.432 1.344,0.768 l 4.272,1.008 q 6.48,1.44 6.48,7.296 0,1.728 -0.672,3.168 -0.672,1.392 -1.92,2.448 -1.248,1.008 -2.976,1.584 -1.728,0.528 -3.792,0.528 -1.68,0 -3.36,-0.336 -1.632,-0.336 -3.168,-0.912 -1.536,-0.624 -2.88,-1.44 -1.344,-0.864 -2.352,-1.92 l 4.8,-4.464 q 0.528,0.576 1.344,1.104 0.864,0.48 1.824,0.864 0.96,0.384 1.92,0.624 1.008,0.24 1.824,0.24 0.768,0 1.296,-0.336 0.576,-0.336 0.576,-0.864 0,-0.384 -0.432,-0.624 -0.432,-0.288 -1.536,-0.528 l -4.224,-1.008 q -2.736,-0.672 -4.224,-2.4 -1.488,-1.728 -1.488,-4.272 0,-1.68 0.624,-3.12 0.672,-1.44 1.824,-2.448 1.2,-1.056 2.784,-1.632 1.632,-0.576 3.552,-0.576 2.832,0 5.472,0.912 2.64,0.912 4.896,2.64 z m 24.90403,-7.968 v 6.24 h -5.712 v 8.64 q 0,1.92 1.92,1.92 1.776,0 3.168,-0.672 l 1.248,6.24 q -1.248,0.528 -2.976,0.816 -1.728,0.336 -3.552,0.336 -3.408,0 -5.376,-1.584 -1.968,-1.632 -1.968,-4.464 v -11.232 h -3.696 v -6.24 h 3.696 v -7.392 l 7.536,-1.92 v 9.312 z m 17.75194,8.496 q -0.336,-1.392 -1.44,-2.208 -1.056,-0.864 -2.496,-0.864 -1.44,0 -2.544,0.864 -1.056,0.816 -1.392,2.208 z m -7.872,5.424 q 0.384,1.584 1.584,2.496 1.2,0.864 3.024,0.864 1.536,0 2.928,-0.624 1.392,-0.624 2.544,-1.776 l 4.8,4.8 q -0.816,0.864 -2.016,1.584 -1.152,0.72 -2.544,1.296 -1.344,0.528 -2.832,0.816 -1.44,0.288 -2.784,0.288 -2.496,0 -4.704,-0.816 -2.208,-0.864 -3.84,-2.448 -3.504,-3.36 -3.504,-9.072 0,-2.688 0.72,-4.704 0.768,-2.016 2.4,-3.696 1.632,-1.68 3.696,-2.544 2.112,-0.912 4.512,-0.912 2.688,0 5.04,1.2 2.4,1.152 3.936,3.264 1.104,1.392 1.68,3.648 0.624,2.256 0.624,4.704 0,0.384 -0.048,0.768 0,0.336 -0.096,0.864 z m 26.632,-22.752 v 24.336 q 0,0.912 0.336,1.296 0.384,0.336 1.248,0.336 1.248,0 2.4,-0.528 l 0.672,6.576 q -0.864,0.144 -2.16,0.24 -1.248,0.096 -2.496,0.096 -1.824,0 -3.072,-0.336 -1.2,-0.336 -2.16,-1.152 -1.008,-0.816 -1.584,-2.016 -0.528,-1.2 -0.528,-2.544 v -26.304 z m 15.73596,0 v 24.336 q 0,0.912 0.336,1.296 0.384,0.336 1.248,0.336 1.248,0 2.4,-0.528 l 0.672,6.576 q -0.864,0.144 -2.16,0.24 -1.248,0.096 -2.496,0.096 -1.824,0 -3.072,-0.336 -1.2,-0.336 -2.16,-1.152 -1.008,-0.816 -1.584,-2.016 -0.528,-1.2 -0.528,-2.544 v -26.304 z m 20.72796,32.016 h -8.352 l -7.584,-23.376 h 7.536 l 4.224,13.632 4.224,-13.632 h 7.536 z m 22.02398,-32.544 -4.272,7.488 h -5.76 l 2.688,-7.488 z m -3.648,32.544 h -7.2 v -23.184 h 7.2 z"
       id="text1502"
       aria-label=" Castellví &#10;&#10;" />
    <text
       xml:space="preserve"
       style="font-style:normal;font-variant:normal;font-weight:normal;font-stretch:normal;font-size:29.3333px;line-height:17.1875px;font-family:Ccrige;-inkscape-font-specification:Ccrige;letter-spacing:3px;word-spacing:0px;fill:#000000;stroke:#000000;stroke-width:1px;stroke-linecap:butt;stroke-linejoin:miter;stroke-opacity:1"
       x="132.0011"
       y="132.75752"
       id="text1502-7"><tspan
         sodipodi:role="line"
         id="tspan1500-8"
         x="132.0011"
         y="132.75752"
         style="letter-spacing:3px" /></text>
    <text
       xml:space="preserve"
       style="font-size:42.6667px;line-height:25px;font-family:Haettenschweiler;-inkscape-font-specification:Haettenschweiler;letter-spacing:0px;word-spacing:0px;fill:none;stroke:#000000;stroke-width:1px;stroke-linecap:butt;stroke-linejoin:miter;stroke-opacity:1"
       x="20.608053"
       y="111.3272"
       id="text1442"><tspan
         sodipodi:role="line"
         id="tspan1440"
         x="20.608053"
         y="111.3272" /></text>
    <path
       style="font-size:48px;line-height:28.125px;font-family:TrafficTypeW01-SpainD;-inkscape-font-specification:TrafficTypeW01-SpainD;letter-spacing:1px;word-spacing:0px;stroke:#000000;stroke-width:1px"
       d="m 53.816396,136.63319 q 0,0.96 0.336,1.776 0.384,0.816 1.008,1.488 0.672,0.624 1.488,1.008 0.864,0.336 1.824,0.336 0.912,0 1.728,-0.336 0.864,-0.384 1.488,-1.008 0.672,-0.672 1.008,-1.488 0.384,-0.816 0.384,-1.776 v -1.968 q 0,-0.912 -0.384,-1.728 -0.336,-0.864 -1.008,-1.488 -0.624,-0.672 -1.488,-1.008 -0.816,-0.384 -1.776,-0.384 -0.96,0 -1.776,0.384 -0.816,0.336 -1.488,1.008 -0.624,0.624 -1.008,1.488 -0.336,0.816 -0.336,1.728 z m 16.464,-21.312 v 32.016 h -6.576 l -0.48,-1.008 q -1.248,0.816 -2.496,1.152 -1.248,0.336 -2.784,0.336 -5.04,0 -8.496,-4.128 -1.488,-1.824 -2.16,-3.648 -0.672,-1.872 -0.672,-4.272 0,-4.896 2.832,-8.256 1.632,-1.872 3.936,-2.928 2.304,-1.104 4.656,-1.104 1.392,0 2.544,0.336 1.152,0.288 2.496,1.056 v -9.552 z m 19.479974,17.328 q -0.336,-1.392 -1.44,-2.208 -1.056,-0.864 -2.496,-0.864 -1.44,0 -2.544,0.864 -1.056,0.816 -1.392,2.208 z m -7.872,5.424 q 0.384,1.584 1.584,2.496 1.2,0.864 3.024,0.864 1.536,0 2.928,-0.624 1.392,-0.624 2.544,-1.776 l 4.8,4.8 q -0.816,0.864 -2.016,1.584 -1.152,0.72 -2.544,1.296 -1.344,0.528 -2.832,0.816 -1.44,0.288 -2.784,0.288 -2.496,0 -4.704,-0.816 -2.208,-0.864 -3.84,-2.448 -3.504,-3.36 -3.504,-9.072 0,-2.688 0.72,-4.704 0.768,-2.016 2.4,-3.696 1.632,-1.68 3.696,-2.544 2.112,-0.912 4.512,-0.912 2.688,0 5.04,1.2 2.4,1.152 3.936,3.264 1.104,1.392 1.68,3.648 0.624,2.256 0.624,4.704 0,0.384 -0.048,0.768 0,0.336 -0.096,0.864 z m 40.73603,-22.752 v 24.336 q 0,0.912 0.336,1.296 0.384,0.336 1.248,0.336 1.248,0 2.4,-0.528 l 0.672,6.576 q -0.864,0.144 -2.16,0.24 -1.248,0.096 -2.496,0.096 -1.824,0 -3.072,-0.336 -1.2,-0.336 -2.16,-1.152 -1.008,-0.816 -1.584,-2.016 -0.528,-1.2 -0.528,-2.544 v -26.304 z m 20.05597,22.224 q -0.672,0.192 -1.2,0.288 -0.48,0.096 -1.248,0.24 -1.104,0.192 -1.824,0.384 -0.72,0.144 -1.152,0.336 -0.384,0.192 -0.528,0.48 -0.144,0.288 -0.144,0.672 0,0.816 0.72,1.344 0.72,0.48 1.872,0.48 1.92,0 2.976,-0.96 0.336,-0.288 0.432,-0.576 0.096,-0.288 0.096,-1.008 z m 7.344,10.272 q -2.352,-0.192 -3.696,-0.624 -1.296,-0.48 -2.16,-1.44 -1.584,1.104 -3.072,1.584 -1.488,0.48 -3.168,0.48 -1.824,0 -3.408,-0.576 -1.536,-0.624 -2.688,-1.632 -1.152,-1.056 -1.824,-2.448 -0.624,-1.392 -0.624,-2.976 0,-5.904 7.584,-7.296 l 4.704,-0.816 q 0.816,-0.144 0.816,-0.576 0,-0.672 -0.912,-1.104 -0.864,-0.432 -2.256,-0.432 -1.536,0 -3.12,0.72 -1.584,0.672 -2.976,1.92 l -3.36,-5.28 q 2.016,-1.776 4.56,-2.736 2.592,-0.96 5.472,-0.96 2.16,0 3.984,0.528 1.824,0.48 3.12,1.392 1.344,0.912 2.112,2.112 0.768,1.2 0.768,2.64 v 10.656 q 0,1.152 1.728,1.152 0.096,0 0.24,0 0.192,0 0.432,-0.048 z m 47.50405,-32.496 h 8.016 v 32.016 h -7.2 v -20.64 l -8.928,12.624 -8.976,-12.624 v 20.64 h -7.2 v -32.016 h 8.016 l 7.968,11.376 z m 27.83203,22.224 q -0.672,0.192 -1.2,0.288 -0.48,0.096 -1.248,0.24 -1.104,0.192 -1.824,0.384 -0.72,0.144 -1.152,0.336 -0.384,0.192 -0.528,0.48 -0.144,0.288 -0.144,0.672 0,0.816 0.72,1.344 0.72,0.48 1.872,0.48 1.92,0 2.976,-0.96 0.336,-0.288 0.432,-0.576 0.096,-0.288 0.096,-1.008 z m 7.344,10.272 q -2.352,-0.192 -3.696,-0.624 -1.296,-0.48 -2.16,-1.44 -1.584,1.104 -3.072,1.584 -1.488,0.48 -3.168,0.48 -1.824,0 -3.408,-0.576 -1.536,-0.624 -2.688,-1.632 -1.152,-1.056 -1.824,-2.448 -0.624,-1.392 -0.624,-2.976 0,-5.904 7.584,-7.296 l 4.704,-0.816 q 0.816,-0.144 0.816,-0.576 0,-0.672 -0.912,-1.104 -0.864,-0.432 -2.256,-0.432 -1.536,0 -3.12,0.72 -1.584,0.672 -2.976,1.92 l -3.36,-5.28 q 2.016,-1.776 4.56,-2.736 2.592,-0.96 5.472,-0.96 2.16,0 3.984,0.528 1.824,0.48 3.12,1.392 1.344,0.912 2.112,2.112 0.768,1.2 0.768,2.64 v 10.656 q 0,1.152 1.728,1.152 0.096,0 0.24,0 0.192,0 0.432,-0.048 z m 14.34402,-23.856 v 1.584 q 1.392,-1.104 2.784,-1.584 1.44,-0.48 3.12,-0.48 0.384,0 0.672,0.048 0.336,0 0.816,0.048 v 7.44 q -0.528,-0.096 -0.864,-0.144 -0.336,-0.048 -0.768,-0.048 -1.536,0 -2.736,0.48 -1.2,0.48 -1.92,1.296 -0.48,0.528 -0.72,1.2 -0.192,0.624 -0.384,1.824 v 11.712 h -7.344 v -23.376 z m 25.38404,9.696 q -0.384,-1.824 -1.584,-2.832 -1.2,-1.056 -2.88,-1.056 -2.112,0 -3.264,1.536 -1.104,1.488 -1.104,4.32 0,2.88 1.152,4.464 1.2,1.584 3.312,1.584 1.776,0 2.928,-1.008 1.2,-1.056 1.44,-2.88 l 6.288,2.352 q -1.296,3.6 -4.08,5.664 -2.784,2.016 -6.432,2.016 -2.496,0 -4.608,-0.912 -2.064,-0.912 -3.6,-2.544 -1.536,-1.68 -2.4,-3.888 -0.864,-2.256 -0.864,-4.944 0,-2.592 0.816,-4.752 0.864,-2.208 2.304,-3.792 1.488,-1.584 3.504,-2.448 2.064,-0.912 4.464,-0.912 3.696,0 6.432,1.968 2.784,1.92 4.464,5.712 z m 22.312,3.888 q -0.672,0.192 -1.2,0.288 -0.48,0.096 -1.248,0.24 -1.104,0.192 -1.824,0.384 -0.72,0.144 -1.152,0.336 -0.384,0.192 -0.528,0.48 -0.144,0.288 -0.144,0.672 0,0.816 0.72,1.344 0.72,0.48 1.872,0.48 1.92,0 2.976,-0.96 0.336,-0.288 0.432,-0.576 0.096,-0.288 0.096,-1.008 z m 7.344,10.272 q -2.352,-0.192 -3.696,-0.624 -1.296,-0.48 -2.16,-1.44 -1.584,1.104 -3.072,1.584 -1.488,0.48 -3.168,0.48 -1.824,0 -3.408,-0.576 -1.536,-0.624 -2.688,-1.632 -1.152,-1.056 -1.824,-2.448 -0.624,-1.392 -0.624,-2.976 0,-5.904 7.584,-7.296 l 4.704,-0.816 q 0.816,-0.144 0.816,-0.576 0,-0.672 -0.912,-1.104 -0.864,-0.432 -2.256,-0.432 -1.536,0 -3.12,0.72 -1.584,0.672 -2.976,1.92 l -3.36,-5.28 q 2.016,-1.776 4.56,-2.736 2.592,-0.96 5.472,-0.96 2.16,0 3.984,0.528 1.824,0.48 3.12,1.392 1.344,0.912 2.112,2.112 0.768,1.2 0.768,2.64 v 10.656 q 0,1.152 1.728,1.152 0.096,0 0.24,0 0.192,0 0.432,-0.048 z"
       id="text1502-8"
       aria-label="de la Marca &#10;&#10;" />
  </g>
</svg>
