<?xml version="1.0" encoding="UTF-8" standalone="no"?>
<!-- Created with Inkscape (http://www.inkscape.org/) -->

<svg
   version="1.2"
   width="492.3125"
   height="225.03125"
   id="svg2"
   sodipodi:docname="ES_S200_empty.svg"
   inkscape:version="1.3.2 (091e20e, 2023-11-25, custom)"
   xmlns:inkscape="http://www.inkscape.org/namespaces/inkscape"
   xmlns:sodipodi="http://sodipodi.sourceforge.net/DTD/sodipodi-0.dtd"
   xmlns="http://www.w3.org/2000/svg"
   xmlns:svg="http://www.w3.org/2000/svg"
   xmlns:rdf="http://www.w3.org/1999/02/22-rdf-syntax-ns#"
   xmlns:cc="http://creativecommons.org/ns#"
   xmlns:dc="http://purl.org/dc/elements/1.1/">
  <sodipodi:namedview
     id="namedview1"
     pagecolor="#ffffff"
     bordercolor="#000000"
     borderopacity="0.25"
     inkscape:showpageshadow="2"
     inkscape:pageopacity="0.0"
     inkscape:pagecheckerboard="0"
     inkscape:deskcolor="#d1d1d1"
     inkscape:zoom="1.7468579"
     inkscape:cx="246.15625"
     inkscape:cy="112.48768"
     inkscape:window-width="1920"
     inkscape:window-height="1017"
     inkscape:window-x="-8"
     inkscape:window-y="-8"
     inkscape:window-maximized="1"
     inkscape:current-layer="g4288" />
  <metadata
     id="metadata4176">
    <rdf:RDF>
      <cc:Work
         rdf:about="">
        <dc:format>image/svg+xml</dc:format>
        <dc:type
           rdf:resource="http://purl.org/dc/dcmitype/StillImage" />
      </cc:Work>
    </rdf:RDF>
  </metadata>
  <defs
     id="defs4174" />
  <g
     id="g4288">
    <path
       d="m 492.199,195.248 c 0,16.391 -13.289,29.688 -29.691,29.688 H 29.8 c -16.404,0 -29.701,-13.297 -29.701,-29.688 V 29.791 C 0.099,13.391 13.396,0.1 29.8,0.1 h 432.707 c 16.402,0 29.691,13.291 29.691,29.691 v 165.457 z"
       id="path4058"
       style="fill:#ffffff" />
    <path
       d="m 492.199,195.248 c 0,16.391 -13.289,29.688 -29.691,29.688 H 29.8 c -16.404,0 -29.701,-13.297 -29.701,-29.688 V 29.791 C 0.099,13.391 13.396,0.1 29.8,0.1 h 432.707 c 16.402,0 29.691,13.291 29.691,29.691 v 165.457 z"
       id="path4060"
       style="fill:none;stroke:#1c1d20;stroke-width:0.198;stroke-miterlimit:3.86400008" />
    <path
       d="m 485.125,193.593 c 0,13.766 -11.272,24.937 -25.182,24.937 H 31.864 c -13.91,0 -25.185,-11.171 -25.185,-24.937 V 31.445 C 6.679,17.666 17.954,6.51 31.864,6.51 h 428.079 c 13.909,0 25.182,11.155 25.182,24.935 v 162.148 z"
       id="path4072"
       style="fill:none;stroke:#1c1d20;stroke-width:5;stroke-miterlimit:3.86400008" />
  </g>
</svg>
