<?xml version="1.0" encoding="UTF-8" standalone="no"?>
<svg
   version="1.2"
   width="373.85117"
   height="91.108315"
   id="svg2"
   sodipodi:docname="ES_CAT_OR24b.svg"
   inkscape:version="1.3.2 (091e20e, 2023-11-25, custom)"
   xmlns:inkscape="http://www.inkscape.org/namespaces/inkscape"
   xmlns:sodipodi="http://sodipodi.sourceforge.net/DTD/sodipodi-0.dtd"
   xmlns="http://www.w3.org/2000/svg"
   xmlns:svg="http://www.w3.org/2000/svg"
   xmlns:rdf="http://www.w3.org/1999/02/22-rdf-syntax-ns#"
   xmlns:cc="http://creativecommons.org/ns#"
   xmlns:dc="http://purl.org/dc/elements/1.1/">
  <sodipodi:namedview
     pagecolor="#ffffff"
     bordercolor="#666666"
     borderopacity="1"
     objecttolerance="10"
     gridtolerance="10"
     guidetolerance="10"
     inkscape:pageopacity="0"
     inkscape:pageshadow="2"
     inkscape:window-width="1920"
     inkscape:window-height="1017"
     id="namedview5859"
     showgrid="false"
     inkscape:zoom="1.7354414"
     inkscape:cx="187.27224"
     inkscape:cy="73.468342"
     inkscape:window-x="-8"
     inkscape:window-y="-8"
     inkscape:window-maximized="1"
     inkscape:current-layer="g3182"
     fit-margin-top="0"
     fit-margin-left="0"
     fit-margin-right="0"
     fit-margin-bottom="0"
     inkscape:showpageshadow="2"
     inkscape:pagecheckerboard="0"
     inkscape:deskcolor="#d1d1d1" />
  <metadata
     id="metadata3125">
    <rdf:RDF>
      <cc:Work
         rdf:about="">
        <dc:format>image/svg+xml</dc:format>
        <dc:type
           rdf:resource="http://purl.org/dc/dcmitype/StillImage" />
        <dc:title />
      </cc:Work>
    </rdf:RDF>
  </metadata>
  <defs
     id="defs3123" />
  <g
     id="g3182"
     transform="translate(-5.201316,-104.57251)">
    <rect
       style="fill:#ffffff;stroke-width:0"
       id="rect1"
       width="375.1207"
       height="92.195564"
       x="-2.6954544e-07"
       y="-2.3417221e-07"
       transform="translate(5.201316,104.57251)" />
    <path
       d="m 363.05536,180.44186 -9.308,-45.429 -11.492,18.066 -28.457,-32.848 -10.95,10.946 32.84,28.468 -18.062,11.493 45.429,9.304"
       id="polyline3085"
       style="fill:#1c1d20" />
    <path
       d="m 376.522,171.75218 c 0,5.86268 0.24113,14.28526 -0.63631,18.04828 -0.88501,3.79551 -2.91418,2.90646 -8.92592,2.91258 L 17.011951,193.06918 C 5.0439572,193.08136 8.0994571,194.9245 8.163,183.14867 l 0.3561402,-66.00022 c 0.063532,-11.77383 7.2100448,-9.94093 19.1770188,-9.91551 l 335.347071,0.71228 c 11.97197,0.0254 13.47977,-1.85949 13.47977,9.91551 v 53.89145 z"
       id="path3101"
       style="fill:none;stroke:#1c1d20;stroke-width:5;stroke-miterlimit:3.864"
       sodipodi:nodetypes="csssssssscc" />
    <g
       id="g3115">
      <g
         id="g3117" />
    </g>
    <path
       d="m 31.67895,160.70029 h 4.693337 q 1.408001,0 2.602669,-0.59733 1.194667,-0.59734 2.005335,-1.664 0.853334,-1.10934 1.322667,-2.60267 0.469334,-1.536 0.469334,-3.37067 0,-1.83467 -0.469334,-3.37067 -0.469333,-1.536 -1.322667,-2.60267 -0.810668,-1.10933 -2.005335,-1.70667 -1.194668,-0.59733 -2.602669,-0.59733 H 31.67895 Z m 4.693337,-22.48535 q 2.944002,0 5.376004,1.06667 2.432002,1.024 4.181337,2.90133 1.749334,1.87734 2.688002,4.48001 0.981334,2.60267 0.981334,5.76 0,3.15734 -0.981334,5.80267 -0.938668,2.60267 -2.688002,4.48001 -1.749335,1.87733 -4.181337,2.944 -2.432002,1.024 -5.376004,1.024 H 25.150945 v -28.45869 z m 39.125333,5.67467 H 62.398944 v 5.16267 h 11.690675 v 5.97334 H 62.398944 v 5.37601 h 14.378677 v 6.272 H 55.870939 V 138.21494 H 75.49762 Z m 27.17866,2.60267 q -1.45067,-1.19467 -3.456005,-1.87733 -1.962669,-0.72534 -3.88267,-0.72534 -1.493334,0 -2.389335,0.64 -0.896001,0.64 -0.896001,1.664 0,0.76801 0.554667,1.23734 0.597334,0.46933 1.877335,0.768 l 3.242669,0.768 q 4.65067,1.06667 7.04001,3.456 2.38933,2.38934 2.38933,5.97334 0,2.00534 -0.85333,3.66934 -0.81067,1.664 -2.34667,2.85867 -1.49334,1.152 -3.584,1.792 -2.090673,0.68266 -4.608008,0.68266 -4.13867,0 -7.808006,-1.62133 -3.669336,-1.664 -6.058671,-4.608 l 5.674671,-4.13867 q 1.194667,1.83466 3.456002,2.90133 2.261335,1.06667 4.949337,1.06667 1.621335,0 2.602669,-0.72534 1.024001,-0.72533 1.024001,-1.92 0,-0.93866 -0.768001,-1.536 -0.725334,-0.59733 -2.346668,-1.06667 l -3.925336,-0.98133 q -1.621335,-0.46933 -2.688002,-0.85333 -1.066668,-0.384 -1.877335,-0.896 -1.706668,-1.10934 -2.688002,-2.90134 -0.938668,-1.792 -0.938668,-3.88267 0,-1.92 0.725334,-3.456 0.768001,-1.57867 2.090669,-2.688 1.365334,-1.10934 3.285335,-1.70667 1.920002,-0.59734 4.309337,-0.59734 7.168002,0 12.714672,4.77868 z m 31.95736,-2.304 h -8.27734 v 22.48535 h -6.52801 v -22.48535 h -8.23467 v -5.97334 h 23.04002 z m 11.52,22.48535 h -6.528 v -28.45869 h 6.528 z M 173.631,156.47629 v -18.26135 h 6.40001 v 28.45869 h -7.12534 l -12.07468,-18.04801 v 18.04801 h -6.4 v -28.45869 h 7.12534 z m 24.61869,-10.24001 -3.11467,9.94134 h 6.44267 z m 13.78134,20.43735 h -6.912 l -1.45067,-4.39467 h -10.45334 l -1.32267,4.39467 h -6.74134 l 8.91734,-28.45869 h 8.23467 z m 29.39733,-8.23467 q -1.74934,4.30933 -5.12001,6.656 -3.37067,2.304 -7.89334,2.304 -3.11467,0 -5.67467,-1.06666 -2.56,-1.10934 -4.43733,-3.07201 -1.83467,-1.96266 -2.85867,-4.69333 -1.024,-2.73067 -1.024,-6.05867 0,-3.20001 0.93866,-5.84534 0.93867,-2.688 2.81601,-4.65067 1.92,-2.048 4.56533,-3.11467 2.64534,-1.10934 5.58934,-1.10934 4.608,0 8.02134,2.34667 3.41333,2.34667 5.03467,6.61334 l -6.82667,2.432 q -0.68267,-2.304 -2.34667,-3.584 -1.62134,-1.28 -3.92534,-1.28 -1.536,0 -2.77333,0.59733 -1.23734,0.55467 -2.13334,1.664 -0.896,1.06667 -1.36533,2.60267 -0.46934,1.49334 -0.46934,3.37067 0,3.92534 1.83467,6.05867 0.896,1.06667 2.21867,1.664 1.36534,0.59734 2.816,0.59734 2.304,0 3.96801,-1.36534 1.70666,-1.408 2.176,-3.62666 z m 12.07466,8.23467 h -6.52801 v -28.45869 h 6.52801 z m 27.22135,-36.60803 -3.79734,6.65601 h -5.58933 l 2.38933,-6.65601 z m -6.61334,14.25068 q -1.49333,0 -2.816,0.64 -1.32267,0.64 -2.304,1.83467 -1.664,2.09067 -1.664,5.80267 0,1.92 0.384,3.328 0.42666,1.36534 1.28,2.47467 0.98133,1.19467 2.304,1.83467 1.32267,0.64 2.85867,0.64 1.49333,0 2.816,-0.64 1.32267,-0.64 2.304,-1.83467 1.664,-2.176 1.664,-5.67467 0,-2.048 -0.42666,-3.41334 -0.384,-1.408 -1.23734,-2.51733 -0.98133,-1.19467 -2.34667,-1.83467 -1.32266,-0.64 -2.816,-0.64 z m 0,-6.52801 q 3.11467,0 5.76001,1.10934 2.64533,1.10933 4.56533,3.24267 3.62667,3.92533 3.62667,10.66667 0,3.20001 -1.024,5.88801 -1.024,2.688 -2.85867,4.65067 -1.83467,1.92 -4.43733,2.98667 -2.56001,1.06666 -5.63201,1.06666 -3.11467,0 -5.67467,-1.06666 -2.56,-1.06667 -4.39467,-3.02934 -1.83467,-1.96267 -2.85867,-4.69334 -0.98133,-2.73066 -0.98133,-6.016 0,-3.28534 1.024,-6.01601 1.024,-2.73066 2.85867,-4.65067 1.83466,-1.96266 4.39467,-3.02933 2.56,-1.10934 5.632,-1.10934 z"
       id="text6487"
       style="font-size:42.6667px;line-height:25px;font-family:TrafficTypeW01-SpainD;-inkscape-font-specification:TrafficTypeW01-SpainD;letter-spacing:0px;word-spacing:0px;stroke-width:1px"
       aria-label="DESTINACIÓ" />
  </g>
</svg>
